<?xml version="1.0" encoding="utf-8"?>
<!-- Generator: Adobe Illustrator 24.0.1, SVG Export Plug-In . SVG Version: 6.00 Build 0)  -->
<svg version="1.1" id="Ebene_1" xmlns="http://www.w3.org/2000/svg" xmlns:xlink="http://www.w3.org/1999/xlink" x="0px" y="0px"
	 viewBox="0 0 555.9 300" style="enable-background:new 0 0 555.9 300;" xml:space="preserve">
<style type="text/css">
	.st0{clip-path:url(#SVGID_2_);fill:none;stroke:#B8B8B8;}
	.st1{clip-path:url(#SVGID_4_);}
	.st2{fill:#FFFFFF;}
	.st3{font-family:'HelveticaNeue';}
	.st4{font-size:10px;}
	.st5{clip-path:url(#SVGID_6_);}
	.st6{clip-path:url(#SVGID_8_);}
	.st7{clip-path:url(#SVGID_10_);}
	.st8{clip-path:url(#SVGID_12_);}
	.st9{clip-path:url(#SVGID_14_);fill:none;stroke:#000000;stroke-linecap:square;}
	.st10{clip-path:url(#SVGID_16_);}
	.st11{clip-path:url(#SVGID_18_);}
	.st12{clip-path:url(#SVGID_20_);}
	.st13{clip-path:url(#SVGID_22_);}
	.st14{clip-path:url(#SVGID_24_);}
	.st15{clip-path:url(#SVGID_26_);}
	.st16{clip-path:url(#SVGID_28_);fill:#FF2600;}
	.st17{clip-path:url(#SVGID_30_);fill:#F8BA00;}
	.st18{clip-path:url(#SVGID_32_);fill:#61D836;}
	.st19{clip-path:url(#SVGID_34_);fill:#00A2FF;}
	.st20{clip-path:url(#SVGID_36_);fill:#00A2FF;}
	.st21{clip-path:url(#SVGID_38_);}
	.st22{clip-path:url(#SVGID_40_);fill:#61D836;}
	.st23{clip-path:url(#SVGID_42_);}
	.st24{clip-path:url(#SVGID_44_);fill:#F8BA00;}
	.st25{clip-path:url(#SVGID_46_);}
	.st26{clip-path:url(#SVGID_48_);fill:#FF2600;}
	.st27{clip-path:url(#SVGID_50_);}
</style>
<g>
	<defs>
		<rect id="SVGID_1_" width="555.9" height="300"/>
	</defs>
	<clipPath id="SVGID_2_">
		<use xlink:href="#SVGID_1_"  style="overflow:visible;"/>
	</clipPath>
	<line class="st0" x1="55" y1="222.5" x2="539" y2="222.5"/>
	<line class="st0" x1="55" y1="160.5" x2="539" y2="160.5"/>
	<line class="st0" x1="55" y1="98.5" x2="539" y2="98.5"/>
	<line class="st0" x1="55" y1="37.5" x2="539" y2="37.5"/>
</g>
<g>
	<defs>
		<rect id="SVGID_3_" x="10.1" y="277.1" width="35.2" height="13.7"/>
	</defs>
	<clipPath id="SVGID_4_">
		<use xlink:href="#SVGID_3_"  style="overflow:visible;"/>
	</clipPath>
	<g class="st1">
		<text transform="matrix(1 0 0 1 11.62 287.6851)" class="st2 st3 st4">0,00</text>
	</g>
	<g class="st1">
		<text transform="matrix(1 0 0 1 33.8602 287.6851)" class="st2 st3 st4">%</text>
	</g>
</g>
<g>
	<defs>
		<rect id="SVGID_5_" x="4.6" y="215.4" width="40.8" height="13.7"/>
	</defs>
	<clipPath id="SVGID_6_">
		<use xlink:href="#SVGID_5_"  style="overflow:visible;"/>
	</clipPath>
	<g class="st5">
		<text transform="matrix(1 0 0 1 6.06 225.9723)" class="st2 st3 st4">25,00</text>
	</g>
	<g class="st5">
		<text transform="matrix(1 0 0 1 33.8598 225.9723)" class="st2 st3 st4">%</text>
	</g>
</g>
<g>
	<defs>
		<rect id="SVGID_7_" x="4.6" y="153.7" width="40.8" height="13.7"/>
	</defs>
	<clipPath id="SVGID_8_">
		<use xlink:href="#SVGID_7_"  style="overflow:visible;"/>
	</clipPath>
	<g class="st6">
		<text transform="matrix(1 0 0 1 6.06 164.2595)" class="st2 st3 st4">50,00</text>
	</g>
	<g class="st6">
		<text transform="matrix(1 0 0 1 33.8598 164.2595)" class="st2 st3 st4">%</text>
	</g>
</g>
<g>
	<defs>
		<rect id="SVGID_9_" x="4.6" y="92" width="40.8" height="13.7"/>
	</defs>
	<clipPath id="SVGID_10_">
		<use xlink:href="#SVGID_9_"  style="overflow:visible;"/>
	</clipPath>
	<g class="st7">
		<text transform="matrix(1 0 0 1 6.06 102.5468)" class="st2 st3 st4">75,00</text>
	</g>
	<g class="st7">
		<text transform="matrix(1 0 0 1 33.8598 102.5468)" class="st2 st3 st4">%</text>
	</g>
</g>
<g>
	<defs>
		<rect id="SVGID_11_" y="30.2" width="45.4" height="13.7"/>
	</defs>
	<clipPath id="SVGID_12_">
		<use xlink:href="#SVGID_11_"  style="overflow:visible;"/>
	</clipPath>
	<g class="st8">
		<text transform="matrix(1 0 0 1 0.5 40.834)" class="st2 st3 st4">100,00</text>
	</g>
	<g class="st8">
		<text transform="matrix(1 0 0 1 33.8599 40.834)" class="st2 st3 st4">%</text>
	</g>
</g>
<g>
	<defs>
		<rect id="SVGID_13_" width="555.9" height="300"/>
	</defs>
	<clipPath id="SVGID_14_">
		<use xlink:href="#SVGID_13_"  style="overflow:visible;"/>
	</clipPath>
	<line class="st9" x1="55.5" y1="283.5" x2="538.5" y2="283.5"/>
</g>
<g>
	<defs>
		<rect id="SVGID_15_" x="50.9" y="287.3" width="8.6" height="12.7"/>
	</defs>
	<clipPath id="SVGID_16_">
		<use xlink:href="#SVGID_15_"  style="overflow:visible;"/>
	</clipPath>
	<g class="st10">
		<text transform="matrix(1 0 0 1 52.405 297.87)" class="st2 st3 st4">1</text>
	</g>
</g>
<g>
	<defs>
		<rect id="SVGID_17_" x="144.8" y="287.3" width="14.1" height="12.7"/>
	</defs>
	<clipPath id="SVGID_18_">
		<use xlink:href="#SVGID_17_"  style="overflow:visible;"/>
	</clipPath>
	<g class="st11">
		<text transform="matrix(1 0 0 1 146.3331 297.87)" class="st2 st3 st4">10</text>
	</g>
</g>
<g>
	<defs>
		<rect id="SVGID_19_" x="238.8" y="287.3" width="19.7" height="12.7"/>
	</defs>
	<clipPath id="SVGID_20_">
		<use xlink:href="#SVGID_19_"  style="overflow:visible;"/>
	</clipPath>
	<g class="st12">
		<text transform="matrix(1 0 0 1 240.2611 297.87)" class="st2 st3 st4">100</text>
	</g>
</g>
<g>
	<defs>
		<rect id="SVGID_21_" x="332.7" y="287.3" width="25.2" height="12.7"/>
	</defs>
	<clipPath id="SVGID_22_">
		<use xlink:href="#SVGID_21_"  style="overflow:visible;"/>
	</clipPath>
	<g class="st13">
		<text transform="matrix(1 0 0 1 334.1892 297.87)" class="st2 st3 st4">1000</text>
	</g>
</g>
<g>
	<defs>
		<rect id="SVGID_23_" x="426.6" y="287.3" width="30.8" height="12.7"/>
	</defs>
	<clipPath id="SVGID_24_">
		<use xlink:href="#SVGID_23_"  style="overflow:visible;"/>
	</clipPath>
	<g class="st14">
		<text transform="matrix(1 0 0 1 428.1173 297.87)" class="st2 st3 st4">10000</text>
	</g>
</g>
<g>
	<defs>
		<rect id="SVGID_25_" x="520.5" y="287.3" width="35.4" height="12.7"/>
	</defs>
	<clipPath id="SVGID_26_">
		<use xlink:href="#SVGID_25_"  style="overflow:visible;"/>
	</clipPath>
	<g class="st15">
		<text transform="matrix(1 0 0 1 522.0454 297.87)" class="st2 st3 st4">100000</text>
	</g>
</g>
<g>
	<defs>
		<rect id="SVGID_27_" x="55" y="37.1" width="484" height="161"/>
	</defs>
	<clipPath id="SVGID_28_">
		<use xlink:href="#SVGID_27_"  style="overflow:visible;"/>
	</clipPath>
	<polyline class="st16" points="55,38.9 151.8,37.1 248.6,37.1 345.4,37.1 442.2,37.1 539,37.1 539,198.1 442.2,156.1 345.4,87.8 
		248.6,55.7 151.8,42.5 55,40 	"/>
</g>
<g>
	<defs>
		<rect id="SVGID_29_" x="55" y="39.5" width="484" height="211.2"/>
	</defs>
	<clipPath id="SVGID_30_">
		<use xlink:href="#SVGID_29_"  style="overflow:visible;"/>
	</clipPath>
	<polyline class="st17" points="55,39.5 151.8,42 248.6,55.2 345.4,87.3 442.2,155.6 539,197.6 539,250.7 442.2,214.9 345.4,131.4 
		248.6,84.9 151.8,56.5 55,42.5 	"/>
</g>
<g>
	<defs>
		<rect id="SVGID_31_" x="55" y="42" width="484" height="242"/>
	</defs>
	<clipPath id="SVGID_32_">
		<use xlink:href="#SVGID_31_"  style="overflow:visible;"/>
	</clipPath>
	<polyline class="st18" points="55,42 151.8,56 248.6,84.4 345.4,130.9 442.2,214.4 539,250.2 539,283.5 442.2,284.1 345.4,281.4 
		248.6,269.5 151.8,257.1 55,247.8 	"/>
</g>
<g>
	<defs>
		<rect id="SVGID_33_" x="55" y="247.3" width="484" height="36.7"/>
	</defs>
	<clipPath id="SVGID_34_">
		<use xlink:href="#SVGID_33_"  style="overflow:visible;"/>
	</clipPath>
	<polyline class="st19" points="55,247.3 151.8,256.6 248.6,269 345.4,280.9 442.2,283.6 539,284 55,284 55,247.3 	"/>
</g>
<g>
	<defs>
		<rect id="SVGID_35_" x="83" y="1" width="9" height="10"/>
	</defs>
	<clipPath id="SVGID_36_">
		<use xlink:href="#SVGID_35_"  style="overflow:visible;"/>
	</clipPath>
	<rect x="83" y="1" class="st20" width="9" height="10"/>
</g>
<g>
	<defs>
		<rect id="SVGID_37_" width="555.9" height="300"/>
	</defs>
	<clipPath id="SVGID_38_">
		<use xlink:href="#SVGID_37_"  style="overflow:visible;"/>
	</clipPath>
	<g class="st21">
		<text transform="matrix(1 0 0 1 109.7087 9.59)" class="st2 st3 st4">Früher        </text>
	</g>
</g>
<g>
	<defs>
		<rect id="SVGID_39_" x="193" y="1" width="10" height="10"/>
	</defs>
	<clipPath id="SVGID_40_">
		<use xlink:href="#SVGID_39_"  style="overflow:visible;"/>
	</clipPath>
	<rect x="193" y="1" class="st22" width="10" height="10"/>
</g>
<g>
	<defs>
		<rect id="SVGID_41_" width="555.9" height="300"/>
	</defs>
	<clipPath id="SVGID_42_">
		<use xlink:href="#SVGID_41_"  style="overflow:visible;"/>
	</clipPath>
	<g class="st23">
		<text transform="matrix(1 0 0 1 215.7356 9.59)" class="st2 st3 st4">Pünktlich     </text>
	</g>
</g>
<g>
	<defs>
		<rect id="SVGID_43_" x="307" y="1" width="10" height="10"/>
	</defs>
	<clipPath id="SVGID_44_">
		<use xlink:href="#SVGID_43_"  style="overflow:visible;"/>
	</clipPath>
	<rect x="307" y="1" class="st24" width="10" height="10"/>
</g>
<g>
	<defs>
		<rect id="SVGID_45_" width="555.9" height="300"/>
	</defs>
	<clipPath id="SVGID_46_">
		<use xlink:href="#SVGID_45_"  style="overflow:visible;"/>
	</clipPath>
	<g class="st25">
		<text transform="matrix(1 0 0 1 334.1826 9.59)" class="st2 st3 st4">Später        </text>
	</g>
</g>
<g>
	<defs>
		<rect id="SVGID_47_" x="418" y="1" width="10" height="10"/>
	</defs>
	<clipPath id="SVGID_48_">
		<use xlink:href="#SVGID_47_"  style="overflow:visible;"/>
	</clipPath>
	<rect x="418" y="1" class="st26" width="10" height="10"/>
</g>
<g>
	<defs>
		<rect id="SVGID_49_" width="555.9" height="300"/>
	</defs>
	<clipPath id="SVGID_50_">
		<use xlink:href="#SVGID_49_"  style="overflow:visible;"/>
	</clipPath>
	<g class="st27">
		<text transform="matrix(1 0 0 1 435.3896 9.59)"><tspan x="0" y="0" class="st2 st3 st4">Abgeb</tspan><tspan x="29.4" y="0" class="st2 st3 st4">r</tspan><tspan x="32.6" y="0" class="st2 st3 st4">ochen </tspan></text>
	</g>
</g>
</svg>
