<?xml version="1.0" encoding="utf-8"?>
<!-- Generator: Adobe Illustrator 26.0.1, SVG Export Plug-In . SVG Version: 6.00 Build 0)  -->
<svg version="1.1" id="Ebene_1" xmlns="http://www.w3.org/2000/svg" xmlns:xlink="http://www.w3.org/1999/xlink" x="0px" y="0px"
	 viewBox="0 0 474.2 299.1" style="enable-background:new 0 0 474.2 299.1;" xml:space="preserve">
<style type="text/css">
	.st0{fill:none;stroke:#CCCBCB;stroke-width:2.8341;stroke-linecap:round;stroke-linejoin:round;stroke-miterlimit:10;}
	.st1{fill:none;stroke:#CCCBCB;stroke-width:1.0996;stroke-miterlimit:10;}
	.st2{fill:#0C0D0D;}
	.st3{fill:none;stroke:#E7E7E7;stroke-width:0.7085;}
	.st4{fill:#CCCBCB;}
	.st5{font-family:'OpenSans-Bold';}
	.st6{font-size:17.0046px;}
</style>
<path d="M349.5,5.6v37.2c0,2.8-2.3,5-5,5h-171c-2.8,0-5-2.3-5-5V5.6c0-2.8,2.3-5,5-5h171C347.3,0.5,349.5,2.8,349.5,5.6z"/>
<path d="M214.9,256.3v37.2c0,2.8-2.3,5-5,5H6.3c-2.8,0-5-2.3-5-5v-37.2c0-2.8,2.3-5,5-5h203.6C212.7,251.3,214.9,253.6,214.9,256.3z
	"/>
<path d="M474.2,256.3v37.2c0,2.8-2.3,5-5,5h-103c-2.8,0-5-2.3-5-5v-37.2c0-2.8,2.3-5,5-5h103C472,251.3,474.2,253.6,474.2,256.3z"/>
<path d="M349.5,5.6v37.2c0,2.8-2.3,5-5,5h-171c-2.8,0-5-2.3-5-5V5.6c0-2.8,2.3-5,5-5h171C347.3,0.5,349.5,2.8,349.5,5.6z"/>
<path d="M214.9,256.3v37.2c0,2.8-2.3,5-5,5H6.3c-2.8,0-5-2.3-5-5v-37.2c0-2.8,2.3-5,5-5h203.6C212.7,251.3,214.9,253.6,214.9,256.3z
	"/>
<path d="M474.2,256.3v37.2c0,2.8-2.3,5-5,5h-103c-2.8,0-5-2.3-5-5v-37.2c0-2.8,2.3-5,5-5h103C472,251.3,474.2,253.6,474.2,256.3z"/>
<path d="M328.3,98.7V136c0,2.8-2.3,5-5,5H194.7c-2.8,0-5-2.3-5-5V98.7c0-2.8,2.3-5,5-5h128.5C326,93.7,328.3,96,328.3,98.7z"/>
<g>
	<g>
		<g>
			<line class="st0" x1="258.3" y1="90" x2="253" y2="82.7"/>
			<line class="st0" x1="258.3" y1="90" x2="263.6" y2="82.7"/>
		</g>
		<g>
			<line class="st0" x1="258.3" y1="53.7" x2="258.3" y2="88.9"/>
			<g>
				<line class="st0" x1="258.3" y1="52.1" x2="263.6" y2="59.4"/>
				<line class="st0" x1="258.3" y1="52.1" x2="253" y2="59.4"/>
			</g>
		</g>
	</g>
	<g>
		<g>
			<path class="st1" d="M348.9,5.6v37.2c0,2.8-2.3,5-5,5h-171c-2.8,0-5-2.3-5-5V5.6c0-2.8,2.3-5,5-5h171
				C346.6,0.5,348.9,2.8,348.9,5.6z"/>
			<g>
				<rect x="317.6" y="9.6" class="st2" width="21.3" height="14.2"/>
				<rect x="317.6" y="9.6" class="st3" width="21.3" height="14.2"/>
				<rect x="314.7" y="12.4" class="st2" width="5.7" height="2.8"/>
				<rect x="314.7" y="12.4" class="st3" width="5.7" height="2.8"/>
				<rect x="314.7" y="18.1" class="st2" width="5.7" height="2.8"/>
				<rect x="314.7" y="18.1" class="st3" width="5.7" height="2.8"/>
			</g>
		</g>
		<g>
			<text transform="matrix(1 0 0 1 188.7557 26.149)" class="st4 st5 st6">GUI Interface</text>
		</g>
	</g>
	<g>
		<g>
			<g>
				<path class="st1" d="M214.3,256.3v37.2c0,2.8-2.3,5-5,5H5.6c-2.8,0-5-2.3-5-5v-37.2c0-2.8,2.3-5,5-5h203.6
					C212,251.3,214.3,253.6,214.3,256.3z"/>
				<g>
					<rect x="183" y="260.3" class="st2" width="21.3" height="14.2"/>
					<rect x="183" y="260.3" class="st3" width="21.3" height="14.2"/>
					<rect x="180.1" y="263.2" class="st2" width="5.7" height="2.8"/>
					<rect x="180.1" y="263.2" class="st3" width="5.7" height="2.8"/>
					<rect x="180.1" y="268.8" class="st2" width="5.7" height="2.8"/>
					<rect x="180.1" y="268.8" class="st3" width="5.7" height="2.8"/>
				</g>
			</g>
			<g>
				<text transform="matrix(1 0 0 1 20.3274 276.9063)" class="st4 st5 st6">System Interface</text>
			</g>
		</g>
		<g>
			<g>
				<path class="st1" d="M473.5,256.3v37.2c0,2.8-2.3,5-5,5h-103c-2.8,0-5-2.3-5-5v-37.2c0-2.8,2.3-5,5-5h103
					C471.3,251.3,473.5,253.6,473.5,256.3z"/>
				<g>
					<rect x="442.3" y="260.3" class="st2" width="21.3" height="14.2"/>
					<rect x="442.3" y="260.3" class="st3" width="21.3" height="14.2"/>
					<rect x="439.4" y="263.2" class="st2" width="5.7" height="2.8"/>
					<rect x="439.4" y="263.2" class="st3" width="5.7" height="2.8"/>
					<rect x="439.4" y="268.8" class="st2" width="5.7" height="2.8"/>
					<rect x="439.4" y="268.8" class="st3" width="5.7" height="2.8"/>
				</g>
			</g>
			<g>
				<text transform="matrix(1 0 0 1 374.4344 276.9063)" class="st4 st5 st6">Entity</text>
			</g>
		</g>
	</g>
	<g>
		<g>
			<path class="st1" d="M327.6,98.7V136c0,2.8-2.3,5-5,5H194c-2.8,0-5-2.3-5-5V98.7c0-2.8,2.3-5,5-5h128.5
				C325.4,93.7,327.6,96,327.6,98.7z"/>
			<path class="st1" d="M348.9,5.6v37.2c0,2.8-2.3,5-5,5h-171c-2.8,0-5-2.3-5-5V5.6c0-2.8,2.3-5,5-5h171
				C346.6,0.5,348.9,2.8,348.9,5.6z"/>
			<path class="st1" d="M214.3,256.3v37.2c0,2.8-2.3,5-5,5H5.6c-2.8,0-5-2.3-5-5v-37.2c0-2.8,2.3-5,5-5h203.6
				C212,251.3,214.3,253.6,214.3,256.3z"/>
			<path class="st1" d="M473.5,256.3v37.2c0,2.8-2.3,5-5,5h-103c-2.8,0-5-2.3-5-5v-37.2c0-2.8,2.3-5,5-5h103
				C471.3,251.3,473.5,253.6,473.5,256.3z"/>
			<path class="st1" d="M327.6,98.7V136c0,2.8-2.3,5-5,5H194c-2.8,0-5-2.3-5-5V98.7c0-2.8,2.3-5,5-5h128.5
				C325.4,93.7,327.6,96,327.6,98.7z"/>
			<g>
				<rect x="296.3" y="102.7" class="st2" width="21.3" height="14.2"/>
				<rect x="296.3" y="102.7" class="st3" width="21.3" height="14.2"/>
				<rect x="293.5" y="105.6" class="st2" width="5.7" height="2.8"/>
				<rect x="293.5" y="105.6" class="st3" width="5.7" height="2.8"/>
				<rect x="293.5" y="111.2" class="st2" width="5.7" height="2.8"/>
				<rect x="293.5" y="111.2" class="st3" width="5.7" height="2.8"/>
			</g>
		</g>
		<g>
			<text transform="matrix(1 0 0 1 210.011 119.3087)" class="st4 st5 st6">Control</text>
		</g>
	</g>
	<g>
		<line class="st0" x1="98.7" y1="117.9" x2="182.9" y2="117.9"/>
		<line class="st0" x1="98.7" y1="117.9" x2="98.7" y2="246.6"/>
		<line class="st0" x1="98.7" y1="247.6" x2="93.4" y2="240.3"/>
		<line class="st0" x1="98.7" y1="247.6" x2="104" y2="240.3"/>
		<line class="st0" x1="184.5" y1="117.9" x2="177.2" y2="123.1"/>
		<line class="st0" x1="184.5" y1="117.9" x2="177.2" y2="112.6"/>
	</g>
	<g>
		<line class="st0" x1="415.5" y1="117.9" x2="331.2" y2="117.9"/>
		<line class="st0" x1="415.5" y1="117.9" x2="415.5" y2="246.6"/>
		<line class="st0" x1="415.5" y1="247.6" x2="420.8" y2="240.3"/>
		<line class="st0" x1="415.5" y1="247.6" x2="410.2" y2="240.3"/>
		<line class="st0" x1="329.6" y1="117.9" x2="336.9" y2="123.1"/>
		<line class="st0" x1="329.6" y1="117.9" x2="336.9" y2="112.6"/>
	</g>
</g>
</svg>
