<?xml version="1.0" encoding="utf-8"?>
<!-- Generator: Adobe Illustrator 24.0.1, SVG Export Plug-In . SVG Version: 6.00 Build 0)  -->
<svg version="1.1"
	 id="svg2" xmlns:cc="http://creativecommons.org/ns#" xmlns:dc="http://purl.org/dc/elements/1.1/" xmlns:rdf="http://www.w3.org/1999/02/22-rdf-syntax-ns#" xmlns:svg="http://www.w3.org/2000/svg"
	 xmlns="http://www.w3.org/2000/svg" xmlns:xlink="http://www.w3.org/1999/xlink" x="0px" y="0px" viewBox="0 0 534.7 534.7"
	 style="enable-background:new 0 0 534.7 534.7;" xml:space="preserve">
<style type="text/css">
	.st0{clip-path:url(#SVGID_2_);}
	.st1{fill:none;stroke:#000000;stroke-width:1.3333;stroke-linecap:round;stroke-linejoin:round;stroke-miterlimit:13.3333;}
	.st2{fill:none;stroke:#FFFFFF;stroke-width:1.3333;stroke-linecap:round;stroke-linejoin:round;stroke-miterlimit:13.3333;}
	.st3{fill:#FFFFFF;}
	.st4{font-family:'SourceSansPro-Regular';}
	.st5{font-size:21.3333px;}
</style>
<g id="g10" transform="matrix(1.3333333,0,0,-1.3333333,0,534.66667)">
	<g id="g12">
	</g>
	<g id="g14">
		<g>
			<defs>
				<rect id="SVGID_1_" x="-66.8" y="-66.8" width="534.7" height="534.7"/>
			</defs>
			<clipPath id="SVGID_2_">
				<use xlink:href="#SVGID_1_"  style="overflow:visible;"/>
			</clipPath>
			<g id="g16" class="st0">
				<path id="path22" d="M0,0h401v401H0V0z"/>
				<path id="path24" d="M0,401h401V0H0V401z"/>
				<g id="g26" transform="matrix(1,0,0,-1,18,465)">
					<path id="path28" class="st1" d="M327.7,113l-301,301"/>
				</g>
				<g id="g30" transform="matrix(1,0,0,-1,18,465)">
					<path id="path32" class="st1" d="M31,113l301,301"/>
				</g>
				<g id="g34" transform="matrix(1,0,0,-1,18,465)">
					<path id="path36" class="st2" d="M323.9,405.9c78.1-78.1,78.1-204.7,0-282.8C245.8,45,119.2,45,41.1,123.1
						c-78.1,78.1-78.1,204.7,0,282.8C119.2,484,245.8,484,323.9,405.9"/>
				</g>
				<g id="g38" transform="matrix(1,0,0,-1,18,465)">
					<path id="path40" class="st2" d="M288.6,366.1c58.6-58.6,58.6-153.6,0-212.1C230,95.4,135,95.4,76.4,153.9
						c-58.6,58.6-58.6,153.6,0,212.1C135,424.6,230,424.6,288.6,366.1"/>
				</g>
				<g id="g42" transform="matrix(1,0,0,-1,18,465)">
					<path id="path44" class="st2" d="M253.2,330.7c39.1-39.1,39.1-102.4,0-141.4c-39.1-39.1-102.4-39.1-141.4,0
						c-39.1,39.1-39.1,102.4,0,141.4C150.8,369.8,214.2,369.8,253.2,330.7"/>
				</g>
				<g id="g46" transform="matrix(1,0,0,-1,18,465)">
					<path id="path48" class="st2" d="M217.9,295.4c19.5-19.5,19.5-51.2,0-70.7c-19.5-19.5-51.2-19.5-70.7,0
						c-19.5,19.5-19.5,51.2,0,70.7C166.7,314.9,198.3,314.9,217.9,295.4"/>
				</g>
				<g id="g50" transform="matrix(1,0,0,-1,200.5,205)">
					<text transform="matrix(0.75 0 0 0.75 -25.2556 5.9998)" class="st3 st4 st5">E</text>
					<text transform="matrix(0.75 0 0 0.75 -16.8239 5.9998)" class="st3 st4 st5">n</text>
					<text transform="matrix(0.75 0 0 0.75 -8.0715 5.9998)" class="st3 st4 st5">t</text>
					<text transform="matrix(0.75 0 0 0.75 -2.6636 5.9998)" class="st3 st4 st5">i</text>
					<text transform="matrix(0.75 0 0 0.75 1.272 5.9998)" class="st3 st4 st5">t</text>
					<text transform="matrix(0.75 0 0 0.75 6.6802 5.9998)" class="st3 st4 st5">i</text>
					<text transform="matrix(0.75 0 0 0.75 10.6163 5.9998)" class="st3 st4 st5">e</text>
					<text transform="matrix(0.75 0 0 0.75 18.5521 5.9998)" class="st3 st4 st5">s</text>
				</g>
				<g id="g56" transform="matrix(1,0,0,-1,200.5,276.5)">
					<text transform="matrix(0.75 0 0 0.75 -33.3195 6)" class="st3 st4 st5">U</text>
					<text transform="matrix(0.75 0 0 0.75 -23.0638 6)" class="st3 st4 st5">s</text>
					<text transform="matrix(0.75 0 0 0.75 -16.3596 6)" class="st3 st4 st5">e</text>
					<text transform="matrix(0.75 0 0 0.75 -8.4238 6)" class="st3 st4 st5"> </text>
					<text transform="matrix(0.75 0 0 0.75 -5.2238 6)" class="st3 st4 st5">C</text>
					<text transform="matrix(0.75 0 0 0.75 3.9124 6)" class="st3 st4 st5">a</text>
					<text transform="matrix(0.75 0 0 0.75 11.9764 6)" class="st3 st4 st5">s</text>
					<text transform="matrix(0.75 0 0 0.75 18.6802 6)" class="st3 st4 st5">e</text>
					<text transform="matrix(0.75 0 0 0.75 26.616 6)" class="st3 st4 st5">s</text>
				</g>
				<g id="g62" transform="matrix(1,0,0,-1,200.5,329)">
					<text transform="matrix(0.75 0 0 0.75 -37.1596 6)" class="st3 st4 st5">C</text>
					<text transform="matrix(0.75 0 0 0.75 -28.0238 6)" class="st3 st4 st5">o</text>
					<text transform="matrix(0.75 0 0 0.75 -19.3515 6)" class="st3 st4 st5">n</text>
					<text transform="matrix(0.75 0 0 0.75 -10.5998 6)" class="st3 st4 st5">t</text>
					<text transform="matrix(0.75 0 0 0.75 -5.1916 6)" class="st3 st4 st5">r</text>
					<text transform="matrix(0.75 0 0 0.75 0.2005 6)" class="st3 st4 st5">o</text>
					<text transform="matrix(0.75 0 0 0.75 8.8724 6)" class="st3 st4 st5">l</text>
					<text transform="matrix(0.75 0 0 0.75 12.9523 6)" class="st3 st4 st5">l</text>
					<text transform="matrix(0.75 0 0 0.75 17.0323 6)" class="st3 st4 st5">e</text>
					<text transform="matrix(0.75 0 0 0.75 24.9681 6)" class="st3 st4 st5">r</text>
					<text transform="matrix(0.75 0 0 0.75 30.4561 6)" class="st3 st4 st5">s</text>
				</g>
				<g id="g68" transform="matrix(0.7071068,-0.7071068,-0.7071068,-0.7071068,114.4767,118.5233)">
					<text transform="matrix(0.75 0 0 0.75 -32.2396 6.0003)" class="st3 st4 st5">G</text>
					<text transform="matrix(0.75 0 0 0.75 -22.3673 5.9995)" class="st3 st4 st5">a</text>
					<text transform="matrix(0.75 0 0 0.75 -14.5275 5.9995)" class="st3 st4 st5">t</text>
					<text transform="matrix(0.75 0 0 0.75 -9.3434 5.9995)" class="st3 st4 st5">e</text>
					<text transform="matrix(0.75 0 0 0.75 -1.3278 5.9995)" class="st3 st4 st5">w</text>
					<text transform="matrix(0.75 0 0 0.75 10.0006 6.0003)" class="st3 st4 st5">a</text>
					<text transform="matrix(0.75 0 0 0.75 18.0638 6.0003)" class="st3 st4 st5">y</text>
					<text transform="matrix(0.75 0 0 0.75 25.536 6.0003)" class="st3 st4 st5">s</text>
				</g>
				<g id="g74" transform="matrix(0.7071068,0.7071068,0.7071068,-0.7071068,283.4515,116.0485)">
					<text transform="matrix(0.75 0 0 0.75 -35.5433 6.0004)" class="st3 st4 st5">P</text>
					<text transform="matrix(0.75 0 0 0.75 -26.4877 6.0004)" class="st3 st4 st5">r</text>
					<text transform="matrix(0.75 0 0 0.75 -21.0956 6.0004)" class="st3 st4 st5">e</text>
					<text transform="matrix(0.75 0 0 0.75 -13.1598 6.0004)" class="st3 st4 st5">s</text>
					<text transform="matrix(0.75 0 0 0.75 -6.4559 6.0004)" class="st3 st4 st5">e</text>
					<text transform="matrix(0.75 0 0 0.75 1.4806 6.0004)" class="st3 st4 st5">n</text>
					<text transform="matrix(0.75 0 0 0.75 10.2323 6.0004)" class="st3 st4 st5">t</text>
					<text transform="matrix(0.75 0 0 0.75 15.4164 6.0004)" class="st3 st4 st5">e</text>
					<text transform="matrix(0.75 0 0 0.75 23.3529 6.0004)" class="st3 st4 st5">r</text>
					<text transform="matrix(0.75 0 0 0.75 28.8409 6.0004)" class="st3 st4 st5">s</text>
				</g>
				<g id="g80" transform="matrix(1,0,0,-1,200.5,31)">
					<text transform="matrix(0.75 0 0 0.75 -61.5515 5.9998)" class="st3 st4 st5">E</text>
					<text transform="matrix(0.75 0 0 0.75 -53.6157 5.9998)" class="st3 st4 st5">x</text>
					<text transform="matrix(0.75 0 0 0.75 -46.8635 5.9998)" class="st3 st4 st5">t</text>
					<text transform="matrix(0.75 0 0 0.75 -41.6798 5.9998)" class="st3 st4 st5">e</text>
					<text transform="matrix(0.75 0 0 0.75 -33.7436 5.9998)" class="st3 st4 st5">r</text>
					<text transform="matrix(0.75 0 0 0.75 -28.1919 5.9998)" class="st3 st4 st5">n</text>
					<text transform="matrix(0.75 0 0 0.75 -19.4398 5.9998)" class="st3 st4 st5">a</text>
					<text transform="matrix(0.75 0 0 0.75 -11.3758 5.9998)" class="st3 st4 st5">l</text>
					<text transform="matrix(0.75 0 0 0.75 -7.2959 5.9998)" class="st3 st4 st5"> </text>
					<text transform="matrix(0.75 0 0 0.75 -4.0959 5.9998)" class="st3 st4 st5">I</text>
					<text transform="matrix(0.75 0 0 0.75 0.1122 5.9998)" class="st3 st4 st5">n</text>
					<text transform="matrix(0.75 0 0 0.75 8.8643 5.9998)" class="st3 st4 st5">t</text>
					<text transform="matrix(0.75 0 0 0.75 14.0484 5.9998)" class="st3 st4 st5">e</text>
					<text transform="matrix(0.75 0 0 0.75 21.9842 5.9998)" class="st3 st4 st5">r</text>
					<text transform="matrix(0.75 0 0 0.75 27.5367 5.9998)" class="st3 st4 st5">f</text>
					<text transform="matrix(0.75 0 0 0.75 31.8887 5.9998)" class="st3 st4 st5">a</text>
					<text transform="matrix(0.75 0 0 0.75 39.9527 5.9998)" class="st3 st4 st5">c</text>
					<text transform="matrix(0.75 0 0 0.75 46.9122 5.9998)" class="st3 st4 st5">e</text>
					<text transform="matrix(0.75 0 0 0.75 54.8487 5.9998)" class="st3 st4 st5">s</text>
				</g>
				<g id="g86" transform="matrix(0.7071068,0.7071068,0.7071068,-0.7071068,71.97309,326.4731)">
					<text transform="matrix(0.75 0 0 0.75 -25.4312 6)" class="st3 st4 st5">D</text>
					<text transform="matrix(0.75 0 0 0.75 -15.5919 6)" class="st3 st4 st5">e</text>
					<text transform="matrix(0.75 0 0 0.75 -7.5755 6)" class="st3 st4 st5">v</text>
					<text transform="matrix(0.75 0 0 0.75 -0.1034 6)" class="st3 st4 st5">i</text>
					<text transform="matrix(0.75 0 0 0.75 3.8327 6)" class="st3 st4 st5">c</text>
					<text transform="matrix(0.75 0 0 0.75 10.7929 6)" class="st3 st4 st5">e</text>
					<text transform="matrix(0.75 0 0 0.75 18.7287 6)" class="st3 st4 st5">s</text>
				</g>
				<g id="g92" transform="matrix(0.7071068,0.7071068,0.7071068,-0.7071068,322.9056,78.1194)">
					<text transform="matrix(0.75 0 0 0.75 -7.2633 6)" class="st3 st4 st5">U</text>
					<text transform="matrix(0.75 0 0 0.75 3.0565 6)" class="st3 st4 st5">I</text>
				</g>
				<g id="g98" transform="matrix(0.7071068,-0.7071068,-0.7071068,-0.7071068,320.6023,329)">
					<text transform="matrix(0.75 0 0 0.75 -14.68 6.0002)" class="st3 st4 st5">W</text>
					<text transform="matrix(0.75 0 0 0.75 -2.1036 6.0002)" class="st3 st4 st5">e</text>
					<text transform="matrix(0.75 0 0 0.75 5.8322 6.0002)" class="st3 st4 st5">b</text>
				</g>
				<g id="g104" transform="matrix(0.7071068,-0.7071068,-0.7071068,-0.7071068,74.93324,80.56676)">
					<text transform="matrix(0.75 0 0 0.75 -9.6239 6)" class="st3 st4 st5">D</text>
					<text transform="matrix(0.75 0 0 0.75 0.2162 6)" class="st3 st4 st5">B</text>
				</g>
			</g>
		</g>
	</g>
</g>
</svg>
