<?xml version="1.0" encoding="utf-8"?>
<!-- Generator: Adobe Illustrator 26.0.1, SVG Export Plug-In . SVG Version: 6.00 Build 0)  -->
<svg version="1.1" id="Ebene_1" xmlns="http://www.w3.org/2000/svg" xmlns:xlink="http://www.w3.org/1999/xlink" x="0px" y="0px"
	 viewBox="0 0 567.7 222.5" style="enable-background:new 0 0 567.7 222.5;" xml:space="preserve">
<style type="text/css">
	.st0{stroke:#CCCBCB;stroke-width:1.0996;stroke-miterlimit:10;}
	.st1{fill:#CCCBCB;}
	.st2{font-family:'OpenSans-Bold';}
	.st3{font-size:17.0046px;}
	.st4{fill:none;stroke:#CCCBCB;stroke-width:2.8341;stroke-linecap:round;stroke-linejoin:round;stroke-miterlimit:10;}
</style>
<g>
	<g>
		<g>
			<g>
				<path class="st0" d="M124.3,60.3v30.1c0,2.8-2.3,5-5,5h-103c-2.8,0-5-2.3-5-5V60.3c0-2.8,2.3-5,5-5h103
					C122,55.2,124.3,57.5,124.3,60.3z"/>
			</g>
		</g>
		<g>
			<g>
				<path class="st0" d="M119.3,56v34.4c0,2.8-2.3,5-5,5h-103c-2.8,0-5-2.3-5-5V56c0-2.8,2.3-5,5-5h103
					C117.1,51,119.3,53.2,119.3,56z"/>
			</g>
		</g>
	</g>
	<g>
		<g>
			<path class="st0" d="M113.7,53.2v37.2c0,2.8-2.3,5-5,5H5.6c-2.8,0-5-2.3-5-5V53.2c0-2.8,2.3-5,5-5h103
				C111.4,48.1,113.7,50.4,113.7,53.2z"/>
		</g>
		<g>
			<text transform="matrix(1 0 0 1 33.8757 73.7419)" class="st1 st2 st3">Views</text>
		</g>
	</g>
	<g>
		<g>
			<g>
				<path class="st0" d="M423,60.3v30.1c0,2.8-2.3,5-5,5H315c-2.8,0-5-2.3-5-5V60.3c0-2.8,2.3-5,5-5h103
					C420.8,55.2,423,57.5,423,60.3z"/>
			</g>
		</g>
		<g>
			<g>
				<path class="st0" d="M418.1,56v34.4c0,2.8-2.3,5-5,5H310c-2.8,0-5-2.3-5-5V56c0-2.8,2.3-5,5-5h103C415.8,51,418.1,53.2,418.1,56
					z"/>
			</g>
		</g>
	</g>
	<path class="st0" d="M412.4,53.2v37.2c0,2.8-2.3,5-5,5h-103c-2.8,0-5-2.3-5-5V53.2c0-2.8,2.3-5,5-5h103
		C410.2,48.1,412.4,50.4,412.4,53.2z"/>
	<g>
		<text transform="matrix(1 0 0 1 309.9059 73.7419)" class="st1 st2 st3">Controllers</text>
	</g>
	<g>
		<path class="st0" d="M268.3,53.2v37.2c0,2.8-2.3,5-5,5h-103c-2.8,0-5-2.3-5-5V53.2c0-2.8,2.3-5,5-5h103
			C266.1,48.1,268.3,50.4,268.3,53.2z"/>
	</g>
	<g>
		<text transform="matrix(1 0 0 1 180.7282 73.7419)" class="st1 st2 st3">Activity</text>
	</g>
	<g>
		<path class="st0" d="M567.1,53.2v37.2c0,2.8-2.3,5-5,5h-103c-2.8,0-5-2.3-5-5V53.2c0-2.8,2.3-5,5-5h103
			C564.9,48.1,567.1,50.4,567.1,53.2z"/>
	</g>
	<g>
		<text transform="matrix(1 0 0 1 485.6979 73.7419)" class="st1 st2 st3">Model</text>
	</g>
	<g>
		<g>
			<line class="st4" x1="121.5" y1="71.8" x2="151" y2="71.8"/>
			<g>
				<line class="st4" x1="119.9" y1="71.8" x2="127.2" y2="66.5"/>
				<line class="st4" x1="119.9" y1="71.8" x2="127.2" y2="77.1"/>
			</g>
		</g>
	</g>
	<g>
		<g>
			<line class="st4" x1="295.3" y1="71.8" x2="271.2" y2="71.8"/>
			<g>
				<line class="st4" x1="296.9" y1="71.8" x2="289.6" y2="77.1"/>
				<line class="st4" x1="296.9" y1="71.8" x2="289.6" y2="66.5"/>
			</g>
		</g>
	</g>
	<g>
		<g>
			<line class="st4" x1="449.4" y1="71.8" x2="414.1" y2="71.8"/>
			<g>
				<line class="st4" x1="451" y1="71.8" x2="443.7" y2="77.1"/>
				<line class="st4" x1="451" y1="71.8" x2="443.7" y2="66.5"/>
			</g>
		</g>
	</g>
	<g>
		<line class="st4" x1="61.6" y1="1.4" x2="61.6" y2="43.1"/>
		<polyline class="st4" points="61.6,1.4 360.3,1.4 360.3,44 		"/>
		<line class="st4" x1="61.5" y1="44.7" x2="66.8" y2="37.5"/>
		<line class="st4" x1="61.5" y1="44.7" x2="56.3" y2="37.5"/>
	</g>
	<g>
		<line class="st4" x1="217.4" y1="139.7" x2="217.4" y2="98"/>
		<line class="st4" x1="217.4" y1="139.7" x2="261.1" y2="139.7"/>
		<line class="st4" x1="217.4" y1="96.4" x2="222.7" y2="103.7"/>
		<line class="st4" x1="217.4" y1="96.4" x2="212.1" y2="103.7"/>
	</g>
	<g>
		<line class="st4" x1="369.6" y1="139.7" x2="369.6" y2="98"/>
		<line class="st4" x1="369.6" y1="139.7" x2="413.3" y2="139.7"/>
		<line class="st4" x1="369.5" y1="96.4" x2="374.8" y2="103.7"/>
		<line class="st4" x1="369.5" y1="96.4" x2="364.3" y2="103.7"/>
	</g>
	<g>
		<line class="st4" x1="353.5" y1="138.7" x2="303.3" y2="138.7"/>
		<line class="st4" x1="353.5" y1="138.7" x2="353.5" y2="96.4"/>
		<line class="st4" x1="301.6" y1="138.7" x2="308.9" y2="133.4"/>
		<line class="st4" x1="301.6" y1="138.7" x2="308.9" y2="144"/>
	</g>
	<g>
		<line class="st4" x1="517.6" y1="138.7" x2="453.2" y2="138.7"/>
		<line class="st4" x1="517.6" y1="138.7" x2="517.6" y2="96.4"/>
		<line class="st4" x1="451.6" y1="138.7" x2="458.9" y2="133.4"/>
		<line class="st4" x1="451.6" y1="138.7" x2="458.9" y2="144"/>
	</g>
	<circle class="st4" cx="278.7" cy="139" r="16.5"/>
	<circle class="st4" cx="430.1" cy="139" r="16.5"/>
	<g>
		<g>
			<text transform="matrix(1 0 0 1 59.7731 206.5436)" class="st1 st2 st3">Listener Interface</text>
		</g>
		<circle class="st4" cx="29.3" cy="204.6" r="16.5"/>
	</g>
</g>
</svg>
