<?xml version="1.0" encoding="utf-8"?>
<!-- Generator: Adobe Illustrator 26.0.1, SVG Export Plug-In . SVG Version: 6.00 Build 0)  -->
<svg version="1.1" id="Ebene_1" xmlns="http://www.w3.org/2000/svg" xmlns:xlink="http://www.w3.org/1999/xlink" x="0px" y="0px"
	 viewBox="0 0 542 259" style="enable-background:new 0 0 542 259;" xml:space="preserve">
<style type="text/css">
	
		.st0{clip-path:url(#SVGID_00000067200890593636625060000000172519189750179975_);fill:none;stroke:#FFFFFF;stroke-linecap:round;stroke-linejoin:round;stroke-miterlimit:10;}
	.st1{clip-path:url(#SVGID_00000067200890593636625060000000172519189750179975_);}
	
		.st2{clip-path:url(#SVGID_00000067200890593636625060000000172519189750179975_);fill:none;stroke:#FFFFFF;stroke-linecap:round;stroke-linejoin:round;stroke-miterlimit:10;stroke-dasharray:4,4;}
	.st3{fill:#FFFFFF;}
	.st4{font-family:'HelveticaNeue-LightItalic';}
	.st5{font-size:16px;}
	.st6{font-family:'HelveticaNeue';}
</style>
<g>
	<defs>
		<rect id="SVGID_1_" width="542" height="259"/>
	</defs>
	<clipPath id="SVGID_00000071543351740496419100000007043999366234192063_">
		<use xlink:href="#SVGID_1_"  style="overflow:visible;"/>
	</clipPath>
	
		<line style="clip-path:url(#SVGID_00000071543351740496419100000007043999366234192063_);fill:none;stroke:#FFFFFF;stroke-linecap:round;stroke-linejoin:round;stroke-miterlimit:10;" x1="383.5" y1="157.8" x2="434.5" y2="193.2"/>
	
		<line style="clip-path:url(#SVGID_00000071543351740496419100000007043999366234192063_);fill:none;stroke:#FFFFFF;stroke-linecap:round;stroke-linejoin:round;stroke-miterlimit:10;" x1="340" y1="158" x2="340" y2="193"/>
	
		<line style="clip-path:url(#SVGID_00000071543351740496419100000007043999366234192063_);fill:none;stroke:#FFFFFF;stroke-linecap:round;stroke-linejoin:round;stroke-miterlimit:10;" x1="249.1" y1="61.9" x2="223.9" y2="97.1"/>
	
		<line style="clip-path:url(#SVGID_00000071543351740496419100000007043999366234192063_);fill:none;stroke:#FFFFFF;stroke-linecap:round;stroke-linejoin:round;stroke-miterlimit:10;" x1="202" y1="158" x2="202" y2="193"/>
	
		<line style="clip-path:url(#SVGID_00000071543351740496419100000007043999366234192063_);fill:none;stroke:#FFFFFF;stroke-linecap:round;stroke-linejoin:round;stroke-miterlimit:10;" x1="292.9" y1="61.9" x2="318.1" y2="97.1"/>
	
		<line style="clip-path:url(#SVGID_00000071543351740496419100000007043999366234192063_);fill:none;stroke:#FFFFFF;stroke-linecap:round;stroke-linejoin:round;stroke-miterlimit:10;" x1="158.5" y1="157.8" x2="107.5" y2="193.2"/>
	<g style="clip-path:url(#SVGID_00000071543351740496419100000007043999366234192063_);">
		<defs>
			<rect id="SVGID_00000066512055783731048240000009527624963115192233_" x="207" width="127" height="67"/>
		</defs>
		<clipPath id="SVGID_00000147918028449150990030000014431067073006611851_">
			<use xlink:href="#SVGID_00000066512055783731048240000009527624963115192233_"  style="overflow:visible;"/>
		</clipPath>
		<g style="clip-path:url(#SVGID_00000147918028449150990030000014431067073006611851_);">
			
				<image style="overflow:visible;" width="127" height="67" xlink:href="5A017740552EC966.png"  transform="matrix(1 0 0 -1 207 67)">
			</image>
		</g>
	</g>
	<path style="clip-path:url(#SVGID_00000071543351740496419100000007043999366234192063_);" d="M213,1.5h116c1.1,0,2,0.9,2,2v56
		c0,1.1-0.9,2-2,2H213c-1.1,0-2-0.9-2-2v-56C211,2.4,211.9,1.5,213,1.5z"/>
	
		<path style="clip-path:url(#SVGID_00000071543351740496419100000007043999366234192063_);fill:none;stroke:#FFFFFF;stroke-linecap:round;stroke-linejoin:round;stroke-miterlimit:10;stroke-dasharray:4,4;" d="
		M213,1.5h116c1.1,0,2,0.9,2,2v56c0,1.1-0.9,2-2,2H213c-1.1,0-2-0.9-2-2v-56C211,2.4,211.9,1.5,213,1.5z"/>
	<g style="clip-path:url(#SVGID_00000071543351740496419100000007043999366234192063_);">
		<text transform="matrix(1 0 0 1 237.9678 28.0522)" class="st3 st4 st5">Qualitäts-</text>
	</g>
	<g style="clip-path:url(#SVGID_00000071543351740496419100000007043999366234192063_);">
		<text transform="matrix(1 0 0 1 237.5122 46.5)" class="st3 st4 st5">sicherung</text>
	</g>
	<g style="clip-path:url(#SVGID_00000071543351740496419100000007043999366234192063_);">
		<defs>
			<rect id="SVGID_00000116954943992978964640000006972405002660846505_" x="138" y="96" width="127" height="67"/>
		</defs>
		<clipPath id="SVGID_00000034068223853659655710000016729449752494979478_">
			<use xlink:href="#SVGID_00000116954943992978964640000006972405002660846505_"  style="overflow:visible;"/>
		</clipPath>
		<g style="clip-path:url(#SVGID_00000034068223853659655710000016729449752494979478_);">
			
				<image style="overflow:visible;" width="127" height="67" xlink:href="5A017740552EC96A.png"  transform="matrix(1 0 0 -1 138 163)">
			</image>
		</g>
	</g>
	<path style="clip-path:url(#SVGID_00000071543351740496419100000007043999366234192063_);" d="M144,97.5h116c1.1,0,2,0.9,2,2v56
		c0,1.1-0.9,2-2,2H144c-1.1,0-2-0.9-2-2v-56C142,98.4,142.9,97.5,144,97.5z"/>
	
		<path style="clip-path:url(#SVGID_00000071543351740496419100000007043999366234192063_);fill:none;stroke:#FFFFFF;stroke-linecap:round;stroke-linejoin:round;stroke-miterlimit:10;stroke-dasharray:4,4;" d="
		M144,97.5h116c1.1,0,2,0.9,2,2v56c0,1.1-0.9,2-2,2H144c-1.1,0-2-0.9-2-2v-56C142,98.4,142.9,97.5,144,97.5z"/>
	<g style="clip-path:url(#SVGID_00000071543351740496419100000007043999366234192063_);">
		<text transform="matrix(1 0 0 1 174.2959 133.2761)" class="st3 st4 st5">Statisch</text>
	</g>
	<g style="clip-path:url(#SVGID_00000071543351740496419100000007043999366234192063_);">
		<defs>
			<rect id="SVGID_00000052824679363706940480000010919358451025904007_" x="276" y="96" width="127" height="67"/>
		</defs>
		<clipPath id="SVGID_00000100383219828242400640000004080921105380727983_">
			<use xlink:href="#SVGID_00000052824679363706940480000010919358451025904007_"  style="overflow:visible;"/>
		</clipPath>
		<g style="clip-path:url(#SVGID_00000100383219828242400640000004080921105380727983_);">
			
				<image style="overflow:visible;" width="127" height="67" xlink:href="5A017740552EC96D.png"  transform="matrix(1 0 0 -1 276 163)">
			</image>
		</g>
	</g>
	<path style="clip-path:url(#SVGID_00000071543351740496419100000007043999366234192063_);" d="M282,97.5h116c1.1,0,2,0.9,2,2v56
		c0,1.1-0.9,2-2,2H282c-1.1,0-2-0.9-2-2v-56C280,98.4,280.9,97.5,282,97.5z"/>
	
		<path style="clip-path:url(#SVGID_00000071543351740496419100000007043999366234192063_);fill:none;stroke:#FFFFFF;stroke-linecap:round;stroke-linejoin:round;stroke-miterlimit:10;stroke-dasharray:4,4;" d="
		M282,97.5h116c1.1,0,2,0.9,2,2v56c0,1.1-0.9,2-2,2H282c-1.1,0-2-0.9-2-2v-56C280,98.4,280.9,97.5,282,97.5z"/>
	<g style="clip-path:url(#SVGID_00000071543351740496419100000007043999366234192063_);">
		<text transform="matrix(1 0 0 1 301.9277 133.2761)" class="st3 st4 st5">Dynamisch</text>
	</g>
	<g style="clip-path:url(#SVGID_00000071543351740496419100000007043999366234192063_);">
		<defs>
			<rect id="SVGID_00000135657117926165689440000000089576375372039051_" x="276" y="192" width="127" height="67"/>
		</defs>
		<clipPath id="SVGID_00000147936315517991574530000014803586497271586991_">
			<use xlink:href="#SVGID_00000135657117926165689440000000089576375372039051_"  style="overflow:visible;"/>
		</clipPath>
		<g style="clip-path:url(#SVGID_00000147936315517991574530000014803586497271586991_);">
			
				<image style="overflow:visible;" width="127" height="67" xlink:href="5A017740552EC96E.png"  transform="matrix(1 0 0 -1 276 259)">
			</image>
		</g>
	</g>
	<path style="clip-path:url(#SVGID_00000071543351740496419100000007043999366234192063_);" d="M282,193.5h116c1.1,0,2,0.9,2,2v56
		c0,1.1-0.9,2-2,2H282c-1.1,0-2-0.9-2-2v-56C280,194.4,280.9,193.5,282,193.5z"/>
	
		<path style="clip-path:url(#SVGID_00000071543351740496419100000007043999366234192063_);fill:none;stroke:#FFFFFF;stroke-linecap:round;stroke-linejoin:round;stroke-miterlimit:10;" d="
		M282,193.5h116c1.1,0,2,0.9,2,2v56c0,1.1-0.9,2-2,2H282c-1.1,0-2-0.9-2-2v-56C280,194.4,280.9,193.5,282,193.5z"/>
	<g style="clip-path:url(#SVGID_00000071543351740496419100000007043999366234192063_);">
		<text transform="matrix(1 0 0 1 303.1123 220.0522)" class="st3 st6 st5">White Box </text>
	</g>
	<g style="clip-path:url(#SVGID_00000071543351740496419100000007043999366234192063_);">
		<text transform="matrix(1 0 0 1 320.5918 238.5)" class="st3 st6 st5">Tests</text>
	</g>
	<g style="clip-path:url(#SVGID_00000071543351740496419100000007043999366234192063_);">
		<defs>
			<rect id="SVGID_00000156561784857265916840000000611820750540060303_" x="414" y="192" width="127" height="67"/>
		</defs>
		<clipPath id="SVGID_00000141416975722301116620000006895289283529286788_">
			<use xlink:href="#SVGID_00000156561784857265916840000000611820750540060303_"  style="overflow:visible;"/>
		</clipPath>
		<g style="clip-path:url(#SVGID_00000141416975722301116620000006895289283529286788_);">
			
				<image style="overflow:visible;" width="127" height="67" xlink:href="5A017740552EC96C.png"  transform="matrix(1 0 0 -1 414 259)">
			</image>
		</g>
	</g>
	<path style="clip-path:url(#SVGID_00000071543351740496419100000007043999366234192063_);" d="M420,193.5h116c1.1,0,2,0.9,2,2v56
		c0,1.1-0.9,2-2,2H420c-1.1,0-2-0.9-2-2v-56C418,194.4,418.9,193.5,420,193.5z"/>
	
		<path style="clip-path:url(#SVGID_00000071543351740496419100000007043999366234192063_);fill:none;stroke:#FFFFFF;stroke-linecap:round;stroke-linejoin:round;stroke-miterlimit:10;" d="
		M420,193.5h116c1.1,0,2,0.9,2,2v56c0,1.1-0.9,2-2,2H420c-1.1,0-2-0.9-2-2v-56C418,194.4,418.9,193.5,420,193.5z"/>
	<g style="clip-path:url(#SVGID_00000071543351740496419100000007043999366234192063_);">
		<text transform="matrix(1 0 0 1 441.5596 220.0522)" class="st3 st6 st5">Black Box </text>
	</g>
	<g style="clip-path:url(#SVGID_00000071543351740496419100000007043999366234192063_);">
		<text transform="matrix(1 0 0 1 458.5918 238.5)" class="st3 st6 st5">Tests</text>
	</g>
	<g style="clip-path:url(#SVGID_00000071543351740496419100000007043999366234192063_);">
		<defs>
			<rect id="SVGID_00000111175094647222049970000002168100273474537872_" y="192" width="127" height="67"/>
		</defs>
		<clipPath id="SVGID_00000114761306708995960710000016956821773897791917_">
			<use xlink:href="#SVGID_00000111175094647222049970000002168100273474537872_"  style="overflow:visible;"/>
		</clipPath>
		<g style="clip-path:url(#SVGID_00000114761306708995960710000016956821773897791917_);">
			
				<image style="overflow:visible;" width="127" height="67" xlink:href="5A017740552EC96B.png"  transform="matrix(1 0 0 -1 0 259)">
			</image>
		</g>
	</g>
	<path style="clip-path:url(#SVGID_00000071543351740496419100000007043999366234192063_);" d="M6,193.5h116c1.1,0,2,0.9,2,2v56
		c0,1.1-0.9,2-2,2H6c-1.1,0-2-0.9-2-2v-56C4,194.4,4.9,193.5,6,193.5z"/>
	
		<path style="clip-path:url(#SVGID_00000071543351740496419100000007043999366234192063_);fill:none;stroke:#FFFFFF;stroke-linecap:round;stroke-linejoin:round;stroke-miterlimit:10;" d="
		M6,193.5h116c1.1,0,2,0.9,2,2v56c0,1.1-0.9,2-2,2H6c-1.1,0-2-0.9-2-2v-56C4,194.4,4.9,193.5,6,193.5z"/>
	<g style="clip-path:url(#SVGID_00000071543351740496419100000007043999366234192063_);">
		<text transform="matrix(1 0 0 1 33.2002 220.0522)" class="st3 st6 st5">Review / </text>
	</g>
	<g style="clip-path:url(#SVGID_00000071543351740496419100000007043999366234192063_);">
		<text transform="matrix(1 0 0 1 26.9521 238.5)" class="st3 st6 st5">Inspektion</text>
	</g>
	<g style="clip-path:url(#SVGID_00000071543351740496419100000007043999366234192063_);">
		<defs>
			<rect id="SVGID_00000070119509823899632830000013871066135264081063_" x="138" y="192" width="127" height="67"/>
		</defs>
		<clipPath id="SVGID_00000022530513922964837230000009338081282037767575_">
			<use xlink:href="#SVGID_00000070119509823899632830000013871066135264081063_"  style="overflow:visible;"/>
		</clipPath>
		<g style="clip-path:url(#SVGID_00000022530513922964837230000009338081282037767575_);">
			
				<image style="overflow:visible;" width="127" height="67" xlink:href="5A017740552EC965.png"  transform="matrix(1 0 0 -1 138 259)">
			</image>
		</g>
	</g>
	<path style="clip-path:url(#SVGID_00000071543351740496419100000007043999366234192063_);" d="M144,193.5h116c1.1,0,2,0.9,2,2v56
		c0,1.1-0.9,2-2,2H144c-1.1,0-2-0.9-2-2v-56C142,194.4,142.9,193.5,144,193.5z"/>
	
		<path style="clip-path:url(#SVGID_00000071543351740496419100000007043999366234192063_);fill:none;stroke:#FFFFFF;stroke-linecap:round;stroke-linejoin:round;stroke-miterlimit:10;" d="
		M144,193.5h116c1.1,0,2,0.9,2,2v56c0,1.1-0.9,2-2,2H144c-1.1,0-2-0.9-2-2v-56C142,194.4,142.9,193.5,144,193.5z"/>
	<g style="clip-path:url(#SVGID_00000071543351740496419100000007043999366234192063_);">
		<text transform="matrix(1 0 0 1 168.6641 220.0522)" class="st3 st6 st5">Statische </text>
	</g>
	<g style="clip-path:url(#SVGID_00000071543351740496419100000007043999366234192063_);">
		<text transform="matrix(1 0 0 1 155.48 238.5)" class="st3 st6 st5">Codeanalyse</text>
	</g>
</g>
</svg>
