<?xml version="1.0" encoding="utf-8"?>
<!-- Generator: Adobe Illustrator 26.0.1, SVG Export Plug-In . SVG Version: 6.00 Build 0)  -->
<svg version="1.1" id="Ebene_1" xmlns="http://www.w3.org/2000/svg" xmlns:xlink="http://www.w3.org/1999/xlink" x="0px" y="0px"
	 viewBox="0 0 165.1 128.5" style="enable-background:new 0 0 165.1 128.5;" xml:space="preserve">
<style type="text/css">
	.st0{fill:#020202;}
	.st1{fill:#050505;}
	.st2{fill:#070707;}
	.st3{fill:#0A0A0A;}
	.st4{fill:#0C0C0C;}
	.st5{fill:#0F0F0F;}
	.st6{fill:#111111;}
	.st7{fill:#131313;}
	.st8{fill:#161616;}
	.st9{fill:#181818;}
	.st10{fill:#1B1B1B;}
	.st11{fill:#1D1D1D;}
	.st12{fill:#202020;}
	.st13{fill:#222222;}
	.st14{fill:#242424;}
	.st15{fill:#272727;}
	.st16{fill:#292929;}
	.st17{fill:#2C2C2C;}
	.st18{fill:#2E2E2E;}
	.st19{fill:#313131;}
	.st20{fill:#333333;}
	.st21{fill:#444444;}
	.st22{fill:#B2B2B2;}
	.st23{stroke:#FFFFFF;stroke-width:0.25;stroke-miterlimit:10;}
	.st24{fill:none;stroke:#FFFFFF;stroke-width:0.75;stroke-miterlimit:10;}
	.st25{fill:none;stroke:#FFFFFF;stroke-width:0.25;stroke-miterlimit:10;}
	.st26{fill:none;stroke:#FFFFFF;stroke-width:0.25;stroke-miterlimit:10;stroke-dasharray:0.9897,0.9897;}
	.st27{fill:#FFFFFF;}
	.st28{font-family:'HelveticaNeue';}
	.st29{font-size:3px;}
	.st30{font-size:2.65px;}
	.st31{fill:none;stroke:#FFFFFF;stroke-width:0.5;stroke-miterlimit:10;}
	.st32{font-size:3.25px;}
	.st33{fill:#E2E2E4;}
	.st34{fill:#232323;}
	.st35{fill:#464646;}
	.st36{fill:#696969;}
	.st37{fill:#8C8C8C;}
	.st38{fill:#AFAFAF;}
	.st39{filter:url(#Adobe_OpacityMaskFilter);}
	.st40{mask:url(#SVGID_00000062164786439825956660000012287803613990668163_);}
	.st41{fill:url(#SVGID_00000070838326606228070980000002512082827464189355_);}
	.st42{fill:url(#SVGID_00000047743461054847815140000015970373858870016187_);}
	.st43{fill:url(#SVGID_00000044172767114332442430000008020423404619417001_);}
	.st44{fill:url(#SVGID_00000000197479129383473760000004270794947913487762_);}
	.st45{enable-background:new    ;}
	.st46{clip-path:url(#SVGID_00000160872647740675030930000002767264757616962232_);}
	.st47{fill:#CCCCCC;}
	.st48{clip-path:url(#SVGID_00000133527638382955326390000013628992015632706492_);}
	.st49{opacity:0.8;fill:#272727;}
	.st50{fill:#757575;}
	.st51{opacity:0.9;fill:url(#Tape_00000029037984252355299820000001391174550657880965_);}
	.st52{opacity:0.9;fill:url(#Tape_00000011023587020614499820000003323369294377242813_);}
	.st53{font-size:5px;}
	.st54{font-size:4px;}
	.st55{font-family:'HelveticaNeue-Italic';}
</style>
<g>
	<g>
		<g>
			<g>
				<path d="M119.5,92.6c0,9.6-7.8,17.4-17.4,17.4c-9.6,0-17.4-7.8-17.4-17.4c0-9.6,7.8-17.4,17.4-17.4
					C111.7,75.2,119.5,83,119.5,92.6z M95.7,63.8v3.1c-2.6,0.6-5.1,1.7-7.3,3l-2.2-2.2c-1.4-1.4-3.8-1.4-5.2,0l-3.8,3.8
					c-1.4,1.4-1.4,3.8,0,5.2l2.2,2.2c-1.4,2.2-2.4,4.7-3,7.3h-3.1c-2,0-3.7,1.6-3.7,3.7v5.4c0,2,1.6,3.7,3.7,3.7h3.1
					c0.6,2.6,1.7,5.1,3,7.3l-2.2,2.2c-1.4,1.4-1.4,3.8,0,5.2l3.8,3.8c1.4,1.4,3.8,1.4,5.2,0l2.2-2.2c2.2,1.4,4.7,2.4,7.3,3v3.1
					c0,2,1.6,3.7,3.7,3.7h5.4c2,0,3.7-1.6,3.7-3.7v-3.1c2.6-0.6,5.1-1.7,7.3-3l2.2,2.2c1.4,1.4,3.8,1.4,5.2,0l3.8-3.8
					c1.4-1.4,1.4-3.8,0-5.2l-2.2-2.2c1.4-2.2,2.4-4.7,3-7.3h3.1c2,0,3.7-1.6,3.7-3.7v-5.4c0-2-1.6-3.7-3.7-3.7h-3.1
					c-0.6-2.6-1.7-5.1-3-7.3l2.2-2.2c1.4-1.4,1.4-3.8,0-5.2l-3.8-3.8c-1.4-1.4-3.8-1.4-5.2,0l-2.2,2.2c-2.2-1.4-4.7-2.4-7.3-3v-3.1
					c0-2-1.6-3.7-3.7-3.7h-5.4C97.4,60.1,95.7,61.8,95.7,63.8z"/>
				<path d="M78.2,33.7c6.2-2.5,13.2,0.4,15.7,6.6c2.5,6.2-0.4,13.2-6.6,15.7c-6.2,2.5-13.2-0.4-15.7-6.6S72,36.2,78.2,33.7z
					 M65.9,56.4l2-0.8c1.1,1.5,2.4,2.8,3.9,3.9l-0.8,2c-0.5,1.3,0.1,2.8,1.4,3.3l3.5,1.5c1.3,0.5,2.8-0.1,3.3-1.4l0.8-2
					c1.8,0.3,3.6,0.3,5.5,0l0.8,2c0.5,1.3,2,1.9,3.3,1.4l3.5-1.4c1.3-0.5,1.9-2,1.4-3.3l-0.8-2c1.5-1.1,2.8-2.4,3.9-3.9l2,0.8
					c1.3,0.5,2.8-0.1,3.3-1.4l1.5-3.5c0.5-1.3-0.1-2.8-1.4-3.3l-2-0.8c0.3-1.8,0.3-3.6,0-5.5l2-0.8c1.3-0.5,1.9-2,1.4-3.3l-1.4-3.5
					c-0.5-1.3-2-1.9-3.3-1.4l-2,0.8c-1.1-1.5-2.4-2.8-3.9-3.9l0.8-2c0.5-1.3-0.1-2.8-1.4-3.3l-3.5-1.5c-1.3-0.5-2.8,0.1-3.3,1.4
					l-0.8,2c-1.8-0.3-3.6-0.3-5.5,0l-0.8-2c-0.5-1.3-2-1.9-3.3-1.4l-3.5,1.4c-1.3,0.5-1.9,2-1.4,3.3l0.8,2c-1.5,1.1-2.8,2.4-3.9,3.9
					L66,33c-1.3-0.5-2.8,0.1-3.3,1.4l-1.5,3.5c-0.5,1.3,0.1,2.8,1.4,3.3l2,0.8c-0.3,1.8-0.3,3.6,0,5.5l-2,0.8
					c-1.3,0.5-1.9,2-1.4,3.3l1.4,3.5C63.1,56.3,64.6,57,65.9,56.4z"/>
				<path d="M101.8,11.9c3.4-3.7,9.1-4,12.8-0.7c3.7,3.4,4,9.1,0.7,12.8c-3.4,3.7-9.1,4-12.8,0.7C98.7,21.3,98.4,15.6,101.8,11.9z
					 M100.9,31.3l1.1-1.2c1.2,0.7,2.5,1.1,3.9,1.4l0.1,1.6c0.1,1,1,1.9,2,1.8l2.8-0.1c1-0.1,1.9-1,1.8-2l-0.1-1.6
					c1.3-0.4,2.6-1,3.7-1.8l1.2,1.1c0.8,0.7,2,0.6,2.7-0.1l1.9-2.1c0.7-0.8,0.6-2-0.1-2.7l-1.2-1.1c0.7-1.2,1.1-2.5,1.4-3.9l1.6-0.1
					c1-0.1,1.9-1,1.8-2l-0.1-2.8c-0.1-1-1-1.9-2-1.8l-1.6,0.1c-0.4-1.3-1-2.6-1.8-3.7L121,9c0.7-0.8,0.6-2-0.1-2.7l-2.1-1.9
					c-0.8-0.7-2-0.6-2.7,0.1L115,5.7c-1.2-0.7-2.5-1.1-3.9-1.4L111,2.8c-0.1-1-1-1.9-2-1.8l-2.8,0.1c-1,0.1-1.9,1-1.8,2l0.1,1.6
					c-1.3,0.4-2.6,1-3.7,1.8l-1.2-1.1c-0.8-0.7-2-0.6-2.7,0.1L95,7.7c-0.7,0.8-0.6,2,0.1,2.7l1.2,1.1c-0.7,1.2-1.1,2.5-1.4,3.9
					l-1.6,0.1c-1,0.1-1.9,1-1.8,2l0.1,2.8c0.1,1,1,1.9,2,1.8l1.6-0.1c0.4,1.3,1,2.6,1.8,3.7L96,26.9c-0.7,0.8-0.6,2,0.1,2.7l2.1,1.9
					C99,32.2,100.2,32.1,100.9,31.3z"/>
			</g>
			<g>
				<path class="st0" d="M119.4,92.7c0,9.6-7.8,17.4-17.4,17.4c-9.6,0-17.4-7.8-17.4-17.4c0-9.6,7.8-17.4,17.4-17.4
					C111.6,75.3,119.4,83.1,119.4,92.7z M95.6,63.9V67c-2.6,0.6-5.1,1.7-7.3,3l-2.2-2.2c-1.4-1.4-3.8-1.4-5.2,0l-3.8,3.8
					c-1.4,1.4-1.4,3.8,0,5.2l2.2,2.2c-1.4,2.2-2.4,4.7-3,7.3h-3.1c-2,0-3.7,1.6-3.7,3.7v5.4c0,2,1.6,3.7,3.7,3.7h3.1
					c0.6,2.6,1.7,5.1,3,7.3l-2.2,2.2c-1.4,1.4-1.4,3.8,0,5.2l3.8,3.8c1.4,1.4,3.8,1.4,5.2,0l2.2-2.2c2.2,1.4,4.7,2.4,7.3,3v3.1
					c0,2,1.6,3.7,3.7,3.7h5.4c2,0,3.7-1.6,3.7-3.7v-3.1c2.6-0.6,5.1-1.7,7.3-3l2.2,2.2c1.4,1.4,3.8,1.4,5.2,0l3.8-3.8
					c1.4-1.4,1.4-3.8,0-5.2l-2.2-2.2c1.4-2.2,2.4-4.7,3-7.3h3.1c2,0,3.7-1.6,3.7-3.7V90c0-2-1.6-3.7-3.7-3.7h-3.1
					c-0.6-2.6-1.7-5.1-3-7.3l2.2-2.2c1.4-1.4,1.4-3.8,0-5.2l-3.8-3.8c-1.4-1.4-3.8-1.4-5.2,0l-2.2,2.2c-2.2-1.4-4.7-2.4-7.3-3v-3.1
					c0-2-1.6-3.7-3.7-3.7h-5.4C97.3,60.2,95.6,61.9,95.6,63.9z"/>
				<path class="st0" d="M78,33.8c6.2-2.5,13.2,0.4,15.7,6.6c2.5,6.2-0.4,13.2-6.6,15.7C81,58.6,74,55.7,71.4,49.5
					S71.9,36.3,78,33.8z M65.8,56.5l2-0.8c1.1,1.5,2.4,2.8,3.9,3.9l-0.8,2c-0.5,1.3,0.1,2.8,1.4,3.3l3.5,1.5
					c1.3,0.5,2.8-0.1,3.3-1.4l0.8-2c1.8,0.3,3.6,0.3,5.5,0l0.8,2c0.5,1.3,2,1.9,3.3,1.4l3.5-1.4c1.3-0.5,1.9-2,1.4-3.3l-0.8-2
					c1.5-1.1,2.8-2.4,3.9-3.9l2,0.8c1.3,0.5,2.8-0.1,3.3-1.4l1.5-3.5c0.5-1.3-0.1-2.8-1.4-3.3l-2-0.8c0.3-1.8,0.3-3.6,0-5.5l2-0.8
					c1.3-0.5,1.9-2,1.4-3.3l-1.4-3.5c-0.5-1.3-2-1.9-3.3-1.4l-2,0.8c-1.1-1.5-2.4-2.8-3.9-3.9l0.8-2c0.5-1.3-0.1-2.8-1.4-3.3
					l-3.5-1.5c-1.3-0.5-2.8,0.1-3.3,1.4l-0.8,2c-1.8-0.3-3.6-0.3-5.5,0l-0.8-2c-0.5-1.3-2-1.9-3.3-1.4l-3.5,1.4
					c-1.3,0.5-1.9,2-1.4,3.3l0.8,2c-1.5,1.1-2.8,2.4-3.9,3.9l-2-0.8c-1.3-0.5-2.8,0.1-3.3,1.4L61.2,38c-0.5,1.3,0.1,2.8,1.4,3.3
					l2,0.8c-0.3,1.8-0.3,3.6,0,5.5l-2,0.8c-1.3,0.5-1.9,2-1.4,3.3l1.4,3.5C63,56.5,64.5,57.1,65.8,56.5z"/>
				<path class="st0" d="M101.6,12c3.4-3.7,9.1-4,12.8-0.7c3.7,3.4,4,9.1,0.7,12.8c-3.4,3.7-9.1,4-12.8,0.7
					C98.6,21.4,98.3,15.7,101.6,12z M100.8,31.4l1.1-1.2c1.2,0.7,2.5,1.1,3.9,1.4l0.1,1.6c0.1,1,1,1.9,2,1.8l2.8-0.1
					c1-0.1,1.9-1,1.8-2l-0.1-1.6c1.3-0.4,2.6-1,3.7-1.8l1.2,1.1c0.8,0.7,2,0.6,2.7-0.1l1.9-2.1c0.7-0.8,0.6-2-0.1-2.7l-1.2-1.1
					c0.7-1.2,1.1-2.5,1.4-3.9l1.6-0.1c1-0.1,1.9-1,1.8-2l-0.1-2.8c-0.1-1-1-1.9-2-1.8l-1.6,0.1c-0.4-1.3-1-2.6-1.8-3.7l1.1-1.2
					c0.7-0.8,0.6-2-0.1-2.7l-2.1-1.9c-0.8-0.7-2-0.6-2.7,0.1l-1.1,1.2c-1.2-0.7-2.5-1.1-3.9-1.4l-0.1-1.6c-0.1-1-1-1.9-2-1.8
					l-2.8,0.1c-1,0.1-1.9,1-1.8,2l0.1,1.6c-1.3,0.4-2.6,1-3.7,1.8l-1.2-1.1c-0.8-0.7-2-0.6-2.7,0.1l-1.9,2.1c-0.7,0.8-0.6,2,0.1,2.7
					l1.2,1.1c-0.7,1.2-1.1,2.5-1.4,3.9l-1.6,0.1c-1,0.1-1.9,1-1.8,2l0.1,2.8c0.1,1,1,1.9,2,1.8l1.6-0.1c0.4,1.3,1,2.6,1.8,3.7
					L95.9,27c-0.7,0.8-0.6,2,0.1,2.7l2.1,1.9C98.9,32.3,100.1,32.2,100.8,31.4z"/>
			</g>
			<g>
				<path class="st1" d="M119.3,92.8c0,9.6-7.8,17.4-17.4,17.4c-9.6,0-17.4-7.8-17.4-17.4c0-9.6,7.8-17.4,17.4-17.4
					C111.5,75.4,119.3,83.2,119.3,92.8z M95.5,64v3.1c-2.6,0.6-5.1,1.7-7.3,3L86,67.9c-1.4-1.4-3.8-1.4-5.2,0L77,71.8
					c-1.4,1.4-1.4,3.8,0,5.2l2.2,2.2c-1.4,2.2-2.4,4.7-3,7.3h-3.1c-2,0-3.7,1.6-3.7,3.7v5.4c0,2,1.6,3.7,3.7,3.7h3.1
					c0.6,2.6,1.7,5.1,3,7.3l-2.2,2.2c-1.4,1.4-1.4,3.8,0,5.2l3.8,3.8c1.4,1.4,3.8,1.4,5.2,0l2.2-2.2c2.2,1.4,4.7,2.4,7.3,3v3.1
					c0,2,1.6,3.7,3.7,3.7h5.4c2,0,3.7-1.6,3.7-3.7v-3.1c2.6-0.6,5.1-1.7,7.3-3l2.2,2.2c1.4,1.4,3.8,1.4,5.2,0l3.8-3.8
					c1.4-1.4,1.4-3.8,0-5.2l-2.2-2.2c1.4-2.2,2.4-4.7,3-7.3h3.1c2,0,3.7-1.6,3.7-3.7v-5.4c0-2-1.6-3.7-3.7-3.7h-3.1
					c-0.6-2.6-1.7-5.1-3-7.3l2.2-2.2c1.4-1.4,1.4-3.8,0-5.2l-3.8-3.8c-1.4-1.4-3.8-1.4-5.2,0l-2.2,2.2c-2.2-1.4-4.7-2.4-7.3-3V64
					c0-2-1.6-3.7-3.7-3.7h-5.4C97.2,60.3,95.5,62,95.5,64z"/>
				<path class="st1" d="M77.9,33.9c6.2-2.5,13.2,0.4,15.7,6.6c2.5,6.2-0.4,13.2-6.6,15.7c-6.2,2.5-13.2-0.4-15.7-6.6
					S71.8,36.4,77.9,33.9z M65.7,56.7l2-0.8c1.1,1.5,2.4,2.8,3.9,3.9l-0.8,2c-0.5,1.3,0.1,2.8,1.4,3.3l3.5,1.5
					c1.3,0.5,2.8-0.1,3.3-1.4l0.8-2c1.8,0.3,3.6,0.3,5.5,0l0.8,2c0.5,1.3,2,1.9,3.3,1.4l3.5-1.4c1.3-0.5,1.9-2,1.4-3.3l-0.8-2
					c1.5-1.1,2.8-2.4,3.9-3.9l2,0.8c1.3,0.5,2.8-0.1,3.3-1.4l1.5-3.5c0.5-1.3-0.1-2.8-1.4-3.3l-2-0.8c0.3-1.8,0.3-3.6,0-5.5l2-0.8
					c1.3-0.5,1.9-2,1.4-3.3l-1.4-3.5c-0.5-1.3-2-1.9-3.3-1.4l-2,0.8c-1.1-1.5-2.4-2.8-3.9-3.9l0.8-2c0.5-1.3-0.1-2.8-1.4-3.3
					l-3.5-1.5c-1.3-0.5-2.8,0.1-3.3,1.4l-0.8,2c-1.8-0.3-3.6-0.3-5.5,0l-0.8-2c-0.5-1.3-2-1.9-3.3-1.4l-3.5,1.4
					c-1.3,0.5-1.9,2-1.4,3.3l0.8,2c-1.5,1.1-2.8,2.4-3.9,3.9l-2-0.8c-1.3-0.5-2.8,0.1-3.3,1.4L61,38.1c-0.5,1.3,0.1,2.8,1.4,3.3
					l2,0.8c-0.3,1.8-0.3,3.6,0,5.5l-2,0.8c-1.3,0.5-1.9,2-1.4,3.3l1.4,3.5C62.9,56.6,64.4,57.2,65.7,56.7z"/>
				<path class="st1" d="M101.5,12.1c3.4-3.7,9.1-4,12.8-0.7c3.7,3.4,4,9.1,0.7,12.8c-3.4,3.7-9.1,4-12.8,0.7
					C98.5,21.5,98.2,15.8,101.5,12.1z M100.7,31.5l1.1-1.2c1.2,0.7,2.5,1.1,3.9,1.4l0.1,1.6c0.1,1,1,1.9,2,1.8l2.8-0.1
					c1-0.1,1.9-1,1.8-2l-0.1-1.6c1.3-0.4,2.6-1,3.7-1.8l1.2,1.1c0.8,0.7,2,0.6,2.7-0.1l1.9-2.1c0.7-0.8,0.6-2-0.1-2.7l-1.2-1.1
					c0.7-1.2,1.1-2.5,1.4-3.9l1.6-0.1c1-0.1,1.9-1,1.8-2l-0.1-2.8c-0.1-1-1-1.9-2-1.8l-1.6,0.1c-0.4-1.3-1-2.6-1.8-3.7l1.1-1.2
					c0.7-0.8,0.6-2-0.1-2.7l-2.1-1.9c-0.8-0.7-2-0.6-2.7,0.1L114.8,6c-1.2-0.7-2.5-1.1-3.9-1.4L110.8,3c-0.1-1-1-1.9-2-1.8L106,1.3
					c-1,0.1-1.9,1-1.8,2l0.1,1.6c-1.3,0.4-2.6,1-3.7,1.8l-1.2-1.1c-0.8-0.7-2-0.6-2.7,0.1l-1.9,2.1c-0.7,0.8-0.6,2,0.1,2.7l1.2,1.1
					c-0.7,1.2-1.1,2.5-1.4,3.9l-1.6,0.1c-1,0.1-1.9,1-1.8,2l0.1,2.8c0.1,1,1,1.9,2,1.8l1.6-0.1c0.4,1.3,1,2.6,1.8,3.7l-1.1,1.2
					c-0.7,0.8-0.6,2,0.1,2.7l2.1,1.9C98.8,32.4,100,32.3,100.7,31.5z"/>
			</g>
			<g>
				<path class="st2" d="M119.2,92.9c0,9.6-7.8,17.4-17.4,17.4c-9.6,0-17.4-7.8-17.4-17.4c0-9.6,7.8-17.4,17.4-17.4
					C111.4,75.5,119.2,83.3,119.2,92.9z M95.4,64.1v3.1c-2.6,0.6-5.1,1.7-7.3,3L85.9,68c-1.4-1.4-3.8-1.4-5.2,0l-3.8,3.8
					c-1.4,1.4-1.4,3.8,0,5.2l2.2,2.2c-1.4,2.2-2.4,4.7-3,7.3H73c-2,0-3.7,1.6-3.7,3.7v5.4c0,2,1.6,3.7,3.7,3.7h3.1
					c0.6,2.6,1.7,5.1,3,7.3l-2.2,2.2c-1.4,1.4-1.4,3.8,0,5.2l3.8,3.8c1.4,1.4,3.8,1.4,5.2,0l2.2-2.2c2.2,1.4,4.7,2.4,7.3,3v3.1
					c0,2,1.6,3.7,3.7,3.7h5.4c2,0,3.7-1.6,3.7-3.7v-3.1c2.6-0.6,5.1-1.7,7.3-3l2.2,2.2c1.4,1.4,3.8,1.4,5.2,0l3.8-3.8
					c1.4-1.4,1.4-3.8,0-5.2l-2.2-2.2c1.4-2.2,2.4-4.7,3-7.3h3.1c2,0,3.7-1.6,3.7-3.7v-5.4c0-2-1.6-3.7-3.7-3.7h-3.1
					c-0.6-2.6-1.7-5.1-3-7.3l2.2-2.2c1.4-1.4,1.4-3.8,0-5.2l-3.8-3.8c-1.4-1.4-3.8-1.4-5.2,0l-2.2,2.2c-2.2-1.4-4.7-2.4-7.3-3v-3.1
					c0-2-1.6-3.7-3.7-3.7h-5.4C97.1,60.4,95.4,62.1,95.4,64.1z"/>
				<path class="st2" d="M77.8,34c6.2-2.5,13.2,0.4,15.7,6.6c2.5,6.2-0.4,13.2-6.6,15.7c-6.2,2.5-13.2-0.4-15.7-6.6
					S71.7,36.5,77.8,34z M65.6,56.8l2-0.8c1.1,1.5,2.4,2.8,3.9,3.9l-0.8,2c-0.5,1.3,0.1,2.8,1.4,3.3l3.5,1.5
					c1.3,0.5,2.8-0.1,3.3-1.4l0.8-2c1.8,0.3,3.6,0.3,5.5,0l0.8,2c0.5,1.3,2,1.9,3.3,1.4l3.5-1.4c1.3-0.5,1.9-2,1.4-3.3l-0.8-2
					c1.5-1.1,2.8-2.4,3.9-3.9l2,0.8c1.3,0.5,2.8-0.1,3.3-1.4l1.5-3.5c0.5-1.3-0.1-2.8-1.4-3.3l-2-0.8c0.3-1.8,0.3-3.6,0-5.5l2-0.8
					c1.3-0.5,1.9-2,1.4-3.3l-1.4-3.5c-0.5-1.3-2-1.9-3.3-1.4l-2,0.8c-1.1-1.5-2.4-2.8-3.9-3.9l0.8-2c0.5-1.3-0.1-2.8-1.4-3.3
					l-3.5-1.5c-1.3-0.5-2.8,0.1-3.3,1.4l-0.8,2c-1.8-0.3-3.6-0.3-5.5,0l-0.8-2c-0.5-1.3-2-1.9-3.3-1.4L72.2,25
					c-1.3,0.5-1.9,2-1.4,3.3l0.8,2c-1.5,1.1-2.8,2.4-3.9,3.9l-2-0.8c-1.3-0.5-2.8,0.1-3.3,1.4l-1.5,3.5c-0.5,1.3,0.1,2.8,1.4,3.3
					l2,0.8c-0.3,1.8-0.3,3.6,0,5.5l-2,0.8c-1.3,0.5-1.9,2-1.4,3.3l1.4,3.5C62.8,56.7,64.3,57.3,65.6,56.8z"/>
				<path class="st2" d="M101.4,12.2c3.4-3.7,9.1-4,12.8-0.7c3.7,3.4,4,9.1,0.7,12.8c-3.4,3.7-9.1,4-12.8,0.7
					C98.4,21.7,98.1,15.9,101.4,12.2z M100.6,31.6l1.1-1.2c1.2,0.7,2.5,1.1,3.9,1.4l0.1,1.6c0.1,1,1,1.9,2,1.8l2.8-0.1
					c1-0.1,1.9-1,1.8-2l-0.1-1.6c1.3-0.4,2.6-1,3.7-1.8l1.2,1.1c0.8,0.7,2,0.6,2.7-0.1l1.9-2.1c0.7-0.8,0.6-2-0.1-2.7l-1.2-1.1
					c0.7-1.2,1.1-2.5,1.4-3.9l1.6-0.1c1-0.1,1.9-1,1.8-2l-0.1-2.8c-0.1-1-1-1.9-2-1.8l-1.6,0.1c-0.4-1.3-1-2.6-1.8-3.7l1.1-1.2
					c0.7-0.8,0.6-2-0.1-2.7l-2.1-1.9c-0.8-0.7-2-0.6-2.7,0.1l-1.1,1.2c-1.2-0.7-2.5-1.1-3.9-1.4l-0.1-1.6c-0.1-1-1-1.9-2-1.8
					l-2.8,0.1c-1,0.1-1.9,1-1.8,2l0.1,1.6c-1.3,0.4-2.6,1-3.7,1.8l-1.2-1.1c-0.8-0.7-2-0.6-2.7,0.1L94.7,8c-0.7,0.8-0.6,2,0.1,2.7
					l1.2,1.1c-0.7,1.2-1.1,2.5-1.4,3.9L93,15.7c-1,0.1-1.9,1-1.8,2l0.1,2.8c0.1,1,1,1.9,2,1.8l1.6-0.1c0.4,1.3,1,2.6,1.8,3.7
					l-1.1,1.2c-0.7,0.8-0.6,2,0.1,2.7l2.1,1.9C98.7,32.5,99.9,32.4,100.6,31.6z"/>
			</g>
			<g>
				<path class="st3" d="M119.1,93c0,9.6-7.8,17.4-17.4,17.4c-9.6,0-17.4-7.8-17.4-17.4s7.8-17.4,17.4-17.4
					C111.3,75.6,119.1,83.4,119.1,93z M95.3,64.2v3.1c-2.6,0.6-5.1,1.7-7.3,3l-2.2-2.2c-1.4-1.4-3.8-1.4-5.2,0L76.8,72
					c-1.4,1.4-1.4,3.8,0,5.2l2.2,2.2c-1.4,2.2-2.4,4.7-3,7.3h-3.1c-2,0-3.7,1.6-3.7,3.7v5.4c0,2,1.6,3.7,3.7,3.7H76
					c0.6,2.6,1.7,5.1,3,7.3l-2.2,2.2c-1.4,1.4-1.4,3.8,0,5.2l3.8,3.8c1.4,1.4,3.8,1.4,5.2,0l2.2-2.2c2.2,1.4,4.7,2.4,7.3,3v3.1
					c0,2,1.6,3.7,3.7,3.7h5.4c2,0,3.7-1.6,3.7-3.7v-3.1c2.6-0.6,5.1-1.7,7.3-3l2.2,2.2c1.4,1.4,3.8,1.4,5.2,0l3.8-3.8
					c1.4-1.4,1.4-3.8,0-5.2l-2.2-2.2c1.4-2.2,2.4-4.7,3-7.3h3.1c2,0,3.7-1.6,3.7-3.7v-5.4c0-2-1.6-3.7-3.7-3.7h-3.1
					c-0.6-2.6-1.7-5.1-3-7.3l2.2-2.2c1.4-1.4,1.4-3.8,0-5.2l-3.8-3.8c-1.4-1.4-3.8-1.4-5.2,0l-2.2,2.2c-2.2-1.4-4.7-2.4-7.3-3v-3.1
					c0-2-1.6-3.7-3.7-3.7H99C97,60.6,95.3,62.2,95.3,64.2z"/>
				<path class="st3" d="M77.7,34.1c6.2-2.5,13.2,0.4,15.7,6.6c2.5,6.2-0.4,13.2-6.6,15.7c-6.2,2.5-13.2-0.4-15.7-6.6
					S71.5,36.6,77.7,34.1z M65.5,56.9l2-0.8c1.1,1.5,2.4,2.8,3.9,3.9l-0.8,2c-0.5,1.3,0.1,2.8,1.4,3.3l3.5,1.5
					c1.3,0.5,2.8-0.1,3.3-1.4l0.8-2c1.8,0.3,3.6,0.3,5.5,0l0.8,2c0.5,1.3,2,1.9,3.3,1.4l3.5-1.4c1.3-0.5,1.9-2,1.4-3.3l-0.8-2
					c1.5-1.1,2.8-2.4,3.9-3.9l2,0.8c1.3,0.5,2.8-0.1,3.3-1.4l1.5-3.5c0.5-1.3-0.1-2.8-1.4-3.3l-2-0.8c0.3-1.8,0.3-3.6,0-5.5l2-0.8
					c1.3-0.5,1.9-2,1.4-3.3l-1.4-3.5c-0.5-1.3-2-1.9-3.3-1.4l-2,0.8c-1.1-1.5-2.4-2.8-3.9-3.9l0.8-2c0.5-1.3-0.1-2.8-1.4-3.3
					l-3.5-1.5c-1.3-0.5-2.8,0.1-3.3,1.4l-0.8,2c-1.8-0.3-3.6-0.3-5.5,0l-0.8-2c-0.5-1.3-2-1.9-3.3-1.4L72,25.2
					c-1.3,0.5-1.9,2-1.4,3.3l0.8,2c-1.5,1.1-2.8,2.4-3.9,3.9l-2-0.8c-1.3-0.5-2.8,0.1-3.3,1.4l-1.5,3.5c-0.5,1.3,0.1,2.8,1.4,3.3
					l2,0.8c-0.3,1.8-0.3,3.6,0,5.5l-2,0.8c-1.3,0.5-1.9,2-1.4,3.3l1.4,3.5C62.7,56.8,64.2,57.4,65.5,56.9z"/>
				<path class="st3" d="M101.3,12.3c3.4-3.7,9.1-4,12.8-0.7c3.7,3.4,4,9.1,0.7,12.8c-3.4,3.7-9.1,4-12.8,0.7
					C98.3,21.8,98,16,101.3,12.3z M100.5,31.8l1.1-1.2c1.2,0.7,2.5,1.1,3.9,1.4l0.1,1.6c0.1,1,1,1.9,2,1.8l2.8-0.1
					c1-0.1,1.9-1,1.8-2l-0.1-1.6c1.3-0.4,2.6-1,3.7-1.8l1.2,1.1c0.8,0.7,2,0.6,2.7-0.1l1.9-2.1c0.7-0.8,0.6-2-0.1-2.7l-1.2-1.1
					c0.7-1.2,1.1-2.5,1.4-3.9l1.6-0.1c1-0.1,1.9-1,1.8-2l-0.1-2.8c-0.1-1-1-1.9-2-1.8l-1.6,0.1c-0.4-1.3-1-2.6-1.8-3.7l1.1-1.2
					c0.7-0.8,0.6-2-0.1-2.7l-2.1-1.9c-0.8-0.7-2-0.6-2.7,0.1l-1.1,1.2c-1.2-0.7-2.5-1.1-3.9-1.4l-0.1-1.6c-0.1-1-1-1.9-2-1.8
					l-2.8,0.1c-1,0.1-1.9,1-1.8,2l0.1,1.6c-1.3,0.4-2.6,1-3.7,1.8l-1.2-1.1c-0.8-0.7-2-0.6-2.7,0.1l-1.9,2.1c-0.7,0.8-0.6,2,0.1,2.7
					l1.2,1.1c-0.7,1.2-1.1,2.5-1.4,3.9l-1.6,0.1c-1,0.1-1.9,1-1.8,2l0.1,2.8c0.1,1,1,1.9,2,1.8l1.6-0.1c0.4,1.3,1,2.6,1.8,3.7
					l-1.1,1.2c-0.7,0.8-0.6,2,0.1,2.7l2.1,1.9C98.6,32.6,99.8,32.5,100.5,31.8z"/>
			</g>
			<g>
				<path class="st4" d="M119,93.1c0,9.6-7.8,17.4-17.4,17.4c-9.6,0-17.4-7.8-17.4-17.4c0-9.6,7.8-17.4,17.4-17.4
					C111.2,75.7,119,83.5,119,93.1z M95.2,64.3v3.1c-2.6,0.6-5.1,1.7-7.3,3l-2.2-2.2c-1.4-1.4-3.8-1.4-5.2,0l-3.8,3.8
					c-1.4,1.4-1.4,3.8,0,5.2l2.2,2.2c-1.4,2.2-2.4,4.7-3,7.3h-3.1c-2,0-3.7,1.6-3.7,3.7v5.4c0,2,1.6,3.7,3.7,3.7h3.1
					c0.6,2.6,1.7,5.1,3,7.3l-2.2,2.2c-1.4,1.4-1.4,3.8,0,5.2l3.8,3.8c1.4,1.4,3.8,1.4,5.2,0l2.2-2.2c2.2,1.4,4.7,2.4,7.3,3v3.1
					c0,2,1.6,3.7,3.7,3.7h5.4c2,0,3.7-1.6,3.7-3.7v-3.1c2.6-0.6,5.1-1.7,7.3-3l2.2,2.2c1.4,1.4,3.8,1.4,5.2,0l3.8-3.8
					c1.4-1.4,1.4-3.8,0-5.2l-2.2-2.2c1.4-2.2,2.4-4.7,3-7.3h3.1c2,0,3.7-1.6,3.7-3.7v-5.4c0-2-1.6-3.7-3.7-3.7h-3.1
					c-0.6-2.6-1.7-5.1-3-7.3l2.2-2.2c1.4-1.4,1.4-3.8,0-5.2l-3.8-3.8c-1.4-1.4-3.8-1.4-5.2,0l-2.2,2.2c-2.2-1.4-4.7-2.4-7.3-3v-3.1
					c0-2-1.6-3.7-3.7-3.7h-5.4C96.8,60.7,95.2,62.3,95.2,64.3z"/>
				<path class="st4" d="M77.6,34.2c6.2-2.5,13.2,0.4,15.7,6.6c2.5,6.2-0.4,13.2-6.6,15.7c-6.2,2.5-13.2-0.4-15.7-6.6
					S71.4,36.7,77.6,34.2z M65.4,57l2-0.8c1.1,1.5,2.4,2.8,3.9,3.9l-0.8,2c-0.5,1.3,0.1,2.8,1.4,3.3l3.5,1.5
					c1.3,0.5,2.8-0.1,3.3-1.4l0.8-2c1.8,0.3,3.6,0.3,5.5,0l0.8,2c0.5,1.3,2,1.9,3.3,1.4l3.5-1.4c1.3-0.5,1.9-2,1.4-3.3l-0.8-2
					c1.5-1.1,2.8-2.4,3.9-3.9l2,0.8c1.3,0.5,2.8-0.1,3.3-1.4l1.5-3.5c0.5-1.3-0.1-2.8-1.4-3.3l-2-0.8c0.3-1.8,0.3-3.6,0-5.5l2-0.8
					c1.3-0.5,1.9-2,1.4-3.3l-1.4-3.5c-0.5-1.3-2-1.9-3.3-1.4l-2,0.8c-1.1-1.5-2.4-2.8-3.9-3.9l0.8-2c0.5-1.3-0.1-2.8-1.4-3.3
					l-3.5-1.5c-1.3-0.5-2.8,0.1-3.3,1.4l-0.8,2c-1.8-0.3-3.6-0.3-5.5,0l-0.8-2c-0.5-1.3-2-1.9-3.3-1.4l-3.5,1.4
					c-1.3,0.5-1.9,2-1.4,3.3l0.8,2c-1.5,1.1-2.8,2.4-3.9,3.9l-2-0.8c-1.3-0.5-2.8,0.1-3.3,1.4l-1.5,3.5c-0.5,1.3,0.1,2.8,1.4,3.3
					l2,0.8c-0.3,1.8-0.3,3.6,0,5.5l-2,0.8c-1.3,0.5-1.9,2-1.4,3.3l1.4,3.5C62.6,56.9,64.1,57.5,65.4,57z"/>
				<path class="st4" d="M101.2,12.4c3.4-3.7,9.1-4,12.8-0.7c3.7,3.4,4,9.1,0.7,12.8c-3.4,3.7-9.1,4-12.8,0.7
					C98.2,21.9,97.9,16.1,101.2,12.4z M100.4,31.9l1.1-1.2c1.2,0.7,2.5,1.1,3.9,1.4l0.1,1.6c0.1,1,1,1.9,2,1.8l2.8-0.1
					c1-0.1,1.9-1,1.8-2l-0.1-1.6c1.3-0.4,2.6-1,3.7-1.8l1.2,1.1c0.8,0.7,2,0.6,2.7-0.1l1.9-2.1c0.7-0.8,0.6-2-0.1-2.7l-1.2-1.1
					c0.7-1.2,1.1-2.5,1.4-3.9l1.6-0.1c1-0.1,1.9-1,1.8-2l-0.1-2.8c-0.1-1-1-1.9-2-1.8l-1.6,0.1c-0.4-1.3-1-2.6-1.8-3.7l1.1-1.2
					c0.7-0.8,0.6-2-0.1-2.7l-2.1-1.9c-0.8-0.7-2-0.6-2.7,0.1l-1.1,1.2c-1.2-0.7-2.5-1.1-3.9-1.4l-0.1-1.6c-0.1-1-1-1.9-2-1.8
					l-2.8,0.1c-1,0.1-1.9,1-1.8,2l0.1,1.6c-1.3,0.4-2.6,1-3.7,1.8L99,6c-0.8-0.7-2-0.6-2.7,0.1l-1.9,2.1c-0.7,0.8-0.6,2,0.1,2.7
					l1.2,1.1c-0.7,1.2-1.1,2.5-1.4,3.9L92.8,16c-1,0.1-1.9,1-1.8,2l0.1,2.8c0.1,1,1,1.9,2,1.8l1.6-0.1c0.4,1.3,1,2.6,1.8,3.7
					l-1.1,1.2c-0.7,0.8-0.6,2,0.1,2.7l2.1,1.9C98.5,32.7,99.7,32.6,100.4,31.9z"/>
			</g>
			<g>
				<path class="st5" d="M118.9,93.2c0,9.6-7.8,17.4-17.4,17.4c-9.6,0-17.4-7.8-17.4-17.4c0-9.6,7.8-17.4,17.4-17.4
					C111.1,75.8,118.9,83.6,118.9,93.2z M95.1,64.4v3.1c-2.6,0.6-5.1,1.7-7.3,3l-2.2-2.2c-1.4-1.4-3.8-1.4-5.2,0l-3.8,3.8
					c-1.4,1.4-1.4,3.8,0,5.2l2.2,2.2c-1.4,2.2-2.4,4.7-3,7.3h-3.1c-2,0-3.7,1.6-3.7,3.7v5.4c0,2,1.6,3.7,3.7,3.7h3.1
					c0.6,2.6,1.7,5.1,3,7.3l-2.2,2.2c-1.4,1.4-1.4,3.8,0,5.2l3.8,3.8c1.4,1.4,3.8,1.4,5.2,0l2.2-2.2c2.2,1.4,4.7,2.4,7.3,3v3.1
					c0,2,1.6,3.7,3.7,3.7h5.4c2,0,3.7-1.6,3.7-3.7v-3.1c2.6-0.6,5.1-1.7,7.3-3l2.2,2.2c1.4,1.4,3.8,1.4,5.2,0l3.8-3.8
					c1.4-1.4,1.4-3.8,0-5.2l-2.2-2.2c1.4-2.2,2.4-4.7,3-7.3h3.1c2,0,3.7-1.6,3.7-3.7v-5.4c0-2-1.6-3.7-3.7-3.7h-3.1
					c-0.6-2.6-1.7-5.1-3-7.3l2.2-2.2c1.4-1.4,1.4-3.8,0-5.2l-3.8-3.8c-1.4-1.4-3.8-1.4-5.2,0l-2.2,2.2c-2.2-1.4-4.7-2.4-7.3-3v-3.1
					c0-2-1.6-3.7-3.7-3.7h-5.4C96.7,60.8,95.1,62.4,95.1,64.4z"/>
				<path class="st5" d="M77.5,34.3c6.2-2.5,13.2,0.4,15.7,6.6c2.5,6.2-0.4,13.2-6.6,15.7c-6.2,2.5-13.2-0.4-15.7-6.6
					S71.3,36.8,77.5,34.3z M65.3,57.1l2-0.8c1.1,1.5,2.4,2.8,3.9,3.9l-0.8,2c-0.5,1.3,0.1,2.8,1.4,3.3l3.5,1.5
					c1.3,0.5,2.8-0.1,3.3-1.4l0.8-2c1.8,0.3,3.6,0.3,5.5,0l0.8,2c0.5,1.3,2,1.9,3.3,1.4l3.5-1.4c1.3-0.5,1.9-2,1.4-3.3l-0.8-2
					c1.5-1.1,2.8-2.4,3.9-3.9l2,0.8c1.3,0.5,2.8-0.1,3.3-1.4l1.5-3.5c0.5-1.3-0.1-2.8-1.4-3.3l-2-0.8c0.3-1.8,0.3-3.6,0-5.5l2-0.8
					c1.3-0.5,1.9-2,1.4-3.3l-1.4-3.5c-0.5-1.3-2-1.9-3.3-1.4l-2,0.8c-1.1-1.5-2.4-2.8-3.9-3.9l0.8-2c0.5-1.3-0.1-2.8-1.4-3.3L89,24
					c-1.3-0.5-2.8,0.1-3.3,1.4l-0.8,2c-1.8-0.3-3.6-0.3-5.5,0l-0.8-2c-0.5-1.3-2-1.9-3.3-1.4l-3.5,1.4c-1.3,0.5-1.9,2-1.4,3.3l0.8,2
					c-1.5,1.1-2.8,2.4-3.9,3.9l-2-0.8c-1.3-0.5-2.8,0.1-3.3,1.4l-1.5,3.5c-0.5,1.3,0.1,2.8,1.4,3.3l2,0.8c-0.3,1.8-0.3,3.6,0,5.5
					l-2,0.8c-1.3,0.5-1.9,2-1.4,3.3l1.4,3.5C62.5,57,64,57.6,65.3,57.1z"/>
				<path class="st5" d="M101.1,12.5c3.4-3.7,9.1-4,12.8-0.7c3.7,3.4,4,9.1,0.7,12.8s-9.1,4-12.8,0.7C98,22,97.7,16.2,101.1,12.5z
					 M100.3,32l1.1-1.2c1.2,0.7,2.5,1.1,3.9,1.4l0.1,1.6c0.1,1,1,1.9,2,1.8l2.8-0.1c1-0.1,1.9-1,1.8-2l-0.1-1.6
					c1.3-0.4,2.6-1,3.7-1.8l1.2,1.1c0.8,0.7,2,0.6,2.7-0.1l1.9-2.1c0.7-0.8,0.6-2-0.1-2.7l-1.2-1.1c0.7-1.2,1.1-2.5,1.4-3.9l1.6-0.1
					c1-0.1,1.9-1,1.8-2l-0.1-2.8c-0.1-1-1-1.9-2-1.8l-1.6,0.1c-0.4-1.3-1-2.6-1.8-3.7l1.1-1.2c0.7-0.8,0.6-2-0.1-2.7l-2.1-1.9
					c-0.8-0.7-2-0.6-2.7,0.1l-1.1,1.2c-1.2-0.7-2.5-1.1-3.9-1.4l-0.1-1.6c-0.1-1-1-1.9-2-1.8l-2.8,0.1c-1,0.1-1.9,1-1.8,2l0.1,1.6
					c-1.3,0.4-2.6,1-3.7,1.8l-1.2-1.1c-0.8-0.7-2-0.6-2.7,0.1l-1.9,2.1c-0.7,0.8-0.6,2,0.1,2.7l1.2,1.1c-0.7,1.2-1.1,2.5-1.4,3.9
					l-1.6,0.1c-1,0.1-1.9,1-1.8,2l0.1,2.8c0.1,1,1,1.9,2,1.8l1.6-0.1c0.4,1.3,1,2.6,1.8,3.7l-1.1,1.2c-0.7,0.8-0.6,2,0.1,2.7
					l2.1,1.9C98.4,32.8,99.6,32.8,100.3,32z"/>
			</g>
			<g>
				<path class="st6" d="M118.8,93.3c0,9.6-7.8,17.4-17.4,17.4c-9.6,0-17.4-7.8-17.4-17.4c0-9.6,7.8-17.4,17.4-17.4
					C111,75.9,118.8,83.7,118.8,93.3z M95,64.5v3.1c-2.6,0.6-5.1,1.7-7.3,3l-2.2-2.2c-1.4-1.4-3.8-1.4-5.2,0l-3.8,3.8
					c-1.4,1.4-1.4,3.8,0,5.2l2.2,2.2c-1.4,2.2-2.4,4.7-3,7.3h-3.1c-2,0-3.7,1.6-3.7,3.7V96c0,2,1.6,3.7,3.7,3.7h3.1
					c0.6,2.6,1.7,5.1,3,7.3l-2.2,2.2c-1.4,1.4-1.4,3.8,0,5.2l3.8,3.8c1.4,1.4,3.8,1.4,5.2,0l2.2-2.2c2.2,1.4,4.7,2.4,7.3,3v3.1
					c0,2,1.6,3.7,3.7,3.7h5.4c2,0,3.7-1.6,3.7-3.7V119c2.6-0.6,5.1-1.7,7.3-3l2.2,2.2c1.4,1.4,3.8,1.4,5.2,0l3.8-3.8
					c1.4-1.4,1.4-3.8,0-5.2L124,107c1.4-2.2,2.4-4.7,3-7.3h3.1c2,0,3.7-1.6,3.7-3.7v-5.4c0-2-1.6-3.7-3.7-3.7H127
					c-0.6-2.6-1.7-5.1-3-7.3l2.2-2.2c1.4-1.4,1.4-3.8,0-5.2l-3.8-3.8c-1.4-1.4-3.8-1.4-5.2,0l-2.2,2.2c-2.2-1.4-4.7-2.4-7.3-3v-3.1
					c0-2-1.6-3.7-3.7-3.7h-5.4C96.6,60.9,95,62.5,95,64.5z"/>
				<path class="st6" d="M77.4,34.4c6.2-2.5,13.2,0.4,15.7,6.6c2.5,6.2-0.4,13.2-6.6,15.7c-6.2,2.5-13.2-0.4-15.7-6.6
					C68.3,44,71.2,36.9,77.4,34.4z M65.2,57.2l2-0.8c1.1,1.5,2.4,2.8,3.9,3.9l-0.8,2c-0.5,1.3,0.1,2.8,1.4,3.3L75,67
					c1.3,0.5,2.8-0.1,3.3-1.4l0.8-2c1.8,0.3,3.6,0.3,5.5,0l0.8,2c0.5,1.3,2,1.9,3.3,1.4l3.5-1.4c1.3-0.5,1.9-2,1.4-3.3l-0.8-2
					c1.5-1.1,2.8-2.4,3.9-3.9l2,0.8c1.3,0.5,2.8-0.1,3.3-1.4l1.5-3.5c0.5-1.3-0.1-2.8-1.4-3.3l-2-0.8c0.3-1.8,0.3-3.6,0-5.5l2-0.8
					c1.3-0.5,1.9-2,1.4-3.3l-1.4-3.5c-0.5-1.3-2-1.9-3.3-1.4l-2,0.8c-1.1-1.5-2.4-2.8-3.9-3.9l0.8-2c0.5-1.3-0.1-2.8-1.4-3.3
					l-3.5-1.5c-1.3-0.5-2.8,0.1-3.3,1.4l-0.8,2c-1.8-0.3-3.6-0.3-5.5,0l-0.8-2c-0.5-1.3-2-1.9-3.3-1.4l-3.5,1.4
					c-1.3,0.5-1.9,2-1.4,3.3l0.8,2c-1.5,1.1-2.8,2.4-3.9,3.9l-2-0.8c-1.3-0.5-2.8,0.1-3.3,1.4l-1.5,3.5c-0.5,1.3,0.1,2.8,1.4,3.3
					l2,0.8c-0.3,1.8-0.3,3.6,0,5.5l-2,0.8c-1.3,0.5-1.9,2-1.4,3.3l1.4,3.5C62.4,57.1,63.9,57.7,65.2,57.2z"/>
				<path class="st6" d="M101,12.6c3.4-3.7,9.1-4,12.8-0.7c3.7,3.4,4,9.1,0.7,12.8c-3.4,3.7-9.1,4-12.8,0.7
					C97.9,22.1,97.6,16.3,101,12.6z M100.2,32.1l1.1-1.2c1.2,0.7,2.5,1.1,3.9,1.4l0.1,1.6c0.1,1,1,1.9,2,1.8l2.8-0.1
					c1-0.1,1.9-1,1.8-2l-0.1-1.6c1.3-0.4,2.6-1,3.7-1.8l1.2,1.1c0.8,0.7,2,0.6,2.7-0.1l1.9-2.1c0.7-0.8,0.6-2-0.1-2.7l-1.2-1.1
					c0.7-1.2,1.1-2.5,1.4-3.9l1.6-0.1c1-0.1,1.9-1,1.8-2l-0.1-2.8c-0.1-1-1-1.9-2-1.8l-1.6,0.1c-0.4-1.3-1-2.6-1.8-3.7l1.1-1.2
					c0.7-0.8,0.6-2-0.1-2.7L118,5.2c-0.8-0.7-2-0.6-2.7,0.1l-1.1,1.2c-1.2-0.7-2.5-1.1-3.9-1.4l-0.1-1.6c-0.1-1-1-1.9-2-1.8
					l-2.8,0.1c-1,0.1-1.9,1-1.8,2l0.1,1.6c-1.3,0.4-2.6,1-3.7,1.8l-1.2-1.1c-0.8-0.7-2-0.6-2.7,0.1l-1.9,2.1c-0.7,0.8-0.6,2,0.1,2.7
					l1.2,1.1c-0.7,1.2-1.1,2.5-1.4,3.9l-1.6,0.1c-1,0.1-1.9,1-1.8,2l0.1,2.8c0.1,1,1,1.9,2,1.8l1.6-0.1c0.4,1.3,1,2.6,1.8,3.7
					l-1.1,1.2c-0.7,0.8-0.6,2,0.1,2.7l2.1,1.9C98.3,32.9,99.5,32.9,100.2,32.1z"/>
			</g>
			<g>
				<path class="st7" d="M118.6,93.4c0,9.6-7.8,17.4-17.4,17.4c-9.6,0-17.4-7.8-17.4-17.4S91.6,76,101.2,76
					C110.8,76,118.6,83.8,118.6,93.4z M94.9,64.7v3.1c-2.6,0.6-5.1,1.7-7.3,3l-2.2-2.2c-1.4-1.4-3.8-1.4-5.2,0l-3.8,3.8
					c-1.4,1.4-1.4,3.8,0,5.2l2.2,2.2c-1.4,2.2-2.4,4.7-3,7.3h-3.1c-2,0-3.7,1.6-3.7,3.7v5.4c0,2,1.6,3.7,3.7,3.7h3.1
					c0.6,2.6,1.7,5.1,3,7.3l-2.2,2.2c-1.4,1.4-1.4,3.8,0,5.2l3.8,3.8c1.4,1.4,3.8,1.4,5.2,0l2.2-2.2c2.2,1.4,4.7,2.4,7.3,3v3.1
					c0,2,1.6,3.7,3.7,3.7h5.4c2,0,3.7-1.6,3.7-3.7v-3.1c2.6-0.6,5.1-1.7,7.3-3l2.2,2.2c1.4,1.4,3.8,1.4,5.2,0l3.8-3.8
					c1.4-1.4,1.4-3.8,0-5.2l-2.2-2.2c1.4-2.2,2.4-4.7,3-7.3h3.1c2,0,3.7-1.6,3.7-3.7v-5.4c0-2-1.6-3.7-3.7-3.7h-3.1
					c-0.6-2.6-1.7-5.1-3-7.3l2.2-2.2c1.4-1.4,1.4-3.8,0-5.2l-3.8-3.8c-1.4-1.4-3.8-1.4-5.2,0l-2.2,2.2c-2.2-1.4-4.7-2.4-7.3-3v-3.1
					c0-2-1.6-3.7-3.7-3.7h-5.4C96.5,61,94.9,62.6,94.9,64.7z"/>
				<path class="st7" d="M77.3,34.5C83.4,32,90.5,35,93,41.1c2.5,6.2-0.4,13.2-6.6,15.7c-6.2,2.5-13.2-0.4-15.7-6.6
					S71.1,37,77.3,34.5z M65,57.3l2-0.8c1.1,1.5,2.4,2.8,3.9,3.9l-0.8,2c-0.5,1.3,0.1,2.8,1.4,3.3l3.5,1.5c1.3,0.5,2.8-0.1,3.3-1.4
					l0.8-2c1.8,0.3,3.6,0.3,5.5,0l0.8,2c0.5,1.3,2,1.9,3.3,1.4l3.5-1.4c1.3-0.5,1.9-2,1.4-3.3l-0.8-2c1.5-1.1,2.8-2.4,3.9-3.9l2,0.8
					c1.3,0.5,2.8-0.1,3.3-1.4l1.5-3.5c0.5-1.3-0.1-2.8-1.4-3.3l-2-0.8c0.3-1.8,0.3-3.6,0-5.5l2-0.8c1.3-0.5,1.9-2,1.4-3.3l-1.4-3.5
					c-0.5-1.3-2-1.9-3.3-1.4l-2,0.8c-1.1-1.5-2.4-2.8-3.9-3.9l0.8-2c0.5-1.3-0.1-2.8-1.4-3.3l-3.5-1.5c-1.3-0.5-2.8,0.1-3.3,1.4
					l-0.8,2c-1.8-0.3-3.6-0.3-5.5,0l-0.8-2c-0.5-1.3-2-1.9-3.3-1.4l-3.5,1.4c-1.3,0.5-1.9,2-1.4,3.3l0.8,2c-1.5,1.1-2.8,2.4-3.9,3.9
					l-2-0.8c-1.3-0.5-2.8,0.1-3.3,1.4l-1.5,3.5c-0.5,1.3,0.1,2.8,1.4,3.3l2,0.8c-0.3,1.8-0.3,3.6,0,5.5l-2,0.8
					c-1.3,0.5-1.9,2-1.4,3.3l1.4,3.5C62.3,57.2,63.8,57.8,65,57.3z"/>
				<path class="st7" d="M100.9,12.7c3.4-3.7,9.1-4,12.8-0.7c3.7,3.4,4,9.1,0.7,12.8c-3.4,3.7-9.1,4-12.8,0.7
					C97.8,22.2,97.5,16.5,100.9,12.7z M100.1,32.2l1.1-1.2c1.2,0.7,2.5,1.1,3.9,1.4l0.1,1.6c0.1,1,1,1.9,2,1.8l2.8-0.1
					c1-0.1,1.9-1,1.8-2l-0.1-1.6c1.3-0.4,2.6-1,3.7-1.8l1.2,1.1c0.8,0.7,2,0.6,2.7-0.1l1.9-2.1c0.7-0.8,0.6-2-0.1-2.7l-1.2-1.1
					c0.7-1.2,1.1-2.5,1.4-3.9l1.6-0.1c1-0.1,1.9-1,1.8-2l-0.1-2.8c-0.1-1-1-1.9-2-1.8l-1.6,0.1c-0.4-1.3-1-2.6-1.8-3.7l1.1-1.2
					c0.7-0.8,0.6-2-0.1-2.7l-2.1-1.9c-0.8-0.7-2-0.6-2.7,0.1l-1.1,1.2c-1.2-0.7-2.5-1.1-3.9-1.4l-0.1-1.6c-0.1-1-1-1.9-2-1.8
					L105.3,2c-1,0.1-1.9,1-1.8,2l0.1,1.6c-1.3,0.4-2.6,1-3.7,1.8l-1.2-1.1c-0.8-0.7-2-0.6-2.7,0.1l-1.9,2.1c-0.7,0.8-0.6,2,0.1,2.7
					l1.2,1.1c-0.7,1.2-1.1,2.5-1.4,3.9l-1.6,0.1c-1,0.1-1.9,1-1.8,2l0.1,2.8c0.1,1,1,1.9,2,1.8l1.6-0.1c0.4,1.3,1,2.6,1.8,3.7
					l-1.1,1.2c-0.7,0.8-0.6,2,0.1,2.7l2.1,1.9C98.1,33,99.4,33,100.1,32.2z"/>
			</g>
			<g>
				<path class="st8" d="M118.5,93.6c0,9.6-7.8,17.4-17.4,17.4c-9.6,0-17.4-7.8-17.4-17.4s7.8-17.4,17.4-17.4
					C110.7,76.1,118.5,83.9,118.5,93.6z M94.8,64.8v3.1c-2.6,0.6-5.1,1.7-7.3,3l-2.2-2.2c-1.4-1.4-3.8-1.4-5.2,0l-3.8,3.8
					c-1.4,1.4-1.4,3.8,0,5.2l2.2,2.2c-1.4,2.2-2.4,4.7-3,7.3h-3.1c-2,0-3.7,1.6-3.7,3.7v5.4c0,2,1.6,3.7,3.7,3.7h3.1
					c0.6,2.6,1.7,5.1,3,7.3l-2.2,2.2c-1.4,1.4-1.4,3.8,0,5.2l3.8,3.8c1.4,1.4,3.8,1.4,5.2,0l2.2-2.2c2.2,1.4,4.7,2.4,7.3,3v3.1
					c0,2,1.6,3.7,3.7,3.7h5.4c2,0,3.7-1.6,3.7-3.7v-3.1c2.6-0.6,5.1-1.7,7.3-3l2.2,2.2c1.4,1.4,3.8,1.4,5.2,0l3.8-3.8
					c1.4-1.4,1.4-3.8,0-5.2l-2.2-2.2c1.4-2.2,2.4-4.7,3-7.3h3.1c2,0,3.7-1.6,3.7-3.7v-5.4c0-2-1.6-3.7-3.7-3.7h-3.1
					c-0.6-2.6-1.7-5.1-3-7.3l2.2-2.2c1.4-1.4,1.4-3.8,0-5.2l-3.8-3.8c-1.4-1.4-3.8-1.4-5.2,0l-2.2,2.2c-2.2-1.4-4.7-2.4-7.3-3v-3.1
					c0-2-1.6-3.7-3.7-3.7h-5.4C96.4,61.1,94.8,62.8,94.8,64.8z"/>
				<path class="st8" d="M77.2,34.6c6.2-2.5,13.2,0.4,15.7,6.6c2.5,6.2-0.4,13.2-6.6,15.7c-6.2,2.5-13.2-0.4-15.7-6.6
					S71,37.2,77.2,34.6z M64.9,57.4l2-0.8c1.1,1.5,2.4,2.8,3.9,3.9l-0.8,2c-0.5,1.3,0.1,2.8,1.4,3.3l3.5,1.5
					c1.3,0.5,2.8-0.1,3.3-1.4l0.8-2c1.8,0.3,3.6,0.3,5.5,0l0.8,2c0.5,1.3,2,1.9,3.3,1.4l3.5-1.4c1.3-0.5,1.9-2,1.4-3.3l-0.8-2
					c1.5-1.1,2.8-2.4,3.9-3.9l2,0.8c1.3,0.5,2.8-0.1,3.3-1.4l1.5-3.5c0.5-1.3-0.1-2.8-1.4-3.3l-2-0.8c0.3-1.8,0.3-3.6,0-5.5l2-0.8
					c1.3-0.5,1.9-2,1.4-3.3l-1.4-3.5c-0.5-1.3-2-1.9-3.3-1.4l-2,0.8c-1.1-1.5-2.4-2.8-3.9-3.9l0.8-2c0.5-1.3-0.1-2.8-1.4-3.3
					l-3.5-1.5c-1.3-0.5-2.8,0.1-3.3,1.4l-0.8,2c-1.8-0.3-3.6-0.3-5.5,0l-0.8-2c-0.5-1.3-2-1.9-3.3-1.4l-3.5,1.4
					c-1.3,0.5-1.9,2-1.4,3.3l0.8,2c-1.5,1.1-2.8,2.4-3.9,3.9l-2-0.8c-1.3-0.5-2.8,0.1-3.3,1.4l-1.5,3.5c-0.5,1.3,0.1,2.8,1.4,3.3
					l2,0.8c-0.3,1.8-0.3,3.6,0,5.5l-2,0.8c-1.3,0.5-1.9,2-1.4,3.3l1.4,3.5C62.2,57.3,63.6,57.9,64.9,57.4z"/>
				<path class="st8" d="M100.8,12.8c3.4-3.7,9.1-4,12.8-0.7c3.7,3.4,4,9.1,0.7,12.8c-3.4,3.7-9.1,4-12.8,0.7
					C97.7,22.3,97.4,16.6,100.8,12.8z M100,32.3l1.1-1.2c1.2,0.7,2.5,1.1,3.9,1.4l0.1,1.6c0.1,1,1,1.9,2,1.8l2.8-0.1
					c1-0.1,1.9-1,1.8-2l-0.1-1.6c1.3-0.4,2.6-1,3.7-1.8l1.2,1.1c0.8,0.7,2,0.6,2.7-0.1l1.9-2.1c0.7-0.8,0.6-2-0.1-2.7l-1.2-1.1
					c0.7-1.2,1.1-2.5,1.4-3.9l1.6-0.1c1-0.1,1.9-1,1.8-2l-0.1-2.8c-0.1-1-1-1.9-2-1.8l-1.6,0.1c-0.4-1.3-1-2.6-1.8-3.7L120,10
					c0.7-0.8,0.6-2-0.1-2.7l-2.1-1.9c-0.8-0.7-2-0.6-2.7,0.1L114,6.7c-1.2-0.7-2.5-1.1-3.9-1.4L110,3.7c-0.1-1-1-1.9-2-1.8l-2.8,0.1
					c-1,0.1-1.9,1-1.8,2l0.1,1.6c-1.3,0.4-2.6,1-3.7,1.8l-1.2-1.1c-0.8-0.7-2-0.6-2.7,0.1L94,8.6c-0.7,0.8-0.6,2,0.1,2.7l1.2,1.1
					c-0.7,1.2-1.1,2.5-1.4,3.9l-1.6,0.1c-1,0.1-1.9,1-1.8,2l0.1,2.8c0.1,1,1,1.9,2,1.8l1.6-0.1c0.4,1.3,1,2.6,1.8,3.7L95,27.9
					c-0.7,0.8-0.6,2,0.1,2.7l2.1,1.9C98,33.1,99.2,33.1,100,32.3z"/>
			</g>
			<g>
				<path class="st9" d="M118.4,93.7c0,9.6-7.8,17.4-17.4,17.4c-9.6,0-17.4-7.8-17.4-17.4s7.8-17.4,17.4-17.4
					C110.6,76.2,118.4,84,118.4,93.7z M94.6,64.9V68c-2.6,0.6-5.1,1.7-7.3,3l-2.2-2.2c-1.4-1.4-3.8-1.4-5.2,0l-3.8,3.8
					c-1.4,1.4-1.4,3.8,0,5.2l2.2,2.2c-1.4,2.2-2.4,4.7-3,7.3h-3.1c-2,0-3.7,1.6-3.7,3.7v5.4c0,2,1.6,3.7,3.7,3.7h3.1
					c0.6,2.6,1.7,5.1,3,7.3l-2.2,2.2c-1.4,1.4-1.4,3.8,0,5.2l3.8,3.8c1.4,1.4,3.8,1.4,5.2,0l2.2-2.2c2.2,1.4,4.7,2.4,7.3,3v3.1
					c0,2,1.6,3.7,3.7,3.7h5.4c2,0,3.7-1.6,3.7-3.7v-3.1c2.6-0.6,5.1-1.7,7.3-3l2.2,2.2c1.4,1.4,3.8,1.4,5.2,0l3.8-3.8
					c1.4-1.4,1.4-3.8,0-5.2l-2.2-2.2c1.4-2.2,2.4-4.7,3-7.3h3.1c2,0,3.7-1.6,3.7-3.7V91c0-2-1.6-3.7-3.7-3.7h-3.1
					c-0.6-2.6-1.7-5.1-3-7.3l2.2-2.2c1.4-1.4,1.4-3.8,0-5.2l-3.8-3.8c-1.4-1.4-3.8-1.4-5.2,0l-2.2,2.2c-2.2-1.4-4.7-2.4-7.3-3v-3.1
					c0-2-1.6-3.7-3.7-3.7h-5.4C96.3,61.2,94.6,62.9,94.6,64.9z"/>
				<path class="st9" d="M77.1,34.7c6.2-2.5,13.2,0.4,15.7,6.6c2.5,6.2-0.4,13.2-6.6,15.7C80,59.6,73,56.6,70.5,50.5
					S70.9,37.3,77.1,34.7z M64.8,57.5l2-0.8c1.1,1.5,2.4,2.8,3.9,3.9l-0.8,2c-0.5,1.3,0.1,2.8,1.4,3.3l3.5,1.5
					c1.3,0.5,2.8-0.1,3.3-1.4l0.8-2c1.8,0.3,3.6,0.3,5.5,0l0.8,2c0.5,1.3,2,1.9,3.3,1.4l3.5-1.4c1.3-0.5,1.9-2,1.4-3.3l-0.8-2
					c1.5-1.1,2.8-2.4,3.9-3.9l2,0.8c1.3,0.5,2.8-0.1,3.3-1.4l1.5-3.5c0.5-1.3-0.1-2.8-1.4-3.3l-2-0.8c0.3-1.8,0.3-3.6,0-5.5l2-0.8
					c1.3-0.5,1.9-2,1.4-3.3l-1.4-3.5c-0.5-1.3-2-1.9-3.3-1.4l-2,0.8c-1.1-1.5-2.4-2.8-3.9-3.9l0.8-2c0.5-1.3-0.1-2.8-1.4-3.3
					l-3.5-1.5c-1.3-0.5-2.8,0.1-3.3,1.4l-0.8,2c-1.8-0.3-3.6-0.3-5.5,0l-0.8-2c-0.5-1.3-2-1.9-3.3-1.4l-3.5,1.4
					c-1.3,0.5-1.9,2-1.4,3.3l0.8,2c-1.5,1.1-2.8,2.4-3.9,3.9l-2-0.8c-1.3-0.5-2.8,0.1-3.3,1.4l-1.5,3.5c-0.5,1.3,0.1,2.8,1.4,3.3
					l2,0.8c-0.3,1.8-0.3,3.6,0,5.5l-2,0.8c-1.3,0.5-1.9,2-1.4,3.3l1.4,3.5C62,57.4,63.5,58.1,64.8,57.5z"/>
				<path class="st9" d="M100.7,12.9c3.4-3.7,9.1-4,12.8-0.7c3.7,3.4,4,9.1,0.7,12.8c-3.4,3.7-9.1,4-12.8,0.7
					C97.6,22.4,97.3,16.7,100.7,12.9z M99.8,32.4l1.1-1.2c1.2,0.7,2.5,1.1,3.9,1.4l0.1,1.6c0.1,1,1,1.9,2,1.8l2.8-0.1
					c1-0.1,1.9-1,1.8-2l-0.1-1.6c1.3-0.4,2.6-1,3.7-1.8l1.2,1.1c0.8,0.7,2,0.6,2.7-0.1l1.9-2.1c0.7-0.8,0.6-2-0.1-2.7l-1.2-1.1
					c0.7-1.2,1.1-2.5,1.4-3.9l1.6-0.1c1-0.1,1.9-1,1.8-2l-0.1-2.8c-0.1-1-1-1.9-2-1.8l-1.6,0.1c-0.4-1.3-1-2.6-1.8-3.7l1.1-1.2
					c0.7-0.8,0.6-2-0.1-2.7l-2.1-1.9c-0.8-0.7-2-0.6-2.7,0.1l-1.1,1.2c-1.2-0.7-2.5-1.1-3.9-1.4l-0.1-1.6c-0.1-1-1-1.9-2-1.8
					l-2.8,0.1c-1,0.1-1.9,1-1.8,2l0.1,1.6c-1.3,0.4-2.6,1-3.7,1.8l-1.2-1.1c-0.8-0.7-2-0.6-2.7,0.1l-1.9,2.1c-0.7,0.8-0.6,2,0.1,2.7
					l1.2,1.1c-0.7,1.2-1.1,2.5-1.4,3.9l-1.6,0.1c-1,0.1-1.9,1-1.8,2l0.1,2.8c0.1,1,1,1.9,2,1.8l1.6-0.1c0.4,1.3,1,2.6,1.8,3.7
					L94.9,28c-0.7,0.8-0.6,2,0.1,2.7l2.1,1.9C97.9,33.3,99.1,33.2,99.8,32.4z"/>
			</g>
			<g>
				<path class="st10" d="M118.3,93.8c0,9.6-7.8,17.4-17.4,17.4c-9.6,0-17.4-7.8-17.4-17.4s7.8-17.4,17.4-17.4
					C110.5,76.4,118.3,84.2,118.3,93.8z M94.5,65v3.1c-2.6,0.6-5.1,1.7-7.3,3L85,68.9c-1.4-1.4-3.8-1.4-5.2,0L76,72.7
					c-1.4,1.4-1.4,3.8,0,5.2l2.2,2.2c-1.4,2.2-2.4,4.7-3,7.3h-3.1c-2,0-3.7,1.6-3.7,3.7v5.4c0,2,1.6,3.7,3.7,3.7h3.1
					c0.6,2.6,1.7,5.1,3,7.3l-2.2,2.2c-1.4,1.4-1.4,3.8,0,5.2l3.8,3.8c1.4,1.4,3.8,1.4,5.2,0l2.2-2.2c2.2,1.4,4.7,2.4,7.3,3v3.1
					c0,2,1.6,3.7,3.7,3.7h5.4c2,0,3.7-1.6,3.7-3.7v-3.1c2.6-0.6,5.1-1.7,7.3-3l2.2,2.2c1.4,1.4,3.8,1.4,5.2,0l3.8-3.8
					c1.4-1.4,1.4-3.8,0-5.2l-2.2-2.2c1.4-2.2,2.4-4.7,3-7.3h3.1c2,0,3.7-1.6,3.7-3.7v-5.4c0-2-1.6-3.7-3.7-3.7h-3.1
					c-0.6-2.6-1.7-5.1-3-7.3l2.2-2.2c1.4-1.4,1.4-3.8,0-5.2l-3.8-3.8c-1.4-1.4-3.8-1.4-5.2,0l-2.2,2.2c-2.2-1.4-4.7-2.4-7.3-3V65
					c0-2-1.6-3.7-3.7-3.7h-5.4C96.2,61.3,94.5,63,94.5,65z"/>
				<path class="st10" d="M77,34.9c6.2-2.5,13.2,0.4,15.7,6.6c2.5,6.2-0.4,13.2-6.6,15.7c-6.2,2.5-13.2-0.4-15.7-6.6
					S70.8,37.4,77,34.9z M64.7,57.6l2-0.8c1.1,1.5,2.4,2.8,3.9,3.9l-0.8,2c-0.5,1.3,0.1,2.8,1.4,3.3l3.5,1.5
					c1.3,0.5,2.8-0.1,3.3-1.4l0.8-2c1.8,0.3,3.6,0.3,5.5,0l0.8,2c0.5,1.3,2,1.9,3.3,1.4l3.5-1.4c1.3-0.5,1.9-2,1.4-3.3l-0.8-2
					c1.5-1.1,2.8-2.4,3.9-3.9l2,0.8c1.3,0.5,2.8-0.1,3.3-1.4L103,53c0.5-1.3-0.1-2.8-1.4-3.3l-2-0.8c0.3-1.8,0.3-3.6,0-5.5l2-0.8
					c1.3-0.5,1.9-2,1.4-3.3l-1.4-3.5c-0.5-1.3-2-1.9-3.3-1.4l-2,0.8c-1.1-1.5-2.4-2.8-3.9-3.9l0.8-2c0.5-1.3-0.1-2.8-1.4-3.3
					l-3.5-1.5c-1.3-0.5-2.8,0.1-3.3,1.4l-0.8,2c-1.8-0.3-3.6-0.3-5.5,0l-0.8-2c-0.5-1.3-2-1.9-3.3-1.4l-3.5,1.4
					c-1.3,0.5-1.9,2-1.4,3.3l0.8,2c-1.5,1.1-2.8,2.4-3.9,3.9l-2-0.8c-1.3-0.5-2.8,0.1-3.3,1.4L60.1,39c-0.5,1.3,0.1,2.8,1.4,3.3
					l2,0.8c-0.3,1.8-0.3,3.6,0,5.5l-2,0.8c-1.3,0.5-1.9,2-1.4,3.3l1.4,3.5C61.9,57.5,63.4,58.2,64.7,57.6z"/>
				<path class="st10" d="M100.6,13.1c3.4-3.7,9.1-4,12.8-0.7c3.7,3.4,4,9.1,0.7,12.8c-3.4,3.7-9.1,4-12.8,0.7
					C97.5,22.5,97.2,16.8,100.6,13.1z M99.7,32.5l1.1-1.2c1.2,0.7,2.5,1.1,3.9,1.4l0.1,1.6c0.1,1,1,1.9,2,1.8l2.8-0.1
					c1-0.1,1.9-1,1.8-2l-0.1-1.6c1.3-0.4,2.6-1,3.7-1.8l1.2,1.1c0.8,0.7,2,0.6,2.7-0.1l1.9-2.1c0.7-0.8,0.6-2-0.1-2.7l-1.2-1.1
					c0.7-1.2,1.1-2.5,1.4-3.9l1.6-0.1c1-0.1,1.9-1,1.8-2l-0.1-2.8c-0.1-1-1-1.9-2-1.8l-1.6,0.1c-0.4-1.3-1-2.6-1.8-3.7l1.1-1.2
					c0.7-0.8,0.6-2-0.1-2.7l-2.1-1.9c-0.8-0.7-2-0.6-2.7,0.1l-1.1,1.2c-1.2-0.7-2.5-1.1-3.9-1.4L109.8,4c-0.1-1-1-1.9-2-1.8L105,2.3
					c-1,0.1-1.9,1-1.8,2l0.1,1.6c-1.3,0.4-2.6,1-3.7,1.8l-1.2-1.1c-0.8-0.7-2-0.6-2.7,0.1l-1.9,2.1c-0.7,0.8-0.6,2,0.1,2.7l1.2,1.1
					c-0.7,1.2-1.1,2.5-1.4,3.9l-1.6,0.1c-1,0.1-1.9,1-1.8,2l0.1,2.8c0.1,1,1,1.9,2,1.8l1.6-0.1c0.4,1.3,1,2.6,1.8,3.7l-1.1,1.2
					c-0.7,0.8-0.6,2,0.1,2.7l2.1,1.9C97.8,33.4,99,33.3,99.7,32.5z"/>
			</g>
			<g>
				<path class="st11" d="M118.2,93.9c0,9.6-7.8,17.4-17.4,17.4c-9.6,0-17.4-7.8-17.4-17.4s7.8-17.4,17.4-17.4
					C110.4,76.5,118.2,84.3,118.2,93.9z M94.4,65.1v3.1c-2.6,0.6-5.1,1.7-7.3,3L84.9,69c-1.4-1.4-3.8-1.4-5.2,0l-3.8,3.8
					c-1.4,1.4-1.4,3.8,0,5.2l2.2,2.2c-1.4,2.2-2.4,4.7-3,7.3H72c-2,0-3.7,1.6-3.7,3.7v5.4c0,2,1.6,3.7,3.7,3.7h3.1
					c0.6,2.6,1.7,5.1,3,7.3l-2.2,2.2c-1.4,1.4-1.4,3.8,0,5.2l3.8,3.8c1.4,1.4,3.8,1.4,5.2,0l2.2-2.2c2.2,1.4,4.7,2.4,7.3,3v3.1
					c0,2,1.6,3.7,3.7,3.7h5.4c2,0,3.7-1.6,3.7-3.7v-3.1c2.6-0.6,5.1-1.7,7.3-3l2.2,2.2c1.4,1.4,3.8,1.4,5.2,0l3.8-3.8
					c1.4-1.4,1.4-3.8,0-5.2l-2.2-2.2c1.4-2.2,2.4-4.7,3-7.3h3.1c2,0,3.7-1.6,3.7-3.7v-5.4c0-2-1.6-3.7-3.7-3.7h-3.1
					c-0.6-2.6-1.7-5.1-3-7.3l2.2-2.2c1.4-1.4,1.4-3.8,0-5.2l-3.8-3.8c-1.4-1.4-3.8-1.4-5.2,0l-2.2,2.2c-2.2-1.4-4.7-2.4-7.3-3v-3.1
					c0-2-1.6-3.7-3.7-3.7h-5.4C96.1,61.4,94.4,63.1,94.4,65.1z"/>
				<path class="st11" d="M76.8,35c6.2-2.5,13.2,0.4,15.7,6.6c2.5,6.2-0.4,13.2-6.6,15.7c-6.2,2.5-13.2-0.4-15.7-6.6
					S70.7,37.5,76.8,35z M64.6,57.7l2-0.8c1.1,1.5,2.4,2.8,3.9,3.9l-0.8,2c-0.5,1.3,0.1,2.8,1.4,3.3l3.5,1.5
					c1.3,0.5,2.8-0.1,3.3-1.4l0.8-2c1.8,0.3,3.6,0.3,5.5,0l0.8,2c0.5,1.3,2,1.9,3.3,1.4l3.5-1.4c1.3-0.5,1.9-2,1.4-3.3l-0.8-2
					c1.5-1.1,2.8-2.4,3.9-3.9l2,0.8c1.3,0.5,2.8-0.1,3.3-1.4l1.5-3.5c0.5-1.3-0.1-2.8-1.4-3.3l-2-0.8c0.3-1.8,0.3-3.6,0-5.5l2-0.8
					c1.3-0.5,1.9-2,1.4-3.3l-1.4-3.5c-0.5-1.3-2-1.9-3.3-1.4l-2,0.8c-1.1-1.5-2.4-2.8-3.9-3.9l0.8-2c0.5-1.3-0.1-2.8-1.4-3.3
					l-3.5-1.5c-1.3-0.5-2.8,0.1-3.3,1.4l-0.8,2c-1.8-0.3-3.6-0.3-5.5,0l-0.8-2c-0.5-1.3-2-1.9-3.3-1.4L71.2,26
					c-1.3,0.5-1.9,2-1.4,3.3l0.8,2c-1.5,1.1-2.8,2.4-3.9,3.9l-2-0.8c-1.3-0.5-2.8,0.1-3.3,1.4L60,39.2c-0.5,1.3,0.1,2.8,1.4,3.3
					l2,0.8c-0.3,1.8-0.3,3.6,0,5.5l-2,0.8c-1.3,0.5-1.9,2-1.4,3.3l1.4,3.5C61.8,57.7,63.3,58.3,64.6,57.7z"/>
				<path class="st11" d="M100.4,13.2c3.4-3.7,9.1-4,12.8-0.7c3.7,3.4,4,9.1,0.7,12.8c-3.4,3.7-9.1,4-12.8,0.7
					C97.4,22.6,97.1,16.9,100.4,13.2z M99.6,32.6l1.1-1.2c1.2,0.7,2.5,1.1,3.9,1.4l0.1,1.6c0.1,1,1,1.9,2,1.8l2.8-0.1
					c1-0.1,1.9-1,1.8-2l-0.1-1.6c1.3-0.4,2.6-1,3.7-1.8l1.2,1.1c0.8,0.7,2,0.6,2.7-0.1l1.9-2.1c0.7-0.8,0.6-2-0.1-2.7l-1.2-1.1
					c0.7-1.2,1.1-2.5,1.4-3.9l1.6-0.1c1-0.1,1.9-1,1.8-2l-0.1-2.8c-0.1-1-1-1.9-2-1.8l-1.6,0.1c-0.4-1.3-1-2.6-1.8-3.7l1.1-1.2
					c0.7-0.8,0.6-2-0.1-2.7l-2.1-1.9c-0.8-0.7-2-0.6-2.7,0.1l-1.1,1.2c-1.2-0.7-2.5-1.1-3.9-1.4l-0.1-1.6c-0.1-1-1-1.9-2-1.8
					l-2.8,0.1c-1,0.1-1.9,1-1.8,2l0.1,1.6c-1.3,0.4-2.6,1-3.7,1.8l-1.2-1.1c-0.8-0.7-2-0.6-2.7,0.1L93.7,9c-0.7,0.8-0.6,2,0.1,2.7
					l1.2,1.1c-0.7,1.2-1.1,2.5-1.4,3.9L92,16.7c-1,0.1-1.9,1-1.8,2l0.1,2.8c0.1,1,1,1.9,2,1.8l1.6-0.1c0.4,1.3,1,2.6,1.8,3.7
					l-1.1,1.2c-0.7,0.8-0.6,2,0.1,2.7l2.1,1.9C97.7,33.5,98.9,33.4,99.6,32.6z"/>
			</g>
			<g>
				<path class="st12" d="M118.1,94c0,9.6-7.8,17.4-17.4,17.4c-9.6,0-17.4-7.8-17.4-17.4c0-9.6,7.8-17.4,17.4-17.4
					C110.3,76.6,118.1,84.4,118.1,94z M94.3,65.2v3.1c-2.6,0.6-5.1,1.7-7.3,3l-2.2-2.2c-1.4-1.4-3.8-1.4-5.2,0L75.8,73
					c-1.4,1.4-1.4,3.8,0,5.2l2.2,2.2c-1.4,2.2-2.4,4.7-3,7.3h-3.1c-2,0-3.7,1.6-3.7,3.7v5.4c0,2,1.6,3.7,3.7,3.7H75
					c0.6,2.6,1.7,5.1,3,7.3l-2.2,2.2c-1.4,1.4-1.4,3.8,0,5.2l3.8,3.8c1.4,1.4,3.8,1.4,5.2,0l2.2-2.2c2.2,1.4,4.7,2.4,7.3,3v3.1
					c0,2,1.6,3.7,3.7,3.7h5.4c2,0,3.7-1.6,3.7-3.7v-3.1c2.6-0.6,5.1-1.7,7.3-3l2.2,2.2c1.4,1.4,3.8,1.4,5.2,0l3.8-3.8
					c1.4-1.4,1.4-3.8,0-5.2l-2.2-2.2c1.4-2.2,2.4-4.7,3-7.3h3.1c2,0,3.7-1.6,3.7-3.7v-5.4c0-2-1.6-3.7-3.7-3.7h-3.1
					c-0.6-2.6-1.7-5.1-3-7.3l2.2-2.2c1.4-1.4,1.4-3.8,0-5.2l-3.8-3.8c-1.4-1.4-3.8-1.4-5.2,0l-2.2,2.2c-2.2-1.4-4.7-2.4-7.3-3v-3.1
					c0-2-1.6-3.7-3.7-3.7H98C96,61.5,94.3,63.2,94.3,65.2z"/>
				<path class="st12" d="M76.7,35.1c6.2-2.5,13.2,0.4,15.7,6.6c2.5,6.2-0.4,13.2-6.6,15.7c-6.2,2.5-13.2-0.4-15.7-6.6
					S70.6,37.6,76.7,35.1z M64.5,57.9l2-0.8c1.1,1.5,2.4,2.8,3.9,3.9l-0.8,2c-0.5,1.3,0.1,2.8,1.4,3.3l3.5,1.5
					c1.3,0.5,2.8-0.1,3.3-1.4l0.8-2c1.8,0.3,3.6,0.3,5.5,0l0.8,2c0.5,1.3,2,1.9,3.3,1.4l3.5-1.4c1.3-0.5,1.9-2,1.4-3.3l-0.8-2
					c1.5-1.1,2.8-2.4,3.9-3.9l2,0.8c1.3,0.5,2.8-0.1,3.3-1.4l1.5-3.5c0.5-1.3-0.1-2.8-1.4-3.3l-2-0.8c0.3-1.8,0.3-3.6,0-5.5l2-0.8
					c1.3-0.5,1.9-2,1.4-3.3l-1.4-3.5c-0.5-1.3-2-1.9-3.3-1.4l-2,0.8c-1.1-1.5-2.4-2.8-3.9-3.9l0.8-2c0.5-1.3-0.1-2.8-1.4-3.3
					l-3.5-1.5c-1.3-0.5-2.8,0.1-3.3,1.4l-0.8,2c-1.8-0.3-3.6-0.3-5.5,0l-0.8-2c-0.5-1.3-2-1.9-3.3-1.4l-3.5,1.4
					c-1.3,0.5-1.9,2-1.4,3.3l0.8,2c-1.5,1.1-2.8,2.4-3.9,3.9l-2-0.8c-1.3-0.5-2.8,0.1-3.3,1.4l-1.5,3.5c-0.5,1.3,0.1,2.8,1.4,3.3
					l2,0.8c-0.3,1.8-0.3,3.6,0,5.5l-2,0.8c-1.3,0.5-1.9,2-1.4,3.3l1.4,3.5C61.7,57.8,63.2,58.4,64.5,57.9z"/>
				<path class="st12" d="M100.3,13.3c3.4-3.7,9.1-4,12.8-0.7c3.7,3.4,4,9.1,0.7,12.8c-3.4,3.7-9.1,4-12.8,0.7
					C97.3,22.7,97,17,100.3,13.3z M99.5,32.7l1.1-1.2c1.2,0.7,2.5,1.1,3.9,1.4l0.1,1.6c0.1,1,1,1.9,2,1.8l2.8-0.1c1-0.1,1.9-1,1.8-2
					l-0.1-1.6c1.3-0.4,2.6-1,3.7-1.8l1.2,1.1c0.8,0.7,2,0.6,2.7-0.1l1.9-2.1c0.7-0.8,0.6-2-0.1-2.7l-1.2-1.1
					c0.7-1.2,1.1-2.5,1.4-3.9l1.6-0.1c1-0.1,1.9-1,1.8-2l-0.1-2.8c-0.1-1-1-1.9-2-1.8l-1.6,0.1c-0.4-1.3-1-2.6-1.8-3.7l1.1-1.2
					c0.7-0.8,0.6-2-0.1-2.7l-2.1-1.9c-0.8-0.7-2-0.6-2.7,0.1l-1.1,1.2c-1.2-0.7-2.5-1.1-3.9-1.4l-0.1-1.6c-0.1-1-1-1.9-2-1.8
					l-2.8,0.1c-1,0.1-1.9,1-1.8,2l0.1,1.6c-1.3,0.4-2.6,1-3.7,1.8l-1.2-1.1c-0.8-0.7-2-0.6-2.7,0.1l-1.9,2.1c-0.7,0.8-0.6,2,0.1,2.7
					l1.2,1.1c-0.7,1.2-1.1,2.5-1.4,3.9l-1.6,0.1c-1,0.1-1.9,1-1.8,2l0.1,2.8c0.1,1,1,1.9,2,1.8l1.6-0.1c0.4,1.3,1,2.6,1.8,3.7
					l-1.1,1.2c-0.7,0.8-0.6,2,0.1,2.7l2.1,1.9C97.6,33.6,98.8,33.5,99.5,32.7z"/>
			</g>
			<g>
				<path class="st13" d="M118,94.1c0,9.6-7.8,17.4-17.4,17.4c-9.6,0-17.4-7.8-17.4-17.4c0-9.6,7.8-17.4,17.4-17.4
					C110.2,76.7,118,84.5,118,94.1z M94.2,65.3v3.1c-2.6,0.6-5.1,1.7-7.3,3l-2.2-2.2c-1.4-1.4-3.8-1.4-5.2,0l-3.8,3.8
					c-1.4,1.4-1.4,3.8,0,5.2l2.2,2.2c-1.4,2.2-2.4,4.7-3,7.3h-3.1c-2,0-3.7,1.6-3.7,3.7v5.4c0,2,1.6,3.7,3.7,3.7h3.1
					c0.6,2.6,1.7,5.1,3,7.3l-2.2,2.2c-1.4,1.4-1.4,3.8,0,5.2l3.8,3.8c1.4,1.4,3.8,1.4,5.2,0l2.2-2.2c2.2,1.4,4.7,2.4,7.3,3v3.1
					c0,2,1.6,3.7,3.7,3.7h5.4c2,0,3.7-1.6,3.7-3.7v-3.1c2.6-0.6,5.1-1.7,7.3-3l2.2,2.2c1.4,1.4,3.8,1.4,5.2,0l3.8-3.8
					c1.4-1.4,1.4-3.8,0-5.2l-2.2-2.2c1.4-2.2,2.4-4.7,3-7.3h3.1c2,0,3.7-1.6,3.7-3.7v-5.4c0-2-1.6-3.7-3.7-3.7h-3.1
					c-0.6-2.6-1.7-5.1-3-7.3l2.2-2.2c1.4-1.4,1.4-3.8,0-5.2l-3.8-3.8c-1.4-1.4-3.8-1.4-5.2,0l-2.2,2.2c-2.2-1.4-4.7-2.4-7.3-3v-3.1
					c0-2-1.6-3.7-3.7-3.7h-5.4C95.9,61.6,94.2,63.3,94.2,65.3z"/>
				<path class="st13" d="M76.6,35.2c6.2-2.5,13.2,0.4,15.7,6.6c2.5,6.2-0.4,13.2-6.6,15.7C79.6,60,72.5,57.1,70,50.9
					S70.5,37.7,76.6,35.2z M64.4,58l2-0.8c1.1,1.5,2.4,2.8,3.9,3.9l-0.8,2c-0.5,1.3,0.1,2.8,1.4,3.3l3.5,1.5
					c1.3,0.5,2.8-0.1,3.3-1.4l0.8-2c1.8,0.3,3.6,0.3,5.5,0l0.8,2c0.5,1.3,2,1.9,3.3,1.4l3.5-1.4c1.3-0.5,1.9-2,1.4-3.3l-0.8-2
					c1.5-1.1,2.8-2.4,3.9-3.9l2,0.8c1.3,0.5,2.8-0.1,3.3-1.4l1.5-3.5c0.5-1.3-0.1-2.8-1.4-3.3l-2-0.8c0.3-1.8,0.3-3.6,0-5.5l2-0.8
					c1.3-0.5,1.9-2,1.4-3.3l-1.4-3.5c-0.5-1.3-2-1.9-3.3-1.4l-2,0.8c-1.1-1.5-2.4-2.8-3.9-3.9l0.8-2c0.5-1.3-0.1-2.8-1.4-3.3
					l-3.5-1.5c-1.3-0.5-2.8,0.1-3.3,1.4l-0.8,2c-1.8-0.3-3.6-0.3-5.5,0l-0.8-2c-0.5-1.3-2-1.9-3.3-1.4L71,26.2
					c-1.3,0.5-1.9,2-1.4,3.3l0.8,2c-1.5,1.1-2.8,2.4-3.9,3.9l-2-0.8c-1.3-0.5-2.8,0.1-3.3,1.4l-1.5,3.5c-0.5,1.3,0.1,2.8,1.4,3.3
					l2,0.8c-0.3,1.8-0.3,3.6,0,5.5l-2,0.8c-1.3,0.5-1.9,2-1.4,3.3l1.4,3.5C61.6,57.9,63.1,58.5,64.4,58z"/>
				<path class="st13" d="M100.2,13.4c3.4-3.7,9.1-4,12.8-0.7c3.7,3.4,4,9.1,0.7,12.8c-3.4,3.7-9.1,4-12.8,0.7
					C97.2,22.9,96.9,17.1,100.2,13.4z M99.4,32.8l1.1-1.2c1.2,0.7,2.5,1.1,3.9,1.4l0.1,1.6c0.1,1,1,1.9,2,1.8l2.8-0.1
					c1-0.1,1.9-1,1.8-2l-0.1-1.6c1.3-0.4,2.6-1,3.7-1.8l1.2,1.1c0.8,0.7,2,0.6,2.7-0.1l1.9-2.1c0.7-0.8,0.6-2-0.1-2.7l-1.2-1.1
					c0.7-1.2,1.1-2.5,1.4-3.9l1.6-0.1c1-0.1,1.9-1,1.8-2l-0.1-2.8c-0.1-1-1-1.9-2-1.8l-1.6,0.1c-0.4-1.3-1-2.6-1.8-3.7l1.1-1.2
					c0.7-0.8,0.6-2-0.1-2.7l-2.1-1.9c-0.8-0.7-2-0.6-2.7,0.1l-1.1,1.2c-1.2-0.7-2.5-1.1-3.9-1.4l-0.1-1.6c-0.1-1-1-1.9-2-1.8
					l-2.8,0.1c-1,0.1-1.9,1-1.8,2l0.1,1.6c-1.3,0.4-2.6,1-3.7,1.8L98,6.9c-0.8-0.7-2-0.6-2.7,0.1l-1.9,2.1c-0.7,0.8-0.6,2,0.1,2.7
					l1.2,1.1c-0.7,1.2-1.1,2.5-1.4,3.9l-1.6,0.1c-1,0.1-1.9,1-1.8,2l0.1,2.8c0.1,1,1,1.9,2,1.8l1.6-0.1c0.4,1.3,1,2.6,1.8,3.7
					l-1.1,1.2c-0.7,0.8-0.6,2,0.1,2.7l2.1,1.9C97.5,33.7,98.7,33.6,99.4,32.8z"/>
			</g>
			<g>
				<path class="st14" d="M117.9,94.2c0,9.6-7.8,17.4-17.4,17.4c-9.6,0-17.4-7.8-17.4-17.4s7.8-17.4,17.4-17.4
					C110.1,76.8,117.9,84.6,117.9,94.2z M94.1,65.4v3.1c-2.6,0.6-5.1,1.7-7.3,3l-2.2-2.2c-1.4-1.4-3.8-1.4-5.2,0l-3.8,3.8
					c-1.4,1.4-1.4,3.8,0,5.2l2.2,2.2c-1.4,2.2-2.4,4.7-3,7.3h-3.1c-2,0-3.7,1.6-3.7,3.7v5.4c0,2,1.6,3.7,3.7,3.7h3.1
					c0.6,2.6,1.7,5.1,3,7.3l-2.2,2.2c-1.4,1.4-1.4,3.8,0,5.2l3.8,3.8c1.4,1.4,3.8,1.4,5.2,0l2.2-2.2c2.2,1.4,4.7,2.4,7.3,3v3.1
					c0,2,1.6,3.7,3.7,3.7h5.4c2,0,3.7-1.6,3.7-3.7v-3.1c2.6-0.6,5.1-1.7,7.3-3l2.2,2.2c1.4,1.4,3.8,1.4,5.2,0l3.8-3.8
					c1.4-1.4,1.4-3.8,0-5.2l-2.2-2.2c1.4-2.2,2.4-4.7,3-7.3h3.1c2,0,3.7-1.6,3.7-3.7v-5.4c0-2-1.6-3.7-3.7-3.7h-3.1
					c-0.6-2.6-1.7-5.1-3-7.3l2.2-2.2c1.4-1.4,1.4-3.8,0-5.2l-3.8-3.8c-1.4-1.4-3.8-1.4-5.2,0l-2.2,2.2c-2.2-1.4-4.7-2.4-7.3-3v-3.1
					c0-2-1.6-3.7-3.7-3.7h-5.4C95.8,61.8,94.1,63.4,94.1,65.4z"/>
				<path class="st14" d="M76.5,35.3c6.2-2.5,13.2,0.4,15.7,6.6c2.5,6.2-0.4,13.2-6.6,15.7c-6.2,2.5-13.2-0.4-15.7-6.6
					S70.3,37.8,76.5,35.3z M64.3,58.1l2-0.8c1.1,1.5,2.4,2.8,3.9,3.9l-0.8,2c-0.5,1.3,0.1,2.8,1.4,3.3l3.5,1.5
					c1.3,0.5,2.8-0.1,3.3-1.4l0.8-2c1.8,0.3,3.6,0.3,5.5,0l0.8,2c0.5,1.3,2,1.9,3.3,1.4l3.5-1.4c1.3-0.5,1.9-2,1.4-3.3l-0.8-2
					c1.5-1.1,2.8-2.4,3.9-3.9l2,0.8c1.3,0.5,2.8-0.1,3.3-1.4l1.5-3.5c0.5-1.3-0.1-2.8-1.4-3.3l-2-0.8c0.3-1.8,0.3-3.6,0-5.5l2-0.8
					c1.3-0.5,1.9-2,1.4-3.3l-1.4-3.5c-0.5-1.3-2-1.9-3.3-1.4l-2,0.8c-1.1-1.5-2.4-2.8-3.9-3.9l0.8-2c0.5-1.3-0.1-2.8-1.4-3.3
					L88.1,25c-1.3-0.5-2.8,0.1-3.3,1.4l-0.8,2c-1.8-0.3-3.6-0.3-5.5,0l-0.8-2c-0.5-1.3-2-1.9-3.3-1.4l-3.5,1.4
					c-1.3,0.5-1.9,2-1.4,3.3l0.8,2c-1.5,1.1-2.8,2.4-3.9,3.9l-2-0.8c-1.3-0.5-2.8,0.1-3.3,1.4l-1.5,3.5c-0.5,1.3,0.1,2.8,1.4,3.3
					l2,0.8c-0.3,1.8-0.3,3.6,0,5.5l-2,0.8c-1.3,0.5-1.9,2-1.4,3.3l1.4,3.5C61.5,58,63,58.6,64.3,58.1z"/>
				<path class="st14" d="M100.1,13.5c3.4-3.7,9.1-4,12.8-0.7c3.7,3.4,4,9.1,0.7,12.8c-3.4,3.7-9.1,4-12.8,0.7
					C97.1,23,96.8,17.2,100.1,13.5z M99.3,33l1.1-1.2c1.2,0.7,2.5,1.1,3.9,1.4l0.1,1.6c0.1,1,1,1.9,2,1.8l2.8-0.1c1-0.1,1.9-1,1.8-2
					l-0.1-1.6c1.3-0.4,2.6-1,3.7-1.8l1.2,1.1c0.8,0.7,2,0.6,2.7-0.1l1.9-2.1c0.7-0.8,0.6-2-0.1-2.7l-1.2-1.1
					c0.7-1.2,1.1-2.5,1.4-3.9l1.6-0.1c1-0.1,1.9-1,1.8-2l-0.1-2.8c-0.1-1-1-1.9-2-1.8l-1.6,0.1c-0.4-1.3-1-2.6-1.8-3.7l1.1-1.2
					c0.7-0.8,0.6-2-0.1-2.7L117.1,6c-0.8-0.7-2-0.6-2.7,0.1l-1.1,1.2c-1.2-0.7-2.5-1.1-3.9-1.4l-0.1-1.6c-0.1-1-1-1.9-2-1.8
					l-2.8,0.1c-1,0.1-1.9,1-1.8,2l0.1,1.6c-1.3,0.4-2.6,1-3.7,1.8l-1.2-1.1c-0.8-0.7-2-0.6-2.7,0.1l-1.9,2.1c-0.7,0.8-0.6,2,0.1,2.7
					l1.2,1.1c-0.7,1.2-1.1,2.5-1.4,3.9L91.7,17c-1,0.1-1.9,1-1.8,2l0.1,2.8c0.1,1,1,1.9,2,1.8l1.6-0.1c0.4,1.3,1,2.6,1.8,3.7
					l-1.1,1.2c-0.7,0.8-0.6,2,0.1,2.7l2.1,1.9C97.4,33.8,98.6,33.7,99.3,33z"/>
			</g>
			<g>
				<path class="st15" d="M117.8,94.3c0,9.6-7.8,17.4-17.4,17.4c-9.6,0-17.4-7.8-17.4-17.4s7.8-17.4,17.4-17.4
					C110,76.9,117.8,84.7,117.8,94.3z M94,65.5v3.1c-2.6,0.6-5.1,1.7-7.3,3l-2.2-2.2c-1.4-1.4-3.8-1.4-5.2,0l-3.8,3.8
					c-1.4,1.4-1.4,3.8,0,5.2l2.2,2.2c-1.4,2.2-2.4,4.7-3,7.3h-3.1c-2,0-3.7,1.6-3.7,3.7V97c0,2,1.6,3.7,3.7,3.7h3.1
					c0.6,2.6,1.7,5.1,3,7.3l-2.2,2.2c-1.4,1.4-1.4,3.8,0,5.2l3.8,3.8c1.4,1.4,3.8,1.4,5.2,0l2.2-2.2c2.2,1.4,4.7,2.4,7.3,3v3.1
					c0,2,1.6,3.7,3.7,3.7h5.4c2,0,3.7-1.6,3.7-3.7V120c2.6-0.6,5.1-1.7,7.3-3l2.2,2.2c1.4,1.4,3.8,1.4,5.2,0l3.8-3.8
					c1.4-1.4,1.4-3.8,0-5.2L123,108c1.4-2.2,2.4-4.7,3-7.3h3.1c2,0,3.7-1.6,3.7-3.7v-5.4c0-2-1.6-3.7-3.7-3.7H126
					c-0.6-2.6-1.7-5.1-3-7.3l2.2-2.2c1.4-1.4,1.4-3.8,0-5.2l-3.8-3.8c-1.4-1.4-3.8-1.4-5.2,0l-2.2,2.2c-2.2-1.4-4.7-2.4-7.3-3v-3.1
					c0-2-1.6-3.7-3.7-3.7h-5.4C95.6,61.9,94,63.5,94,65.5z"/>
				<path class="st15" d="M76.4,35.4c6.2-2.5,13.2,0.4,15.7,6.6c2.5,6.2-0.4,13.2-6.6,15.7c-6.2,2.5-13.2-0.4-15.7-6.6
					S70.2,37.9,76.4,35.4z M64.2,58.2l2-0.8c1.1,1.5,2.4,2.8,3.9,3.9l-0.8,2c-0.5,1.3,0.1,2.8,1.4,3.3L74,68
					c1.3,0.5,2.8-0.1,3.3-1.4l0.8-2c1.8,0.3,3.6,0.3,5.5,0l0.8,2c0.5,1.3,2,1.9,3.3,1.4l3.5-1.4c1.3-0.5,1.9-2,1.4-3.3l-0.8-2
					c1.5-1.1,2.8-2.4,3.9-3.9l2,0.8c1.3,0.5,2.8-0.1,3.3-1.4l1.5-3.5c0.5-1.3-0.1-2.8-1.4-3.3l-2-0.8c0.3-1.8,0.3-3.6,0-5.5l2-0.8
					c1.3-0.5,1.9-2,1.4-3.3l-1.4-3.5c-0.5-1.3-2-1.9-3.3-1.4l-2,0.8c-1.1-1.5-2.4-2.8-3.9-3.9l0.8-2c0.5-1.3-0.1-2.8-1.4-3.3
					l-3.5-1.5c-1.3-0.5-2.8,0.1-3.3,1.4l-0.8,2c-1.8-0.3-3.6-0.3-5.5,0l-0.8-2c-0.5-1.3-2-1.9-3.3-1.4l-3.5,1.4
					c-1.3,0.5-1.9,2-1.4,3.3l0.8,2c-1.5,1.1-2.8,2.4-3.9,3.9l-2-0.8c-1.3-0.5-2.8,0.1-3.3,1.4l-1.5,3.5c-0.5,1.3,0.1,2.8,1.4,3.3
					l2,0.8c-0.3,1.8-0.3,3.6,0,5.5l-2,0.8c-1.3,0.5-1.9,2-1.4,3.3l1.4,3.5C61.4,58.1,62.9,58.7,64.2,58.2z"/>
				<path class="st15" d="M100,13.6c3.4-3.7,9.1-4,12.8-0.7c3.7,3.4,4,9.1,0.7,12.8c-3.4,3.7-9.1,4-12.8,0.7
					C97,23.1,96.7,17.3,100,13.6z M99.2,33.1l1.1-1.2c1.2,0.7,2.5,1.1,3.9,1.4l0.1,1.6c0.1,1,1,1.9,2,1.8l2.8-0.1c1-0.1,1.9-1,1.8-2
					l-0.1-1.6c1.3-0.4,2.6-1,3.7-1.8l1.2,1.1c0.8,0.7,2,0.6,2.7-0.1l1.9-2.1c0.7-0.8,0.6-2-0.1-2.7l-1.2-1.1
					c0.7-1.2,1.1-2.5,1.4-3.9l1.6-0.1c1-0.1,1.9-1,1.8-2l-0.1-2.8c-0.1-1-1-1.9-2-1.8l-1.6,0.1c-0.4-1.3-1-2.6-1.8-3.7l1.1-1.2
					c0.7-0.8,0.6-2-0.1-2.7L117,6.1c-0.8-0.7-2-0.6-2.7,0.1l-1.1,1.2c-1.2-0.7-2.5-1.1-3.9-1.4l-0.1-1.6c-0.1-1-1-1.9-2-1.8
					l-2.8,0.1c-1,0.1-1.9,1-1.8,2l0.1,1.6c-1.3,0.4-2.6,1-3.7,1.8l-1.2-1.1c-0.8-0.7-2-0.6-2.7,0.1l-1.9,2.1c-0.7,0.8-0.6,2,0.1,2.7
					l1.2,1.1c-0.7,1.2-1.1,2.5-1.4,3.9l-1.6,0.1c-1,0.1-1.9,1-1.8,2l0.1,2.8c0.1,1,1,1.9,2,1.8l1.6-0.1c0.4,1.3,1,2.6,1.8,3.7
					l-1.1,1.2c-0.7,0.8-0.6,2,0.1,2.7l2.1,1.9C97.3,33.9,98.5,33.8,99.2,33.1z"/>
			</g>
			<g>
				<path class="st16" d="M117.7,94.4c0,9.6-7.8,17.4-17.4,17.4c-9.6,0-17.4-7.8-17.4-17.4c0-9.6,7.8-17.4,17.4-17.4
					C109.9,77,117.7,84.8,117.7,94.4z M93.9,65.6v3.1c-2.6,0.6-5.1,1.7-7.3,3l-2.2-2.2c-1.4-1.4-3.8-1.4-5.2,0l-3.8,3.8
					c-1.4,1.4-1.4,3.8,0,5.2l2.2,2.2c-1.4,2.2-2.4,4.7-3,7.3h-3.1c-2,0-3.7,1.6-3.7,3.7v5.4c0,2,1.6,3.7,3.7,3.7h3.1
					c0.6,2.6,1.7,5.1,3,7.3l-2.2,2.2c-1.4,1.4-1.4,3.8,0,5.2l3.8,3.8c1.4,1.4,3.8,1.4,5.2,0l2.2-2.2c2.2,1.4,4.7,2.4,7.3,3v3.1
					c0,2,1.6,3.7,3.7,3.7h5.4c2,0,3.7-1.6,3.7-3.7v-3.1c2.6-0.6,5.1-1.7,7.3-3l2.2,2.2c1.4,1.4,3.8,1.4,5.2,0l3.8-3.8
					c1.4-1.4,1.4-3.8,0-5.2l-2.2-2.2c1.4-2.2,2.4-4.7,3-7.3h3.1c2,0,3.7-1.6,3.7-3.7v-5.4c0-2-1.6-3.7-3.7-3.7h-3.1
					c-0.6-2.6-1.7-5.1-3-7.3l2.2-2.2c1.4-1.4,1.4-3.8,0-5.2l-3.8-3.8c-1.4-1.4-3.8-1.4-5.2,0l-2.2,2.2c-2.2-1.4-4.7-2.4-7.3-3v-3.1
					c0-2-1.6-3.7-3.7-3.7h-5.4C95.5,62,93.9,63.6,93.9,65.6z"/>
				<path class="st16" d="M76.3,35.5c6.2-2.5,13.2,0.4,15.7,6.6c2.5,6.2-0.4,13.2-6.6,15.7c-6.2,2.5-13.2-0.4-15.7-6.6
					C67.2,45.1,70.1,38,76.3,35.5z M64.1,58.3l2-0.8c1.1,1.5,2.4,2.8,3.9,3.9l-0.8,2c-0.5,1.3,0.1,2.8,1.4,3.3l3.5,1.5
					c1.3,0.5,2.8-0.1,3.3-1.4l0.8-2c1.8,0.3,3.6,0.3,5.5,0l0.8,2c0.5,1.3,2,1.9,3.3,1.4l3.5-1.4c1.3-0.5,1.9-2,1.4-3.3l-0.8-2
					c1.5-1.1,2.8-2.4,3.9-3.9l2,0.8c1.3,0.5,2.8-0.1,3.3-1.4l1.5-3.5c0.5-1.3-0.1-2.8-1.4-3.3l-2-0.8c0.3-1.8,0.3-3.6,0-5.5l2-0.8
					c1.3-0.5,1.9-2,1.4-3.3l-1.4-3.5c-0.5-1.3-2-1.9-3.3-1.4l-2,0.8c-1.1-1.5-2.4-2.8-3.9-3.9l0.8-2c0.5-1.3-0.1-2.8-1.4-3.3
					l-3.5-1.5c-1.3-0.5-2.8,0.1-3.3,1.4l-0.8,2c-1.8-0.3-3.6-0.3-5.5,0l-0.8-2c-0.5-1.3-2-1.9-3.3-1.4l-3.5,1.4
					c-1.3,0.5-1.9,2-1.4,3.3l0.8,2c-1.5,1.1-2.8,2.4-3.9,3.9l-2-0.8c-1.3-0.5-2.8,0.1-3.3,1.4l-1.5,3.5c-0.5,1.3,0.1,2.8,1.4,3.3
					l2,0.8c-0.3,1.8-0.3,3.6,0,5.5l-2,0.8c-1.3,0.5-1.9,2-1.4,3.3l1.4,3.5C61.3,58.2,62.8,58.8,64.1,58.3z"/>
				<path class="st16" d="M99.9,13.7c3.4-3.7,9.1-4,12.8-0.7c3.7,3.4,4,9.1,0.7,12.8c-3.4,3.7-9.1,4-12.8,0.7
					C96.8,23.2,96.5,17.4,99.9,13.7z M99.1,33.2l1.1-1.2c1.2,0.7,2.5,1.1,3.9,1.4l0.1,1.6c0.1,1,1,1.9,2,1.8l2.8-0.1
					c1-0.1,1.9-1,1.8-2l-0.1-1.6c1.3-0.4,2.6-1,3.7-1.8l1.2,1.1c0.8,0.7,2,0.6,2.7-0.1l1.9-2.1c0.7-0.8,0.6-2-0.1-2.7l-1.2-1.1
					c0.7-1.2,1.1-2.5,1.4-3.9l1.6-0.1c1-0.1,1.9-1,1.8-2l-0.1-2.8c-0.1-1-1-1.9-2-1.8l-1.6,0.1c-0.4-1.3-1-2.6-1.8-3.7l1.1-1.2
					c0.7-0.8,0.6-2-0.1-2.7l-2.1-1.9c-0.8-0.7-2-0.6-2.7,0.1l-1.1,1.2c-1.2-0.7-2.5-1.1-3.9-1.4l-0.1-1.6c-0.1-1-1-1.9-2-1.8
					L104.4,3c-1,0.1-1.9,1-1.8,2l0.1,1.6c-1.3,0.4-2.6,1-3.7,1.8l-1.2-1.1c-0.8-0.7-2-0.6-2.7,0.1l-1.9,2.1c-0.7,0.8-0.6,2,0.1,2.7
					l1.2,1.1c-0.7,1.2-1.1,2.5-1.4,3.9l-1.6,0.1c-1,0.1-1.9,1-1.8,2l0.1,2.8c0.1,1,1,1.9,2,1.8l1.6-0.1c0.4,1.3,1,2.6,1.8,3.7
					l-1.1,1.2c-0.7,0.8-0.6,2,0.1,2.7l2.1,1.9C97.2,34,98.4,34,99.1,33.2z"/>
			</g>
			<g>
				<path class="st17" d="M117.6,94.5c0,9.6-7.8,17.4-17.4,17.4c-9.6,0-17.4-7.8-17.4-17.4c0-9.6,7.8-17.4,17.4-17.4
					C109.8,77.1,117.6,84.9,117.6,94.5z M93.8,65.7v3.1c-2.6,0.6-5.1,1.7-7.3,3l-2.2-2.2c-1.4-1.4-3.8-1.4-5.2,0l-3.8,3.8
					c-1.4,1.4-1.4,3.8,0,5.2l2.2,2.2c-1.4,2.2-2.4,4.7-3,7.3h-3.1c-2,0-3.7,1.6-3.7,3.7v5.4c0,2,1.6,3.7,3.7,3.7h3.1
					c0.6,2.6,1.7,5.1,3,7.3l-2.2,2.2c-1.4,1.4-1.4,3.8,0,5.2l3.8,3.8c1.4,1.4,3.8,1.4,5.2,0l2.2-2.2c2.2,1.4,4.7,2.4,7.3,3v3.1
					c0,2,1.6,3.7,3.7,3.7h5.4c2,0,3.7-1.6,3.7-3.7v-3.1c2.6-0.6,5.1-1.7,7.3-3l2.2,2.2c1.4,1.4,3.8,1.4,5.2,0l3.8-3.8
					c1.4-1.4,1.4-3.8,0-5.2l-2.2-2.2c1.4-2.2,2.4-4.7,3-7.3h3.1c2,0,3.7-1.6,3.7-3.7v-5.4c0-2-1.6-3.7-3.7-3.7h-3.1
					c-0.6-2.6-1.7-5.1-3-7.3l2.2-2.2c1.4-1.4,1.4-3.8,0-5.2l-3.8-3.8c-1.4-1.4-3.8-1.4-5.2,0l-2.2,2.2c-2.2-1.4-4.7-2.4-7.3-3v-3.1
					c0-2-1.6-3.7-3.7-3.7h-5.4C95.4,62.1,93.8,63.7,93.8,65.7z"/>
				<path class="st17" d="M76.2,35.6c6.2-2.5,13.2,0.4,15.7,6.6c2.5,6.2-0.4,13.2-6.6,15.7c-6.2,2.5-13.2-0.4-15.7-6.6
					C67.1,45.2,70,38.1,76.2,35.6z M64,58.4l2-0.8c1.1,1.5,2.4,2.8,3.9,3.9l-0.8,2c-0.5,1.3,0.1,2.8,1.4,3.3l3.5,1.5
					c1.3,0.5,2.8-0.1,3.3-1.4l0.8-2c1.8,0.3,3.6,0.3,5.5,0l0.8,2c0.5,1.3,2,1.9,3.3,1.4l3.5-1.4c1.3-0.5,1.9-2,1.4-3.3l-0.8-2
					c1.5-1.1,2.8-2.4,3.9-3.9l2,0.8c1.3,0.5,2.8-0.1,3.3-1.4l1.5-3.5c0.5-1.3-0.1-2.8-1.4-3.3l-2-0.8c0.3-1.8,0.3-3.6,0-5.5l2-0.8
					c1.3-0.5,1.9-2,1.4-3.3l-1.4-3.5c-0.5-1.3-2-1.9-3.3-1.4l-2,0.8c-1.1-1.5-2.4-2.8-3.9-3.9l0.8-2c0.5-1.3-0.1-2.8-1.4-3.3
					l-3.5-1.5c-1.3-0.5-2.8,0.1-3.3,1.4l-0.8,2c-1.8-0.3-3.6-0.3-5.5,0l-0.8-2c-0.5-1.3-2-1.9-3.3-1.4l-3.5,1.4
					c-1.3,0.5-1.9,2-1.4,3.3l0.8,2c-1.5,1.1-2.8,2.4-3.9,3.9l-2-0.8c-1.3-0.5-2.8,0.1-3.3,1.4l-1.5,3.5c-0.5,1.3,0.1,2.8,1.4,3.3
					l2,0.8c-0.3,1.8-0.3,3.6,0,5.5l-2,0.8c-1.3,0.5-1.9,2-1.4,3.3l1.4,3.5C61.2,58.3,62.7,58.9,64,58.4z"/>
				<path class="st17" d="M99.8,13.8c3.4-3.7,9.1-4,12.8-0.7c3.7,3.4,4,9.1,0.7,12.8c-3.4,3.7-9.1,4-12.8,0.7
					C96.7,23.3,96.4,17.5,99.8,13.8z M99,33.3l1.1-1.2c1.2,0.7,2.5,1.1,3.9,1.4l0.1,1.6c0.1,1,1,1.9,2,1.8l2.8-0.1
					c1-0.1,1.9-1,1.8-2l-0.1-1.6c1.3-0.4,2.6-1,3.7-1.8l1.2,1.1c0.8,0.7,2,0.6,2.7-0.1l1.9-2.1c0.7-0.8,0.6-2-0.1-2.7l-1.2-1.1
					c0.7-1.2,1.1-2.5,1.4-3.9l1.6-0.1c1-0.1,1.9-1,1.8-2l-0.1-2.8c-0.1-1-1-1.9-2-1.8l-1.6,0.1c-0.4-1.3-1-2.6-1.8-3.7l1.1-1.2
					c0.7-0.8,0.6-2-0.1-2.7l-2.1-1.9c-0.8-0.7-2-0.6-2.7,0.1L113,7.7c-1.2-0.7-2.5-1.1-3.9-1.4l-0.1-1.6c-0.1-1-1-1.9-2-1.8
					l-2.8,0.1c-1,0.1-1.9,1-1.8,2l0.1,1.6c-1.3,0.4-2.6,1-3.7,1.8l-1.2-1.1c-0.8-0.7-2-0.6-2.7,0.1L93,9.6c-0.7,0.8-0.6,2,0.1,2.7
					l1.2,1.1c-0.7,1.2-1.1,2.5-1.4,3.9l-1.6,0.1c-1,0.1-1.9,1-1.8,2l0.1,2.8c0.1,1,1,1.9,2,1.8l1.6-0.1c0.4,1.3,1,2.6,1.8,3.7
					L94,28.8c-0.7,0.8-0.6,2,0.1,2.7l2.1,1.9C97.1,34.1,98.3,34.1,99,33.3z"/>
			</g>
			<g>
				<path class="st18" d="M117.4,94.6c0,9.6-7.8,17.4-17.4,17.4c-9.6,0-17.4-7.8-17.4-17.4c0-9.6,7.8-17.4,17.4-17.4
					C109.6,77.2,117.4,85,117.4,94.6z M93.7,65.9V69c-2.6,0.6-5.1,1.7-7.3,3l-2.2-2.2c-1.4-1.4-3.8-1.4-5.2,0l-3.8,3.8
					c-1.4,1.4-1.4,3.8,0,5.2l2.2,2.2c-1.4,2.2-2.4,4.7-3,7.3h-3.1c-2,0-3.7,1.6-3.7,3.7v5.4c0,2,1.6,3.7,3.7,3.7h3.1
					c0.6,2.6,1.7,5.1,3,7.3l-2.2,2.2c-1.4,1.4-1.4,3.8,0,5.2l3.8,3.8c1.4,1.4,3.8,1.4,5.2,0l2.2-2.2c2.2,1.4,4.7,2.4,7.3,3v3.1
					c0,2,1.6,3.7,3.7,3.7h5.4c2,0,3.7-1.6,3.7-3.7v-3.1c2.6-0.6,5.1-1.7,7.3-3l2.2,2.2c1.4,1.4,3.8,1.4,5.2,0l3.8-3.8
					c1.4-1.4,1.4-3.8,0-5.2l-2.2-2.2c1.4-2.2,2.4-4.7,3-7.3h3.1c2,0,3.7-1.6,3.7-3.7v-5.4c0-2-1.6-3.7-3.7-3.7h-3.1
					c-0.6-2.6-1.7-5.1-3-7.3l2.2-2.2c1.4-1.4,1.4-3.8,0-5.2l-3.8-3.8c-1.4-1.4-3.8-1.4-5.2,0l-2.2,2.2c-2.2-1.4-4.7-2.4-7.3-3v-3.1
					c0-2-1.6-3.7-3.7-3.7h-5.4C95.3,62.2,93.7,63.8,93.7,65.9z"/>
				<path class="st18" d="M76.1,35.7c6.2-2.5,13.2,0.4,15.7,6.6c2.5,6.2-0.4,13.2-6.6,15.7S72,57.6,69.5,51.5S69.9,38.2,76.1,35.7z
					 M63.8,58.5l2-0.8c1.1,1.5,2.4,2.8,3.9,3.9l-0.8,2c-0.5,1.3,0.1,2.8,1.4,3.3l3.5,1.5c1.3,0.5,2.8-0.1,3.3-1.4l0.8-2
					c1.8,0.3,3.6,0.3,5.5,0l0.8,2c0.5,1.3,2,1.9,3.3,1.4l3.5-1.4c1.3-0.5,1.9-2,1.4-3.3l-0.8-2c1.5-1.1,2.8-2.4,3.9-3.9l2,0.8
					c1.3,0.5,2.8-0.1,3.3-1.4l1.5-3.5c0.5-1.3-0.1-2.8-1.4-3.3l-2-0.8c0.3-1.8,0.3-3.6,0-5.5l2-0.8c1.3-0.5,1.9-2,1.4-3.3l-1.4-3.5
					c-0.5-1.3-2-1.9-3.3-1.4l-2,0.8c-1.1-1.5-2.4-2.8-3.9-3.9l0.8-2c0.5-1.3-0.1-2.8-1.4-3.3l-3.5-1.5c-1.3-0.5-2.8,0.1-3.3,1.4
					l-0.8,2c-1.8-0.3-3.6-0.3-5.5,0l-0.8-2c-0.5-1.3-2-1.9-3.3-1.4l-3.5,1.4c-1.3,0.5-1.9,2-1.4,3.3l0.8,2c-1.5,1.1-2.8,2.4-3.9,3.9
					l-2-0.8c-1.3-0.5-2.8,0.1-3.3,1.4l-1.5,3.5c-0.5,1.3,0.1,2.8,1.4,3.3l2,0.8c-0.3,1.8-0.3,3.6,0,5.5l-2,0.8
					c-1.3,0.5-1.9,2-1.4,3.3l1.4,3.5C61.1,58.4,62.6,59,63.8,58.5z"/>
				<path class="st18" d="M99.7,13.9c3.4-3.7,9.1-4,12.8-0.7c3.7,3.4,4,9.1,0.7,12.8c-3.4,3.7-9.1,4-12.8,0.7
					C96.6,23.4,96.3,17.7,99.7,13.9z M98.9,33.4l1.1-1.2c1.2,0.7,2.5,1.1,3.9,1.4l0.1,1.6c0.1,1,1,1.9,2,1.8l2.8-0.1
					c1-0.1,1.9-1,1.8-2l-0.1-1.6c1.3-0.4,2.6-1,3.7-1.8l1.2,1.1c0.8,0.7,2,0.6,2.7-0.1l1.9-2.1c0.7-0.8,0.6-2-0.1-2.7l-1.2-1.1
					c0.7-1.2,1.1-2.5,1.4-3.9l1.6-0.1c1-0.1,1.9-1,1.8-2l-0.1-2.8c-0.1-1-1-1.9-2-1.8l-1.6,0.1c-0.4-1.3-1-2.6-1.8-3.7l1.1-1.2
					c0.7-0.8,0.6-2-0.1-2.7l-2.1-1.9c-0.8-0.7-2-0.6-2.7,0.1l-1.1,1.2c-1.2-0.7-2.5-1.1-3.9-1.4L109,4.8c-0.1-1-1-1.9-2-1.8
					l-2.8,0.1c-1,0.1-1.9,1-1.8,2l0.1,1.6c-1.3,0.4-2.6,1-3.7,1.8l-1.2-1.1c-0.8-0.7-2-0.6-2.7,0.1l-1.9,2.1c-0.7,0.8-0.6,2,0.1,2.7
					l1.2,1.1c-0.7,1.2-1.1,2.5-1.4,3.9l-1.6,0.1c-1,0.1-1.9,1-1.8,2l0.1,2.8c0.1,1,1,1.9,2,1.8l1.6-0.1c0.4,1.3,1,2.6,1.8,3.7
					l-1.1,1.2c-0.7,0.8-0.6,2,0.1,2.7l2.1,1.9C96.9,34.2,98.2,34.2,98.9,33.4z"/>
			</g>
			<g>
				<path class="st19" d="M117.3,94.8c0,9.6-7.8,17.4-17.4,17.4c-9.6,0-17.4-7.8-17.4-17.4c0-9.6,7.8-17.4,17.4-17.4
					C109.5,77.3,117.3,85.1,117.3,94.8z M93.6,66v3.1c-2.6,0.6-5.1,1.7-7.3,3l-2.2-2.2c-1.4-1.4-3.8-1.4-5.2,0l-3.8,3.8
					c-1.4,1.4-1.4,3.8,0,5.2l2.2,2.2c-1.4,2.2-2.4,4.7-3,7.3h-3.1c-2,0-3.7,1.6-3.7,3.7v5.4c0,2,1.6,3.7,3.7,3.7h3.1
					c0.6,2.6,1.7,5.1,3,7.3l-2.2,2.2c-1.4,1.4-1.4,3.8,0,5.2l3.8,3.8c1.4,1.4,3.8,1.4,5.2,0l2.2-2.2c2.2,1.4,4.7,2.4,7.3,3v3.1
					c0,2,1.6,3.7,3.7,3.7h5.4c2,0,3.7-1.6,3.7-3.7v-3.1c2.6-0.6,5.1-1.7,7.3-3l2.2,2.2c1.4,1.4,3.8,1.4,5.2,0l3.8-3.8
					c1.4-1.4,1.4-3.8,0-5.2l-2.2-2.2c1.4-2.2,2.4-4.7,3-7.3h3.1c2,0,3.7-1.6,3.7-3.7V92c0-2-1.6-3.7-3.7-3.7h-3.1
					c-0.6-2.6-1.7-5.1-3-7.3l2.2-2.2c1.4-1.4,1.4-3.8,0-5.2l-3.8-3.8c-1.4-1.4-3.8-1.4-5.2,0l-2.2,2.2c-2.2-1.4-4.7-2.4-7.3-3V66
					c0-2-1.6-3.7-3.7-3.7h-5.4C95.2,62.3,93.6,64,93.6,66z"/>
				<path class="st19" d="M76,35.8c6.2-2.5,13.2,0.4,15.7,6.6c2.5,6.2-0.4,13.2-6.6,15.7s-13.2-0.4-15.7-6.6S69.8,38.4,76,35.8z
					 M63.7,58.6l2-0.8c1.1,1.5,2.4,2.8,3.9,3.9l-0.8,2c-0.5,1.3,0.1,2.8,1.4,3.3l3.5,1.5c1.3,0.5,2.8-0.1,3.3-1.4l0.8-2
					c1.8,0.3,3.6,0.3,5.5,0l0.8,2c0.5,1.3,2,1.9,3.3,1.4l3.5-1.4c1.3-0.5,1.9-2,1.4-3.3l-0.8-2c1.5-1.1,2.8-2.4,3.9-3.9l2,0.8
					c1.3,0.5,2.8-0.1,3.3-1.4L102,54c0.5-1.3-0.1-2.8-1.4-3.3l-2-0.8c0.3-1.8,0.3-3.6,0-5.5l2-0.8c1.3-0.5,1.9-2,1.4-3.3l-1.4-3.5
					c-0.5-1.3-2-1.9-3.3-1.4l-2,0.8c-1.1-1.5-2.4-2.8-3.9-3.9l0.8-2c0.5-1.3-0.1-2.8-1.4-3.3l-3.5-1.5c-1.3-0.5-2.8,0.1-3.3,1.4
					l-0.8,2c-1.8-0.3-3.6-0.3-5.5,0l-0.8-2c-0.5-1.3-2-1.9-3.3-1.4l-3.5,1.4c-1.3,0.5-1.9,2-1.4,3.3l0.8,2c-1.5,1.1-2.8,2.4-3.9,3.9
					l-2-0.8c-1.3-0.5-2.8,0.1-3.3,1.4L59.1,40c-0.5,1.3,0.1,2.8,1.4,3.3l2,0.8c-0.3,1.8-0.3,3.6,0,5.5l-2,0.8
					c-1.3,0.5-1.9,2-1.4,3.3l1.4,3.5C61,58.5,62.4,59.1,63.7,58.6z"/>
				<path class="st19" d="M99.6,14c3.4-3.7,9.1-4,12.8-0.7c3.7,3.4,4,9.1,0.7,12.8c-3.4,3.7-9.1,4-12.8,0.7
					C96.5,23.5,96.2,17.8,99.6,14z M98.8,33.5l1.1-1.2c1.2,0.7,2.5,1.1,3.9,1.4l0.1,1.6c0.1,1,1,1.9,2,1.8l2.8-0.1
					c1-0.1,1.9-1,1.8-2l-0.1-1.6c1.3-0.4,2.6-1,3.7-1.8l1.2,1.1c0.8,0.7,2,0.6,2.7-0.1l1.9-2.1c0.7-0.8,0.6-2-0.1-2.7l-1.2-1.1
					c0.7-1.2,1.1-2.5,1.4-3.9l1.6-0.1c1-0.1,1.9-1,1.8-2l-0.1-2.8c-0.1-1-1-1.9-2-1.8l-1.6,0.1c-0.4-1.3-1-2.6-1.8-3.7l1.1-1.2
					c0.7-0.8,0.6-2-0.1-2.7l-2.1-1.9c-0.8-0.7-2-0.6-2.7,0.1l-1.1,1.2c-1.2-0.7-2.5-1.1-3.9-1.4l-0.1-1.6c-0.1-1-1-1.9-2-1.8
					L104,3.3c-1,0.1-1.9,1-1.8,2l0.1,1.6c-1.3,0.4-2.6,1-3.7,1.8l-1.2-1.1c-0.8-0.7-2-0.6-2.7,0.1l-1.9,2.1c-0.7,0.8-0.6,2,0.1,2.7
					l1.2,1.1c-0.7,1.2-1.1,2.5-1.4,3.9l-1.6,0.1c-1,0.1-1.9,1-1.8,2l0.1,2.8c0.1,1,1,1.9,2,1.8l1.6-0.1c0.4,1.3,1,2.6,1.8,3.7
					l-1.1,1.2c-0.7,0.8-0.6,2,0.1,2.7l2.1,1.9C96.8,34.3,98,34.3,98.8,33.5z"/>
			</g>
			<g>
				<path class="st20" d="M117.2,94.9c0,9.6-7.8,17.4-17.4,17.4c-9.6,0-17.4-7.8-17.4-17.4c0-9.6,7.8-17.4,17.4-17.4
					C109.4,77.4,117.2,85.2,117.2,94.9z M93.4,66.1v3.1c-2.6,0.6-5.1,1.7-7.3,3L84,70c-1.4-1.4-3.8-1.4-5.2,0L75,73.8
					c-1.4,1.4-1.4,3.8,0,5.2l2.2,2.2c-1.4,2.2-2.4,4.7-3,7.3H71c-2,0-3.7,1.6-3.7,3.7v5.4c0,2,1.6,3.7,3.7,3.7h3.1
					c0.6,2.6,1.7,5.1,3,7.3l-2.2,2.2c-1.4,1.4-1.4,3.8,0,5.2l3.8,3.8c1.4,1.4,3.8,1.4,5.2,0l2.2-2.2c2.2,1.4,4.7,2.4,7.3,3v3.1
					c0,2,1.6,3.7,3.7,3.7h5.4c2,0,3.7-1.6,3.7-3.7v-3.1c2.6-0.6,5.1-1.7,7.3-3l2.2,2.2c1.4,1.4,3.8,1.4,5.2,0l3.8-3.8
					c1.4-1.4,1.4-3.8,0-5.2l-2.2-2.2c1.4-2.2,2.4-4.7,3-7.3h3.1c2,0,3.7-1.6,3.7-3.7v-5.4c0-2-1.6-3.7-3.7-3.7h-3.1
					c-0.6-2.6-1.7-5.1-3-7.3l2.2-2.2c1.4-1.4,1.4-3.8,0-5.2l-3.8-3.8c-1.4-1.4-3.8-1.4-5.2,0l-2.2,2.2c-2.2-1.4-4.7-2.4-7.3-3v-3.1
					c0-2-1.6-3.7-3.7-3.7h-5.4C95.1,62.4,93.4,64.1,93.4,66.1z"/>
				<path class="st20" d="M75.9,35.9c6.2-2.5,13.2,0.4,15.7,6.6c2.5,6.2-0.4,13.2-6.6,15.7s-13.2-0.4-15.7-6.6S69.7,38.5,75.9,35.9z
					 M63.6,58.7l2-0.8c1.1,1.5,2.4,2.8,3.9,3.9l-0.8,2c-0.5,1.3,0.1,2.8,1.4,3.3l3.5,1.5c1.3,0.5,2.8-0.1,3.3-1.4l0.8-2
					c1.8,0.3,3.6,0.3,5.5,0l0.8,2c0.5,1.3,2,1.9,3.3,1.4l3.5-1.4c1.3-0.5,1.9-2,1.4-3.3l-0.8-2c1.5-1.1,2.8-2.4,3.9-3.9l2,0.8
					c1.3,0.5,2.8-0.1,3.3-1.4l1.5-3.5c0.5-1.3-0.1-2.8-1.4-3.3l-2-0.8c0.3-1.8,0.3-3.6,0-5.5l2-0.8c1.3-0.5,1.9-2,1.4-3.3l-1.4-3.5
					c-0.5-1.3-2-1.9-3.3-1.4l-2,0.8c-1.1-1.5-2.4-2.8-3.9-3.9l0.8-2c0.5-1.3-0.1-2.8-1.4-3.3l-3.5-1.5c-1.3-0.5-2.8,0.1-3.3,1.4
					l-0.8,2c-1.8-0.3-3.6-0.3-5.5,0L77,27c-0.5-1.3-2-1.9-3.3-1.4L70.2,27c-1.3,0.5-1.9,2-1.4,3.3l0.8,2c-1.5,1.1-2.8,2.4-3.9,3.9
					l-2-0.8c-1.3-0.5-2.8,0.1-3.3,1.4L59,40.1c-0.5,1.3,0.1,2.8,1.4,3.3l2,0.8c-0.3,1.8-0.3,3.6,0,5.5l-2,0.8
					c-1.3,0.5-1.9,2-1.4,3.3l1.4,3.5C60.8,58.6,62.3,59.3,63.6,58.7z"/>
				<path class="st20" d="M99.5,14.1c3.4-3.7,9.1-4,12.8-0.7c3.7,3.4,4,9.1,0.7,12.8c-3.4,3.7-9.1,4-12.8,0.7
					C96.4,23.6,96.1,17.9,99.5,14.1z M98.6,33.6l1.1-1.2c1.2,0.7,2.5,1.1,3.9,1.4l0.1,1.6c0.1,1,1,1.9,2,1.8l2.8-0.1
					c1-0.1,1.9-1,1.8-2l-0.1-1.6c1.3-0.4,2.6-1,3.7-1.8l1.2,1.1c0.8,0.7,2,0.6,2.7-0.1l1.9-2.1c0.7-0.8,0.6-2-0.1-2.7l-1.2-1.1
					c0.7-1.2,1.1-2.5,1.4-3.9l1.6-0.1c1-0.1,1.9-1,1.8-2l-0.1-2.8c-0.1-1-1-1.9-2-1.8l-1.6,0.1c-0.4-1.3-1-2.6-1.8-3.7l1.1-1.2
					c0.7-0.8,0.6-2-0.1-2.7l-2.1-1.9c-0.8-0.7-2-0.6-2.7,0.1L112.7,8c-1.2-0.7-2.5-1.1-3.9-1.4L108.7,5c-0.1-1-1-1.9-2-1.8l-2.8,0.1
					c-1,0.1-1.9,1-1.8,2l0.1,1.6c-1.3,0.4-2.6,1-3.7,1.8l-1.2-1.1c-0.8-0.7-2-0.6-2.7,0.1l-1.9,2.1c-0.7,0.8-0.6,2,0.1,2.7l1.2,1.1
					c-0.7,1.2-1.1,2.5-1.4,3.9L91,17.7c-1,0.1-1.9,1-1.8,2l0.1,2.8c0.1,1,1,1.9,2,1.8l1.6-0.1c0.4,1.3,1,2.6,1.8,3.7l-1.1,1.2
					c-0.7,0.8-0.6,2,0.1,2.7l2.1,1.9C96.7,34.5,97.9,34.4,98.6,33.6z"/>
			</g>
		</g>
		<g>
			<g>
				<circle cx="106.2" cy="20.2" r="9.1"/>
				<circle class="st21" cx="106.2" cy="20.2" r="7.5"/>
			</g>
			<g>
				<ellipse transform="matrix(0.5084 -0.8611 0.8611 0.5084 -1.0328 92.4127)" cx="80.4" cy="47.1" rx="12.1" ry="12.1"/>
				<ellipse transform="matrix(0.9901 -0.1404 0.1404 0.9901 -5.8173 11.7564)" class="st21" cx="80.4" cy="47.1" rx="10" ry="10"/>
			</g>
			<g>
				<ellipse transform="matrix(0.5238 -0.8518 0.8518 0.5238 -33.2762 130.1976)" cx="99.8" cy="94.9" rx="17.4" ry="17.4"/>
				
					<ellipse transform="matrix(5.216196e-02 -0.9986 0.9986 5.216196e-02 -0.1267 189.5892)" class="st21" cx="99.8" cy="94.9" rx="14.4" ry="14.4"/>
			</g>
			<g>
				<path class="st22" d="M93.4,66.1v3.1c-2.6,0.6-5.1,1.7-7.3,3L84,70c-1.4-1.4-3.8-1.4-5.2,0L75,73.8c-1.4,1.4-1.4,3.8,0,5.2
					l2.2,2.2c-1.4,2.2-2.4,4.7-3,7.3H71c-2,0-3.7,1.6-3.7,3.7v5.4c0,2,1.6,3.7,3.7,3.7h3.1c0.6,2.6,1.7,5.1,3,7.3l-2.2,2.2
					c-1.4,1.4-1.4,3.8,0,5.2l3.8,3.8c1.4,1.4,3.8,1.4,5.2,0l2.2-2.2c2.2,1.4,4.7,2.4,7.3,3v3.1c0,2,1.6,3.7,3.7,3.7h5.4
					c2,0,3.7-1.6,3.7-3.7v-3.1c2.6-0.6,5.1-1.7,7.3-3l2.2,2.2c1.4,1.4,3.8,1.4,5.2,0l3.8-3.8c1.4-1.4,1.4-3.8,0-5.2l-2.2-2.2
					c1.4-2.2,2.4-4.7,3-7.3h3.1c2,0,3.7-1.6,3.7-3.7v-5.4c0-2-1.6-3.7-3.7-3.7h-3.1c-0.6-2.6-1.7-5.1-3-7.3l2.2-2.2
					c1.4-1.4,1.4-3.8,0-5.2l-3.8-3.8c-1.4-1.4-3.8-1.4-5.2,0l-2.2,2.2c-2.2-1.4-4.7-2.4-7.3-3v-3.1c0-2-1.6-3.7-3.7-3.7h-5.4
					C95.1,62.4,93.4,64.1,93.4,66.1z M117.2,94.9c0,9.6-7.8,17.4-17.4,17.4c-9.6,0-17.4-7.8-17.4-17.4c0-9.6,7.8-17.4,17.4-17.4
					C109.4,77.4,117.2,85.2,117.2,94.9z"/>
				<path class="st22" d="M63.6,58.7l2-0.8c1.1,1.5,2.4,2.8,3.9,3.9l-0.8,2c-0.5,1.3,0.1,2.8,1.4,3.3l3.5,1.5
					c1.3,0.5,2.8-0.1,3.3-1.4l0.8-2c1.8,0.3,3.6,0.3,5.5,0l0.8,2c0.5,1.3,2,1.9,3.3,1.4l3.5-1.4c1.3-0.5,1.9-2,1.4-3.3l-0.8-2
					c1.5-1.1,2.8-2.4,3.9-3.9l2,0.8c1.3,0.5,2.8-0.1,3.3-1.4l1.5-3.5c0.5-1.3-0.1-2.8-1.4-3.3l-2-0.8c0.3-1.8,0.3-3.6,0-5.5l2-0.8
					c1.3-0.5,1.9-2,1.4-3.3l-1.4-3.5c-0.5-1.3-2-1.9-3.3-1.4l-2,0.8c-1.1-1.5-2.4-2.8-3.9-3.9l0.8-2c0.5-1.3-0.1-2.8-1.4-3.3
					l-3.5-1.5c-1.3-0.5-2.8,0.1-3.3,1.4l-0.8,2c-1.8-0.3-3.6-0.3-5.5,0L77,27c-0.5-1.3-2-1.9-3.3-1.4L70.2,27
					c-1.3,0.5-1.9,2-1.4,3.3l0.8,2c-1.5,1.1-2.8,2.4-3.9,3.9l-2-0.8c-1.3-0.5-2.8,0.1-3.3,1.4L59,40.1c-0.5,1.3,0.1,2.8,1.4,3.3
					l2,0.8c-0.3,1.8-0.3,3.6,0,5.5l-2,0.8c-1.3,0.5-1.9,2-1.4,3.3l1.4,3.5C60.8,58.6,62.3,59.3,63.6,58.7z M75.9,35.9
					c6.2-2.5,13.2,0.4,15.7,6.6c2.5,6.2-0.4,13.2-6.6,15.7s-13.2-0.4-15.7-6.6S69.7,38.5,75.9,35.9z"/>
				<path class="st22" d="M98.6,33.6l1.1-1.2c1.2,0.7,2.5,1.1,3.9,1.4l0.1,1.6c0.1,1,1,1.9,2,1.8l2.8-0.1c1-0.1,1.9-1,1.8-2
					l-0.1-1.6c1.3-0.4,2.6-1,3.7-1.8l1.2,1.1c0.8,0.7,2,0.6,2.7-0.1l1.9-2.1c0.7-0.8,0.6-2-0.1-2.7l-1.2-1.1
					c0.7-1.2,1.1-2.5,1.4-3.9l1.6-0.1c1-0.1,1.9-1,1.8-2l-0.1-2.8c-0.1-1-1-1.9-2-1.8l-1.6,0.1c-0.4-1.3-1-2.6-1.8-3.7l1.1-1.2
					c0.7-0.8,0.6-2-0.1-2.7l-2.1-1.9c-0.8-0.7-2-0.6-2.7,0.1L112.7,8c-1.2-0.7-2.5-1.1-3.9-1.4L108.7,5c-0.1-1-1-1.9-2-1.8l-2.8,0.1
					c-1,0.1-1.9,1-1.8,2l0.1,1.6c-1.3,0.4-2.6,1-3.7,1.8l-1.2-1.1c-0.8-0.7-2-0.6-2.7,0.1l-1.9,2.1c-0.7,0.8-0.6,2,0.1,2.7l1.2,1.1
					c-0.7,1.2-1.1,2.5-1.4,3.9L91,17.7c-1,0.1-1.9,1-1.8,2l0.1,2.8c0.1,1,1,1.9,2,1.8l1.6-0.1c0.4,1.3,1,2.6,1.8,3.7l-1.1,1.2
					c-0.7,0.8-0.6,2,0.1,2.7l2.1,1.9C96.7,34.5,97.9,34.4,98.6,33.6z M99.5,14.1c3.4-3.7,9.1-4,12.8-0.7c3.7,3.4,4,9.1,0.7,12.8
					c-3.4,3.7-9.1,4-12.8,0.7C96.4,23.6,96.1,17.9,99.5,14.1z"/>
			</g>
		</g>
	</g>
</g>
<rect x="59.3" y="96.9" class="st23" width="82.5" height="31.4"/>
<path class="st24" d="M59.3,96.9c8.1,0.8,12.7,3.6,15.5,6c3.2,2.8,3.3,4.6,9.8,11.8c3.5,3.9,5.3,5.9,8,7.5c2.3,1.4,4.8,2.3,12.5,3.4
	c9.6,1.4,17.9,1.6,24.3,1.6c5.2,0,9.5-0.2,12.6-0.4"/>
<path class="st24" d="M59.3,127.6c4.5,0,11-0.4,18.6-2.2c5.7-1.4,10.2-3.4,19.1-7.3c7.9-3.5,14.8-6.5,23.2-11.4
	c2.5-1.4,5.1-3.1,9.3-5c5-2.3,9.3-3.7,12.2-4.6"/>
<g>
	<g>
		<line class="st25" x1="82.9" y1="128.3" x2="82.9" y2="127.8"/>
		<line class="st26" x1="82.9" y1="126.8" x2="82.9" y2="93.6"/>
		<line class="st25" x1="82.9" y1="93.1" x2="82.9" y2="92.6"/>
	</g>
</g>
<g>
	<g>
		<line class="st25" x1="106.5" y1="128.3" x2="106.5" y2="127.8"/>
		<line class="st26" x1="106.5" y1="126.8" x2="106.5" y2="93.6"/>
		<line class="st25" x1="106.5" y1="93.1" x2="106.5" y2="92.6"/>
	</g>
</g>
<g>
	<g>
		<line class="st25" x1="118.3" y1="128.3" x2="118.3" y2="127.8"/>
		<line class="st26" x1="118.3" y1="126.8" x2="118.3" y2="93.6"/>
		<line class="st25" x1="118.3" y1="93.1" x2="118.3" y2="92.6"/>
	</g>
</g>
<text transform="matrix(1 0 0 1 74.1829 114.1979)" class="st27 st28 st29">Risk</text>
<text transform="matrix(1 0 0 1 108.6344 106.4573)" class="st27 st28 st29">Value</text>
<rect x="59.3" y="92.6" class="st23" width="82.5" height="4.3"/>
<text transform="matrix(1 0 0 1 59.7444 95.793)" class="st27 st28 st30"> Phase 1           Phase 2                           Phase 3                   Phase 4  </text>
<line class="st25" x1="71.1" y1="128.3" x2="71.1" y2="92.6"/>
<line class="st25" x1="94.7" y1="128.3" x2="94.7" y2="92.6"/>
<line class="st25" x1="130" y1="128.3" x2="130" y2="92.6"/>
<path class="st31" d="M152.8,128.3H12.2c-6.6,0-12-5.4-12-12v-104c0-6.6,5.4-12,12-12h140.6c6.6,0,12,5.4,12,12v104
	C164.8,122.9,159.4,128.3,152.8,128.3z"/>
<line class="st31" x1="0.2" y1="36" x2="164.8" y2="36"/>
<line class="st31" x1="0.2" y1="89.2" x2="164.8" y2="89.2"/>
<text transform="matrix(1 0 0 1 74.2833 48.6712)" class="st27 st28 st32">Iteration</text>
<text transform="matrix(1 0 0 1 98.8088 21.5091)" class="st27 st28 st32">Increment</text>
<g>
	<path class="st33" d="M40.6,108.2c0-0.9,0-1.8,0-2.7c0-0.9,0-1.9,0-2.8c0,0,0,0,0,0c0,0,0-0.1,0-0.1c-0.7-0.1-1.4-0.1-2.1,0
		c-0.2-0.4-0.5-0.7-0.9-0.7c-0.3-0.1-0.5-0.2-0.6-0.5c-0.1-0.2-0.1-0.3-0.2-0.5c-0.2-0.3-0.5-0.5-0.8-0.6c-0.3-0.1-0.7,0.1-0.9,0.3
		c-0.1,0.1-0.2,0.3-0.3,0.4c-0.1,0.2,0,0.5-0.1,0.6c-0.2,0.3-0.5,0.3-0.7,0.4c-0.2,0.1-0.3,0.2-0.5,0.3c-0.1,0.1-0.2,0.2-0.2,0.3
		c0,0,0,0-0.1,0c-0.4,0-0.7,0-1.1,0c-0.3,0-0.6,0-0.9,0.1c0,0,0,0,0,0c0,0,0,0,0,0c0,0,0,0,0,0.1c-0.1,0.4,0,0.8,0,1.2
		c0,0.5,0,0.9,0,1.4c0,0.9,0,1.8,0,2.7c0,1.8-0.1,3.7-0.1,5.5c0,0,0,0.1,0.1,0.1c0,0,0,0.1,0.1,0.1c1.6,0.1,3.2,0,4.7,0
		c1.6,0,3.1,0,4.7,0c0,0,0.1,0,0.1-0.1c0,0,0.1,0,0.1-0.1C40.7,111.9,40.7,110,40.6,108.2z M33.7,102.2c0.3-0.1,0.6-0.1,0.8-0.3
		c0.2-0.2,0.1-0.5,0.2-0.8c0.1-0.5,0.6-0.8,1.1-0.7c0.4,0.1,0.6,0.4,0.8,0.8c0.1,0.2,0.1,0.4,0.3,0.6c0.3,0.2,0.6,0.1,0.9,0.3
		c0.3,0.2,0.5,0.7,0.4,1.1c-0.8-0.1-1.7,0-2.5,0c-0.9,0-1.8,0-2.6,0C33.1,102.8,33.3,102.4,33.7,102.2z M35.7,103.5
		c0.9,0,1.7,0,2.6,0c0.1,0,0.1-0.1,0.1-0.1c0,0,0,0,0,0c0-0.1,0-0.2,0-0.2c0.3,0,0.6,0,0.9,0c0,0,0,0,0,0c-0.1,0.8-0.1,1.5-0.1,2.3
		c0,0.8,0,1.5,0,2.3c0,0.7,0,1.5,0,2.2l0,1.2c0,0.1,0,1.2-0.1,1.3c-2.4,0-4.8,0-7.1,0.1c0.1-1.6,0.1-3.2,0.1-4.8c0-0.8,0-1.6,0-2.4
		c0-0.7,0-1.5-0.1-2.2c0.3,0.1,0.6,0,0.9,0c0,0,0,0,0,0c0,0,0,0,0,0.1c0,0,0,0,0,0c-0.1,0,0,0.2,0.1,0.2
		C33.9,103.6,34.8,103.5,35.7,103.5z M39.4,111.3c0-0.9,0-1.8,0-2.7c0-0.9,0-1.8,0-2.7c0-0.8,0.1-1.6,0-2.4c0.1,0,0.1,0,0.2,0
		c0,1.6,0,3.1,0,4.7c0,0.8,0,1.5,0,2.3c0,0.8,0,1.6,0.1,2.4c-1.3,0-2.6,0-3.8,0c-0.6,0-1.3,0-1.9,0c-0.3,0-0.7,0-1,0
		c-0.1,0-0.3,0-0.4,0c-0.2,0-0.2,0-0.2-0.1c2.3-0.1,4.6-0.1,6.9-0.1c0.1,0,0.1-0.1,0-0.2c0,0,0,0,0-0.1
		C39.5,112.1,39.4,111.6,39.4,111.3z M40.5,105.5c0,0.9,0,1.8,0,2.7c0,1.8,0,3.6-0.1,5.4c0,0,0,0,0,0c-1.6,0-3.1,0-4.7,0
		c-1.6,0-3.1,0-4.7,0.1c0,0,0,0,0-0.1c0-1.8,0.1-3.7,0.1-5.5c0-0.9,0-1.8,0-2.7c0-0.5,0-0.9,0-1.4c0-0.4,0-0.8,0-1.2
		c0.3,0.1,0.6,0,0.9,0c0.4,0,0.7,0,1.1,0c0,0,0,0,0,0c0,0.1-0.1,0.2-0.1,0.3c0,0,0,0,0,0c-0.3,0-0.6,0-0.9,0c0,0,0,0-0.1,0
		c0,0-0.1,0-0.1,0c0,0-0.1,0.1,0,0.1c0,0,0.1,0,0.1,0c-0.1,0.8,0,1.6,0,2.3c0,0.8,0,1.6,0,2.4c0,1.6-0.1,3.2-0.1,4.8
		c0,0,0,0.1,0.1,0.1c0.1,0,0.2,0,0.4,0c0,0.1,0,0.1,0,0.2c0,0,0,0.1,0.1,0.1c1.2,0,2.5,0,3.7-0.1c1.2,0,2.5,0,3.7,0
		c0.1,0,0.1-0.1,0.1-0.1c0,0,0,0,0,0c0.1-0.8,0-1.6,0-2.4c0-0.8,0-1.6,0-2.4c0-1.6,0-3.1,0-4.7c0.1,0,0.1-0.1,0-0.1
		c0-0.1-0.1-0.1-0.1,0c-0.1,0-0.1,0-0.2,0c0-0.1,0-0.2,0-0.2c0,0,0,0,0,0c0,0,0-0.1-0.1-0.1c-0.3,0-0.6,0-0.9,0c0-0.1,0-0.2-0.1-0.3
		c0.7,0,1.4,0.1,2.1,0.1C40.4,103.7,40.5,104.6,40.5,105.5z"/>
	<path class="st33" d="M36.1,101.2c0-0.3-0.3-0.6-0.6-0.4c0,0,0,0,0,0c-0.2,0-0.5,0.2-0.5,0.4c0,0.3,0.2,0.5,0.5,0.6
		C35.9,101.8,36.1,101.6,36.1,101.2z M35.9,101.4c0,0.2-0.3,0.3-0.5,0.2c-0.1,0-0.3-0.2-0.3-0.3c0-0.2,0.2-0.3,0.3-0.3
		c0,0,0.1,0,0.1,0C35.9,100.8,36,101.2,35.9,101.4z"/>
	<path class="st33" d="M33.9,104.5C33.9,104.5,33.9,104.5,33.9,104.5c-0.3-0.1-0.6-0.1-0.9-0.1c0,0,0,0,0,0c0,0,0,0-0.1,0
		c0,0.2-0.1,0.5,0,0.7c0,0,0,0,0,0c0,0,0.1,0,0.1,0c0.2,0,0.5,0,0.7,0c0,0,0,0,0.1,0c0,0,0,0,0,0C33.9,105,33.9,104.8,33.9,104.5
		C33.9,104.5,33.9,104.5,33.9,104.5z M33.1,105.1c0-0.2,0-0.4,0-0.6c0.3,0,0.5,0,0.8,0.1c-0.1,0.2-0.1,0.4,0,0.6
		C33.5,105.1,33.3,105.1,33.1,105.1z"/>
	<path class="st33" d="M38.6,104.8c-0.8,0-1.5,0-2.3,0c-0.7,0-1.5,0-2.3,0c-0.1,0-0.1,0.1,0,0.1c0.7,0.1,1.5,0,2.3,0
		c0.8,0,1.5,0,2.3,0C38.7,105,38.7,104.8,38.6,104.8z"/>
	<path class="st33" d="M33.8,106.4C33.8,106.4,33.8,106.4,33.8,106.4c-0.3-0.1-0.6-0.1-0.9-0.1c0,0,0,0,0,0c0,0,0,0-0.1,0
		c0,0.2-0.1,0.5,0,0.7c0,0,0,0,0,0c0,0,0.1,0,0.1,0c0.2,0,0.5,0,0.7,0c0,0,0,0,0.1,0c0,0,0,0,0,0C33.8,106.9,33.8,106.7,33.8,106.4
		C33.9,106.5,33.9,106.4,33.8,106.4z M33,107.1c0-0.2,0-0.4,0-0.6c0.3,0,0.5,0,0.8,0.1c-0.1,0.2-0.1,0.4,0,0.6
		C33.4,107,33.2,107,33,107.1z"/>
	<path class="st33" d="M38.5,106.7c-0.8,0-1.5,0-2.3,0c-0.7,0-1.5,0-2.3,0c-0.1,0-0.1,0.1,0,0.1c0.7,0.1,1.5,0,2.3,0
		c0.8,0,1.5,0,2.3,0C38.7,106.9,38.7,106.7,38.5,106.7z"/>
	<path class="st33" d="M33.9,108.3C33.9,108.3,33.9,108.3,33.9,108.3c-0.3-0.1-0.6-0.1-0.9-0.1c0,0,0,0,0,0c0,0,0,0-0.1,0
		c0,0.2-0.1,0.5,0,0.7c0,0,0,0,0,0c0,0,0.1,0,0.1,0c0.2,0,0.5,0,0.7,0c0,0,0,0,0.1,0c0,0,0,0,0,0C33.9,108.8,33.9,108.6,33.9,108.3
		C33.9,108.3,33.9,108.3,33.9,108.3z M33.1,108.9c0-0.2,0-0.4,0-0.6c0.3,0,0.5,0,0.8,0.1c-0.1,0.2-0.1,0.4,0,0.6
		C33.5,108.9,33.3,108.9,33.1,108.9z"/>
	<path class="st33" d="M38.6,108.6c-0.8,0-1.5,0-2.3,0c-0.7,0-1.5,0-2.3,0c-0.1,0-0.1,0.1,0,0.1c0.7,0.1,1.5,0,2.3,0
		c0.8,0,1.5,0,2.3,0C38.7,108.8,38.7,108.6,38.6,108.6z"/>
	<path class="st33" d="M33.8,110.2C33.8,110.2,33.8,110.2,33.8,110.2c-0.3-0.1-0.6-0.1-0.9-0.1c0,0,0,0,0,0c0,0,0,0-0.1,0
		c0,0.2-0.1,0.5,0,0.7c0,0,0,0,0,0c0,0,0.1,0,0.1,0c0.2,0,0.5,0,0.7,0c0,0,0,0,0.1,0c0,0,0,0,0,0C33.8,110.7,33.8,110.5,33.8,110.2
		C33.9,110.2,33.9,110.2,33.8,110.2z M33,110.9c0-0.2,0-0.4,0-0.6c0.3,0,0.5,0,0.8,0.1c-0.1,0.2-0.1,0.4,0,0.6
		C33.4,110.8,33.2,110.8,33,110.9z"/>
	<path class="st33" d="M38.5,110.5c-0.8,0-1.5,0-2.3,0c-0.7,0-1.5,0-2.3,0c-0.1,0-0.1,0.1,0,0.1c0.7,0.1,1.5,0,2.3,0
		c0.8,0,1.5,0,2.3,0C38.7,110.7,38.7,110.5,38.5,110.5z"/>
	<path class="st33" d="M34,104c-0.3,0.2-0.5,0.5-0.7,0.8c-0.1-0.1-0.3-0.2-0.4-0.3c-0.1,0-0.1,0.1-0.1,0.1c0.1,0.1,0.3,0.3,0.4,0.4
		c0,0,0.1,0,0.1,0c0.2-0.3,0.5-0.6,0.7-0.9C34.2,104,34.1,103.9,34,104z"/>
	<path class="st33" d="M34,105.9c-0.3,0.2-0.5,0.5-0.7,0.8c-0.1-0.1-0.3-0.2-0.4-0.3c-0.1,0-0.1,0.1-0.1,0.1
		c0.1,0.1,0.3,0.3,0.4,0.4c0,0,0.1,0,0.1,0c0.2-0.3,0.5-0.6,0.7-0.9C34.2,105.9,34.1,105.9,34,105.9z"/>
</g>
<g>
	<path class="st33" d="M40.2,58.2c0-0.9,0-1.8,0-2.7c0-0.9,0-1.9,0-2.8c0,0,0,0,0,0c0,0,0-0.1,0-0.1c-0.7-0.1-1.4-0.1-2.1,0
		c-0.2-0.4-0.5-0.7-0.9-0.7c-0.3-0.1-0.5-0.2-0.6-0.5c-0.1-0.2-0.1-0.3-0.2-0.5c-0.2-0.3-0.5-0.5-0.8-0.6c-0.3-0.1-0.7,0.1-0.9,0.3
		c-0.1,0.1-0.2,0.3-0.3,0.4c-0.1,0.2,0,0.5-0.1,0.6c-0.2,0.3-0.5,0.3-0.7,0.4c-0.2,0.1-0.3,0.2-0.5,0.3c-0.1,0.1-0.2,0.2-0.2,0.3
		c0,0,0,0-0.1,0c-0.4,0-0.7,0-1.1,0c-0.3,0-0.6,0-0.9,0.1c0,0,0,0,0,0c0,0,0,0,0,0c0,0,0,0,0,0.1c-0.1,0.4,0,0.8,0,1.2
		c0,0.5,0,0.9,0,1.4c0,0.9,0,1.8,0,2.7c0,1.8-0.1,3.7-0.1,5.5c0,0,0,0.1,0.1,0.1c0,0,0,0.1,0.1,0.1c1.6,0.1,3.2,0,4.7,0
		c1.6,0,3.1,0,4.7,0c0,0,0.1,0,0.1-0.1c0,0,0.1,0,0.1-0.1C40.3,61.8,40.3,60,40.2,58.2z M33.3,52.2c0.3-0.1,0.6-0.1,0.8-0.3
		c0.2-0.2,0.1-0.5,0.2-0.8c0.1-0.5,0.6-0.8,1.1-0.7c0.4,0.1,0.6,0.4,0.8,0.8c0.1,0.2,0.1,0.4,0.3,0.6c0.3,0.2,0.6,0.1,0.9,0.3
		c0.3,0.2,0.5,0.7,0.4,1.1c-0.8-0.1-1.7,0-2.5,0c-0.9,0-1.8,0-2.6,0C32.7,52.8,32.9,52.4,33.3,52.2z M35.3,53.5c0.9,0,1.7,0,2.6,0
		c0.1,0,0.1-0.1,0.1-0.1c0,0,0,0,0,0c0-0.1,0-0.2,0-0.2c0.3,0,0.6,0,0.9,0c0,0,0,0,0,0c-0.1,0.8-0.1,1.5-0.1,2.3c0,0.8,0,1.5,0,2.3
		c0,0.7,0,1.5,0,2.2l0,1.2c0,0.1,0,1.2-0.1,1.3c-2.4,0-4.8,0-7.1,0.1c0.1-1.6,0.1-3.2,0.1-4.8c0-0.8,0-1.6,0-2.4
		c0-0.7,0-1.5-0.1-2.2c0.3,0.1,0.6,0,0.9,0c0,0,0,0,0,0c0,0,0,0,0,0.1c0,0,0,0,0,0c-0.1,0,0,0.2,0.1,0.2
		C33.5,53.5,34.4,53.5,35.3,53.5z M39,61.2c0-0.9,0-1.8,0-2.7c0-0.9,0-1.8,0-2.7c0-0.8,0.1-1.6,0-2.4c0.1,0,0.1,0,0.2,0
		c0,1.6,0,3.1,0,4.7c0,0.8,0,1.5,0,2.3c0,0.8,0,1.6,0.1,2.4c-1.3,0-2.6,0-3.8,0c-0.6,0-1.3,0-1.9,0c-0.3,0-0.7,0-1,0
		c-0.1,0-0.3,0-0.4,0c-0.2,0-0.2,0-0.2-0.1c2.3-0.1,4.6-0.1,6.9-0.1c0.1,0,0.1-0.1,0-0.2c0,0,0,0,0-0.1C39.1,62.1,39,61.6,39,61.2z
		 M40,55.4c0,0.9,0,1.8,0,2.7c0,1.8,0,3.6-0.1,5.4c0,0,0,0,0,0c-1.6,0-3.1,0-4.7,0c-1.6,0-3.1,0-4.7,0.1c0,0,0,0,0-0.1
		c0-1.8,0.1-3.7,0.1-5.5c0-0.9,0-1.8,0-2.7c0-0.5,0-0.9,0-1.4c0-0.4,0-0.8,0-1.2c0.3,0.1,0.6,0,0.9,0c0.4,0,0.7,0,1.1,0c0,0,0,0,0,0
		c0,0.1-0.1,0.2-0.1,0.3c0,0,0,0,0,0c-0.3,0-0.6,0-0.9,0c0,0,0,0-0.1,0c0,0-0.1,0-0.1,0c0,0-0.1,0.1,0,0.1c0,0,0.1,0,0.1,0
		c-0.1,0.8,0,1.6,0,2.3c0,0.8,0,1.6,0,2.4c0,1.6-0.1,3.2-0.1,4.8c0,0,0,0.1,0.1,0.1c0.1,0,0.2,0,0.4,0c0,0.1,0,0.1,0,0.2
		c0,0,0,0.1,0.1,0.1c1.2,0,2.5,0,3.7-0.1c1.2,0,2.5,0,3.7,0c0.1,0,0.1-0.1,0.1-0.1c0,0,0,0,0,0c0.1-0.8,0-1.6,0-2.4
		c0-0.8,0-1.6,0-2.4c0-1.6,0-3.1,0-4.7c0.1,0,0.1-0.1,0-0.1c0-0.1-0.1-0.1-0.1,0c-0.1,0-0.1,0-0.2,0c0-0.1,0-0.2,0-0.2c0,0,0,0,0,0
		c0,0,0-0.1-0.1-0.1c-0.3,0-0.6,0-0.9,0c0-0.1,0-0.2-0.1-0.3c0.7,0,1.4,0.1,2.1,0.1C40,53.6,40,54.5,40,55.4z"/>
	<path class="st33" d="M35.7,51.2c0-0.3-0.3-0.6-0.6-0.4c0,0,0,0,0,0c-0.2,0-0.5,0.2-0.5,0.4c0,0.3,0.2,0.5,0.5,0.6
		C35.5,51.8,35.7,51.5,35.7,51.2z M35.5,51.3c0,0.2-0.3,0.3-0.5,0.2c-0.1,0-0.3-0.2-0.3-0.3c0-0.2,0.2-0.3,0.3-0.3c0,0,0.1,0,0.1,0
		C35.5,50.8,35.6,51.2,35.5,51.3z"/>
	<path class="st33" d="M33.5,54.4C33.5,54.4,33.5,54.4,33.5,54.4c-0.3-0.1-0.6-0.1-0.9-0.1c0,0,0,0,0,0c0,0,0,0-0.1,0
		c0,0.2-0.1,0.5,0,0.7c0,0,0,0,0,0c0,0,0.1,0,0.1,0c0.2,0,0.5,0,0.7,0c0,0,0,0,0.1,0c0,0,0,0,0,0C33.5,54.9,33.5,54.7,33.5,54.4
		C33.5,54.5,33.5,54.5,33.5,54.4z M32.7,55.1c0-0.2,0-0.4,0-0.6c0.3,0,0.5,0,0.8,0.1c-0.1,0.2-0.1,0.4,0,0.6
		C33.1,55.1,32.9,55.1,32.7,55.1z"/>
	<path class="st33" d="M38.2,54.7c-0.8,0-1.5,0-2.3,0c-0.7,0-1.5,0-2.3,0c-0.1,0-0.1,0.1,0,0.1c0.7,0.1,1.5,0,2.3,0
		c0.8,0,1.5,0,2.3,0C38.3,54.9,38.3,54.7,38.2,54.7z"/>
	<path class="st33" d="M33.4,56.4C33.4,56.3,33.4,56.3,33.4,56.4c-0.3-0.1-0.6-0.1-0.9-0.1c0,0,0,0,0,0c0,0,0,0-0.1,0
		c0,0.2-0.1,0.5,0,0.7c0,0,0,0,0,0c0,0,0.1,0,0.1,0c0.2,0,0.5,0,0.7,0c0,0,0,0,0.1,0c0,0,0,0,0,0C33.4,56.9,33.4,56.7,33.4,56.4
		C33.5,56.4,33.5,56.4,33.4,56.4z M32.6,57c0-0.2,0-0.4,0-0.6c0.3,0,0.5,0,0.8,0.1c-0.1,0.2-0.1,0.4,0,0.6C33,57,32.8,57,32.6,57z"
		/>
	<path class="st33" d="M38.1,56.7c-0.8,0-1.5,0-2.3,0c-0.7,0-1.5,0-2.3,0c-0.1,0-0.1,0.1,0,0.1c0.7,0.1,1.5,0,2.3,0
		c0.8,0,1.5,0,2.3,0C38.3,56.8,38.3,56.7,38.1,56.7z"/>
	<path class="st33" d="M33.5,58.2C33.5,58.2,33.5,58.2,33.5,58.2c-0.3-0.1-0.6-0.1-0.9-0.1c0,0,0,0,0,0c0,0,0,0-0.1,0
		c0,0.2-0.1,0.5,0,0.7c0,0,0,0,0,0c0,0,0.1,0,0.1,0c0.2,0,0.5,0,0.7,0c0,0,0,0,0.1,0c0,0,0,0,0,0C33.5,58.7,33.5,58.5,33.5,58.2
		C33.5,58.3,33.5,58.3,33.5,58.2z M32.7,58.9c0-0.2,0-0.4,0-0.6c0.3,0,0.5,0,0.8,0.1c-0.1,0.2-0.1,0.4,0,0.6
		C33.1,58.9,32.9,58.9,32.7,58.9z"/>
	<path class="st33" d="M38.2,58.5c-0.8,0-1.5,0-2.3,0c-0.7,0-1.5,0-2.3,0c-0.1,0-0.1,0.1,0,0.1c0.7,0.1,1.5,0,2.3,0
		c0.8,0,1.5,0,2.3,0C38.3,58.7,38.3,58.5,38.2,58.5z"/>
	<path class="st33" d="M33.4,60.2C33.4,60.1,33.4,60.1,33.4,60.2c-0.3-0.1-0.6-0.1-0.9-0.1c0,0,0,0,0,0c0,0,0,0-0.1,0
		c0,0.2-0.1,0.5,0,0.7c0,0,0,0,0,0c0,0,0.1,0,0.1,0c0.2,0,0.5,0,0.7,0c0,0,0,0,0.1,0c0,0,0,0,0,0C33.4,60.7,33.4,60.5,33.4,60.2
		C33.5,60.2,33.5,60.2,33.4,60.2z M32.6,60.8c0-0.2,0-0.4,0-0.6c0.3,0,0.5,0,0.8,0.1c-0.1,0.2-0.1,0.4,0,0.6
		C33,60.8,32.8,60.8,32.6,60.8z"/>
	<path class="st33" d="M38.1,60.5c-0.8,0-1.5,0-2.3,0c-0.7,0-1.5,0-2.3,0c-0.1,0-0.1,0.1,0,0.1c0.7,0.1,1.5,0,2.3,0
		c0.8,0,1.5,0,2.3,0C38.3,60.6,38.3,60.5,38.1,60.5z"/>
	<path class="st33" d="M33.6,53.9c-0.3,0.2-0.5,0.5-0.7,0.8c-0.1-0.1-0.3-0.2-0.4-0.3c-0.1,0-0.1,0.1-0.1,0.1
		c0.1,0.1,0.3,0.3,0.4,0.4c0,0,0.1,0,0.1,0c0.2-0.3,0.5-0.6,0.7-0.9C33.8,54,33.7,53.9,33.6,53.9z"/>
	<path class="st33" d="M33.6,55.9c-0.3,0.2-0.5,0.5-0.7,0.8c-0.1-0.1-0.3-0.2-0.4-0.3c-0.1,0-0.1,0.1-0.1,0.1
		c0.1,0.1,0.3,0.3,0.4,0.4c0,0,0.1,0,0.1,0c0.2-0.3,0.5-0.6,0.7-0.9C33.8,55.9,33.7,55.8,33.6,55.9z"/>
</g>
<g>
	<g>
		<path class="st33" d="M39.8,20.8c0-0.7,0-1.5,0-2.2c0-0.7-0.1-1.4-0.2-2.1c-0.1-0.7-0.1-1.4-0.4-2.1c0,0,0-0.1,0-0.1
			c-0.1-0.1-0.2-0.2-0.3-0.3c0,0-0.1-0.1-0.1-0.1c0-0.1-0.1-0.1-0.1-0.1c0,0,0,0,0,0c0,0,0,0,0,0c0,0-0.1-0.1-0.1-0.1
			c-1.2,0-2.3,0-3.5,0.1c-0.6,0-1.2,0-1.7,0c-0.5,0-1.1,0-1.6,0.1c0,0,0,0,0,0c0,0-0.1-0.1-0.1,0c-0.4,0.2-0.2,0.9-0.2,1.2
			c0.1,0.7,0.1,1.4,0.1,2.1c0,0.7,0,1.4,0,2.1c0,0.3,0,0.7,0,1c0,0.3,0,0.6,0.1,0.9c0,0,0.1,0,0.1,0c0,0.1,0.1,0.2,0.1,0.2
			c0.1,0.1,0.2,0.2,0.3,0.3c0,0,0,0,0,0c0,0,0,0,0,0c1.2,0.2,2.5,0.1,3.7,0.1c1.2,0,2.5,0,3.8-0.1c0.1,0,0.1-0.1,0.1-0.2
			C39.9,21.8,39.8,21,39.8,20.8z M39.2,14.4C39.2,14.4,39.2,14.4,39.2,14.4C39.2,14.4,39.2,14.4,39.2,14.4
			C39.2,14.4,39.2,14.4,39.2,14.4c0,0-0.1-0.1-0.1-0.1c0,0-0.1-0.1-0.1-0.1c0,0,0,0,0,0c0,0,0,0,0,0C39,14.3,39.1,14.3,39.2,14.4z
			 M35.4,21.3c-1.2,0-2.5-0.1-3.7,0c0,0,0,0,0,0c0,0,0,0-0.1,0c0,0,0,0,0,0c0.2-0.5,0.1-1.2,0.1-1.7c0-0.6,0-1.3,0-1.9
			c0-0.6,0-1.2,0-1.8c0-0.3,0-0.6-0.1-0.9c0-0.3-0.1-0.7,0.1-0.9c0,0,0,0,0,0c0,0,0,0,0,0c0.5,0.1,1.1,0,1.6,0c0.6,0,1.2,0,1.7,0
			c1.2,0,2.3,0,3.5-0.1c0,0,0.1,0,0.1,0c0,0,0,0,0,0c0.1,0.6,0.1,1.2,0.1,1.8c0,0.2,0,0.4,0.1,0.6c0,0.8,0.1,1.5,0.2,2.3
			c0,0.8,0,1.6-0.1,2.4C37.8,21.2,36.6,21.3,35.4,21.3z"/>
		<path class="st33" d="M38,17.7c0-0.8,0-1.6,0-2.3c0-0.1-0.1-0.1-0.2-0.1c0-0.1,0-0.1-0.1-0.1c-0.8,0-1.7,0-2.5,0.1
			c-0.8,0-1.6,0-2.4,0.2c-0.1,0,0,0.1,0,0.1c0,0,0,0,0,0c0,0,0,0.1,0,0.1c0,0.1,0,0.1,0,0.2c0,0.2,0,0.3,0,0.5c0,0.4,0,0.8,0,1.2
			c0,0.7,0,1.5,0,2.2c0,0,0,0.1,0,0.1c0,0,0,0,0,0.1c0,0.1,0.1,0.1,0.2,0c0.8,0.1,1.6,0.1,2.4,0.1c0.8,0,1.7,0.1,2.6,0
			c0.1,0,0.1-0.1,0.1-0.2c0,0,0,0,0,0c0.1-0.3,0-0.7,0-0.9C38,18.4,38,18,38,17.7z M36.6,15.5C36.6,15.5,36.6,15.5,36.6,15.5
			C36.6,15.5,36.7,15.5,36.6,15.5c-0.1,0-0.3,0-0.5,0C36.2,15.5,36.4,15.5,36.6,15.5z M33.1,17.8c0-0.1,0-0.3,0-0.4
			C33.1,17.5,33.1,17.6,33.1,17.8C33.1,17.7,33.1,17.8,33.1,17.8C33.1,17.8,33.1,17.8,33.1,17.8z M37.8,19.8c-0.8-0.1-1.7,0-2.6,0
			c-0.6,0-1.3,0-2,0c0.1-0.3,0.1-0.6,0.1-0.9c0-0.4,0-0.7,0-1.1c0-0.6,0-1.3,0-1.9c0.2,0,0.5,0,0.7,0c0.4,0,0.8,0,1.3,0
			c0.8,0,1.6,0,2.4,0c0,0.7,0,1.3,0,2c0,0.4,0,0.8,0,1.2C37.7,19.2,37.7,19.6,37.8,19.8C37.8,19.8,37.8,19.8,37.8,19.8z"/>
	</g>
	<path class="st33" d="M38.4,15.1C38.4,15.1,38.4,15.1,38.4,15.1c-0.6-0.3-1.1-0.6-1.5-0.9c0,0-0.1,0-0.1,0c-0.5,0.6-0.9,1.2-1.3,2
		c-0.3,0.6-0.5,1.3-0.6,1.9c-0.1-0.2-0.2-0.4-0.4-0.5c-0.1-0.1-0.2-0.4-0.3-0.4c-0.1,0-0.3,0.2-0.3,0.3c-0.2,0.2-0.4,0.4-0.5,0.7
		c0,0,0,0.1,0,0.1c0,0,0,0,0,0.1c0.2,0.3,0.5,0.5,0.7,0.8c0.2,0.3,0.4,0.5,0.7,0.8c0,0,0,0,0,0c0.3,0,0.6,0,0.9,0c0,0,0.1,0,0.1-0.1
		c0.2-1.8,1.2-3.4,2.6-4.5C38.5,15.2,38.5,15.1,38.4,15.1z"/>
</g>
<g id="Box02c">
	<g id="Shadow_3_">
		<g>
			<defs>
				<polygon id="SVGID_1_" points="129.7,52.9 131.8,53.2 140,48.4 137.8,47.2 				"/>
			</defs>
			<clipPath id="SVGID_00000093140971526047115180000011081790724580415160_">
				<use xlink:href="#SVGID_1_"  style="overflow:visible;"/>
			</clipPath>
			<g style="clip-path:url(#SVGID_00000093140971526047115180000011081790724580415160_);">
				
					<image style="overflow:visible;" width="14" height="8" xlink:href="90765B90359B9C07.png"  transform="matrix(1 0 0 1 126.25 46.25)">
				</image>
			</g>
		</g>
		<g>
			<path d="M124.6,49.9l8.1-4.1c0,0,0,0,0.1,0l5.1,2.3c0.1,0,0.1,0.1,0,0.1l-8.1,4.7c0,0,0,0-0.1,0l-5-2.9
				C124.5,50,124.6,49.9,124.6,49.9z"/>
			<path class="st34" d="M124.6,50c0,0,0-0.1,0-0.1l8.1-4.1c0,0,0,0,0.1,0l5,2.3c0.1,0,0.1,0.1,0,0.1l-8.1,4.7c0,0,0,0-0.1,0
				L124.6,50z"/>
			<path class="st35" d="M124.6,50c0,0,0-0.1,0-0.1l8.1-4.1c0,0,0,0,0.1,0l5,2.3c0.1,0,0.1,0.1,0,0.1l-8.1,4.7c0,0,0,0-0.1,0
				L124.6,50z"/>
			<path class="st36" d="M124.7,50c0,0,0-0.1,0-0.1l8.1-4.1c0,0,0,0,0.1,0l5,2.3c0.1,0,0.1,0.1,0,0.1l-8.1,4.7c0,0,0,0-0.1,0
				L124.7,50z"/>
			<path class="st37" d="M124.7,50c0,0,0-0.1,0-0.1l8.1-4.1c0,0,0,0,0.1,0l5,2.3c0.1,0,0.1,0.1,0,0.1l-8.1,4.7c0,0,0,0-0.1,0
				L124.7,50z"/>
			<path class="st38" d="M124.7,50l5,2.9c0,0,0,0,0.1,0l8.1-4.7c0,0,0-0.1,0-0.1l-5-2.3c0,0,0,0-0.1,0l-8,4.1
				C124.6,49.9,124.6,50,124.7,50z"/>
		</g>
	</g>
	<g id="Top_3_">
		<defs>
			<polygon id="SVGID_00000103976144986945590650000003866243633554638239_" points="124.6,45.9 124.6,45.8 132.7,41.1 137.8,44 
				137.8,44.1 129.7,48.9 			"/>
		</defs>
		<clipPath id="SVGID_00000178172363153015173780000015218299250843596978_">
			<use xlink:href="#SVGID_00000103976144986945590650000003866243633554638239_"  style="overflow:visible;"/>
		</clipPath>
		<g style="clip-path:url(#SVGID_00000178172363153015173780000015218299250843596978_);">
			
				<image style="overflow:visible;" width="14" height="9" xlink:href="90765B90359B9C05.png"  transform="matrix(1 0 0 1 124.25 40.25)">
			</image>
		</g>
	</g>
	<defs>
		<filter id="Adobe_OpacityMaskFilter" filterUnits="userSpaceOnUse" x="124.2" y="43.2" width="14" height="10">
			<feFlood  style="flood-color:white;flood-opacity:1" result="back"/>
			<feBlend  in="SourceGraphic" in2="back" mode="normal"/>
		</filter>
	</defs>
	
		<mask maskUnits="userSpaceOnUse" x="124.2" y="43.2" width="14" height="10" id="SVGID_00000057844889994689154900000015574482861237689264_">
		<g class="st39">
			
				<image style="overflow:visible;" width="10.2" height="8.8" id="Side_3_" xlink:href="8071E6CC8C405B01.png"  transform="matrix(1 0 0 1 124.5887 44.0715)"/>
		</g>
	</mask>
	<g style="mask:url(#SVGID_00000057844889994689154900000015574482861237689264_);">
		<g>
			
				<image style="overflow:visible;" width="14" height="10" id="Side_6_" xlink:href="90765B90359B9C0B.png"  transform="matrix(1 0 0 1 124.25 43.25)">
			</image>
		</g>
	</g>
	<g>
		
			<linearGradient id="SVGID_00000145060617005325165960000007865022622478693795_" gradientUnits="userSpaceOnUse" x1="124.5801" y1="45.7464" x2="127.1199" y2="47.2164">
			<stop  offset="1.041670e-02" style="stop-color:#A6A6A6"/>
			<stop  offset="1" style="stop-color:#CBCBCB"/>
		</linearGradient>
		<path style="fill:url(#SVGID_00000145060617005325165960000007865022622478693795_);" d="M124.6,45.8L124.6,45.8
			C124.6,45.8,124.6,45.8,124.6,45.8l2.5,1.4v0.1L124.6,45.8z"/>
		
			<linearGradient id="SVGID_00000116926574007760802580000002335356288018401152_" gradientUnits="userSpaceOnUse" x1="129.7106" y1="48.717" x2="127.19" y2="47.258">
			<stop  offset="1.041670e-02" style="stop-color:#B8B8B8"/>
			<stop  offset="1" style="stop-color:#BCBCBC"/>
		</linearGradient>
		<path style="fill:url(#SVGID_00000116926574007760802580000002335356288018401152_);" d="M129.7,48.7l-2.5-1.5v-0.1L129.7,48.7
			C129.7,48.7,129.7,48.7,129.7,48.7L129.7,48.7z"/>
		
			<linearGradient id="SVGID_00000092422743785192973640000009238745567961969031_" gradientUnits="userSpaceOnUse" x1="128.3513" y1="45.0208" x2="130.895" y2="46.4931">
			<stop  offset="0" style="stop-color:#DDDDDD"/>
			<stop  offset="0.9896" style="stop-color:#B9B9B9"/>
		</linearGradient>
		<polygon style="fill:url(#SVGID_00000092422743785192973640000009238745567961969031_);" points="127.1,47.2 127.1,47.3 
			127.2,47.3 127.2,47.2 132.2,44.3 132.2,44.3 		"/>
		
			<linearGradient id="SVGID_00000099656072437166959300000018282953386460339586_" gradientUnits="userSpaceOnUse" x1="129.1328" y1="43.6268" x2="133.2394" y2="46.0036">
			<stop  offset="0" style="stop-color:#DDDDDD"/>
			<stop  offset="0.9896" style="stop-color:#B9B9B9"/>
		</linearGradient>
		<polygon style="fill:url(#SVGID_00000099656072437166959300000018282953386460339586_);" points="127.2,47.1 135.3,42.5 
			135.3,42.5 127.1,47.1 		"/>
	</g>
	<g id="Decals_4_">
		<g id="_x3C_Group_x3E__4_">
			<g>
				<g class="st45">
					<defs>
						<polygon id="SVGID_00000137120327087328755040000010133554011329879196_" class="st45" points="125.2,47.8 125.2,47 
							127.7,48.4 127.7,49.3 						"/>
					</defs>
					<clipPath id="SVGID_00000106835384826945919280000013342820209062712234_">
						<use xlink:href="#SVGID_00000137120327087328755040000010133554011329879196_"  style="overflow:visible;"/>
					</clipPath>
					<g style="clip-path:url(#SVGID_00000106835384826945919280000013342820209062712234_);">
						<path class="st47" d="M125.2,47.8C125.2,47.8,125.2,47.8,125.2,47.8l0-0.8c0,0,0,0,0,0l0.7,0.4c0,0,0,0,0,0l0,0.8c0,0,0,0,0,0
							L125.2,47.8L125.2,47.8z M125.9,47.4l-0.7-0.4c0,0,0,0,0,0l0,0.8c0,0,0,0.1,0,0.1l0.7,0.4c0,0,0,0,0,0L125.9,47.4
							C126,47.4,126,47.4,125.9,47.4L125.9,47.4z"/>
						<path class="st47" d="M126.1,48.3C126.1,48.3,126.1,48.3,126.1,48.3l0-0.8c0,0,0,0,0,0l0.7,0.4c0,0,0,0,0,0l0,0.8c0,0,0,0,0,0
							L126.1,48.3L126.1,48.3z M126.8,47.9l-0.7-0.4c0,0,0,0,0,0l0,0.8c0,0,0,0.1,0,0.1l0.7,0.4c0,0,0,0,0,0L126.8,47.9
							C126.8,47.9,126.8,47.9,126.8,47.9L126.8,47.9z"/>
						<path class="st47" d="M126.9,48.8C126.9,48.8,126.9,48.8,126.9,48.8l0-0.8c0,0,0,0,0,0l0.7,0.4c0,0,0,0,0,0l0,0.8c0,0,0,0,0,0
							L126.9,48.8L126.9,48.8z M127.6,48.3l-0.7-0.4c0,0,0,0,0,0l0,0.8c0,0,0,0.1,0,0.1l0.7,0.4c0,0,0,0,0,0L127.6,48.3
							C127.7,48.4,127.6,48.4,127.6,48.3L127.6,48.3z"/>
						<polygon class="st47" points="125.7,47.4 125.6,47.6 125.7,47.6 125.7,48 125.5,47.9 125.5,47.4 125.5,47.5 125.5,47.2 
							125.4,47.4 125.4,47.4 125.4,47.8 125.3,47.8 125.3,47.8 125.9,48.1 125.9,48.1 125.7,48 125.7,47.6 125.8,47.7 125.7,47.4 
													"/>
						<path class="st47" d="M126.6,47.9l-0.4-0.2l0,0.1c0,0.1,0.1,0.3,0.2,0.4l0,0.3c0,0-0.1,0-0.1,0l0.2,0.1c0,0,0-0.1-0.1-0.1
							l0-0.3C126.6,48.2,126.6,48.1,126.6,47.9L126.6,47.9L126.6,47.9z"/>
						<path class="st47" d="M127.3,48.3L127.3,48.3L127.3,48.3c-0.2,0-0.3,0-0.3,0.2l0.2,0.1l0,0.3c0,0,0,0,0,0c0,0,0,0,0-0.1l0,0
							c0,0,0,0.1,0.1,0.1c0,0,0.1,0,0.1,0l0-0.3l0.2,0.1C127.5,48.6,127.4,48.4,127.3,48.3L127.3,48.3L127.3,48.3z"/>
					</g>
				</g>
			</g>
		</g>
		<g>
			<g class="st45">
				<defs>
					<polygon id="SVGID_00000070095458517742606570000016151489433008037767_" class="st45" points="131.5,50 131.5,48.3 133.8,47 
						133.8,48.7 					"/>
				</defs>
				<clipPath id="SVGID_00000102512070675892143480000008167419858182100635_">
					<use xlink:href="#SVGID_00000070095458517742606570000016151489433008037767_"  style="overflow:visible;"/>
				</clipPath>
				<g style="clip-path:url(#SVGID_00000102512070675892143480000008167419858182100635_);">
					<path class="st49" d="M131.5,48.3l0,1.7"/>
				</g>
			</g>
		</g>
	</g>
	<g id="Tape_13_">
		<g id="Tape_12_">
			<path class="st50" d="M126.7,51.2l0.8,0.4l0-4.1c0,0,0-0.1,0-0.1l8.1-4.7l-0.8-0.4l-8.2,4.7V51.2z"/>
			
				<linearGradient id="Tape_00000054975734254375182050000008219569852250372279_" gradientUnits="userSpaceOnUse" x1="127.463" y1="51.5314" x2="131.8916" y2="43.6214">
				<stop  offset="0" style="stop-color:#161616"/>
				<stop  offset="0.3877" style="stop-color:#161616"/>
				<stop  offset="0.4039" style="stop-color:#040404"/>
				<stop  offset="0.9896" style="stop-color:#060606"/>
			</linearGradient>
			<path id="Tape_6_" style="opacity:0.9;fill:url(#Tape_00000054975734254375182050000008219569852250372279_);" d="M135.7,42.7
				l-8.1,4.7c0,0-0.1,0.1-0.1,0.1v4.1l-0.8-0.4V47c0,0,0-0.1,0-0.1l8.1-4.7L135.7,42.7z"/>
		</g>
		<g id="Tape_11_">
			<path class="st50" d="M134.2,50.3l-0.8,0.4l0-4.1c0,0,0-0.1,0-0.1l-5.1-2.9l0.8-0.4l5.1,2.9c0,0,0,0,0,0.1V50.3z"/>
			
				<linearGradient id="Tape_00000156588784421066509380000017719799891303509895_" gradientUnits="userSpaceOnUse" x1="23.5064" y1="50.224" x2="26.7851" y2="44.3679" gradientTransform="matrix(-1 0 0 1 157.8086 0)">
				<stop  offset="0" style="stop-color:#898989"/>
				<stop  offset="4.428578e-02" style="stop-color:#6B6B6B"/>
				<stop  offset="9.669624e-02" style="stop-color:#4F4F4F"/>
				<stop  offset="0.1493" style="stop-color:#3B3B3B"/>
				<stop  offset="0.2016" style="stop-color:#2F2F2F"/>
				<stop  offset="0.2535" style="stop-color:#2B2B2B"/>
				<stop  offset="0.5283" style="stop-color:#373737"/>
				<stop  offset="0.5474" style="stop-color:#040404"/>
				<stop  offset="0.9896" style="stop-color:#060606"/>
			</linearGradient>
			<path id="Tape_5_" style="opacity:0.9;fill:url(#Tape_00000156588784421066509380000017719799891303509895_);" d="M128.4,43.6
				l5.1,2.9c0,0,0.1,0.1,0.1,0.1v4.1l0.8-0.4v-4.1c0,0,0-0.1,0-0.1l-5.1-2.9L128.4,43.6z"/>
		</g>
	</g>
</g>
<text transform="matrix(1 0 0 1 4.6116 8.8409)" class="st27 st28 st53">Micro-Increment</text>
<text transform="matrix(1 0 0 1 4.6114 45.4389)"><tspan x="0" y="0" class="st27 st28 st53">Iteration</tspan><tspan x="0" y="6" class="st27 st28 st53">Lifecycle</tspan></text>
<text transform="matrix(1 0 0 1 4.6114 97.0231)"><tspan x="0" y="0" class="st27 st28 st53">Project</tspan><tspan x="0" y="6" class="st27 st28 st53">Lifecycle</tspan></text>
<text transform="matrix(1 0 0 1 27.3591 26.4075)" class="st27 st28 st54">Work Item</text>
<text transform="matrix(1 0 0 1 27.6239 67.8147)"><tspan x="0" y="0" class="st27 st28 st54">Iteration </tspan><tspan x="3.9" y="4.8" class="st27 st28 st54">Plan</tspan></text>
<text transform="matrix(1 0 0 1 29.3993 118.3938)"><tspan x="0" y="0" class="st27 st28 st54">Project</tspan><tspan x="2.4" y="4.8" class="st27 st28 st54">Plan</tspan></text>
<text transform="matrix(1 0 0 1 44.6271 18.5138)" class="st27 st55 st54">Days</text>
<text transform="matrix(1 0 0 1 44.6273 48.6711)" class="st27 st55 st54">Weeks</text>
<text transform="matrix(1 0 0 1 44.627 95.7932)" class="st27 st55 st54">Months</text>
<text transform="matrix(1 0 0 1 148.4894 16.7475)"><tspan x="0" y="0" class="st27 st28 st54">Personal</tspan><tspan x="4.7" y="4.8" class="st27 st28 st54">Focus</tspan></text>
<text transform="matrix(1 0 0 1 154.1138 60.608)"><tspan x="0" y="0" class="st27 st28 st54">Team</tspan><tspan x="-1" y="4.8" class="st27 st28 st54">Focus</tspan></text>
<text transform="matrix(1 0 0 1 142.634 109.0876)"><tspan x="0" y="0" class="st27 st28 st54">Stakeholder</tspan><tspan x="10.5" y="4.8" class="st27 st28 st54">Focus</tspan></text>
<text transform="matrix(1 0 0 1 121.3 57.1502)"><tspan x="0" y="0" class="st27 st28 st54">Demo-able</tspan><tspan x="-1.2" y="4.8" class="st27 st28 st54">or shippable</tspan><tspan x="5.5" y="9.6" class="st27 st28 st54">build</tspan></text>
<g>
	<g>
		<line class="st24" x1="35.5" y1="48.7" x2="35.5" y2="30.4"/>
		<g>
			<polygon class="st27" points="37.4,31 35.5,27.7 33.7,31 			"/>
		</g>
	</g>
</g>
<g>
	<g>
		<line class="st24" x1="35.7" y1="97.2" x2="35.7" y2="78.8"/>
		<g>
			<polygon class="st27" points="37.6,79.4 35.7,76.2 33.8,79.4 			"/>
		</g>
	</g>
</g>
</svg>
