<?xml version="1.0" encoding="utf-8"?>
<!-- Generator: Adobe Illustrator 24.0.1, SVG Export Plug-In . SVG Version: 6.00 Build 0)  -->
<svg version="1.1" id="Ebene_1" xmlns="http://www.w3.org/2000/svg" xmlns:xlink="http://www.w3.org/1999/xlink" x="0px" y="0px"
	 viewBox="0 0 670 334" style="enable-background:new 0 0 670 334;" xml:space="preserve">
<style type="text/css">
	.st0{clip-path:url(#SVGID_2_);fill:#0D0D0D;}
	.st1{clip-path:url(#SVGID_2_);}
	.st2{fill:#FFFFFF;}
	.st3{font-family:'HelveticaNeue';}
	.st4{font-size:16px;}
	.st5{clip-path:url(#SVGID_2_);fill:#333333;}
	.st6{clip-path:url(#SVGID_2_);fill:none;stroke:#FFFFFF;stroke-linecap:round;stroke-linejoin:round;stroke-miterlimit:10;}
	.st7{clip-path:url(#SVGID_2_);fill:#FFFFFF;}
	.st8{clip-path:url(#SVGID_2_);fill:none;stroke:#FFFFFF;stroke-miterlimit:10;}
</style>
<g>
	<defs>
		<rect id="SVGID_1_" width="670" height="334"/>
	</defs>
	<clipPath id="SVGID_2_">
		<use xlink:href="#SVGID_1_"  style="overflow:visible;"/>
	</clipPath>
	<rect x="174.8" class="st0" width="170" height="333.1"/>
	<g class="st1">
		<text transform="matrix(1 0 0 1 219.6476 20.0005)" class="st2 st3 st4">Framework</text>
	</g>
	<rect class="st0" width="170" height="333.1"/>
	<g class="st1">
		<text transform="matrix(1 0 0 1 70.3281 20.0005)" class="st2 st3 st4">App</text>
	</g>
	<rect x="12" y="37.5" class="st5" width="145" height="286"/>
	<g class="st1">
		<text transform="matrix(1 0 0 1 20.0361 177.0394)" class="st2 st3 st4">System Language </text>
	</g>
	<g class="st1">
		<text transform="matrix(1 0 0 1 65.0918 195.4872)" class="st2 st3 st4">Code</text>
	</g>
	<rect x="349.6" class="st0" width="320" height="333.1"/>
	<g class="st1">
		<text transform="matrix(1 0 0 1 479.3592 20.0005)" class="st2 st3 st4">Platform</text>
	</g>
	<rect x="363.8" y="231" class="st5" width="145" height="30"/>
	<g class="st1">
		<text transform="matrix(1 0 0 1 405.3655 251.75)" class="st2 st3 st4">Location</text>
	</g>
	<rect x="510.3" y="231" class="st5" width="145" height="30"/>
	<g class="st1">
		<text transform="matrix(1 0 0 1 548.1614 251.75)" class="st2 st3 st4">Bluetooth</text>
	</g>
	<rect x="363.8" y="262" class="st5" width="145" height="30"/>
	<g class="st1">
		<text transform="matrix(1 0 0 1 415.5892 282.75)" class="st2 st3 st4">Audio</text>
	</g>
	<rect x="510.3" y="262" class="st5" width="145" height="30"/>
	<g class="st1">
		<text transform="matrix(1 0 0 1 553.6492 282.75)" class="st2 st3 st4">Sensors</text>
	</g>
	<rect x="363.8" y="293.5" class="st5" width="145" height="30"/>
	<g class="st1">
		<text transform="matrix(1 0 0 1 408.1815 314.25)" class="st2 st3 st4">Camera</text>
	</g>
	<rect x="510.3" y="293.5" class="st5" width="145" height="30"/>
	<g class="st1">
		<text transform="matrix(1 0 0 1 569.4974 314.25)" class="st2 st3 st4">etc.</text>
	</g>
	<rect x="188.3" y="37.5" class="st5" width="130" height="61"/>
	<g class="st1">
		<text transform="matrix(1 0 0 1 221.7316 64.5522)" class="st2 st3 st4">Widgets, </text>
	</g>
	<g class="st1">
		<text transform="matrix(1 0 0 1 216.5476 83)" class="st2 st3 st4">Rendering</text>
	</g>
	<rect x="525.3" y="37.5" class="st5" width="130" height="30"/>
	<g class="st1">
		<text transform="matrix(1 0 0 1 563.5174 58.2756)" class="st2 st3 st4">Canvas</text>
	</g>
	<rect x="525.3" y="68.5" class="st5" width="130" height="30"/>
	<g class="st1">
		<text transform="matrix(1 0 0 1 566.1815 89.2756)" class="st2 st3 st4">Events</text>
	</g>
	<line class="st6" x1="328.2" y1="68.1" x2="515.4" y2="68.4"/>
	<polygon class="st7" points="523.4,68.4 515.4,65.4 515.4,71.4 	"/>
	<polygon class="st8" points="523.4,68.4 515.4,65.4 515.4,71.4 	"/>
	<polygon class="st7" points="320.2,68.1 328.2,71.1 328.2,65.1 	"/>
	<polygon class="st8" points="320.2,68.1 328.2,71.1 328.2,65.1 	"/>
	<rect x="363.8" y="181" class="st5" width="291.5" height="30"/>
	<g class="st1">
		<text transform="matrix(1 0 0 1 455.9593 201.7628)" class="st2 st3 st4">High level APIs</text>
	</g>
	<line class="st6" x1="165.2" y1="126.7" x2="199.3" y2="104"/>
	<polygon class="st7" points="205.9,99.6 197.6,101.5 201,106.5 	"/>
	<polygon class="st8" points="205.9,99.6 197.6,101.5 201,106.5 	"/>
	<polygon class="st7" points="158.6,131.1 166.9,129.2 163.6,124.2 	"/>
	<polygon class="st8" points="158.6,131.1 166.9,129.2 163.6,124.2 	"/>
	<line class="st6" x1="166.7" y1="199.3" x2="354.2" y2="242.2"/>
	<polygon class="st7" points="362,244 354.9,239.3 353.5,245.1 	"/>
	<polygon class="st8" points="362,244 354.9,239.3 353.5,245.1 	"/>
	<polygon class="st7" points="158.9,197.5 166,202.2 167.3,196.4 	"/>
	<polygon class="st8" points="158.9,197.5 166,202.2 167.3,196.4 	"/>
</g>
</svg>
