<?xml version="1.0" encoding="utf-8"?>
<!-- Generator: Adobe Illustrator 24.0.1, SVG Export Plug-In . SVG Version: 6.00 Build 0)  -->
<svg version="1.1" id="Ebene_1" xmlns="http://www.w3.org/2000/svg" xmlns:xlink="http://www.w3.org/1999/xlink" x="0px" y="0px"
	 viewBox="0 0 670 334" style="enable-background:new 0 0 670 334;" xml:space="preserve">
<style type="text/css">
	.st0{clip-path:url(#SVGID_2_);fill:#0D0D0D;}
	.st1{clip-path:url(#SVGID_2_);}
	.st2{fill:#FFFFFF;}
	.st3{font-family:'HelveticaNeue';}
	.st4{font-size:16px;}
	.st5{clip-path:url(#SVGID_2_);fill:#333333;}
	.st6{clip-path:url(#SVGID_2_);fill:none;stroke:#FFFFFF;stroke-linecap:round;stroke-linejoin:round;stroke-miterlimit:10;}
	.st7{clip-path:url(#SVGID_2_);fill:#FFFFFF;}
	.st8{clip-path:url(#SVGID_2_);fill:none;stroke:#FFFFFF;stroke-miterlimit:10;}
</style>
<g>
	<defs>
		<rect id="SVGID_1_" width="670" height="334"/>
	</defs>
	<clipPath id="SVGID_2_">
		<use xlink:href="#SVGID_1_"  style="overflow:visible;"/>
	</clipPath>
	<rect x="174.8" class="st0" width="170" height="333.1"/>
	<g class="st1">
		<text transform="matrix(1 0 0 1 219.6476 20.0005)" class="st2 st3 st4">Framework</text>
	</g>
	<rect class="st0" width="170" height="333.1"/>
	<g class="st1">
		<text transform="matrix(1 0 0 1 70.3281 20.0005)" class="st2 st3 st4">App</text>
	</g>
	<rect x="12" y="37.5" class="st5" width="145" height="286"/>
	<g class="st1">
		<text transform="matrix(1 0 0 1 20.0439 158.5917)"><tspan x="0" y="0" class="st2 st3 st4">Fo</tspan><tspan x="18.4" y="0" class="st2 st3 st4">r</tspan><tspan x="23.4" y="0" class="st2 st3 st4">eign Language </tspan></text>
	</g>
	<g class="st1">
		<text transform="matrix(1 0 0 1 62.8682 177.0394)" class="st2 st3 st4">Code, </text>
	</g>
	<g class="st1">
		<text transform="matrix(1 0 0 1 31.5962 195.4872)" class="st2 st3 st4">Endemic Code </text>
	</g>
	<g class="st1">
		<text transform="matrix(1 0 0 1 51.6118 213.935)" class="st2 st3 st4">(optional)</text>
	</g>
	<rect x="349.6" class="st0" width="320" height="333.1"/>
	<g class="st1">
		<text transform="matrix(1 0 0 1 479.3592 20.0005)" class="st2 st3 st4">Platform</text>
	</g>
	<rect x="363.8" y="231" class="st5" width="145" height="30"/>
	<g class="st1">
		<text transform="matrix(1 0 0 1 405.3655 251.75)" class="st2 st3 st4">Location</text>
	</g>
	<rect x="510.3" y="231" class="st5" width="145" height="30"/>
	<g class="st1">
		<text transform="matrix(1 0 0 1 548.1614 251.75)" class="st2 st3 st4">Bluetooth</text>
	</g>
	<rect x="363.8" y="262" class="st5" width="145" height="30"/>
	<g class="st1">
		<text transform="matrix(1 0 0 1 415.5892 282.75)" class="st2 st3 st4">Audio</text>
	</g>
	<rect x="510.3" y="262" class="st5" width="145" height="30"/>
	<g class="st1">
		<text transform="matrix(1 0 0 1 553.6492 282.75)" class="st2 st3 st4">Sensors</text>
	</g>
	<rect x="363.8" y="293.5" class="st5" width="145" height="30"/>
	<g class="st1">
		<text transform="matrix(1 0 0 1 408.1815 314.25)" class="st2 st3 st4">Camera</text>
	</g>
	<rect x="510.3" y="293.5" class="st5" width="145" height="30"/>
	<g class="st1">
		<text transform="matrix(1 0 0 1 569.4974 314.25)" class="st2 st3 st4">etc.</text>
	</g>
	<rect x="194.8" y="37.5" class="st5" width="130" height="61"/>
	<g class="st1">
		<text transform="matrix(1 0 0 1 228.2316 64.5522)" class="st2 st3 st4">Widgets, </text>
	</g>
	<g class="st1">
		<text transform="matrix(1 0 0 1 223.0475 83)" class="st2 st3 st4">Rendering</text>
	</g>
	<rect x="525.3" y="37.5" class="st5" width="130" height="30"/>
	<g class="st1">
		<text transform="matrix(1 0 0 1 563.5174 58.2756)" class="st2 st3 st4">Canvas</text>
	</g>
	<rect x="525.3" y="68.5" class="st5" width="130" height="30"/>
	<g class="st1">
		<text transform="matrix(1 0 0 1 566.1815 89.2756)" class="st2 st3 st4">Events</text>
	</g>
	<line class="st6" x1="334.7" y1="68.1" x2="515.4" y2="68.4"/>
	<polygon class="st7" points="523.4,68.4 515.4,65.4 515.4,71.4 	"/>
	<polygon class="st8" points="523.4,68.4 515.4,65.4 515.4,71.4 	"/>
	<polygon class="st7" points="326.7,68.1 334.7,71.1 334.7,65.1 	"/>
	<polygon class="st8" points="326.7,68.1 334.7,71.1 334.7,65.1 	"/>
	<rect x="363.8" y="181" class="st5" width="291.5" height="30"/>
	<g class="st1">
		<text transform="matrix(1 0 0 1 455.9593 201.7628)" class="st2 st3 st4">High level APIs</text>
	</g>
	<line class="st6" x1="165.3" y1="128.6" x2="203.9" y2="103.8"/>
	<polygon class="st7" points="210.7,99.5 202.3,101.3 205.6,106.4 	"/>
	<polygon class="st8" points="210.7,99.5 202.3,101.3 205.6,106.4 	"/>
	<polygon class="st7" points="158.6,132.9 167,131.1 163.7,126.1 	"/>
	<polygon class="st8" points="158.6,132.9 167,131.1 163.7,126.1 	"/>
	<line class="st6" x1="166.2" y1="213.9" x2="185.6" y2="221.9"/>
	<polygon class="st7" points="193,224.9 186.8,219.1 184.5,224.7 	"/>
	<polygon class="st8" points="193,224.9 186.8,219.1 184.5,224.7 	"/>
	<polygon class="st7" points="158.8,210.9 165,216.7 167.3,211.1 	"/>
	<polygon class="st8" points="158.8,210.9 165,216.7 167.3,211.1 	"/>
	<rect x="194.8" y="181" class="st5" width="130" height="142.5"/>
	<g class="st1">
		<text transform="matrix(1 0 0 1 229.5676 248.783)" class="st2 st3 st4">Platform </text>
	</g>
	<g class="st1">
		<text transform="matrix(1 0 0 1 226.3039 267.2308)" class="st2 st3 st4">Channels</text>
	</g>
	<line class="st6" x1="334.6" y1="259.9" x2="354" y2="261.8"/>
	<polygon class="st7" points="361.9,262.7 354.3,258.9 353.7,264.8 	"/>
	<polygon class="st8" points="361.9,262.7 354.3,258.9 353.7,264.8 	"/>
	<polygon class="st7" points="326.7,259.1 334.3,262.9 334.9,256.9 	"/>
	<polygon class="st8" points="326.7,259.1 334.3,262.9 334.9,256.9 	"/>
	<line class="st6" x1="334.4" y1="235.4" x2="433.3" y2="213.2"/>
	<polygon class="st7" points="441.1,211.4 432.6,210.2 434,216.1 	"/>
	<polygon class="st8" points="441.1,211.4 432.6,210.2 434,216.1 	"/>
	<polygon class="st7" points="326.6,237.2 335.1,238.3 333.8,232.5 	"/>
	<polygon class="st8" points="326.6,237.2 335.1,238.3 333.8,232.5 	"/>
</g>
</svg>
