<?xml version="1.0" encoding="utf-8"?>
<!-- Generator: Adobe Illustrator 24.0.1, SVG Export Plug-In . SVG Version: 6.00 Build 0)  -->
<svg version="1.1" id="Ebene_1" xmlns="http://www.w3.org/2000/svg" xmlns:xlink="http://www.w3.org/1999/xlink" x="0px" y="0px"
	 viewBox="0 0 670 334" style="enable-background:new 0 0 670 334;" xml:space="preserve">
<style type="text/css">
	.st0{clip-path:url(#SVGID_2_);fill:#0D0D0D;}
	.st1{clip-path:url(#SVGID_2_);}
	.st2{fill:#FFFFFF;}
	.st3{font-family:'HelveticaNeue';}
	.st4{font-size:16px;}
	.st5{clip-path:url(#SVGID_2_);fill:#333333;}
	.st6{clip-path:url(#SVGID_2_);fill:none;stroke:#FFFFFF;stroke-linecap:round;stroke-linejoin:round;stroke-miterlimit:10;}
	.st7{clip-path:url(#SVGID_2_);fill:#FFFFFF;}
	.st8{clip-path:url(#SVGID_2_);fill:none;stroke:#FFFFFF;stroke-miterlimit:10;}
</style>
<g>
	<defs>
		<rect id="SVGID_1_" width="670" height="334"/>
	</defs>
	<clipPath id="SVGID_2_">
		<use xlink:href="#SVGID_1_"  style="overflow:visible;"/>
	</clipPath>
	<rect x="174.8" class="st0" width="170" height="333.1"/>
	<g class="st1">
		<text transform="matrix(1 0 0 1 219.6476 20.0005)" class="st2 st3 st4">Framework</text>
	</g>
	<rect class="st0" width="170" height="333.1"/>
	<g class="st1">
		<text transform="matrix(1 0 0 1 70.3281 20.0005)" class="st2 st3 st4">App</text>
	</g>
	<rect x="12" y="37.5" class="st5" width="145" height="286"/>
	<g class="st1">
		<text transform="matrix(1 0 0 1 20.0439 177.0394)"><tspan x="0" y="0" class="st2 st3 st4">Fo</tspan><tspan x="18.4" y="0" class="st2 st3 st4">r</tspan><tspan x="23.4" y="0" class="st2 st3 st4">eign Language </tspan></text>
	</g>
	<g class="st1">
		<text transform="matrix(1 0 0 1 65.0918 195.4872)" class="st2 st3 st4">Code</text>
	</g>
	<rect x="349.6" class="st0" width="320" height="333.1"/>
	<g class="st1">
		<text transform="matrix(1 0 0 1 479.3592 20.0005)" class="st2 st3 st4">Platform</text>
	</g>
	<rect x="363.8" y="231" class="st5" width="145" height="30"/>
	<g class="st1">
		<text transform="matrix(1 0 0 1 405.3655 251.75)" class="st2 st3 st4">Location</text>
	</g>
	<rect x="510.3" y="231" class="st5" width="145" height="30"/>
	<g class="st1">
		<text transform="matrix(1 0 0 1 548.1614 251.75)" class="st2 st3 st4">Bluetooth</text>
	</g>
	<rect x="363.8" y="262" class="st5" width="145" height="30"/>
	<g class="st1">
		<text transform="matrix(1 0 0 1 415.5892 282.75)" class="st2 st3 st4">Audio</text>
	</g>
	<rect x="510.3" y="262" class="st5" width="145" height="30"/>
	<g class="st1">
		<text transform="matrix(1 0 0 1 553.6492 282.75)" class="st2 st3 st4">Sensors</text>
	</g>
	<rect x="363.8" y="293.5" class="st5" width="145" height="30"/>
	<g class="st1">
		<text transform="matrix(1 0 0 1 408.1815 314.25)" class="st2 st3 st4">Camera</text>
	</g>
	<rect x="510.3" y="293.5" class="st5" width="145" height="30"/>
	<g class="st1">
		<text transform="matrix(1 0 0 1 569.4974 314.25)" class="st2 st3 st4">etc.</text>
	</g>
	<rect x="362.6" y="38.5" class="st5" width="130" height="61"/>
	<g class="st1">
		<text transform="matrix(1 0 0 1 396.3113 65.5522)" class="st2 st3 st4">Endemic </text>
	</g>
	<g class="st1">
		<text transform="matrix(1 0 0 1 398.2474 84)" class="st2 st3 st4">Widgets</text>
	</g>
	<rect x="525.3" y="37.5" class="st5" width="130" height="30"/>
	<g class="st1">
		<text transform="matrix(1 0 0 1 563.5174 58.2756)" class="st2 st3 st4">Canvas</text>
	</g>
	<rect x="525.3" y="68.5" class="st5" width="130" height="30"/>
	<g class="st1">
		<text transform="matrix(1 0 0 1 566.1815 89.2756)" class="st2 st3 st4">Events</text>
	</g>
	<line class="st6" x1="502.5" y1="68.8" x2="515.4" y2="68.7"/>
	<polygon class="st7" points="523.4,68.7 515.4,65.7 515.4,71.7 	"/>
	<polygon class="st8" points="523.4,68.7 515.4,65.7 515.4,71.7 	"/>
	<polygon class="st7" points="494.5,68.8 502.5,71.8 502.5,65.8 	"/>
	<polygon class="st8" points="494.5,68.8 502.5,71.8 502.5,65.8 	"/>
	<rect x="363.8" y="181" class="st5" width="291.5" height="30"/>
	<g class="st1">
		<text transform="matrix(1 0 0 1 455.9593 201.7628)" class="st2 st3 st4">High level APIs</text>
	</g>
	<line class="st6" x1="333" y1="132.1" x2="373.7" y2="105"/>
	<polygon class="st7" points="380.3,100.6 372,102.5 375.3,107.5 	"/>
	<polygon class="st8" points="380.3,100.6 372,102.5 375.3,107.5 	"/>
	<polygon class="st7" points="326.4,136.6 334.7,134.6 331.4,129.6 	"/>
	<polygon class="st8" points="326.4,136.6 334.7,134.6 331.4,129.6 	"/>
	<line class="st6" x1="166.9" y1="180.7" x2="184.9" y2="180.8"/>
	<polygon class="st7" points="192.9,180.8 184.9,177.8 184.9,183.8 	"/>
	<polygon class="st8" points="192.9,180.8 184.9,177.8 184.9,183.8 	"/>
	<polygon class="st7" points="158.9,180.7 166.9,183.7 166.9,177.7 	"/>
	<polygon class="st8" points="158.9,180.7 166.9,183.7 166.9,177.7 	"/>
	<rect x="194.8" y="38.5" class="st5" width="130" height="285"/>
	<g class="st1">
		<text transform="matrix(1 0 0 1 238.4557 177.5394)" class="st2 st3 st4">VM or </text>
	</g>
	<g class="st1">
		<text transform="matrix(1 0 0 1 207.9357 195.9872)"><tspan x="0" y="0" class="st2 st3 st4">C</tspan><tspan x="11.6" y="0" class="st2 st3 st4">r</tspan><tspan x="16.6" y="0" class="st2 st3 st4">osscompiler</tspan></text>
	</g>
	<line class="st6" x1="334" y1="209.7" x2="382.2" y2="228.4"/>
	<polygon class="st7" points="389.7,231.3 383.3,225.6 381.1,231.2 	"/>
	<polygon class="st8" points="389.7,231.3 383.3,225.6 381.1,231.2 	"/>
	<polygon class="st7" points="326.6,206.8 332.9,212.5 335.1,206.9 	"/>
	<polygon class="st8" points="326.6,206.8 332.9,212.5 335.1,206.9 	"/>
	<line class="st6" x1="334.7" y1="185.5" x2="354" y2="186.6"/>
	<polygon class="st7" points="361.9,187.1 354.1,183.6 353.8,189.6 	"/>
	<polygon class="st8" points="361.9,187.1 354.1,183.6 353.8,189.6 	"/>
	<polygon class="st7" points="326.7,185 334.5,188.5 334.9,182.5 	"/>
	<polygon class="st8" points="326.7,185 334.5,188.5 334.9,182.5 	"/>
</g>
</svg>
