<?xml version="1.0" encoding="utf-8" standalone="no"?>
<!DOCTYPE svg PUBLIC "-//W3C//DTD SVG 1.1//EN"
  "http://www.w3.org/Graphics/SVG/1.1/DTD/svg11.dtd">
<svg xmlns:xlink="http://www.w3.org/1999/xlink" width="720pt" height="360pt" viewBox="0 0 720 360" xmlns="http://www.w3.org/2000/svg" version="1.1">
 <metadata>
  <rdf:RDF xmlns:dc="http://purl.org/dc/elements/1.1/" xmlns:cc="http://creativecommons.org/ns#" xmlns:rdf="http://www.w3.org/1999/02/22-rdf-syntax-ns#">
   <cc:Work>
    <dc:type rdf:resource="http://purl.org/dc/dcmitype/StillImage"/>
    <dc:date>2025-02-07T11:48:18.052571</dc:date>
    <dc:format>image/svg+xml</dc:format>
    <dc:creator>
     <cc:Agent>
      <dc:title>Matplotlib v3.8.4, https://matplotlib.org/</dc:title>
     </cc:Agent>
    </dc:creator>
   </cc:Work>
  </rdf:RDF>
 </metadata>
 <defs>
  <style type="text/css">*{stroke-linejoin: round; stroke-linecap: butt}</style>
 </defs>
 <g id="figure_1">
  <g id="patch_1">
   <path d="M 0 360 
L 720 360 
L 720 0 
L 0 0 
z
"/>
  </g>
  <g id="axes_1">
   <g id="patch_2">
    <path d="M 54.2 318.04 
L 709.2 318.04 
L 709.2 12.740153 
L 54.2 12.740153 
z
"/>
   </g>
   <g id="patch_3">
    <path d="M 163.366667 809.464697 
L 163.366667 809.464697 
L 163.366667 809.464697 
L 163.366667 809.464697 
z
" clip-path="url(#p3a98c42e62)" style="fill: #96cac1; stroke: #666666; stroke-linejoin: miter"/>
   </g>
   <g id="patch_4">
    <path d="M 163.366667 809.464697 
L 163.366667 809.464697 
L 163.366667 809.464697 
L 163.366667 809.464697 
z
" clip-path="url(#p3a98c42e62)" style="fill: #f5f6bc; stroke: #666666; stroke-linejoin: miter"/>
   </g>
   <g id="patch_5">
    <path d="M 163.366667 809.464697 
L 163.366667 809.464697 
L 163.366667 809.464697 
L 163.366667 809.464697 
z
" clip-path="url(#p3a98c42e62)" style="fill: #c2bfd5; stroke: #666666; stroke-linejoin: miter"/>
   </g>
   <g id="patch_6">
    <path d="M 163.366667 809.464697 
L 163.366667 809.464697 
L 163.366667 809.464697 
L 163.366667 809.464697 
z
" clip-path="url(#p3a98c42e62)" style="fill: #e98e85; stroke: #666666; stroke-linejoin: miter"/>
   </g>
   <g id="patch_7">
    <path d="M 163.366667 809.464697 
L 163.366667 809.464697 
L 163.366667 809.464697 
L 163.366667 809.464697 
z
" clip-path="url(#p3a98c42e62)" style="fill: #8bafc8; stroke: #666666; stroke-linejoin: miter"/>
   </g>
   <g id="matplotlib.axis_1">
    <g id="xtick_1">
     <g id="line2d_1">
      <defs>
       <path id="ma07291e2ec" d="M 0 0 
L 0 3.5 
" style="stroke: #ffffff; stroke-width: 0.8"/>
      </defs>
      <g>
       <use xlink:href="#ma07291e2ec" x="163.366667" y="318.04" style="fill: #ffffff; stroke: #ffffff; stroke-width: 0.8"/>
      </g>
     </g>
     <g id="text_1">
      <!-- (4) -->
      <g style="fill: #ffffff" transform="translate(156.283854 332.638438) scale(0.1 -0.1)">
       <defs>
        <path id="DejaVuSans-28" d="M 1984 4856 
Q 1566 4138 1362 3434 
Q 1159 2731 1159 2009 
Q 1159 1288 1364 580 
Q 1569 -128 1984 -844 
L 1484 -844 
Q 1016 -109 783 600 
Q 550 1309 550 2009 
Q 550 2706 781 3412 
Q 1013 4119 1484 4856 
L 1984 4856 
z
" transform="scale(0.015625)"/>
        <path id="DejaVuSans-34" d="M 2419 4116 
L 825 1625 
L 2419 1625 
L 2419 4116 
z
M 2253 4666 
L 3047 4666 
L 3047 1625 
L 3713 1625 
L 3713 1100 
L 3047 1100 
L 3047 0 
L 2419 0 
L 2419 1100 
L 313 1100 
L 313 1709 
L 2253 4666 
z
" transform="scale(0.015625)"/>
        <path id="DejaVuSans-29" d="M 513 4856 
L 1013 4856 
Q 1481 4119 1714 3412 
Q 1947 2706 1947 2009 
Q 1947 1309 1714 600 
Q 1481 -109 1013 -844 
L 513 -844 
Q 928 -128 1133 580 
Q 1338 1288 1338 2009 
Q 1338 2731 1133 3434 
Q 928 4138 513 4856 
z
" transform="scale(0.015625)"/>
       </defs>
       <use xlink:href="#DejaVuSans-28"/>
       <use xlink:href="#DejaVuSans-34" x="39.013672"/>
       <use xlink:href="#DejaVuSans-29" x="102.636719"/>
      </g>
     </g>
    </g>
    <g id="xtick_2">
     <g id="line2d_2">
      <g>
       <use xlink:href="#ma07291e2ec" x="381.7" y="318.04" style="fill: #ffffff; stroke: #ffffff; stroke-width: 0.8"/>
      </g>
     </g>
     <g id="text_2">
      <!-- (5) -->
      <g style="fill: #ffffff" transform="translate(374.617188 332.638438) scale(0.1 -0.1)">
       <defs>
        <path id="DejaVuSans-35" d="M 691 4666 
L 3169 4666 
L 3169 4134 
L 1269 4134 
L 1269 2991 
Q 1406 3038 1543 3061 
Q 1681 3084 1819 3084 
Q 2600 3084 3056 2656 
Q 3513 2228 3513 1497 
Q 3513 744 3044 326 
Q 2575 -91 1722 -91 
Q 1428 -91 1123 -41 
Q 819 9 494 109 
L 494 744 
Q 775 591 1075 516 
Q 1375 441 1709 441 
Q 2250 441 2565 725 
Q 2881 1009 2881 1497 
Q 2881 1984 2565 2268 
Q 2250 2553 1709 2553 
Q 1456 2553 1204 2497 
Q 953 2441 691 2322 
L 691 4666 
z
" transform="scale(0.015625)"/>
       </defs>
       <use xlink:href="#DejaVuSans-28"/>
       <use xlink:href="#DejaVuSans-35" x="39.013672"/>
       <use xlink:href="#DejaVuSans-29" x="102.636719"/>
      </g>
     </g>
    </g>
    <g id="xtick_3">
     <g id="line2d_3">
      <g>
       <use xlink:href="#ma07291e2ec" x="600.033333" y="318.04" style="fill: #ffffff; stroke: #ffffff; stroke-width: 0.8"/>
      </g>
     </g>
     <g id="text_3">
      <!-- (6) -->
      <g style="fill: #ffffff" transform="translate(592.950521 332.638438) scale(0.1 -0.1)">
       <defs>
        <path id="DejaVuSans-36" d="M 2113 2584 
Q 1688 2584 1439 2293 
Q 1191 2003 1191 1497 
Q 1191 994 1439 701 
Q 1688 409 2113 409 
Q 2538 409 2786 701 
Q 3034 994 3034 1497 
Q 3034 2003 2786 2293 
Q 2538 2584 2113 2584 
z
M 3366 4563 
L 3366 3988 
Q 3128 4100 2886 4159 
Q 2644 4219 2406 4219 
Q 1781 4219 1451 3797 
Q 1122 3375 1075 2522 
Q 1259 2794 1537 2939 
Q 1816 3084 2150 3084 
Q 2853 3084 3261 2657 
Q 3669 2231 3669 1497 
Q 3669 778 3244 343 
Q 2819 -91 2113 -91 
Q 1303 -91 875 529 
Q 447 1150 447 2328 
Q 447 3434 972 4092 
Q 1497 4750 2381 4750 
Q 2619 4750 2861 4703 
Q 3103 4656 3366 4563 
z
" transform="scale(0.015625)"/>
       </defs>
       <use xlink:href="#DejaVuSans-28"/>
       <use xlink:href="#DejaVuSans-36" x="39.013672"/>
       <use xlink:href="#DejaVuSans-29" x="102.636719"/>
      </g>
     </g>
    </g>
    <g id="text_4">
     <!-- Simulation -->
     <g style="fill: #ffffff" transform="translate(355.067187 346.316563) scale(0.1 -0.1)">
      <defs>
       <path id="DejaVuSans-53" d="M 3425 4513 
L 3425 3897 
Q 3066 4069 2747 4153 
Q 2428 4238 2131 4238 
Q 1616 4238 1336 4038 
Q 1056 3838 1056 3469 
Q 1056 3159 1242 3001 
Q 1428 2844 1947 2747 
L 2328 2669 
Q 3034 2534 3370 2195 
Q 3706 1856 3706 1288 
Q 3706 609 3251 259 
Q 2797 -91 1919 -91 
Q 1588 -91 1214 -16 
Q 841 59 441 206 
L 441 856 
Q 825 641 1194 531 
Q 1563 422 1919 422 
Q 2459 422 2753 634 
Q 3047 847 3047 1241 
Q 3047 1584 2836 1778 
Q 2625 1972 2144 2069 
L 1759 2144 
Q 1053 2284 737 2584 
Q 422 2884 422 3419 
Q 422 4038 858 4394 
Q 1294 4750 2059 4750 
Q 2388 4750 2728 4690 
Q 3069 4631 3425 4513 
z
" transform="scale(0.015625)"/>
       <path id="DejaVuSans-69" d="M 603 3500 
L 1178 3500 
L 1178 0 
L 603 0 
L 603 3500 
z
M 603 4863 
L 1178 4863 
L 1178 4134 
L 603 4134 
L 603 4863 
z
" transform="scale(0.015625)"/>
       <path id="DejaVuSans-6d" d="M 3328 2828 
Q 3544 3216 3844 3400 
Q 4144 3584 4550 3584 
Q 5097 3584 5394 3201 
Q 5691 2819 5691 2113 
L 5691 0 
L 5113 0 
L 5113 2094 
Q 5113 2597 4934 2840 
Q 4756 3084 4391 3084 
Q 3944 3084 3684 2787 
Q 3425 2491 3425 1978 
L 3425 0 
L 2847 0 
L 2847 2094 
Q 2847 2600 2669 2842 
Q 2491 3084 2119 3084 
Q 1678 3084 1418 2786 
Q 1159 2488 1159 1978 
L 1159 0 
L 581 0 
L 581 3500 
L 1159 3500 
L 1159 2956 
Q 1356 3278 1631 3431 
Q 1906 3584 2284 3584 
Q 2666 3584 2933 3390 
Q 3200 3197 3328 2828 
z
" transform="scale(0.015625)"/>
       <path id="DejaVuSans-75" d="M 544 1381 
L 544 3500 
L 1119 3500 
L 1119 1403 
Q 1119 906 1312 657 
Q 1506 409 1894 409 
Q 2359 409 2629 706 
Q 2900 1003 2900 1516 
L 2900 3500 
L 3475 3500 
L 3475 0 
L 2900 0 
L 2900 538 
Q 2691 219 2414 64 
Q 2138 -91 1772 -91 
Q 1169 -91 856 284 
Q 544 659 544 1381 
z
M 1991 3584 
L 1991 3584 
z
" transform="scale(0.015625)"/>
       <path id="DejaVuSans-6c" d="M 603 4863 
L 1178 4863 
L 1178 0 
L 603 0 
L 603 4863 
z
" transform="scale(0.015625)"/>
       <path id="DejaVuSans-61" d="M 2194 1759 
Q 1497 1759 1228 1600 
Q 959 1441 959 1056 
Q 959 750 1161 570 
Q 1363 391 1709 391 
Q 2188 391 2477 730 
Q 2766 1069 2766 1631 
L 2766 1759 
L 2194 1759 
z
M 3341 1997 
L 3341 0 
L 2766 0 
L 2766 531 
Q 2569 213 2275 61 
Q 1981 -91 1556 -91 
Q 1019 -91 701 211 
Q 384 513 384 1019 
Q 384 1609 779 1909 
Q 1175 2209 1959 2209 
L 2766 2209 
L 2766 2266 
Q 2766 2663 2505 2880 
Q 2244 3097 1772 3097 
Q 1472 3097 1187 3025 
Q 903 2953 641 2809 
L 641 3341 
Q 956 3463 1253 3523 
Q 1550 3584 1831 3584 
Q 2591 3584 2966 3190 
Q 3341 2797 3341 1997 
z
" transform="scale(0.015625)"/>
       <path id="DejaVuSans-74" d="M 1172 4494 
L 1172 3500 
L 2356 3500 
L 2356 3053 
L 1172 3053 
L 1172 1153 
Q 1172 725 1289 603 
Q 1406 481 1766 481 
L 2356 481 
L 2356 0 
L 1766 0 
Q 1100 0 847 248 
Q 594 497 594 1153 
L 594 3053 
L 172 3053 
L 172 3500 
L 594 3500 
L 594 4494 
L 1172 4494 
z
" transform="scale(0.015625)"/>
       <path id="DejaVuSans-6f" d="M 1959 3097 
Q 1497 3097 1228 2736 
Q 959 2375 959 1747 
Q 959 1119 1226 758 
Q 1494 397 1959 397 
Q 2419 397 2687 759 
Q 2956 1122 2956 1747 
Q 2956 2369 2687 2733 
Q 2419 3097 1959 3097 
z
M 1959 3584 
Q 2709 3584 3137 3096 
Q 3566 2609 3566 1747 
Q 3566 888 3137 398 
Q 2709 -91 1959 -91 
Q 1206 -91 779 398 
Q 353 888 353 1747 
Q 353 2609 779 3096 
Q 1206 3584 1959 3584 
z
" transform="scale(0.015625)"/>
       <path id="DejaVuSans-6e" d="M 3513 2113 
L 3513 0 
L 2938 0 
L 2938 2094 
Q 2938 2591 2744 2837 
Q 2550 3084 2163 3084 
Q 1697 3084 1428 2787 
Q 1159 2491 1159 1978 
L 1159 0 
L 581 0 
L 581 3500 
L 1159 3500 
L 1159 2956 
Q 1366 3272 1645 3428 
Q 1925 3584 2291 3584 
Q 2894 3584 3203 3211 
Q 3513 2838 3513 2113 
z
" transform="scale(0.015625)"/>
      </defs>
      <use xlink:href="#DejaVuSans-53"/>
      <use xlink:href="#DejaVuSans-69" x="63.476562"/>
      <use xlink:href="#DejaVuSans-6d" x="91.259766"/>
      <use xlink:href="#DejaVuSans-75" x="188.671875"/>
      <use xlink:href="#DejaVuSans-6c" x="252.050781"/>
      <use xlink:href="#DejaVuSans-61" x="279.833984"/>
      <use xlink:href="#DejaVuSans-74" x="341.113281"/>
      <use xlink:href="#DejaVuSans-69" x="380.322266"/>
      <use xlink:href="#DejaVuSans-6f" x="408.105469"/>
      <use xlink:href="#DejaVuSans-6e" x="469.287109"/>
     </g>
    </g>
   </g>
   <g id="matplotlib.axis_2">
    <g id="ytick_1">
     <g id="line2d_4">
      <defs>
       <path id="m49e350831b" d="M 0 0 
L -3.5 0 
" style="stroke: #ffffff; stroke-width: 0.8"/>
      </defs>
      <g>
       <use xlink:href="#m49e350831b" x="54.2" y="279.798067" style="fill: #ffffff; stroke: #ffffff; stroke-width: 0.8"/>
      </g>
     </g>
     <g id="text_5">
      <!-- 0.50 -->
      <g style="fill: #ffffff" transform="translate(24.934375 283.597286) scale(0.1 -0.1)">
       <defs>
        <path id="DejaVuSans-30" d="M 2034 4250 
Q 1547 4250 1301 3770 
Q 1056 3291 1056 2328 
Q 1056 1369 1301 889 
Q 1547 409 2034 409 
Q 2525 409 2770 889 
Q 3016 1369 3016 2328 
Q 3016 3291 2770 3770 
Q 2525 4250 2034 4250 
z
M 2034 4750 
Q 2819 4750 3233 4129 
Q 3647 3509 3647 2328 
Q 3647 1150 3233 529 
Q 2819 -91 2034 -91 
Q 1250 -91 836 529 
Q 422 1150 422 2328 
Q 422 3509 836 4129 
Q 1250 4750 2034 4750 
z
" transform="scale(0.015625)"/>
        <path id="DejaVuSans-2e" d="M 684 794 
L 1344 794 
L 1344 0 
L 684 0 
L 684 794 
z
" transform="scale(0.015625)"/>
       </defs>
       <use xlink:href="#DejaVuSans-30"/>
       <use xlink:href="#DejaVuSans-2e" x="63.623047"/>
       <use xlink:href="#DejaVuSans-35" x="95.410156"/>
       <use xlink:href="#DejaVuSans-30" x="159.033203"/>
      </g>
     </g>
    </g>
    <g id="ytick_2">
     <g id="line2d_5">
      <g>
       <use xlink:href="#m49e350831b" x="54.2" y="226.831404" style="fill: #ffffff; stroke: #ffffff; stroke-width: 0.8"/>
      </g>
     </g>
     <g id="text_6">
      <!-- 0.55 -->
      <g style="fill: #ffffff" transform="translate(24.934375 230.630623) scale(0.1 -0.1)">
       <use xlink:href="#DejaVuSans-30"/>
       <use xlink:href="#DejaVuSans-2e" x="63.623047"/>
       <use xlink:href="#DejaVuSans-35" x="95.410156"/>
       <use xlink:href="#DejaVuSans-35" x="159.033203"/>
      </g>
     </g>
    </g>
    <g id="ytick_3">
     <g id="line2d_6">
      <g>
       <use xlink:href="#m49e350831b" x="54.2" y="173.864741" style="fill: #ffffff; stroke: #ffffff; stroke-width: 0.8"/>
      </g>
     </g>
     <g id="text_7">
      <!-- 0.60 -->
      <g style="fill: #ffffff" transform="translate(24.934375 177.66396) scale(0.1 -0.1)">
       <use xlink:href="#DejaVuSans-30"/>
       <use xlink:href="#DejaVuSans-2e" x="63.623047"/>
       <use xlink:href="#DejaVuSans-36" x="95.410156"/>
       <use xlink:href="#DejaVuSans-30" x="159.033203"/>
      </g>
     </g>
    </g>
    <g id="ytick_4">
     <g id="line2d_7">
      <g>
       <use xlink:href="#m49e350831b" x="54.2" y="120.898078" style="fill: #ffffff; stroke: #ffffff; stroke-width: 0.8"/>
      </g>
     </g>
     <g id="text_8">
      <!-- 0.65 -->
      <g style="fill: #ffffff" transform="translate(24.934375 124.697297) scale(0.1 -0.1)">
       <use xlink:href="#DejaVuSans-30"/>
       <use xlink:href="#DejaVuSans-2e" x="63.623047"/>
       <use xlink:href="#DejaVuSans-36" x="95.410156"/>
       <use xlink:href="#DejaVuSans-35" x="159.033203"/>
      </g>
     </g>
    </g>
    <g id="ytick_5">
     <g id="line2d_8">
      <g>
       <use xlink:href="#m49e350831b" x="54.2" y="67.931415" style="fill: #ffffff; stroke: #ffffff; stroke-width: 0.8"/>
      </g>
     </g>
     <g id="text_9">
      <!-- 0.70 -->
      <g style="fill: #ffffff" transform="translate(24.934375 71.730634) scale(0.1 -0.1)">
       <defs>
        <path id="DejaVuSans-37" d="M 525 4666 
L 3525 4666 
L 3525 4397 
L 1831 0 
L 1172 0 
L 2766 4134 
L 525 4134 
L 525 4666 
z
" transform="scale(0.015625)"/>
       </defs>
       <use xlink:href="#DejaVuSans-30"/>
       <use xlink:href="#DejaVuSans-2e" x="63.623047"/>
       <use xlink:href="#DejaVuSans-37" x="95.410156"/>
       <use xlink:href="#DejaVuSans-30" x="159.033203"/>
      </g>
     </g>
    </g>
    <g id="ytick_6">
     <g id="line2d_9">
      <g>
       <use xlink:href="#m49e350831b" x="54.2" y="14.964753" style="fill: #ffffff; stroke: #ffffff; stroke-width: 0.8"/>
      </g>
     </g>
     <g id="text_10">
      <!-- 0.75 -->
      <g style="fill: #ffffff" transform="translate(24.934375 18.763971) scale(0.1 -0.1)">
       <use xlink:href="#DejaVuSans-30"/>
       <use xlink:href="#DejaVuSans-2e" x="63.623047"/>
       <use xlink:href="#DejaVuSans-37" x="95.410156"/>
       <use xlink:href="#DejaVuSans-35" x="159.033203"/>
      </g>
     </g>
    </g>
    <g id="text_11">
     <!-- MicroAccuracy -->
     <g style="fill: #ffffff" transform="translate(18.854688 201.672889) rotate(-90) scale(0.1 -0.1)">
      <defs>
       <path id="DejaVuSans-4d" d="M 628 4666 
L 1569 4666 
L 2759 1491 
L 3956 4666 
L 4897 4666 
L 4897 0 
L 4281 0 
L 4281 4097 
L 3078 897 
L 2444 897 
L 1241 4097 
L 1241 0 
L 628 0 
L 628 4666 
z
" transform="scale(0.015625)"/>
       <path id="DejaVuSans-63" d="M 3122 3366 
L 3122 2828 
Q 2878 2963 2633 3030 
Q 2388 3097 2138 3097 
Q 1578 3097 1268 2742 
Q 959 2388 959 1747 
Q 959 1106 1268 751 
Q 1578 397 2138 397 
Q 2388 397 2633 464 
Q 2878 531 3122 666 
L 3122 134 
Q 2881 22 2623 -34 
Q 2366 -91 2075 -91 
Q 1284 -91 818 406 
Q 353 903 353 1747 
Q 353 2603 823 3093 
Q 1294 3584 2113 3584 
Q 2378 3584 2631 3529 
Q 2884 3475 3122 3366 
z
" transform="scale(0.015625)"/>
       <path id="DejaVuSans-72" d="M 2631 2963 
Q 2534 3019 2420 3045 
Q 2306 3072 2169 3072 
Q 1681 3072 1420 2755 
Q 1159 2438 1159 1844 
L 1159 0 
L 581 0 
L 581 3500 
L 1159 3500 
L 1159 2956 
Q 1341 3275 1631 3429 
Q 1922 3584 2338 3584 
Q 2397 3584 2469 3576 
Q 2541 3569 2628 3553 
L 2631 2963 
z
" transform="scale(0.015625)"/>
       <path id="DejaVuSans-41" d="M 2188 4044 
L 1331 1722 
L 3047 1722 
L 2188 4044 
z
M 1831 4666 
L 2547 4666 
L 4325 0 
L 3669 0 
L 3244 1197 
L 1141 1197 
L 716 0 
L 50 0 
L 1831 4666 
z
" transform="scale(0.015625)"/>
       <path id="DejaVuSans-79" d="M 2059 -325 
Q 1816 -950 1584 -1140 
Q 1353 -1331 966 -1331 
L 506 -1331 
L 506 -850 
L 844 -850 
Q 1081 -850 1212 -737 
Q 1344 -625 1503 -206 
L 1606 56 
L 191 3500 
L 800 3500 
L 1894 763 
L 2988 3500 
L 3597 3500 
L 2059 -325 
z
" transform="scale(0.015625)"/>
      </defs>
      <use xlink:href="#DejaVuSans-4d"/>
      <use xlink:href="#DejaVuSans-69" x="86.279297"/>
      <use xlink:href="#DejaVuSans-63" x="114.0625"/>
      <use xlink:href="#DejaVuSans-72" x="169.042969"/>
      <use xlink:href="#DejaVuSans-6f" x="207.90625"/>
      <use xlink:href="#DejaVuSans-41" x="269.087891"/>
      <use xlink:href="#DejaVuSans-63" x="335.746094"/>
      <use xlink:href="#DejaVuSans-63" x="390.726562"/>
      <use xlink:href="#DejaVuSans-75" x="445.707031"/>
      <use xlink:href="#DejaVuSans-72" x="509.085938"/>
      <use xlink:href="#DejaVuSans-61" x="550.199219"/>
      <use xlink:href="#DejaVuSans-63" x="611.478516"/>
      <use xlink:href="#DejaVuSans-79" x="666.458984"/>
     </g>
    </g>
   </g>
   <g id="patch_8">
    <path d="M 76.033333 103.948746 
L 110.966667 103.948746 
L 110.966667 86.999414 
L 76.033333 86.999414 
L 76.033333 103.948746 
z
" clip-path="url(#p3a98c42e62)" style="fill: #96cac1; stroke: #666666; stroke-linejoin: miter"/>
   </g>
   <g id="line2d_10">
    <path d="M 93.5 103.948746 
L 93.5 120.898078 
" clip-path="url(#p3a98c42e62)" style="fill: none; stroke: #666666"/>
   </g>
   <g id="line2d_11">
    <path d="M 93.5 86.999414 
L 93.5 65.812749 
" clip-path="url(#p3a98c42e62)" style="fill: none; stroke: #666666"/>
   </g>
   <g id="line2d_12">
    <path d="M 84.766667 120.898078 
L 102.233333 120.898078 
" clip-path="url(#p3a98c42e62)" style="fill: none; stroke: #666666; stroke-linecap: square"/>
   </g>
   <g id="line2d_13">
    <path d="M 84.766667 65.812749 
L 102.233333 65.812749 
" clip-path="url(#p3a98c42e62)" style="fill: none; stroke: #666666; stroke-linecap: square"/>
   </g>
   <g id="line2d_14">
    <defs>
     <path id="mc2739d3314" d="M 0 3 
C 0.795609 3 1.55874 2.683901 2.12132 2.12132 
C 2.683901 1.55874 3 0.795609 3 0 
C 3 -0.795609 2.683901 -1.55874 2.12132 -2.12132 
C 1.55874 -2.683901 0.795609 -3 0 -3 
C -0.795609 -3 -1.55874 -2.683901 -2.12132 -2.12132 
C -2.683901 -1.55874 -3 -0.795609 -3 0 
C -3 0.795609 -2.683901 1.55874 -2.12132 2.12132 
C -1.55874 2.683901 -0.795609 3 0 3 
z
" style="stroke: #666666"/>
    </defs>
    <g clip-path="url(#p3a98c42e62)">
     <use xlink:href="#mc2739d3314" x="93.5" y="144.20341" style="fill-opacity: 0; stroke: #666666"/>
     <use xlink:href="#mc2739d3314" x="93.5" y="147.38141" style="fill-opacity: 0; stroke: #666666"/>
     <use xlink:href="#mc2739d3314" x="93.5" y="60.516083" style="fill-opacity: 0; stroke: #666666"/>
     <use xlink:href="#mc2739d3314" x="93.5" y="58.397416" style="fill-opacity: 0; stroke: #666666"/>
    </g>
   </g>
   <g id="patch_9">
    <path d="M 294.366667 190.814073 
L 329.3 190.814073 
L 329.3 170.421908 
L 294.366667 170.421908 
L 294.366667 190.814073 
z
" clip-path="url(#p3a98c42e62)" style="fill: #96cac1; stroke: #666666; stroke-linejoin: miter"/>
   </g>
   <g id="line2d_15">
    <path d="M 311.833333 190.814073 
L 311.833333 218.356738 
" clip-path="url(#p3a98c42e62)" style="fill: none; stroke: #666666"/>
   </g>
   <g id="line2d_16">
    <path d="M 311.833333 170.421908 
L 311.833333 144.20341 
" clip-path="url(#p3a98c42e62)" style="fill: none; stroke: #666666"/>
   </g>
   <g id="line2d_17">
    <path d="M 303.1 218.356738 
L 320.566667 218.356738 
" clip-path="url(#p3a98c42e62)" style="fill: none; stroke: #666666; stroke-linecap: square"/>
   </g>
   <g id="line2d_18">
    <path d="M 303.1 144.20341 
L 320.566667 144.20341 
" clip-path="url(#p3a98c42e62)" style="fill: none; stroke: #666666; stroke-linecap: square"/>
   </g>
   <g id="line2d_19"/>
   <g id="patch_10">
    <path d="M 512.7 83.026914 
L 547.633333 83.026914 
L 547.633333 53.10075 
L 512.7 53.10075 
L 512.7 83.026914 
z
" clip-path="url(#p3a98c42e62)" style="fill: #96cac1; stroke: #666666; stroke-linejoin: miter"/>
   </g>
   <g id="line2d_20">
    <path d="M 530.166667 83.026914 
L 530.166667 107.126746 
" clip-path="url(#p3a98c42e62)" style="fill: none; stroke: #666666"/>
   </g>
   <g id="line2d_21">
    <path d="M 530.166667 53.10075 
L 530.166667 26.617418 
" clip-path="url(#p3a98c42e62)" style="fill: none; stroke: #666666"/>
   </g>
   <g id="line2d_22">
    <path d="M 521.433333 107.126746 
L 538.9 107.126746 
" clip-path="url(#p3a98c42e62)" style="fill: none; stroke: #666666; stroke-linecap: square"/>
   </g>
   <g id="line2d_23">
    <path d="M 521.433333 26.617418 
L 538.9 26.617418 
" clip-path="url(#p3a98c42e62)" style="fill: none; stroke: #666666; stroke-linecap: square"/>
   </g>
   <g id="line2d_24"/>
   <g id="patch_11">
    <path d="M 110.966667 151.618752 
L 145.9 151.618752 
L 145.9 109.245398 
L 110.966667 109.245398 
L 110.966667 151.618752 
z
" clip-path="url(#p3a98c42e62)" style="fill: #f5f6bc; stroke: #666666; stroke-linejoin: miter"/>
   </g>
   <g id="line2d_25">
    <path d="M 128.433333 151.618752 
L 128.433333 210.941408 
" clip-path="url(#p3a98c42e62)" style="fill: none; stroke: #666666"/>
   </g>
   <g id="line2d_26">
    <path d="M 128.433333 109.245398 
L 128.433333 72.168738 
" clip-path="url(#p3a98c42e62)" style="fill: none; stroke: #666666"/>
   </g>
   <g id="line2d_27">
    <path d="M 119.7 210.941408 
L 137.166667 210.941408 
" clip-path="url(#p3a98c42e62)" style="fill: none; stroke: #666666; stroke-linecap: square"/>
   </g>
   <g id="line2d_28">
    <path d="M 119.7 72.168738 
L 137.166667 72.168738 
" clip-path="url(#p3a98c42e62)" style="fill: none; stroke: #666666; stroke-linecap: square"/>
   </g>
   <g id="line2d_29">
    <g clip-path="url(#p3a98c42e62)">
     <use xlink:href="#mc2739d3314" x="128.433333" y="222.594082" style="fill-opacity: 0; stroke: #666666"/>
     <use xlink:href="#mc2739d3314" x="128.433333" y="218.35674" style="fill-opacity: 0; stroke: #666666"/>
    </g>
   </g>
   <g id="patch_12">
    <path d="M 329.3 254.90374 
L 364.233333 254.90374 
L 364.233333 220.475411 
L 329.3 220.475411 
L 329.3 254.90374 
z
" clip-path="url(#p3a98c42e62)" style="fill: #f5f6bc; stroke: #666666; stroke-linejoin: miter"/>
   </g>
   <g id="line2d_30">
    <path d="M 346.766667 254.90374 
L 346.766667 304.162734 
" clip-path="url(#p3a98c42e62)" style="fill: none; stroke: #666666"/>
   </g>
   <g id="line2d_31">
    <path d="M 346.766667 220.475411 
L 346.766667 195.051393 
" clip-path="url(#p3a98c42e62)" style="fill: none; stroke: #666666"/>
   </g>
   <g id="line2d_32">
    <path d="M 338.033333 304.162734 
L 355.5 304.162734 
" clip-path="url(#p3a98c42e62)" style="fill: none; stroke: #666666; stroke-linecap: square"/>
   </g>
   <g id="line2d_33">
    <path d="M 338.033333 195.051393 
L 355.5 195.051393 
" clip-path="url(#p3a98c42e62)" style="fill: none; stroke: #666666; stroke-linecap: square"/>
   </g>
   <g id="line2d_34"/>
   <g id="patch_13">
    <path d="M 547.633333 104.478413 
L 582.566667 104.478413 
L 582.566667 65.812757 
L 547.633333 65.812757 
L 547.633333 104.478413 
z
" clip-path="url(#p3a98c42e62)" style="fill: #f5f6bc; stroke: #666666; stroke-linejoin: miter"/>
   </g>
   <g id="line2d_35">
    <path d="M 565.1 104.478413 
L 565.1 153.737422 
" clip-path="url(#p3a98c42e62)" style="fill: none; stroke: #666666"/>
   </g>
   <g id="line2d_36">
    <path d="M 565.1 65.812757 
L 565.1 37.210749 
" clip-path="url(#p3a98c42e62)" style="fill: none; stroke: #666666"/>
   </g>
   <g id="line2d_37">
    <path d="M 556.366667 153.737422 
L 573.833333 153.737422 
" clip-path="url(#p3a98c42e62)" style="fill: none; stroke: #666666; stroke-linecap: square"/>
   </g>
   <g id="line2d_38">
    <path d="M 556.366667 37.210749 
L 573.833333 37.210749 
" clip-path="url(#p3a98c42e62)" style="fill: none; stroke: #666666; stroke-linecap: square"/>
   </g>
   <g id="line2d_39"/>
   <g id="patch_14">
    <path d="M 145.9 165.390075 
L 180.833333 165.390075 
L 180.833333 109.775079 
L 145.9 109.775079 
L 145.9 165.390075 
z
" clip-path="url(#p3a98c42e62)" style="fill: #c2bfd5; stroke: #666666; stroke-linejoin: miter"/>
   </g>
   <g id="line2d_40">
    <path d="M 163.366667 165.390075 
L 163.366667 222.594071 
" clip-path="url(#p3a98c42e62)" style="fill: none; stroke: #666666"/>
   </g>
   <g id="line2d_41">
    <path d="M 163.366667 109.775079 
L 163.366667 78.524748 
" clip-path="url(#p3a98c42e62)" style="fill: none; stroke: #666666"/>
   </g>
   <g id="line2d_42">
    <path d="M 154.633333 222.594071 
L 172.1 222.594071 
" clip-path="url(#p3a98c42e62)" style="fill: none; stroke: #666666; stroke-linecap: square"/>
   </g>
   <g id="line2d_43">
    <path d="M 154.633333 78.524748 
L 172.1 78.524748 
" clip-path="url(#p3a98c42e62)" style="fill: none; stroke: #666666; stroke-linecap: square"/>
   </g>
   <g id="line2d_44"/>
   <g id="patch_15">
    <path d="M 364.233333 243.25107 
L 399.166667 243.25107 
L 399.166667 215.708405 
L 364.233333 215.708405 
L 364.233333 243.25107 
z
" clip-path="url(#p3a98c42e62)" style="fill: #c2bfd5; stroke: #666666; stroke-linejoin: miter"/>
   </g>
   <g id="line2d_45">
    <path d="M 381.7 243.25107 
L 381.7 278.738734 
" clip-path="url(#p3a98c42e62)" style="fill: none; stroke: #666666"/>
   </g>
   <g id="line2d_46">
    <path d="M 381.7 215.708405 
L 381.7 177.042741 
" clip-path="url(#p3a98c42e62)" style="fill: none; stroke: #666666"/>
   </g>
   <g id="line2d_47">
    <path d="M 372.966667 278.738734 
L 390.433333 278.738734 
" clip-path="url(#p3a98c42e62)" style="fill: none; stroke: #666666; stroke-linecap: square"/>
   </g>
   <g id="line2d_48">
    <path d="M 372.966667 177.042741 
L 390.433333 177.042741 
" clip-path="url(#p3a98c42e62)" style="fill: none; stroke: #666666; stroke-linecap: square"/>
   </g>
   <g id="line2d_49"/>
   <g id="patch_16">
    <path d="M 582.566667 98.122413 
L 617.5 98.122413 
L 617.5 67.401749 
L 582.566667 67.401749 
L 582.566667 98.122413 
z
" clip-path="url(#p3a98c42e62)" style="fill: #c2bfd5; stroke: #666666; stroke-linejoin: miter"/>
   </g>
   <g id="line2d_50">
    <path d="M 600.033333 98.122413 
L 600.033333 141.02541 
" clip-path="url(#p3a98c42e62)" style="fill: none; stroke: #666666"/>
   </g>
   <g id="line2d_51">
    <path d="M 600.033333 67.401749 
L 600.033333 26.617418 
" clip-path="url(#p3a98c42e62)" style="fill: none; stroke: #666666"/>
   </g>
   <g id="line2d_52">
    <path d="M 591.3 141.02541 
L 608.766667 141.02541 
" clip-path="url(#p3a98c42e62)" style="fill: none; stroke: #666666; stroke-linecap: square"/>
   </g>
   <g id="line2d_53">
    <path d="M 591.3 26.617418 
L 608.766667 26.617418 
" clip-path="url(#p3a98c42e62)" style="fill: none; stroke: #666666; stroke-linecap: square"/>
   </g>
   <g id="line2d_54"/>
   <g id="patch_17">
    <path d="M 180.833333 177.042741 
L 215.766667 177.042741 
L 215.766667 153.737409 
L 180.833333 153.737409 
L 180.833333 177.042741 
z
" clip-path="url(#p3a98c42e62)" style="fill: #e98e85; stroke: #666666; stroke-linejoin: miter"/>
   </g>
   <g id="line2d_55">
    <path d="M 198.3 177.042741 
L 198.3 212.000739 
" clip-path="url(#p3a98c42e62)" style="fill: none; stroke: #666666"/>
   </g>
   <g id="line2d_56">
    <path d="M 198.3 153.737409 
L 198.3 123.016745 
" clip-path="url(#p3a98c42e62)" style="fill: none; stroke: #666666"/>
   </g>
   <g id="line2d_57">
    <path d="M 189.566667 212.000739 
L 207.033333 212.000739 
" clip-path="url(#p3a98c42e62)" style="fill: none; stroke: #666666; stroke-linecap: square"/>
   </g>
   <g id="line2d_58">
    <path d="M 189.566667 123.016745 
L 207.033333 123.016745 
" clip-path="url(#p3a98c42e62)" style="fill: none; stroke: #666666; stroke-linecap: square"/>
   </g>
   <g id="line2d_59">
    <g clip-path="url(#p3a98c42e62)">
     <use xlink:href="#mc2739d3314" x="198.3" y="227.890738" style="fill-opacity: 0; stroke: #666666"/>
    </g>
   </g>
   <g id="patch_18">
    <path d="M 399.166667 242.721403 
L 434.1 242.721403 
L 434.1 210.411739 
L 399.166667 210.411739 
L 399.166667 242.721403 
z
" clip-path="url(#p3a98c42e62)" style="fill: #e98e85; stroke: #666666; stroke-linejoin: miter"/>
   </g>
   <g id="line2d_60">
    <path d="M 416.633333 242.721403 
L 416.633333 285.094734 
" clip-path="url(#p3a98c42e62)" style="fill: none; stroke: #666666"/>
   </g>
   <g id="line2d_61">
    <path d="M 416.633333 210.411739 
L 416.633333 183.398741 
" clip-path="url(#p3a98c42e62)" style="fill: none; stroke: #666666"/>
   </g>
   <g id="line2d_62">
    <path d="M 407.9 285.094734 
L 425.366667 285.094734 
" clip-path="url(#p3a98c42e62)" style="fill: none; stroke: #666666; stroke-linecap: square"/>
   </g>
   <g id="line2d_63">
    <path d="M 407.9 183.398741 
L 425.366667 183.398741 
" clip-path="url(#p3a98c42e62)" style="fill: none; stroke: #666666; stroke-linecap: square"/>
   </g>
   <g id="line2d_64"/>
   <g id="patch_19">
    <path d="M 617.5 84.351081 
L 652.433333 84.351081 
L 652.433333 54.68975 
L 617.5 54.68975 
L 617.5 84.351081 
z
" clip-path="url(#p3a98c42e62)" style="fill: #e98e85; stroke: #666666; stroke-linejoin: miter"/>
   </g>
   <g id="line2d_65">
    <path d="M 634.966667 84.351081 
L 634.966667 118.779412 
" clip-path="url(#p3a98c42e62)" style="fill: none; stroke: #666666"/>
   </g>
   <g id="line2d_66">
    <path d="M 634.966667 54.68975 
L 634.966667 26.617418 
" clip-path="url(#p3a98c42e62)" style="fill: none; stroke: #666666"/>
   </g>
   <g id="line2d_67">
    <path d="M 626.233333 118.779412 
L 643.7 118.779412 
" clip-path="url(#p3a98c42e62)" style="fill: none; stroke: #666666; stroke-linecap: square"/>
   </g>
   <g id="line2d_68">
    <path d="M 626.233333 26.617418 
L 643.7 26.617418 
" clip-path="url(#p3a98c42e62)" style="fill: none; stroke: #666666; stroke-linecap: square"/>
   </g>
   <g id="line2d_69"/>
   <g id="patch_20">
    <path d="M 215.766667 157.445073 
L 250.7 157.445073 
L 250.7 117.720082 
L 215.766667 117.720082 
L 215.766667 157.445073 
z
" clip-path="url(#p3a98c42e62)" style="fill: #8bafc8; stroke: #666666; stroke-linejoin: miter"/>
   </g>
   <g id="line2d_70">
    <path d="M 233.233333 157.445073 
L 233.233333 208.822737 
" clip-path="url(#p3a98c42e62)" style="fill: none; stroke: #666666"/>
   </g>
   <g id="line2d_71">
    <path d="M 233.233333 117.720082 
L 233.233333 67.931428 
" clip-path="url(#p3a98c42e62)" style="fill: none; stroke: #666666"/>
   </g>
   <g id="line2d_72">
    <path d="M 224.5 208.822737 
L 241.966667 208.822737 
" clip-path="url(#p3a98c42e62)" style="fill: none; stroke: #666666; stroke-linecap: square"/>
   </g>
   <g id="line2d_73">
    <path d="M 224.5 67.931428 
L 241.966667 67.931428 
" clip-path="url(#p3a98c42e62)" style="fill: none; stroke: #666666; stroke-linecap: square"/>
   </g>
   <g id="line2d_74"/>
   <g id="patch_21">
    <path d="M 434.1 243.251067 
L 469.033333 243.251067 
L 469.033333 213.060079 
L 434.1 213.060079 
L 434.1 243.251067 
z
" clip-path="url(#p3a98c42e62)" style="fill: #8bafc8; stroke: #666666; stroke-linejoin: miter"/>
   </g>
   <g id="line2d_75">
    <path d="M 451.566667 243.251067 
L 451.566667 280.857387 
" clip-path="url(#p3a98c42e62)" style="fill: none; stroke: #666666"/>
   </g>
   <g id="line2d_76">
    <path d="M 451.566667 213.060079 
L 451.566667 175.983418 
" clip-path="url(#p3a98c42e62)" style="fill: none; stroke: #666666"/>
   </g>
   <g id="line2d_77">
    <path d="M 442.833333 280.857387 
L 460.3 280.857387 
" clip-path="url(#p3a98c42e62)" style="fill: none; stroke: #666666; stroke-linecap: square"/>
   </g>
   <g id="line2d_78">
    <path d="M 442.833333 175.983418 
L 460.3 175.983418 
" clip-path="url(#p3a98c42e62)" style="fill: none; stroke: #666666; stroke-linecap: square"/>
   </g>
   <g id="line2d_79">
    <g clip-path="url(#p3a98c42e62)">
     <use xlink:href="#mc2739d3314" x="451.566667" y="153.737422" style="fill-opacity: 0; stroke: #666666"/>
    </g>
   </g>
   <g id="patch_22">
    <path d="M 652.433333 162.741734 
L 687.366667 162.741734 
L 687.366667 113.48274 
L 652.433333 113.48274 
L 652.433333 162.741734 
z
" clip-path="url(#p3a98c42e62)" style="fill: #8bafc8; stroke: #666666; stroke-linejoin: miter"/>
   </g>
   <g id="line2d_80">
    <path d="M 669.9 162.741734 
L 669.9 235.306075 
" clip-path="url(#p3a98c42e62)" style="fill: none; stroke: #666666"/>
   </g>
   <g id="line2d_81">
    <path d="M 669.9 113.48274 
L 669.9 54.160084 
" clip-path="url(#p3a98c42e62)" style="fill: none; stroke: #666666"/>
   </g>
   <g id="line2d_82">
    <path d="M 661.166667 235.306075 
L 678.633333 235.306075 
" clip-path="url(#p3a98c42e62)" style="fill: none; stroke: #666666; stroke-linecap: square"/>
   </g>
   <g id="line2d_83">
    <path d="M 661.166667 54.160084 
L 678.633333 54.160084 
" clip-path="url(#p3a98c42e62)" style="fill: none; stroke: #666666; stroke-linecap: square"/>
   </g>
   <g id="line2d_84">
    <g clip-path="url(#p3a98c42e62)">
     <use xlink:href="#mc2739d3314" x="669.9" y="273.442055" style="fill-opacity: 0; stroke: #666666"/>
     <use xlink:href="#mc2739d3314" x="669.9" y="39.32942" style="fill-opacity: 0; stroke: #666666"/>
    </g>
   </g>
   <g id="line2d_85">
    <path d="M 76.033333 96.533413 
L 110.966667 96.533413 
" clip-path="url(#p3a98c42e62)" style="fill: none; stroke: #666666"/>
   </g>
   <g id="line2d_86">
    <path d="M 294.366667 180.220741 
L 329.3 180.220741 
" clip-path="url(#p3a98c42e62)" style="fill: none; stroke: #666666"/>
   </g>
   <g id="line2d_87">
    <path d="M 512.7 69.520415 
L 547.633333 69.520415 
" clip-path="url(#p3a98c42e62)" style="fill: none; stroke: #666666"/>
   </g>
   <g id="line2d_88">
    <path d="M 110.966667 124.076063 
L 145.9 124.076063 
" clip-path="url(#p3a98c42e62)" style="fill: none; stroke: #666666"/>
   </g>
   <g id="line2d_89">
    <path d="M 329.3 234.246724 
L 364.233333 234.246724 
" clip-path="url(#p3a98c42e62)" style="fill: none; stroke: #666666"/>
   </g>
   <g id="line2d_90">
    <path d="M 547.633333 85.940083 
L 582.566667 85.940083 
" clip-path="url(#p3a98c42e62)" style="fill: none; stroke: #666666"/>
   </g>
   <g id="line2d_91">
    <path d="M 145.9 134.669411 
L 180.833333 134.669411 
" clip-path="url(#p3a98c42e62)" style="fill: none; stroke: #666666"/>
   </g>
   <g id="line2d_92">
    <path d="M 364.233333 224.712738 
L 399.166667 224.712738 
" clip-path="url(#p3a98c42e62)" style="fill: none; stroke: #666666"/>
   </g>
   <g id="line2d_93">
    <path d="M 582.566667 81.702748 
L 617.5 81.702748 
" clip-path="url(#p3a98c42e62)" style="fill: none; stroke: #666666"/>
   </g>
   <g id="line2d_94">
    <path d="M 180.833333 166.449409 
L 215.766667 166.449409 
" clip-path="url(#p3a98c42e62)" style="fill: none; stroke: #666666"/>
   </g>
   <g id="line2d_95">
    <path d="M 399.166667 222.594071 
L 434.1 222.594071 
" clip-path="url(#p3a98c42e62)" style="fill: none; stroke: #666666"/>
   </g>
   <g id="line2d_96">
    <path d="M 617.5 72.168749 
L 652.433333 72.168749 
" clip-path="url(#p3a98c42e62)" style="fill: none; stroke: #666666"/>
   </g>
   <g id="line2d_97">
    <path d="M 215.766667 134.669417 
L 250.7 134.669417 
" clip-path="url(#p3a98c42e62)" style="fill: none; stroke: #666666"/>
   </g>
   <g id="line2d_98">
    <path d="M 434.1 227.890743 
L 469.033333 227.890743 
" clip-path="url(#p3a98c42e62)" style="fill: none; stroke: #666666"/>
   </g>
   <g id="line2d_99">
    <path d="M 652.433333 144.203419 
L 687.366667 144.203419 
" clip-path="url(#p3a98c42e62)" style="fill: none; stroke: #666666"/>
   </g>
   <g id="patch_23">
    <path d="M 54.2 318.04 
L 54.2 12.740153 
" style="fill: none; stroke: #ffffff; stroke-width: 0.8; stroke-linejoin: miter; stroke-linecap: square"/>
   </g>
   <g id="patch_24">
    <path d="M 709.2 318.04 
L 709.2 12.740153 
" style="fill: none; stroke: #ffffff; stroke-width: 0.8; stroke-linejoin: miter; stroke-linecap: square"/>
   </g>
   <g id="patch_25">
    <path d="M 54.2 318.04 
L 709.2 318.04 
" style="fill: none; stroke: #ffffff; stroke-width: 0.8; stroke-linejoin: miter; stroke-linecap: square"/>
   </g>
   <g id="patch_26">
    <path d="M 54.2 12.740153 
L 709.2 12.740153 
" style="fill: none; stroke: #ffffff; stroke-width: 0.8; stroke-linejoin: miter; stroke-linecap: square"/>
   </g>
   <g id="legend_1">
    <g id="patch_27">
     <path d="M 316.203125 108.808903 
L 447.196875 108.808903 
Q 449.196875 108.808903 449.196875 106.808903 
L 449.196875 19.740153 
Q 449.196875 17.740153 447.196875 17.740153 
L 316.203125 17.740153 
Q 314.203125 17.740153 314.203125 19.740153 
L 314.203125 106.808903 
Q 314.203125 108.808903 316.203125 108.808903 
z
" style="opacity: 0.8; stroke: #cccccc; stroke-linejoin: miter"/>
    </g>
    <g id="text_12">
     <!-- Model -->
     <g style="fill: #ffffff" transform="translate(366.686719 29.33859) scale(0.1 -0.1)">
      <defs>
       <path id="DejaVuSans-64" d="M 2906 2969 
L 2906 4863 
L 3481 4863 
L 3481 0 
L 2906 0 
L 2906 525 
Q 2725 213 2448 61 
Q 2172 -91 1784 -91 
Q 1150 -91 751 415 
Q 353 922 353 1747 
Q 353 2572 751 3078 
Q 1150 3584 1784 3584 
Q 2172 3584 2448 3432 
Q 2725 3281 2906 2969 
z
M 947 1747 
Q 947 1113 1208 752 
Q 1469 391 1925 391 
Q 2381 391 2643 752 
Q 2906 1113 2906 1747 
Q 2906 2381 2643 2742 
Q 2381 3103 1925 3103 
Q 1469 3103 1208 2742 
Q 947 2381 947 1747 
z
" transform="scale(0.015625)"/>
       <path id="DejaVuSans-65" d="M 3597 1894 
L 3597 1613 
L 953 1613 
Q 991 1019 1311 708 
Q 1631 397 2203 397 
Q 2534 397 2845 478 
Q 3156 559 3463 722 
L 3463 178 
Q 3153 47 2828 -22 
Q 2503 -91 2169 -91 
Q 1331 -91 842 396 
Q 353 884 353 1716 
Q 353 2575 817 3079 
Q 1281 3584 2069 3584 
Q 2775 3584 3186 3129 
Q 3597 2675 3597 1894 
z
M 3022 2063 
Q 3016 2534 2758 2815 
Q 2500 3097 2075 3097 
Q 1594 3097 1305 2825 
Q 1016 2553 972 2059 
L 3022 2063 
z
" transform="scale(0.015625)"/>
      </defs>
      <use xlink:href="#DejaVuSans-4d"/>
      <use xlink:href="#DejaVuSans-6f" x="86.279297"/>
      <use xlink:href="#DejaVuSans-64" x="147.460938"/>
      <use xlink:href="#DejaVuSans-65" x="210.9375"/>
      <use xlink:href="#DejaVuSans-6c" x="272.460938"/>
     </g>
    </g>
    <g id="patch_28">
     <path d="M 318.203125 44.016715 
L 338.203125 44.016715 
L 338.203125 37.016715 
L 318.203125 37.016715 
z
" style="fill: #96cac1; stroke: #666666; stroke-linejoin: miter"/>
    </g>
    <g id="text_13">
     <!-- True model -->
     <g style="fill: #ffffff" transform="translate(346.203125 44.016715) scale(0.1 -0.1)">
      <defs>
       <path id="DejaVuSans-54" d="M -19 4666 
L 3928 4666 
L 3928 4134 
L 2272 4134 
L 2272 0 
L 1638 0 
L 1638 4134 
L -19 4134 
L -19 4666 
z
" transform="scale(0.015625)"/>
       <path id="DejaVuSans-20" transform="scale(0.015625)"/>
      </defs>
      <use xlink:href="#DejaVuSans-54"/>
      <use xlink:href="#DejaVuSans-72" x="46.333984"/>
      <use xlink:href="#DejaVuSans-75" x="87.447266"/>
      <use xlink:href="#DejaVuSans-65" x="150.826172"/>
      <use xlink:href="#DejaVuSans-20" x="212.349609"/>
      <use xlink:href="#DejaVuSans-6d" x="244.136719"/>
      <use xlink:href="#DejaVuSans-6f" x="341.548828"/>
      <use xlink:href="#DejaVuSans-64" x="402.730469"/>
      <use xlink:href="#DejaVuSans-65" x="466.207031"/>
      <use xlink:href="#DejaVuSans-6c" x="527.730469"/>
     </g>
    </g>
    <g id="patch_29">
     <path d="M 318.203125 58.69484 
L 338.203125 58.69484 
L 338.203125 51.69484 
L 318.203125 51.69484 
z
" style="fill: #f5f6bc; stroke: #666666; stroke-linejoin: miter"/>
    </g>
    <g id="text_14">
     <!-- logicGP-GPAS -->
     <g style="fill: #ffffff" transform="translate(346.203125 58.69484) scale(0.1 -0.1)">
      <defs>
       <path id="DejaVuSans-67" d="M 2906 1791 
Q 2906 2416 2648 2759 
Q 2391 3103 1925 3103 
Q 1463 3103 1205 2759 
Q 947 2416 947 1791 
Q 947 1169 1205 825 
Q 1463 481 1925 481 
Q 2391 481 2648 825 
Q 2906 1169 2906 1791 
z
M 3481 434 
Q 3481 -459 3084 -895 
Q 2688 -1331 1869 -1331 
Q 1566 -1331 1297 -1286 
Q 1028 -1241 775 -1147 
L 775 -588 
Q 1028 -725 1275 -790 
Q 1522 -856 1778 -856 
Q 2344 -856 2625 -561 
Q 2906 -266 2906 331 
L 2906 616 
Q 2728 306 2450 153 
Q 2172 0 1784 0 
Q 1141 0 747 490 
Q 353 981 353 1791 
Q 353 2603 747 3093 
Q 1141 3584 1784 3584 
Q 2172 3584 2450 3431 
Q 2728 3278 2906 2969 
L 2906 3500 
L 3481 3500 
L 3481 434 
z
" transform="scale(0.015625)"/>
       <path id="DejaVuSans-47" d="M 3809 666 
L 3809 1919 
L 2778 1919 
L 2778 2438 
L 4434 2438 
L 4434 434 
Q 4069 175 3628 42 
Q 3188 -91 2688 -91 
Q 1594 -91 976 548 
Q 359 1188 359 2328 
Q 359 3472 976 4111 
Q 1594 4750 2688 4750 
Q 3144 4750 3555 4637 
Q 3966 4525 4313 4306 
L 4313 3634 
Q 3963 3931 3569 4081 
Q 3175 4231 2741 4231 
Q 1884 4231 1454 3753 
Q 1025 3275 1025 2328 
Q 1025 1384 1454 906 
Q 1884 428 2741 428 
Q 3075 428 3337 486 
Q 3600 544 3809 666 
z
" transform="scale(0.015625)"/>
       <path id="DejaVuSans-50" d="M 1259 4147 
L 1259 2394 
L 2053 2394 
Q 2494 2394 2734 2622 
Q 2975 2850 2975 3272 
Q 2975 3691 2734 3919 
Q 2494 4147 2053 4147 
L 1259 4147 
z
M 628 4666 
L 2053 4666 
Q 2838 4666 3239 4311 
Q 3641 3956 3641 3272 
Q 3641 2581 3239 2228 
Q 2838 1875 2053 1875 
L 1259 1875 
L 1259 0 
L 628 0 
L 628 4666 
z
" transform="scale(0.015625)"/>
       <path id="DejaVuSans-2d" d="M 313 2009 
L 1997 2009 
L 1997 1497 
L 313 1497 
L 313 2009 
z
" transform="scale(0.015625)"/>
      </defs>
      <use xlink:href="#DejaVuSans-6c"/>
      <use xlink:href="#DejaVuSans-6f" x="27.783203"/>
      <use xlink:href="#DejaVuSans-67" x="88.964844"/>
      <use xlink:href="#DejaVuSans-69" x="152.441406"/>
      <use xlink:href="#DejaVuSans-63" x="180.224609"/>
      <use xlink:href="#DejaVuSans-47" x="235.205078"/>
      <use xlink:href="#DejaVuSans-50" x="312.695312"/>
      <use xlink:href="#DejaVuSans-2d" x="370.748047"/>
      <use xlink:href="#DejaVuSans-47" x="410.457031"/>
      <use xlink:href="#DejaVuSans-50" x="487.947266"/>
      <use xlink:href="#DejaVuSans-41" x="541.875"/>
      <use xlink:href="#DejaVuSans-53" x="610.283203"/>
     </g>
    </g>
    <g id="patch_30">
     <path d="M 318.203125 73.372965 
L 338.203125 73.372965 
L 338.203125 66.372965 
L 318.203125 66.372965 
z
" style="fill: #c2bfd5; stroke: #666666; stroke-linejoin: miter"/>
    </g>
    <g id="text_15">
     <!-- logicGP-FLCW-Micro -->
     <g style="fill: #ffffff" transform="translate(346.203125 73.372965) scale(0.1 -0.1)">
      <defs>
       <path id="DejaVuSans-46" d="M 628 4666 
L 3309 4666 
L 3309 4134 
L 1259 4134 
L 1259 2759 
L 3109 2759 
L 3109 2228 
L 1259 2228 
L 1259 0 
L 628 0 
L 628 4666 
z
" transform="scale(0.015625)"/>
       <path id="DejaVuSans-4c" d="M 628 4666 
L 1259 4666 
L 1259 531 
L 3531 531 
L 3531 0 
L 628 0 
L 628 4666 
z
" transform="scale(0.015625)"/>
       <path id="DejaVuSans-43" d="M 4122 4306 
L 4122 3641 
Q 3803 3938 3442 4084 
Q 3081 4231 2675 4231 
Q 1875 4231 1450 3742 
Q 1025 3253 1025 2328 
Q 1025 1406 1450 917 
Q 1875 428 2675 428 
Q 3081 428 3442 575 
Q 3803 722 4122 1019 
L 4122 359 
Q 3791 134 3420 21 
Q 3050 -91 2638 -91 
Q 1578 -91 968 557 
Q 359 1206 359 2328 
Q 359 3453 968 4101 
Q 1578 4750 2638 4750 
Q 3056 4750 3426 4639 
Q 3797 4528 4122 4306 
z
" transform="scale(0.015625)"/>
       <path id="DejaVuSans-57" d="M 213 4666 
L 850 4666 
L 1831 722 
L 2809 4666 
L 3519 4666 
L 4500 722 
L 5478 4666 
L 6119 4666 
L 4947 0 
L 4153 0 
L 3169 4050 
L 2175 0 
L 1381 0 
L 213 4666 
z
" transform="scale(0.015625)"/>
      </defs>
      <use xlink:href="#DejaVuSans-6c"/>
      <use xlink:href="#DejaVuSans-6f" x="27.783203"/>
      <use xlink:href="#DejaVuSans-67" x="88.964844"/>
      <use xlink:href="#DejaVuSans-69" x="152.441406"/>
      <use xlink:href="#DejaVuSans-63" x="180.224609"/>
      <use xlink:href="#DejaVuSans-47" x="235.205078"/>
      <use xlink:href="#DejaVuSans-50" x="312.695312"/>
      <use xlink:href="#DejaVuSans-2d" x="370.748047"/>
      <use xlink:href="#DejaVuSans-46" x="406.832031"/>
      <use xlink:href="#DejaVuSans-4c" x="464.351562"/>
      <use xlink:href="#DejaVuSans-43" x="520.064453"/>
      <use xlink:href="#DejaVuSans-57" x="589.888672"/>
      <use xlink:href="#DejaVuSans-2d" x="684.765625"/>
      <use xlink:href="#DejaVuSans-4d" x="720.849609"/>
      <use xlink:href="#DejaVuSans-69" x="807.128906"/>
      <use xlink:href="#DejaVuSans-63" x="834.912109"/>
      <use xlink:href="#DejaVuSans-72" x="889.892578"/>
      <use xlink:href="#DejaVuSans-6f" x="928.755859"/>
     </g>
    </g>
    <g id="patch_31">
     <path d="M 318.203125 88.05109 
L 338.203125 88.05109 
L 338.203125 81.05109 
L 318.203125 81.05109 
z
" style="fill: #e98e85; stroke: #666666; stroke-linejoin: miter"/>
    </g>
    <g id="text_16">
     <!-- logicDT -->
     <g style="fill: #ffffff" transform="translate(346.203125 88.05109) scale(0.1 -0.1)">
      <defs>
       <path id="DejaVuSans-44" d="M 1259 4147 
L 1259 519 
L 2022 519 
Q 2988 519 3436 956 
Q 3884 1394 3884 2338 
Q 3884 3275 3436 3711 
Q 2988 4147 2022 4147 
L 1259 4147 
z
M 628 4666 
L 1925 4666 
Q 3281 4666 3915 4102 
Q 4550 3538 4550 2338 
Q 4550 1131 3912 565 
Q 3275 0 1925 0 
L 628 0 
L 628 4666 
z
" transform="scale(0.015625)"/>
      </defs>
      <use xlink:href="#DejaVuSans-6c"/>
      <use xlink:href="#DejaVuSans-6f" x="27.783203"/>
      <use xlink:href="#DejaVuSans-67" x="88.964844"/>
      <use xlink:href="#DejaVuSans-69" x="152.441406"/>
      <use xlink:href="#DejaVuSans-63" x="180.224609"/>
      <use xlink:href="#DejaVuSans-44" x="235.205078"/>
      <use xlink:href="#DejaVuSans-54" x="312.207031"/>
     </g>
    </g>
    <g id="patch_32">
     <path d="M 318.203125 102.729215 
L 338.203125 102.729215 
L 338.203125 95.729215 
L 318.203125 95.729215 
z
" style="fill: #8bafc8; stroke: #666666; stroke-linejoin: miter"/>
    </g>
    <g id="text_17">
     <!-- ML.Net -->
     <g style="fill: #ffffff" transform="translate(346.203125 102.729215) scale(0.1 -0.1)">
      <defs>
       <path id="DejaVuSans-4e" d="M 628 4666 
L 1478 4666 
L 3547 763 
L 3547 4666 
L 4159 4666 
L 4159 0 
L 3309 0 
L 1241 3903 
L 1241 0 
L 628 0 
L 628 4666 
z
" transform="scale(0.015625)"/>
      </defs>
      <use xlink:href="#DejaVuSans-4d"/>
      <use xlink:href="#DejaVuSans-4c" x="86.279297"/>
      <use xlink:href="#DejaVuSans-2e" x="141.992188"/>
      <use xlink:href="#DejaVuSans-4e" x="173.779297"/>
      <use xlink:href="#DejaVuSans-65" x="248.583984"/>
      <use xlink:href="#DejaVuSans-74" x="310.107422"/>
     </g>
    </g>
   </g>
  </g>
 </g>
 <defs>
  <clipPath id="p3a98c42e62">
   <rect x="54.2" y="12.740153" width="655" height="305.299847"/>
  </clipPath>
 </defs>
</svg>
