<?xml version="1.0" encoding="UTF-8"?>
<svg id="Ebene_1" xmlns="http://www.w3.org/2000/svg" xmlns:xlink="http://www.w3.org/1999/xlink" version="1.1" viewBox="0 0 452 462.1">
  <!-- Generator: Adobe Illustrator 29.1.0, SVG Export Plug-In . SVG Version: 2.1.0 Build 142)  -->
  <defs>
    <style>
      .st0, .st1, .st2, .st3 {
        fill: none;
      }

      .st4 {
        font-family: Helvetica-Bold, Helvetica;
        font-size: 13px;
        font-weight: 700;
      }

      .st4, .st5, .st6 {
        fill: #fff;
      }

      .st1 {
        stroke: #414141;
      }

      .st1, .st2, .st3 {
        stroke-linecap: round;
        stroke-linejoin: round;
        stroke-width: .8px;
      }

      .st1, .st3 {
        stroke-dasharray: 0 3;
      }

      .st5 {
        font-family: Helvetica, Helvetica;
        font-size: 11px;
      }

      .st7 {
        clip-path: url(#clippath-1);
      }

      .st2 {
        stroke: #fff;
      }

      .st3 {
        stroke: gray;
      }

      .st8 {
        letter-spacing: 0em;
      }

      .st9 {
        clip-path: url(#clippath);
      }

      .st10 {
        letter-spacing: 0em;
      }
    </style>
    <clipPath id="clippath">
      <rect class="st0" x="138.1" y="36" width="308.2" height="371.5"/>
    </clipPath>
    <clipPath id="clippath-1">
      <rect class="st0" x="25.6" y="30.1" width="423.6" height="384.8"/>
    </clipPath>
  </defs>
  <text class="st5" transform="translate(0 388.3)"><tspan x="0" y="0">!X5 &amp; !X17 &amp; !X95</tspan></text>
  <text class="st5" transform="translate(0 365.1)"><tspan x="0" y="0">!X5 &amp; X57 &amp; !X58</tspan></text>
  <text class="st5" transform="translate(0 341.8)"><tspan x="0" y="0">!X17 &amp; !X19 &amp; !X92</tspan></text>
  <text class="st5" transform="translate(0 318.6)"><tspan x="0" y="0">!X17 &amp; !X19 &amp; !X46</tspan></text>
  <text class="st5" transform="translate(0 295.4)"><tspan x="0" y="0">!X17 &amp; !X19 &amp; !X88 &amp; !X92</tspan></text>
  <text class="st5" transform="translate(0 272.2)"><tspan x="0" y="0">X21 &amp; X31 &amp; !X59</tspan></text>
  <text class="st5" transform="translate(0 249)"><tspan x="0" y="0">X13 &amp; !X47 &amp; !X94</tspan></text>
  <text class="st5" transform="translate(0 225.7)"><tspan x="0" y="0">X13 &amp; !X47</tspan></text>
  <text class="st5" transform="translate(0 202.5)"><tspan x="0" y="0">!X52 &amp; X57 &amp; X61</tspan></text>
  <text class="st5" transform="translate(0 179.3)"><tspan x="0" y="0">!X2 &amp; X57 &amp; X61</tspan></text>
  <text class="st5" transform="translate(0 156.1)"><tspan x="0" y="0">X57 &amp; !X58 &amp; X61</tspan></text>
  <text class="st5" transform="translate(0 132.9)"><tspan x="0" y="0">X57 &amp; X61</tspan></text>
  <text class="st5" transform="translate(0 109.6)"><tspan x="0" y="0">!X5 &amp; !X17 &amp; !X19</tspan></text>
  <text class="st5" transform="translate(0 86.4)"><tspan x="0" y="0">X57 &amp; X61 &amp; !X92</tspan></text>
  <text class="st5" transform="translate(0 63.2)"><tspan x="0" y="0">X11 &amp; !X13</tspan></text>
  <g class="st9">
    <line class="st1" x1="138.1" y1="384.3" x2="446.2" y2="384.3"/>
    <line class="st1" x1="138.1" y1="361.1" x2="446.2" y2="361.1"/>
    <line class="st1" x1="138.1" y1="337.9" x2="446.2" y2="337.9"/>
    <line class="st1" x1="138.1" y1="314.7" x2="446.2" y2="314.7"/>
    <line class="st1" x1="138.1" y1="291.4" x2="446.2" y2="291.4"/>
    <line class="st1" x1="138.1" y1="268.2" x2="446.2" y2="268.2"/>
    <line class="st1" x1="138.1" y1="245" x2="446.2" y2="245"/>
    <line class="st1" x1="138.1" y1="221.8" x2="446.2" y2="221.8"/>
    <line class="st1" x1="138.1" y1="198.6" x2="446.2" y2="198.6"/>
    <line class="st1" x1="138.1" y1="175.3" x2="446.2" y2="175.3"/>
    <line class="st1" x1="138.1" y1="152.1" x2="446.2" y2="152.1"/>
    <line class="st1" x1="138.1" y1="128.9" x2="446.2" y2="128.9"/>
    <line class="st1" x1="138.1" y1="105.7" x2="446.2" y2="105.7"/>
    <line class="st1" x1="138.1" y1="82.5" x2="446.2" y2="82.5"/>
    <line class="st1" x1="138.1" y1="59.2" x2="446.2" y2="59.2"/>
    <path class="st6" d="M298.2,384.3c0-1.3,1.1-2.4,2.4-2.4s2.4,1.1,2.4,2.4-1.1,2.4-2.4,2.4-2.4-1.1-2.4-2.4"/>
    <path class="st6" d="M299,361.1c0-1.3,1.1-2.4,2.4-2.4s2.4,1.1,2.4,2.4-1.1,2.4-2.4,2.4-2.4-1.1-2.4-2.4"/>
    <path class="st6" d="M299.5,337.9c0-1.3,1.1-2.4,2.4-2.4s2.4,1.1,2.4,2.4-1.1,2.4-2.4,2.4-2.4-1.1-2.4-2.4"/>
    <path class="st6" d="M300.9,314.7c0-1.3,1.1-2.4,2.4-2.4s2.4,1.1,2.4,2.4-1.1,2.4-2.4,2.4-2.4-1.1-2.4-2.4"/>
    <path class="st6" d="M311.8,291.4c0-1.3,1.1-2.4,2.4-2.4s2.4,1.1,2.4,2.4-1.1,2.4-2.4,2.4-2.4-1.1-2.4-2.4"/>
    <path class="st6" d="M312.3,268.2c0-1.3,1.1-2.4,2.4-2.4s2.4,1.1,2.4,2.4-1.1,2.4-2.4,2.4-2.4-1.1-2.4-2.4"/>
    <path class="st6" d="M313.5,245c0-1.3,1.1-2.4,2.4-2.4s2.4,1.1,2.4,2.4-1.1,2.4-2.4,2.4-2.4-1.1-2.4-2.4"/>
    <path class="st6" d="M313.5,221.8c0-1.3,1.1-2.4,2.4-2.4s2.4,1.1,2.4,2.4-1.1,2.4-2.4,2.4-2.4-1.1-2.4-2.4"/>
    <path class="st6" d="M314,198.6c0-1.3,1.1-2.4,2.4-2.4s2.4,1.1,2.4,2.4-1.1,2.4-2.4,2.4-2.4-1.1-2.4-2.4"/>
    <path class="st6" d="M321.2,175.3c0-1.3,1.1-2.4,2.4-2.4s2.4,1.1,2.4,2.4-1.1,2.4-2.4,2.4-2.4-1.1-2.4-2.4"/>
    <path class="st6" d="M326.9,152.1c0-1.3,1.1-2.4,2.4-2.4s2.4,1.1,2.4,2.4-1.1,2.4-2.4,2.4-2.4-1.1-2.4-2.4"/>
    <path class="st6" d="M328.1,128.9c0-1.3,1.1-2.4,2.4-2.4s2.4,1.1,2.4,2.4-1.1,2.4-2.4,2.4-2.4-1.1-2.4-2.4"/>
    <path class="st6" d="M329.6,105.7c0-1.3,1.1-2.4,2.4-2.4s2.4,1.1,2.4,2.4-1.1,2.4-2.4,2.4-2.4-1.1-2.4-2.4"/>
    <path class="st6" d="M335,82.5c0-1.3,1.1-2.4,2.4-2.4s2.4,1.1,2.4,2.4-1.1,2.4-2.4,2.4-2.4-1.1-2.4-2.4"/>
    <path class="st6" d="M432.4,59.2c0-1.3,1.1-2.4,2.4-2.4s2.4,1.1,2.4,2.4-1.1,2.4-2.4,2.4-2.4-1.1-2.4-2.4"/>
  </g>
  <line class="st2" x1="149.5" y1="407.5" x2="445.9" y2="407.5"/>
  <line class="st2" x1="149.5" y1="407.5" x2="149.5" y2="414"/>
  <line class="st2" x1="198.9" y1="407.5" x2="198.9" y2="414"/>
  <line class="st2" x1="248.3" y1="407.5" x2="248.3" y2="414"/>
  <line class="st2" x1="297.7" y1="407.5" x2="297.7" y2="414"/>
  <line class="st2" x1="347.1" y1="407.5" x2="347.1" y2="414"/>
  <line class="st2" x1="396.5" y1="407.5" x2="396.5" y2="414"/>
  <line class="st2" x1="445.9" y1="407.5" x2="445.9" y2="414"/>
  <text class="st5" transform="translate(146.4 430.9)"><tspan x="0" y="0">0</tspan></text>
  <text class="st5" transform="translate(195.8 430.9)"><tspan x="0" y="0">2</tspan></text>
  <text class="st5" transform="translate(245.2 430.9)"><tspan x="0" y="0">4</tspan></text>
  <text class="st5" transform="translate(294.6 430.9)"><tspan x="0" y="0">6</tspan></text>
  <text class="st5" transform="translate(344 430.9)"><tspan x="0" y="0">8</tspan></text>
  <text class="st5" transform="translate(390.4 430.9)"><tspan x="0" y="0">10</tspan></text>
  <text class="st5" transform="translate(439.8 430.9)"><tspan x="0" y="0">12</tspan></text>
  <rect class="st2" x="138.1" y="36" width="308.2" height="371.5"/>
  <text class="st4" transform="translate(229.4 11.2)"><tspan x="0" y="0">Single </tspan><tspan class="st8" x="42.6" y="0">T</tspan><tspan x="49.5" y="0">ree Measure</tspan></text>
  <text class="st5" transform="translate(264.4 456.8)"><tspan x="0" y="0">Impo</tspan><tspan class="st10" x="24.5" y="0">r</tspan><tspan x="28.5" y="0">tance</tspan></text>
  <g class="st7">
    <line class="st3" x1="149.5" y1="407.5" x2="149.5" y2="36"/>
  </g>
</svg>