<?xml version="1.0" encoding="UTF-8"?>
<svg id="Ebene_1" xmlns="http://www.w3.org/2000/svg" xmlns:xlink="http://www.w3.org/1999/xlink" version="1.1" viewBox="0 0 414.7 371.5">
  <!-- Generator: Adobe Illustrator 29.1.0, SVG Export Plug-In . SVG Version: 2.1.0 Build 142)  -->
  <defs>
    <style>
      .st0, .st1 {
        fill: none;
      }

      .st2, .st3 {
        font-size: 8px;
      }

      .st2, .st3, .st4, .st5, .st6, .st7, .st8, .st9 {
        fill: #fff;
      }

      .st2, .st5, .st6, .st8, .st9 {
        font-family: Helvetica, Helvetica;
      }

      .st3, .st4, .st7 {
        font-family: Symbol, Symbol;
      }

      .st4, .st5 {
        font-size: 6px;
      }

      .st6 {
        font-size: 4px;
      }

      .st7, .st8 {
        font-size: 11px;
      }

      .st9 {
        font-size: 12px;
      }

      .st1 {
        stroke: #fff;
        stroke-linecap: round;
        stroke-linejoin: round;
        stroke-width: .8px;
      }

      .st10 {
        fill: #191919;
      }

      .st11 {
        clip-path: url(#clippath);
      }
    </style>
    <clipPath id="clippath">
      <rect class="st0" width="414.7" height="371.5"/>
    </clipPath>
  </defs>
  <g class="st11">
    <polyline class="st1" points="121 105.4 121 3.2 308.2 3.2 308.2 105.4"/>
    <polyline class="st1" points="63.4 207.5 63.4 105.4 178.6 105.4 178.6 207.5"/>
    <polyline class="st1" points="34.6 309.7 34.6 207.5 92.2 207.5 92.2 309.7"/>
    <polyline class="st1" points="149.8 309.7 149.8 207.5 207.4 207.5 207.4 309.7"/>
    <polyline class="st1" points="265 207.5 265 105.4 351.4 105.4 351.4 207.5"/>
    <polyline class="st1" points="322.6 309.7 322.6 207.5 380.2 207.5 380.2 309.7"/>
    <rect class="st10" x="11.5" y="309.7" width="46.1" height="46"/>
    <rect class="st1" x="11.5" y="309.7" width="46.1" height="46"/>
    <rect class="st10" x="69.1" y="309.7" width="46.1" height="46"/>
    <rect class="st1" x="69.1" y="309.7" width="46.1" height="46"/>
    <rect class="st10" x="126.7" y="309.7" width="46.1" height="46"/>
    <rect class="st1" x="126.7" y="309.7" width="46.1" height="46"/>
    <rect class="st10" x="184.3" y="309.7" width="46.1" height="46"/>
    <rect class="st1" x="184.3" y="309.7" width="46.1" height="46"/>
    <rect class="st10" x="241.9" y="207.5" width="46.1" height="46"/>
    <rect class="st1" x="241.9" y="207.5" width="46.1" height="46"/>
    <rect class="st10" x="299.5" y="309.7" width="46.1" height="46"/>
    <rect class="st1" x="299.5" y="309.7" width="46.1" height="46"/>
    <rect class="st10" x="357.1" y="309.7" width="46.1" height="46"/>
    <rect class="st1" x="357.1" y="309.7" width="46.1" height="46"/>
    <text class="st9" transform="translate(22.9 336.8)"><tspan x="0" y="0">0.70</tspan></text>
    <text class="st9" transform="translate(80.5 336.8)"><tspan x="0" y="0">0.40</tspan></text>
    <text class="st9" transform="translate(138.1 336.8)"><tspan x="0" y="0">0.35</tspan></text>
    <text class="st9" transform="translate(195.7 336.8)"><tspan x="0" y="0">0.50</tspan></text>
    <text class="st9" transform="translate(253.3 234.6)"><tspan x="0" y="0">0.88</tspan></text>
    <text class="st9" transform="translate(310.9 336.8)"><tspan x="0" y="0">0.62</tspan></text>
    <text class="st9" transform="translate(368.5 336.8)"><tspan x="0" y="0">0.79</tspan></text>
    <text class="st8" transform="translate(121.8 15.1)"><tspan x="0" y="0">S</tspan></text>
    <text class="st8" transform="translate(129.1 15.1)"><tspan x="0" y="0">N</tspan></text>
    <text class="st8" transform="translate(137 15.1)"><tspan x="0" y="0">P</tspan></text>
    <text class="st8" transform="translate(144.4 15.1)"><tspan x="0" y="0">1</tspan></text>
    <text class="st8" transform="translate(150.5 15.1)"><tspan x="0" y="0">0</tspan></text>
    <text class="st8" transform="translate(156.6 15.1)"><tspan x="0" y="0">D</tspan></text>
    <text class="st2" transform="translate(164.6 9.7)"><tspan x="0" y="0">c</tspan></text>
    <text class="st7" transform="translate(168.6 15.1)"><tspan x="0" y="0"> </tspan></text>
    <text class="st8" transform="translate(171.3 15.1)"><tspan x="0" y="0">A</tspan></text>
    <text class="st8" transform="translate(178.6 15.1)"><tspan x="0" y="0">N</tspan></text>
    <text class="st8" transform="translate(186.6 15.1)"><tspan x="0" y="0">D</tspan></text>
    <text class="st7" transform="translate(194.5 15.1)"><tspan x="0" y="0"> </tspan></text>
    <text class="st8" transform="translate(197.3 15.1)"><tspan x="0" y="0">S</tspan></text>
    <text class="st8" transform="translate(204.6 15.1)"><tspan x="0" y="0">N</tspan></text>
    <text class="st8" transform="translate(212.6 15.1)"><tspan x="0" y="0">P</tspan></text>
    <text class="st8" transform="translate(219.9 15.1)"><tspan x="0" y="0">9</tspan></text>
    <text class="st8" transform="translate(226 15.1)"><tspan x="0" y="0">D</tspan></text>
    <text class="st2" transform="translate(234 9.7)"><tspan x="0" y="0">c</tspan></text>
    <text class="st7" transform="translate(238 15.1)"><tspan x="0" y="0"> </tspan></text>
    <text class="st8" transform="translate(240.7 15.1)"><tspan x="0" y="0">A</tspan></text>
    <text class="st8" transform="translate(248 15.1)"><tspan x="0" y="0">N</tspan></text>
    <text class="st8" transform="translate(256 15.1)"><tspan x="0" y="0">D</tspan></text>
    <text class="st7" transform="translate(263.9 15.1)"><tspan x="0" y="0"> </tspan></text>
    <text class="st8" transform="translate(266.7 15.1)"><tspan x="0" y="0">S</tspan></text>
    <text class="st8" transform="translate(274 15.1)"><tspan x="0" y="0">N</tspan></text>
    <text class="st8" transform="translate(282 15.1)"><tspan x="0" y="0">P</tspan></text>
    <text class="st8" transform="translate(289.3 15.1)"><tspan x="0" y="0">3</tspan></text>
    <text class="st8" transform="translate(295.4 15.1)"><tspan x="0" y="0">D</tspan></text>
    <text class="st2" transform="translate(303.3 9.7)"><tspan x="0" y="0">c</tspan></text>
    <text class="st8" transform="translate(62.9 117.3)"><tspan x="0" y="0">S</tspan></text>
    <text class="st8" transform="translate(70.2 117.3)"><tspan x="0" y="0">N</tspan></text>
    <text class="st8" transform="translate(78.1 117.3)"><tspan x="0" y="0">P</tspan></text>
    <text class="st8" transform="translate(85.5 117.3)"><tspan x="0" y="0">3</tspan></text>
    <text class="st8" transform="translate(91.6 117.3)"><tspan x="0" y="0">1</tspan></text>
    <text class="st8" transform="translate(97.7 117.3)"><tspan x="0" y="0">R</tspan></text>
    <text class="st2" transform="translate(105.7 111.9)"><tspan x="0" y="0">c</tspan></text>
    <text class="st7" transform="translate(109.7 117.3)"><tspan x="0" y="0"> </tspan></text>
    <text class="st8" transform="translate(112.4 117.3)"><tspan x="0" y="0">A</tspan></text>
    <text class="st8" transform="translate(119.7 117.3)"><tspan x="0" y="0">N</tspan></text>
    <text class="st8" transform="translate(127.7 117.3)"><tspan x="0" y="0">D</tspan></text>
    <text class="st7" transform="translate(135.6 117.3)"><tspan x="0" y="0"> </tspan></text>
    <text class="st8" transform="translate(138.4 117.3)"><tspan x="0" y="0">S</tspan></text>
    <text class="st8" transform="translate(145.7 117.3)"><tspan x="0" y="0">N</tspan></text>
    <text class="st8" transform="translate(153.7 117.3)"><tspan x="0" y="0">P</tspan></text>
    <text class="st8" transform="translate(161 117.3)"><tspan x="0" y="0">6</tspan></text>
    <text class="st8" transform="translate(167.1 117.3)"><tspan x="0" y="0">D</tspan></text>
    <text class="st2" transform="translate(175 111.9)"><tspan x="0" y="0">c</tspan></text>
    <text class="st5" transform="translate(34.5 217.2)"><tspan x="0" y="0">S</tspan></text>
    <text class="st5" transform="translate(38.5 217.2)"><tspan x="0" y="0">N</tspan></text>
    <text class="st5" transform="translate(42.9 217.2)"><tspan x="0" y="0">P</tspan></text>
    <text class="st5" transform="translate(46.9 217.2)"><tspan x="0" y="0">3</tspan></text>
    <text class="st5" transform="translate(50.2 217.2)"><tspan x="0" y="0">R</tspan></text>
    <text class="st6" transform="translate(54.5 214.3)"><tspan x="0" y="0">c</tspan></text>
    <text class="st4" transform="translate(56.5 217.2)"><tspan x="0" y="0"> </tspan></text>
    <text class="st5" transform="translate(58 217.2)"><tspan x="0" y="0">A</tspan></text>
    <text class="st5" transform="translate(62 217.2)"><tspan x="0" y="0">N</tspan></text>
    <text class="st5" transform="translate(66.4 217.2)"><tspan x="0" y="0">D</tspan></text>
    <text class="st4" transform="translate(70.7 217.2)"><tspan x="0" y="0"> </tspan></text>
    <text class="st5" transform="translate(72.2 217.2)"><tspan x="0" y="0">S</tspan></text>
    <text class="st5" transform="translate(76.2 217.2)"><tspan x="0" y="0">N</tspan></text>
    <text class="st5" transform="translate(80.5 217.2)"><tspan x="0" y="0">P</tspan></text>
    <text class="st5" transform="translate(84.5 217.2)"><tspan x="0" y="0">7</tspan></text>
    <text class="st5" transform="translate(87.9 217.2)"><tspan x="0" y="0">D</tspan></text>
    <text class="st5" transform="translate(149.7 217.2)"><tspan x="0" y="0">S</tspan></text>
    <text class="st5" transform="translate(153.7 217.2)"><tspan x="0" y="0">N</tspan></text>
    <text class="st5" transform="translate(158.1 217.2)"><tspan x="0" y="0">P</tspan></text>
    <text class="st5" transform="translate(162.1 217.2)"><tspan x="0" y="0">3</tspan></text>
    <text class="st5" transform="translate(165.4 217.2)"><tspan x="0" y="0">R</tspan></text>
    <text class="st6" transform="translate(169.7 214.3)"><tspan x="0" y="0">c</tspan></text>
    <text class="st4" transform="translate(171.7 217.2)"><tspan x="0" y="0"> </tspan></text>
    <text class="st5" transform="translate(173.2 217.2)"><tspan x="0" y="0">A</tspan></text>
    <text class="st5" transform="translate(177.2 217.2)"><tspan x="0" y="0">N</tspan></text>
    <text class="st5" transform="translate(181.6 217.2)"><tspan x="0" y="0">D</tspan></text>
    <text class="st4" transform="translate(185.9 217.2)"><tspan x="0" y="0"> </tspan></text>
    <text class="st5" transform="translate(187.4 217.2)"><tspan x="0" y="0">S</tspan></text>
    <text class="st5" transform="translate(191.4 217.2)"><tspan x="0" y="0">N</tspan></text>
    <text class="st5" transform="translate(195.7 217.2)"><tspan x="0" y="0">P</tspan></text>
    <text class="st5" transform="translate(199.7 217.2)"><tspan x="0" y="0">7</tspan></text>
    <text class="st5" transform="translate(203.1 217.2)"><tspan x="0" y="0">D</tspan></text>
    <text class="st2" transform="translate(265.8 116.1)"><tspan x="0" y="0">S</tspan></text>
    <text class="st2" transform="translate(271.2 116.1)"><tspan x="0" y="0">N</tspan></text>
    <text class="st2" transform="translate(276.9 116.1)"><tspan x="0" y="0">P</tspan></text>
    <text class="st2" transform="translate(282.3 116.1)"><tspan x="0" y="0">3</tspan></text>
    <text class="st2" transform="translate(286.7 116.1)"><tspan x="0" y="0">1</tspan></text>
    <text class="st2" transform="translate(291.2 116.1)"><tspan x="0" y="0">R</tspan></text>
    <text class="st5" transform="translate(296.9 112.1)"><tspan x="0" y="0">c</tspan></text>
    <text class="st3" transform="translate(299.9 116.1)"><tspan x="0" y="0"> </tspan></text>
    <text class="st2" transform="translate(301.9 116.1)"><tspan x="0" y="0">A</tspan></text>
    <text class="st2" transform="translate(307.3 116.1)"><tspan x="0" y="0">N</tspan></text>
    <text class="st2" transform="translate(313 116.1)"><tspan x="0" y="0">D</tspan></text>
    <text class="st3" transform="translate(318.8 116.1)"><tspan x="0" y="0"> </tspan></text>
    <text class="st2" transform="translate(320.8 116.1)"><tspan x="0" y="0">S</tspan></text>
    <text class="st2" transform="translate(326.2 116.1)"><tspan x="0" y="0">N</tspan></text>
    <text class="st2" transform="translate(331.9 116.1)"><tspan x="0" y="0">P</tspan></text>
    <text class="st2" transform="translate(337.3 116.1)"><tspan x="0" y="0">6</tspan></text>
    <text class="st2" transform="translate(341.7 116.1)"><tspan x="0" y="0">D</tspan></text>
    <text class="st5" transform="translate(347.5 112.1)"><tspan x="0" y="0">c</tspan></text>
    <text class="st5" transform="translate(322.5 217.2)"><tspan x="0" y="0">S</tspan></text>
    <text class="st5" transform="translate(326.5 217.2)"><tspan x="0" y="0">N</tspan></text>
    <text class="st5" transform="translate(330.9 217.2)"><tspan x="0" y="0">P</tspan></text>
    <text class="st5" transform="translate(334.9 217.2)"><tspan x="0" y="0">3</tspan></text>
    <text class="st5" transform="translate(338.2 217.2)"><tspan x="0" y="0">R</tspan></text>
    <text class="st6" transform="translate(342.5 214.3)"><tspan x="0" y="0">c</tspan></text>
    <text class="st4" transform="translate(344.5 217.2)"><tspan x="0" y="0"> </tspan></text>
    <text class="st5" transform="translate(346 217.2)"><tspan x="0" y="0">A</tspan></text>
    <text class="st5" transform="translate(350 217.2)"><tspan x="0" y="0">N</tspan></text>
    <text class="st5" transform="translate(354.4 217.2)"><tspan x="0" y="0">D</tspan></text>
    <text class="st4" transform="translate(358.7 217.2)"><tspan x="0" y="0"> </tspan></text>
    <text class="st5" transform="translate(360.2 217.2)"><tspan x="0" y="0">S</tspan></text>
    <text class="st5" transform="translate(364.2 217.2)"><tspan x="0" y="0">N</tspan></text>
    <text class="st5" transform="translate(368.5 217.2)"><tspan x="0" y="0">P</tspan></text>
    <text class="st5" transform="translate(372.5 217.2)"><tspan x="0" y="0">7</tspan></text>
    <text class="st5" transform="translate(375.9 217.2)"><tspan x="0" y="0">D</tspan></text>
    <text class="st9" transform="translate(132.3 62.8) rotate(-90)"><tspan x="0" y="0">0 =</tspan></text>
    <text class="st9" transform="translate(296.7 45.8) rotate(90)"><tspan x="0" y="0">= 1</tspan></text>
    <text class="st9" transform="translate(74.7 164.9) rotate(-90)"><tspan x="0" y="0">0 =</tspan></text>
    <text class="st9" transform="translate(167.1 147.9) rotate(90)"><tspan x="0" y="0">= 1</tspan></text>
    <text class="st9" transform="translate(45.9 267.1) rotate(-90)"><tspan x="0" y="0">0 =</tspan></text>
    <text class="st9" transform="translate(80.7 250.1) rotate(90)"><tspan x="0" y="0">= 1</tspan></text>
    <text class="st9" transform="translate(161.1 267.1) rotate(-90)"><tspan x="0" y="0">0 =</tspan></text>
    <text class="st9" transform="translate(195.9 250.1) rotate(90)"><tspan x="0" y="0">= 1</tspan></text>
    <text class="st9" transform="translate(276.3 164.9) rotate(-90)"><tspan x="0" y="0">0 =</tspan></text>
    <text class="st9" transform="translate(339.9 147.9) rotate(90)"><tspan x="0" y="0">= 1</tspan></text>
    <text class="st9" transform="translate(333.9 267.1) rotate(-90)"><tspan x="0" y="0">0 =</tspan></text>
    <text class="st9" transform="translate(368.7 250.1) rotate(90)"><tspan x="0" y="0">= 1</tspan></text>
  </g>
</svg>