<?xml version="1.0" encoding="UTF-8"?>
<svg id="Ebene_1" xmlns="http://www.w3.org/2000/svg" version="1.1" viewBox="0 0 892.7 789.7">
  <!-- Generator: Adobe Illustrator 29.1.0, SVG Export Plug-In . SVG Version: 2.1.0 Build 142)  -->
  <defs>
    <style>
      .st0 {
        stroke: #fff;
      }

      .st0, .st1 {
        fill: none;
        stroke-miterlimit: 10;
      }

      .st2, .st3, .st4, .st5, .st6, .st7 {
        fill: #fff;
      }

      .st2, .st3, .st8, .st9, .st6, .st7, .st10, .st11, .st12 {
        font-size: 14px;
      }

      .st2, .st10, .st11 {
        font-family: Times-Italic, Times;
        font-style: italic;
      }

      .st13, .st3, .st4, .st7, .st12, .st14 {
        font-family: Times-Roman, Times;
      }

      .st13, .st4, .st14 {
        font-size: 11.7px;
      }

      .st13, .st9, .st10, .st15 {
        fill: #333;
      }

      .st8, .st9, .st6 {
        font-family: MyriadPro-Regular, 'Myriad Pro';
      }

      .st8, .st11, .st12, .st14 {
        fill: #1a1a1a;
      }

      .st1 {
        stroke: #333;
      }

      .st16 {
        letter-spacing: 0em;
      }

      .st17 {
        letter-spacing: 0em;
      }

      .st7, .st18 {
        letter-spacing: 0em;
      }

      .st19 {
        letter-spacing: 0em;
      }

      .st20 {
        letter-spacing: 0em;
      }

      .st21 {
        letter-spacing: 0em;
      }

      .st22 {
        letter-spacing: 0em;
      }

      .st23 {
        letter-spacing: 0em;
      }

      .st24 {
        letter-spacing: 0em;
      }

      .st25 {
        letter-spacing: 0em;
      }

      .st26 {
        letter-spacing: 0em;
      }

      .st27 {
        letter-spacing: 0em;
      }

      .st28 {
        letter-spacing: 0em;
      }

      .st29 {
        letter-spacing: 0em;
      }

      .st30 {
        letter-spacing: 0em;
      }

      .st31 {
        letter-spacing: 0em;
      }

      .st32 {
        letter-spacing: 0em;
      }

      .st33 {
        letter-spacing: 0em;
      }

      .st34 {
        letter-spacing: 0em;
      }

      .st35 {
        letter-spacing: 0em;
      }

      .st36 {
        letter-spacing: 0em;
      }

      .st37 {
        letter-spacing: 0em;
      }

      .st38 {
        letter-spacing: 0em;
      }

      .st39 {
        letter-spacing: 0em;
      }

      .st40 {
        letter-spacing: 0em;
      }

      .st41 {
        letter-spacing: 0em;
      }

      .st42 {
        letter-spacing: 0em;
      }

      .st43 {
        letter-spacing: 0em;
      }

      .st44 {
        letter-spacing: 0em;
      }

      .st45 {
        letter-spacing: 0em;
      }

      .st46 {
        letter-spacing: 0em;
      }

      .st47 {
        letter-spacing: 0em;
      }

      .st48 {
        letter-spacing: 0em;
      }

      .st49 {
        letter-spacing: 0em;
      }

      .st50 {
        fill: #999;
      }

      .st51 {
        letter-spacing: 0em;
      }

      .st52 {
        letter-spacing: 0em;
      }

      .st53 {
        letter-spacing: 0em;
      }

      .st54 {
        letter-spacing: 0em;
      }

      .st55 {
        letter-spacing: 0em;
      }
    </style>
  </defs>
  <g>
    <path class="st1" d="M73.4,245.1h190c6,0,12-6,12-12V28.6c0-6-6-12-12-12H73.4c-6,0-12,6-12,12v204.5c0,6,6,12,12,12"/>
    <text class="st3" transform="translate(116.6 240.1)"><tspan class="st37" x="0" y="0">O</tspan><tspan class="st38" x="9.7" y="0">r</tspan><tspan class="st44" x="14.3" y="0">i</tspan><tspan class="st20" x="18" y="0">g</tspan><tspan class="st44" x="24.8" y="0">i</tspan><tspan class="st20" x="28.5" y="0">n</tspan><tspan class="st23" x="35.3" y="0">a</tspan><tspan x="41.3" y="0">l</tspan></text>
    <text class="st3" transform="translate(165.4 240.1)"><tspan class="st44" x="0" y="0">i</tspan><tspan class="st20" x="3.8" y="0">nd</tspan><tspan class="st44" x="17.3" y="0">i</tspan><tspan class="st25" x="21" y="0">v</tspan><tspan class="st44" x="27.8" y="0">i</tspan><tspan class="st20" x="31.5" y="0">du</tspan><tspan class="st33" x="45" y="0">a</tspan><tspan x="51" y="0">l</tspan></text>
    <path class="st0" d="M136.9,42.6c0,9.9-15,18-33.6,18s-33.6-8.1-33.6-18,15-18,33.6-18,33.6,8.1,33.6,18"/>
    <text class="st3" transform="translate(85 47.7)"><tspan x="0" y="0">∑</tspan></text>
    <text class="st3" transform="translate(98.5 47.7)"><tspan x="0" y="0">/</tspan></text>
    <text class="st3" transform="translate(106 47.7)"><tspan x="0" y="0">w</tspan></text>
    <text class="st4" transform="translate(115.8 51.4)"><tspan x="0" y="0">0</tspan></text>
    <path class="st0" d="M123.4,196.8c0,9.9-12.1,18-27,18s-27-8.1-27-18,12.1-18,27-18,27,8.1,27,18"/>
    <text class="st2" transform="translate(87 202)"><tspan x="0" y="0">l</tspan></text>
    <text class="st4" transform="translate(90.8 205.6)"><tspan class="st49" x="0" y="0">1</tspan><tspan class="st54" x="6" y="0">,</tspan><tspan x="9" y="0">1</tspan></text>
    <path class="st0" d="M123.7,114.6c0,9.9-12.2,18-27.3,18s-27.3-8.1-27.3-18,12.2-18,27.3-18,27.3,8.1,27.3,18"/>
    <text class="st2" transform="translate(82.9 119.7)"><tspan x="0" y="0">w</tspan></text>
    <text class="st4" transform="translate(91.9 123.4)"><tspan x="0" y="0">1</tspan></text>
    <text class="st6" transform="translate(97.9 119.7)"><tspan x="0" y="0">Π</tspan></text>
    <path class="st0" d="M96.4,178.4v-45.5"/>
    <path class="st0" d="M98.1,96.2c1.1-10.8,2.5-24.8,3.6-35.6"/>
    <path class="st0" d="M196.7,114.6c0,9.9-12.2,18-27.3,18s-27.3-8.1-27.3-18,12.2-18,27.3-18,27.3,8.1,27.3,18"/>
    <text class="st2" transform="translate(155.9 119.7)"><tspan x="0" y="0">w</tspan></text>
    <text class="st4" transform="translate(164.9 123.4)"><tspan x="0" y="0">2</tspan></text>
    <text class="st6" transform="translate(170.9 119.7)"><tspan x="0" y="0">Π</tspan></text>
    <path class="st0" d="M155.4,98.7c-11.1-11.7-26.4-28-37.6-39.8"/>
    <path class="st0" d="M267.4,196.8c0,9.9-12.1,18-27,18s-27-8.1-27-18,12.1-18,27-18,27,8.1,27,18"/>
    <text class="st2" transform="translate(231 202)"><tspan x="0" y="0">l</tspan></text>
    <text class="st4" transform="translate(234.8 205.6)"><tspan class="st49" x="0" y="0">2</tspan><tspan class="st54" x="6" y="0">,</tspan><tspan x="9" y="0">1</tspan></text>
    <path class="st0" d="M227,180.7c-12.7-14.3-31.7-35.8-44.4-50.1"/>
    <path class="st0" d="M195.4,196.8c0,9.9-12.1,18-27,18s-27-8.1-27-18,12.1-18,27-18,27,8.1,27,18"/>
    <text class="st2" transform="translate(159 202)"><tspan x="0" y="0">l</tspan></text>
    <text class="st4" transform="translate(162.8 205.6)"><tspan class="st49" x="0" y="0">2</tspan><tspan class="st54" x="6" y="0">,</tspan><tspan x="9" y="0">2</tspan></text>
    <path class="st0" d="M168.6,178.4c.2-13.5.4-32,.6-45.5"/>
  </g>
  <g>
    <path class="st1" d="M157.7,789.2h722c6,0,12-6,12-12v-501.5c0-6-6-12-12-12H157.7c-6,0-12,6-12,12v501.5c0,6,6,12,12,12"/>
    <text class="st3" transform="translate(490.9 784.2)"><tspan class="st46" x="0" y="0">M</tspan><tspan class="st20" x="12.8" y="0">u</tspan><tspan class="st43" x="19.5" y="0">t</tspan><tspan class="st23" x="23.3" y="0">a</tspan><tspan class="st44" x="29.3" y="0">t</tspan><tspan class="st45" x="33" y="0">i</tspan><tspan class="st32" x="36.8" y="0">o</tspan><tspan class="st20" x="43.5" y="0">n</tspan><tspan x="50.3" y="0">s</tspan></text>
    <path class="st1" d="M387.7,530.4h190c6,0,12-6,12-12v-234.7c0-6-6-12-12-12h-190c-6,0-12,6-12,12v234.7c0,6,6,12,12,12"/>
    <text class="st3" transform="translate(418.2 525.5)"><tspan class="st21" x="0" y="0">C</tspan><tspan class="st20" x="9" y="0">h</tspan><tspan class="st22" x="15.8" y="0">a</tspan><tspan class="st20" x="21.8" y="0">ng</tspan><tspan x="35.3" y="0">e</tspan></text>
    <text class="st3" transform="translate(463.2 525.5)"><tspan x="0" y="0">a</tspan></text>
    <text class="st3" transform="translate(472.9 525.5)"><tspan class="st36" x="0" y="0">w</tspan><tspan class="st23" x="9.7" y="0">e</tspan><tspan class="st45" x="15.8" y="0">i</tspan><tspan class="st27" x="19.5" y="0">g</tspan><tspan class="st20" x="26.3" y="0">h</tspan><tspan x="33" y="0">t</tspan></text>
    <text class="st3" transform="translate(513.4 525.5)"><tspan class="st28" x="0" y="0">v</tspan><tspan class="st23" x="6.8" y="0">e</tspan><tspan class="st30" x="12.8" y="0">c</tspan><tspan class="st45" x="18.8" y="0">t</tspan><tspan class="st28" x="22.5" y="0">o</tspan><tspan x="29.3" y="0">r</tspan></text>
    <path class="st1" d="M387.7,758.9h190c6,0,12-6,12-12v-196.5c0-6-6-12-12-12h-190c-6,0-12,6-12,12v196.5c0,6,6,12,12,12"/>
    <text class="st3" transform="translate(442.5 754)"><tspan class="st36" x="0" y="0">D</tspan><tspan class="st23" x="9.7" y="0">e</tspan><tspan class="st45" x="15.8" y="0">l</tspan><tspan class="st23" x="19.5" y="0">e</tspan><tspan class="st44" x="25.5" y="0">t</tspan><tspan x="29.3" y="0">e</tspan></text>
    <text class="st3" transform="translate(481.5 754)"><tspan x="0" y="0">a</tspan></text>
    <text class="st3" transform="translate(491.3 754)"><tspan class="st45" x="0" y="0">l</tspan><tspan class="st44" x="3.8" y="0">i</tspan><tspan class="st43" x="7.5" y="0">t</tspan><tspan class="st22" x="11.3" y="0">e</tspan><tspan class="st39" x="17.3" y="0">r</tspan><tspan class="st23" x="21.8" y="0">a</tspan><tspan x="27.8" y="0">l</tspan></text>
    <path class="st1" d="M165.7,530.4h190c6,0,12-6,12-12v-234.7c0-6-6-12-12-12h-190c-6,0-12,6-12,12v234.7c0,6,6,12,12,12"/>
    <text class="st3" transform="translate(208.2 525.5)"><tspan class="st36" x="0" y="0">D</tspan><tspan class="st23" x="9.7" y="0">e</tspan><tspan class="st45" x="15.8" y="0">l</tspan><tspan class="st23" x="19.5" y="0">e</tspan><tspan class="st44" x="25.5" y="0">t</tspan><tspan x="29.3" y="0">e</tspan></text>
    <text class="st3" transform="translate(247.1 525.5)"><tspan x="0" y="0">a</tspan></text>
    <text class="st3" transform="translate(256.9 525.5)"><tspan class="st51" x="0" y="0">m</tspan><tspan class="st20" x="11.3" y="0">on</tspan><tspan class="st28" x="24.8" y="0">o</tspan><tspan class="st47" x="31.5" y="0">m</tspan><tspan class="st44" x="42.8" y="0">i</tspan><tspan class="st23" x="46.5" y="0">a</tspan><tspan x="52.5" y="0">l</tspan></text>
    <path class="st1" d="M609.7,758.9h262c6,0,12-6,12-12v-196.5c0-6-6-12-12-12h-262c-6,0-12,6-12,12v196.5c0,6,6,12,12,12"/>
    <text class="st3" transform="translate(702.8 754)"><tspan class="st40" x="0" y="0">I</tspan><tspan class="st32" x="4.5" y="0">n</tspan><tspan class="st23" x="11.3" y="0">s</tspan><tspan class="st31" x="16.5" y="0">e</tspan><tspan class="st41" x="22.5" y="0">r</tspan><tspan x="27" y="0">t</tspan></text>
    <text class="st3" transform="translate(737.3 754)"><tspan x="0" y="0">a</tspan></text>
    <text class="st3" transform="translate(747 754)"><tspan class="st44" x="0" y="0">l</tspan><tspan class="st45" x="3.8" y="0">i</tspan><tspan class="st44" x="7.5" y="0">t</tspan><tspan class="st31" x="11.3" y="0">e</tspan><tspan class="st40" x="17.3" y="0">r</tspan><tspan class="st23" x="21.8" y="0">a</tspan><tspan x="27.8" y="0">l</tspan></text>
    <path class="st1" d="M609.7,530.4h262c6,0,12-6,12-12v-234.7c0-6-6-12-12-12h-262c-6,0-12,6-12,12v234.7c0,6,6,12,12,12"/>
    <text class="st3" transform="translate(690.4 525.5)"><tspan class="st40" x="0" y="0">I</tspan><tspan class="st32" x="4.5" y="0">n</tspan><tspan class="st23" x="11.3" y="0">s</tspan><tspan class="st31" x="16.5" y="0">e</tspan><tspan class="st41" x="22.5" y="0">r</tspan><tspan x="27" y="0">t</tspan></text>
    <text class="st3" transform="translate(724.9 525.5)"><tspan x="0" y="0">a</tspan></text>
    <text class="st3" transform="translate(734.7 525.5)"><tspan class="st51" x="0" y="0">m</tspan><tspan class="st20" x="11.3" y="0">o</tspan><tspan class="st28" x="18" y="0">n</tspan><tspan class="st20" x="24.8" y="0">o</tspan><tspan class="st51" x="31.5" y="0">m</tspan><tspan class="st45" x="42.8" y="0">i</tspan><tspan class="st30" x="46.5" y="0">a</tspan><tspan x="52.5" y="0">l</tspan></text>
    <path class="st1" d="M165.7,758.9h190c6,0,12-6,12-12v-196.5c0-6-6-12-12-12h-190c-6,0-12,6-12,12v196.5c0,6,6,12,12,12"/>
    <text class="st3" transform="translate(216.4 754)"><tspan class="st21" x="0" y="0">R</tspan><tspan class="st23" x="9" y="0">e</tspan><tspan class="st24" x="15" y="0">p</tspan><tspan class="st43" x="21.8" y="0">l</tspan><tspan class="st23" x="25.5" y="0">ac</tspan><tspan class="st16" x="37.5" y="0">e</tspan></text>
    <text class="st3" transform="translate(263.7 754)"><tspan x="0" y="0">a</tspan></text>
    <text class="st3" transform="translate(273.4 754)"><tspan class="st45" x="0" y="0">l</tspan><tspan class="st44" x="3.8" y="0">i</tspan><tspan class="st43" x="7.5" y="0">t</tspan><tspan class="st22" x="11.3" y="0">e</tspan><tspan class="st39" x="17.3" y="0">r</tspan><tspan class="st23" x="21.8" y="0">a</tspan><tspan x="27.8" y="0">l</tspan></text>
    <path class="st0" d="M215.7,482.2c0,9.9-12.1,18-27,18s-27-8.1-27-18,12.1-18,27-18,27,8.1,27,18"/>
    <text class="st2" transform="translate(179.3 487.3)"><tspan x="0" y="0">l</tspan></text>
    <text class="st4" transform="translate(183 491)"><tspan class="st49" x="0" y="0">1</tspan><tspan class="st54" x="6" y="0">,</tspan><tspan x="9" y="0">1</tspan></text>
    <path class="st50" d="M484.2,297.7c0,9.9-15,18-33.6,18s-33.6-8.1-33.6-18,15-18,33.6-18,33.6,8.1,33.6,18"/>
    <path class="st0" d="M484.2,297.7c0,9.9-15,18-33.6,18s-33.6-8.1-33.6-18,15-18,33.6-18,33.6,8.1,33.6,18"/>
    <text class="st12" transform="translate(432.3 302.8)"><tspan x="0" y="0">∑</tspan></text>
    <text class="st12" transform="translate(445.8 302.8)"><tspan x="0" y="0">/</tspan></text>
    <text class="st12" transform="translate(453.3 302.8)"><tspan x="0" y="0">w</tspan></text>
    <text class="st14" transform="translate(463 306.5)"><tspan x="0" y="0">0</tspan></text>
    <path class="st0" d="M437.7,482.2c0,9.9-12.1,18-27,18s-27-8.1-27-18,12.1-18,27-18,27,8.1,27,18"/>
    <text class="st2" transform="translate(401.3 487.3)"><tspan x="0" y="0">l</tspan></text>
    <text class="st4" transform="translate(405 491)"><tspan class="st49" x="0" y="0">1</tspan><tspan class="st53" x="6" y="0">,</tspan><tspan x="9" y="0">1</tspan></text>
    <path class="st50" d="M438,410.2c0,9.9-12.2,18-27.3,18s-27.3-8.1-27.3-18,12.2-18,27.3-18,27.3,8.1,27.3,18"/>
    <path class="st0" d="M438,410.2c0,9.9-12.2,18-27.3,18s-27.3-8.1-27.3-18,12.2-18,27.3-18,27.3,8.1,27.3,18"/>
    <text class="st11" transform="translate(397.2 415.3)"><tspan x="0" y="0">w</tspan></text>
    <text class="st14" transform="translate(406.2 419)"><tspan x="0" y="0">1</tspan></text>
    <text class="st8" transform="translate(412.2 415.3)"><tspan x="0" y="0">Π</tspan></text>
    <path class="st0" d="M410.7,463.9v-35.6"/>
    <path class="st0" d="M416.7,392.4c7.5-20.8,20.2-55.9,27.8-76.8"/>
    <path class="st0" d="M511,410.2c0,9.9-12.2,18-27.3,18s-27.3-8.1-27.3-18,12.2-18,27.3-18,27.3,8.1,27.3,18"/>
    <text class="st2" transform="translate(470.2 415.3)"><tspan x="0" y="0">w</tspan></text>
    <text class="st4" transform="translate(479.2 419)"><tspan x="0" y="0">2</tspan></text>
    <text class="st6" transform="translate(485.2 415.3)"><tspan x="0" y="0">Π</tspan></text>
    <path class="st0" d="M478.6,392.4c-6.2-20.8-16.7-55.9-22.9-76.8"/>
    <path class="st0" d="M509.7,482.2c0,9.9-12.1,18-27,18s-27-8.1-27-18,12.1-18,27-18,27,8.1,27,18"/>
    <text class="st2" transform="translate(473.3 487.3)"><tspan x="0" y="0">l</tspan></text>
    <text class="st4" transform="translate(477 491)"><tspan class="st49" x="0" y="0">2</tspan><tspan class="st53" x="6" y="0">,</tspan><tspan x="9" y="0">1</tspan></text>
    <path class="st0" d="M482.9,463.9c.2-10.8.4-24.8.5-35.6"/>
    <path class="st0" d="M581.7,482.2c0,9.9-12.1,18-27,18s-27-8.1-27-18,12.1-18,27-18,27,8.1,27,18"/>
    <text class="st2" transform="translate(545.3 487.3)"><tspan x="0" y="0">l</tspan></text>
    <text class="st4" transform="translate(549 491)"><tspan class="st49" x="0" y="0">2</tspan><tspan class="st53" x="6" y="0">,</tspan><tspan x="9" y="0">2</tspan></text>
    <path class="st0" d="M539.9,466.7c-12.2-12-29.4-29-41.6-41"/>
    <path class="st50" d="M516.2,564.4c0,9.9-15,18-33.6,18s-33.6-8.1-33.6-18,15-18,33.6-18,33.6,8.1,33.6,18"/>
    <path class="st0" d="M516.2,564.4c0,9.9-15,18-33.6,18s-33.6-8.1-33.6-18,15-18,33.6-18,33.6,8.1,33.6,18"/>
    <text class="st12" transform="translate(464.3 569.6)"><tspan x="0" y="0">∑</tspan></text>
    <text class="st12" transform="translate(477.8 569.6)"><tspan x="0" y="0">/</tspan></text>
    <text class="st12" transform="translate(485.3 569.6)"><tspan x="0" y="0">w</tspan></text>
    <text class="st14" transform="translate(495 573.2)"><tspan x="0" y="0">0</tspan></text>
    <path class="st0" d="M437.7,710.7c0,9.9-12.1,18-27,18s-27-8.1-27-18,12.1-18,27-18,27,8.1,27,18"/>
    <text class="st2" transform="translate(401.3 715.8)"><tspan x="0" y="0">l</tspan></text>
    <text class="st4" transform="translate(405 719.5)"><tspan class="st49" x="0" y="0">1</tspan><tspan class="st53" x="6" y="0">,</tspan><tspan x="9" y="0">1</tspan></text>
    <path class="st0" d="M438,638.7c0,9.9-12.2,18-27.3,18s-27.3-8.1-27.3-18,12.2-18,27.3-18,27.3,8.1,27.3,18"/>
    <text class="st2" transform="translate(397.2 643.8)"><tspan x="0" y="0">w</tspan></text>
    <text class="st4" transform="translate(406.2 647.5)"><tspan x="0" y="0">1</tspan></text>
    <text class="st6" transform="translate(412.2 643.8)"><tspan x="0" y="0">Π</tspan></text>
    <path class="st0" d="M410.7,692.4v-35.6"/>
    <path class="st0" d="M425.2,623c12.2-12.3,29.7-29.8,42.1-42.3"/>
    <path class="st0" d="M511,638.7c0,9.9-12.2,18-27.3,18s-27.3-8.1-27.3-18,12.2-18,27.3-18,27.3,8.1,27.3,18"/>
    <text class="st2" transform="translate(470.2 643.8)"><tspan x="0" y="0">w</tspan></text>
    <text class="st4" transform="translate(479.2 647.5)"><tspan x="0" y="0">2</tspan></text>
    <text class="st6" transform="translate(485.2 643.8)"><tspan x="0" y="0">Π</tspan></text>
    <path class="st0" d="M483.4,620.2c-.2-11.4-.4-26.1-.5-37.4"/>
    <path class="st0" d="M509.7,710.7c0,9.9-12.1,18-27,18s-27-8.1-27-18,12.1-18,27-18,27,8.1,27,18"/>
    <text class="st2" transform="translate(473.3 715.8)"><tspan x="0" y="0">l</tspan></text>
    <text class="st4" transform="translate(477 719.5)"><tspan class="st49" x="0" y="0">2</tspan><tspan class="st53" x="6" y="0">,</tspan><tspan x="9" y="0">1</tspan></text>
    <path class="st0" d="M482.9,692.4c.2-10.8.4-24.8.5-35.6"/>
    <path class="st1" d="M581.7,710.7c0,9.9-12.1,18-27,18s-27-8.1-27-18,12.1-18,27-18,27,8.1,27,18"/>
    <text class="st10" transform="translate(545.3 715.8)"><tspan x="0" y="0">l</tspan></text>
    <text class="st13" transform="translate(549 719.5)"><tspan class="st49" x="0" y="0">2</tspan><tspan class="st53" x="6" y="0">,</tspan><tspan x="9" y="0">2</tspan></text>
    <path class="st1" d="M539.9,695.2c-12.2-12-29.4-29-41.6-41"/>
    <path class="st50" d="M262.2,297.7c0,9.9-15,18-33.6,18s-33.6-8.1-33.6-18,15-18,33.6-18,33.6,8.1,33.6,18"/>
    <path class="st0" d="M262.2,297.7c0,9.9-15,18-33.6,18s-33.6-8.1-33.6-18,15-18,33.6-18,33.6,8.1,33.6,18"/>
    <text class="st12" transform="translate(210.3 302.8)"><tspan x="0" y="0">∑</tspan></text>
    <text class="st12" transform="translate(223.8 302.8)"><tspan x="0" y="0">/</tspan></text>
    <text class="st12" transform="translate(231.3 302.8)"><tspan x="0" y="0">w</tspan></text>
    <text class="st14" transform="translate(241 306.5)"><tspan x="0" y="0">0</tspan></text>
    <path class="st0" d="M216,410.2c0,9.9-12.2,18-27.3,18s-27.3-8.1-27.3-18,12.2-18,27.3-18,27.3,8.1,27.3,18"/>
    <text class="st2" transform="translate(175.2 415.3)"><tspan x="0" y="0">w</tspan></text>
    <text class="st4" transform="translate(184.2 419)"><tspan x="0" y="0">1</tspan></text>
    <text class="st6" transform="translate(190.2 415.3)"><tspan x="0" y="0">Π</tspan></text>
    <path class="st0" d="M188.7,463.9v-35.6"/>
    <path class="st0" d="M194.7,392.4c7.5-20.8,20.2-55.9,27.8-76.8"/>
    <path class="st1" d="M289,410.2c0,9.9-12.2,18-27.3,18s-27.3-8.1-27.3-18,12.2-18,27.3-18,27.3,8.1,27.3,18"/>
    <text class="st10" transform="translate(248.2 415.3)"><tspan x="0" y="0">w</tspan></text>
    <text class="st13" transform="translate(257.2 419)"><tspan x="0" y="0">2</tspan></text>
    <text class="st9" transform="translate(263.2 415.3)"><tspan x="0" y="0">Π</tspan></text>
    <path class="st1" d="M256.6,392.4c-6.2-20.8-16.7-55.9-22.9-76.8"/>
    <path class="st1" d="M287.7,482.2c0,9.9-12.1,18-27,18s-27-8.1-27-18,12.1-18,27-18,27,8.1,27,18"/>
    <text class="st10" transform="translate(251.3 487.3)"><tspan x="0" y="0">l</tspan></text>
    <text class="st13" transform="translate(255 491)"><tspan class="st49" x="0" y="0">2</tspan><tspan class="st53" x="6" y="0">,</tspan><tspan x="9" y="0">1</tspan></text>
    <path class="st1" d="M260.9,463.9c.2-10.8.4-24.8.5-35.6"/>
    <path class="st1" d="M359.7,482.2c0,9.9-12.1,18-27,18s-27-8.1-27-18,12.1-18,27-18,27,8.1,27,18"/>
    <text class="st10" transform="translate(323.3 487.3)"><tspan x="0" y="0">l</tspan></text>
    <text class="st13" transform="translate(327 491)"><tspan class="st49" x="0" y="0">2</tspan><tspan class="st53" x="6" y="0">,</tspan><tspan x="9" y="0">2</tspan></text>
    <path class="st1" d="M317.9,466.7c-12.2-12-29.4-29-41.6-41"/>
    <path class="st50" d="M738.2,564.4c0,9.9-15,18-33.6,18s-33.6-8.1-33.6-18,15-18,33.6-18,33.6,8.1,33.6,18"/>
    <path class="st0" d="M738.2,564.4c0,9.9-15,18-33.6,18s-33.6-8.1-33.6-18,15-18,33.6-18,33.6,8.1,33.6,18"/>
    <text class="st12" transform="translate(686.3 569.6)"><tspan x="0" y="0">∑</tspan></text>
    <text class="st12" transform="translate(699.8 569.6)"><tspan x="0" y="0">/</tspan></text>
    <text class="st12" transform="translate(707.3 569.6)"><tspan x="0" y="0">w</tspan></text>
    <text class="st14" transform="translate(717 573.2)"><tspan x="0" y="0">0</tspan></text>
    <path class="st0" d="M731.7,482.2c0,9.9-12.1,18-27,18s-27-8.1-27-18,12.1-18,27-18,27,8.1,27,18"/>
    <text class="st2" transform="translate(695.3 487.3)"><tspan x="0" y="0">l</tspan></text>
    <text class="st4" transform="translate(699 491)"><tspan class="st49" x="0" y="0">2</tspan><tspan class="st53" x="6" y="0">,</tspan><tspan x="9" y="0">1</tspan></text>
    <path class="st0" d="M659.7,710.7c0,9.9-12.1,18-27,18s-27-8.1-27-18,12.1-18,27-18,27,8.1,27,18"/>
    <text class="st2" transform="translate(623.3 715.8)"><tspan x="0" y="0">l</tspan></text>
    <text class="st4" transform="translate(627 719.5)"><tspan class="st49" x="0" y="0">1</tspan><tspan class="st53" x="6" y="0">,</tspan><tspan x="9" y="0">1</tspan></text>
    <path class="st50" d="M731,638.7c0,9.9-12.2,18-27.3,18s-27.3-8.1-27.3-18,12.2-18,27.3-18,27.3,8.1,27.3,18"/>
    <path class="st0" d="M731,638.7c0,9.9-12.2,18-27.3,18s-27.3-8.1-27.3-18,12.2-18,27.3-18,27.3,8.1,27.3,18"/>
    <text class="st11" transform="translate(690.2 643.8)"><tspan x="0" y="0">w</tspan></text>
    <text class="st14" transform="translate(699.2 647.5)"><tspan x="0" y="0">1</tspan></text>
    <text class="st8" transform="translate(705.2 643.8)"><tspan x="0" y="0">Π</tspan></text>
    <path class="st0" d="M647.4,695.2c12.2-12,29.4-29,41.6-41"/>
    <path class="st0" d="M703.9,620.2c.2-11.4.4-26.1.5-37.4"/>
    <path class="st0" d="M804,638.7c0,9.9-12.2,18-27.3,18s-27.3-8.1-27.3-18,12.2-18,27.3-18,27.3,8.1,27.3,18"/>
    <text class="st2" transform="translate(763.2 643.8)"><tspan x="0" y="0">w</tspan></text>
    <text class="st4" transform="translate(772.2 647.5)"><tspan x="0" y="0">2</tspan></text>
    <text class="st6" transform="translate(778.2 643.8)"><tspan x="0" y="0">Π</tspan></text>
    <path class="st0" d="M762.1,623c-12.2-12.3-29.7-29.8-42.1-42.3"/>
    <path class="st0" d="M803.7,710.7c0,9.9-12.1,18-27,18s-27-8.1-27-18,12.1-18,27-18,27,8.1,27,18"/>
    <text class="st2" transform="translate(767.3 715.8)"><tspan x="0" y="0">l</tspan></text>
    <text class="st4" transform="translate(771 719.5)"><tspan class="st49" x="0" y="0">2</tspan><tspan class="st53" x="6" y="0">,</tspan><tspan x="9" y="0">1</tspan></text>
    <path class="st0" d="M776.7,692.4v-35.6"/>
    <path class="st0" d="M875.7,710.7c0,9.9-12.1,18-27,18s-27-8.1-27-18,12.1-18,27-18,27,8.1,27,18"/>
    <text class="st2" transform="translate(839.3 715.8)"><tspan x="0" y="0">l</tspan></text>
    <text class="st4" transform="translate(843 719.5)"><tspan class="st49" x="0" y="0">2</tspan><tspan class="st53" x="6" y="0">,</tspan><tspan x="9" y="0">2</tspan></text>
    <path class="st0" d="M833.7,695.2c-12.4-12-29.8-29-42.2-41"/>
    <path class="st15" d="M731.7,710.7c0,9.9-12.1,18-27,18s-27-8.1-27-18,12.1-18,27-18,27,8.1,27,18"/>
    <path class="st0" d="M731.7,710.7c0,9.9-12.1,18-27,18s-27-8.1-27-18,12.1-18,27-18,27,8.1,27,18"/>
    <text class="st2" transform="translate(695.3 715.8)"><tspan x="0" y="0">l</tspan></text>
    <text class="st4" transform="translate(699 719.5)"><tspan class="st49" x="0" y="0">1</tspan><tspan class="st53" x="6" y="0">,</tspan><tspan x="9" y="0">2</tspan></text>
    <path class="st0" d="M704.4,692.4c-.2-10.8-.4-24.8-.5-35.6"/>
    <path class="st50" d="M791.2,297.7c0,9.9-15,18-33.6,18s-33.6-8.1-33.6-18,15-18,33.6-18,33.6,8.1,33.6,18"/>
    <path class="st0" d="M791.2,297.7c0,9.9-15,18-33.6,18s-33.6-8.1-33.6-18,15-18,33.6-18,33.6,8.1,33.6,18"/>
    <text class="st12" transform="translate(739.3 302.8)"><tspan x="0" y="0">∑</tspan></text>
    <text class="st12" transform="translate(752.8 302.8)"><tspan x="0" y="0">/</tspan></text>
    <text class="st12" transform="translate(760.3 302.8)"><tspan x="0" y="0">w</tspan></text>
    <text class="st14" transform="translate(770 306.5)"><tspan x="0" y="0">0</tspan></text>
    <path class="st0" d="M659.7,482.2c0,9.9-12.1,18-27,18s-27-8.1-27-18,12.1-18,27-18,27,8.1,27,18"/>
    <text class="st2" transform="translate(623.3 487.3)"><tspan x="0" y="0">l</tspan></text>
    <text class="st4" transform="translate(627 491)"><tspan class="st49" x="0" y="0">1</tspan><tspan class="st53" x="6" y="0">,</tspan><tspan x="9" y="0">1</tspan></text>
    <path class="st0" d="M695,410.2c0,9.9-12.2,18-27.3,18s-27.3-8.1-27.3-18,12.2-18,27.3-18,27.3,8.1,27.3,18"/>
    <text class="st2" transform="translate(654.2 415.3)"><tspan x="0" y="0">w</tspan></text>
    <text class="st4" transform="translate(663.2 419)"><tspan x="0" y="0">1</tspan></text>
    <text class="st6" transform="translate(669.2 415.3)"><tspan x="0" y="0">Π</tspan></text>
    <path class="st0" d="M640.9,464.6c5.6-11.2,12.9-25.8,18.5-36.9"/>
    <path class="st0" d="M680.2,393.8c17-20.9,47.2-58,64.5-79.2"/>
    <path class="st0" d="M785,410.2c0,9.9-12.2,18-27.3,18s-27.3-8.1-27.3-18,12.2-18,27.3-18,27.3,8.1,27.3,18"/>
    <text class="st2" transform="translate(744.2 415.3)"><tspan x="0" y="0">w</tspan></text>
    <text class="st4" transform="translate(753.2 419)"><tspan x="0" y="0">2</tspan></text>
    <text class="st6" transform="translate(759.2 415.3)"><tspan x="0" y="0">Π</tspan></text>
    <path class="st0" d="M757.7,391.9v-76.1"/>
    <path class="st0" d="M716.4,465.6c8.8-11.6,20.7-27.4,29.5-39"/>
    <path class="st0" d="M803.7,482.2c0,9.9-12.1,18-27,18s-27-8.1-27-18,12.1-18,27-18,27,8.1,27,18"/>
    <text class="st2" transform="translate(767.3 487.3)"><tspan x="0" y="0">l</tspan></text>
    <text class="st4" transform="translate(771 491)"><tspan class="st49" x="0" y="0">2</tspan><tspan class="st53" x="6" y="0">,</tspan><tspan x="9" y="0">2</tspan></text>
    <path class="st0" d="M772.1,464.2c-3-11-6.9-25.3-9.8-36.3"/>
    <path class="st15" d="M867,410.2c0,9.9-12.2,18-27.3,18s-27.3-8.1-27.3-18,12.2-18,27.3-18,27.3,8.1,27.3,18"/>
    <path class="st0" d="M867,410.2c0,9.9-12.2,18-27.3,18s-27.3-8.1-27.3-18,12.2-18,27.3-18,27.3,8.1,27.3,18"/>
    <text class="st2" transform="translate(826.2 415.3)"><tspan x="0" y="0">w</tspan></text>
    <text class="st4" transform="translate(835.2 419)"><tspan x="0" y="0">3</tspan></text>
    <text class="st6" transform="translate(841.2 415.3)"><tspan x="0" y="0">Π</tspan></text>
    <path class="st0" d="M828.3,393.8c-15.5-20.9-43.1-58-58.8-79.2"/>
    <path class="st15" d="M875.7,482.2c0,9.9-12.1,18-27,18s-27-8.1-27-18,12.1-18,27-18,27,8.1,27,18"/>
    <path class="st0" d="M875.7,482.2c0,9.9-12.1,18-27,18s-27-8.1-27-18,12.1-18,27-18,27,8.1,27,18"/>
    <text class="st2" transform="translate(839.3 487.3)"><tspan x="0" y="0">l</tspan></text>
    <text class="st4" transform="translate(843 491)"><tspan class="st49" x="0" y="0">3</tspan><tspan class="st53" x="6" y="0">,</tspan><tspan x="9" y="0">1</tspan></text>
    <path class="st0" d="M846.4,463.9c-1.4-10.8-3.2-24.8-4.6-35.6"/>
    <path class="st50" d="M294.2,564.4c0,9.9-15,18-33.6,18s-33.6-8.1-33.6-18,15-18,33.6-18,33.6,8.1,33.6,18"/>
    <path class="st0" d="M294.2,564.4c0,9.9-15,18-33.6,18s-33.6-8.1-33.6-18,15-18,33.6-18,33.6,8.1,33.6,18"/>
    <text class="st12" transform="translate(242.3 569.6)"><tspan x="0" y="0">∑</tspan></text>
    <text class="st12" transform="translate(255.8 569.6)"><tspan x="0" y="0">/</tspan></text>
    <text class="st12" transform="translate(263.3 569.6)"><tspan x="0" y="0">w</tspan></text>
    <text class="st14" transform="translate(273 573.2)"><tspan x="0" y="0">0</tspan></text>
    <path class="st0" d="M215.7,710.7c0,9.9-12.1,18-27,18s-27-8.1-27-18,12.1-18,27-18,27,8.1,27,18"/>
    <text class="st2" transform="translate(179.3 715.8)"><tspan x="0" y="0">l</tspan></text>
    <text class="st4" transform="translate(183 719.5)"><tspan class="st49" x="0" y="0">1</tspan><tspan class="st54" x="6" y="0">,</tspan><tspan x="9" y="0">1</tspan></text>
    <path class="st0" d="M216,638.7c0,9.9-12.2,18-27.3,18s-27.3-8.1-27.3-18,12.2-18,27.3-18,27.3,8.1,27.3,18"/>
    <text class="st2" transform="translate(175.2 643.8)"><tspan x="0" y="0">w</tspan></text>
    <text class="st4" transform="translate(184.2 647.5)"><tspan x="0" y="0">1</tspan></text>
    <text class="st6" transform="translate(190.2 643.8)"><tspan x="0" y="0">Π</tspan></text>
    <path class="st0" d="M188.7,692.4v-35.6"/>
    <path class="st0" d="M203.2,623c12.2-12.3,29.7-29.8,42.1-42.3"/>
    <path class="st50" d="M289,638.7c0,9.9-12.2,18-27.3,18s-27.3-8.1-27.3-18,12.2-18,27.3-18,27.3,8.1,27.3,18"/>
    <path class="st0" d="M289,638.7c0,9.9-12.2,18-27.3,18s-27.3-8.1-27.3-18,12.2-18,27.3-18,27.3,8.1,27.3,18"/>
    <text class="st11" transform="translate(248.2 643.8)"><tspan x="0" y="0">w</tspan></text>
    <text class="st14" transform="translate(257.2 647.5)"><tspan x="0" y="0">2</tspan></text>
    <text class="st8" transform="translate(263.2 643.8)"><tspan x="0" y="0">Π</tspan></text>
    <path class="st0" d="M261.4,620.2c-.2-11.4-.4-26.1-.5-37.4"/>
    <path class="st0" d="M287.7,710.7c0,9.9-12.1,18-27,18s-27-8.1-27-18,12.1-18,27-18,27,8.1,27,18"/>
    <text class="st2" transform="translate(251.3 715.8)"><tspan x="0" y="0">l</tspan></text>
    <text class="st4" transform="translate(255 719.5)"><tspan class="st49" x="0" y="0">2</tspan><tspan class="st53" x="6" y="0">,</tspan><tspan x="9" y="0">1</tspan></text>
    <path class="st0" d="M260.9,692.4c.2-10.8.4-24.8.5-35.6"/>
    <path class="st50" d="M359.7,710.7c0,9.9-12.1,18-27,18s-27-8.1-27-18,12.1-18,27-18,27,8.1,27,18"/>
    <path class="st0" d="M359.7,710.7c0,9.9-12.1,18-27,18s-27-8.1-27-18,12.1-18,27-18,27,8.1,27,18"/>
    <text class="st11" transform="translate(323.3 715.8)"><tspan x="0" y="0">l</tspan></text>
    <text class="st14" transform="translate(327 719.5)"><tspan class="st49" x="0" y="0">2</tspan><tspan class="st53" x="6" y="0">,</tspan><tspan x="9" y="0">2</tspan></text>
    <path class="st0" d="M317.9,695.2c-12.2-12-29.4-29-41.6-41"/>
  </g>
  <g>
    <path class="st1" d="M308.2,257h572c6,0,12-6,12-12V12.5c0-6-6-12-12-12H308.2c-6,0-12,6-12,12v232.5c0,6,6,12,12,12"/>
    <text class="st3" transform="translate(566.8 252.1)"><tspan class="st18" x="0" y="0">C</tspan><tspan class="st38" x="9" y="0">r</tspan><tspan class="st20" x="13.5" y="0">o</tspan><tspan class="st33" x="20.3" y="0">s</tspan><tspan class="st29" x="25.5" y="0">s</tspan><tspan class="st20" x="30.8" y="0">ov</tspan><tspan class="st31" x="44.3" y="0">e</tspan><tspan class="st17" x="50.3" y="0">r</tspan></text>
    <path class="st1" d="M316.2,226.8h190c6,0,12-6,12-12V20.5c0-6-6-12-12-12h-190c-6,0-12,6-12,12v194.2c0,6,6,12,12,12"/>
    <text class="st3" transform="translate(325.3 221.8)"><tspan class="st40" x="0" y="0">I</tspan><tspan class="st26" x="4.5" y="0">nd</tspan><tspan class="st42" x="18" y="0">i</tspan><tspan class="st26" x="21.8" y="0">v</tspan><tspan class="st42" x="28.5" y="0">i</tspan><tspan class="st26" x="32.3" y="0">d</tspan><tspan class="st20" x="39" y="0">u</tspan><tspan class="st33" x="45.8" y="0">a</tspan><tspan x="51.8" y="0">l</tspan></text>
    <text class="st3" transform="translate(384.6 221.8)"><tspan class="st23" x="0" y="0">c</tspan><tspan class="st26" x="6" y="0">ho</tspan><tspan class="st29" x="19.5" y="0">s</tspan><tspan class="st32" x="24.8" y="0">e</tspan><tspan x="30.8" y="0">n</tspan></text>
    <text class="st3" transform="translate(425.8 221.8)"><tspan class="st35" x="0" y="0">f</tspan><tspan class="st28" x="4.1" y="0">o</tspan><tspan class="st17" x="10.9" y="0">r</tspan></text>
    <text class="st3" transform="translate(444.9 221.8)"><tspan class="st23" x="0" y="0">c</tspan><tspan class="st38" x="6" y="0">r</tspan><tspan class="st26" x="10.5" y="0">o</tspan><tspan class="st29" x="17.3" y="0">ss</tspan><tspan class="st20" x="27.8" y="0">o</tspan><tspan class="st26" x="34.6" y="0">v</tspan><tspan class="st31" x="41.3" y="0">e</tspan><tspan class="st17" x="47.3" y="0">r</tspan></text>
    <path class="st1" d="M538.2,226.8h334c6,0,12-6,12-12V20.5c0-6-6-12-12-12h-334c-6,0-12,6-12,12v194.2c0,6,6,12,12,12"/>
    <text class="st3" transform="translate(652.8 221.8)"><tspan class="st18" x="0" y="0">C</tspan><tspan class="st38" x="9" y="0">r</tspan><tspan class="st20" x="13.5" y="0">o</tspan><tspan class="st33" x="20.3" y="0">s</tspan><tspan class="st29" x="25.5" y="0">s</tspan><tspan class="st20" x="30.8" y="0">ov</tspan><tspan class="st31" x="44.3" y="0">e</tspan><tspan class="st17" x="50.3" y="0">r example</tspan></text>
    <path class="st0" d="M438.2,178.5c0,9.9-12.1,18-27,18s-27-8.1-27-18,12.1-18,27-18,27,8.1,27,18"/>
    <text class="st2" transform="translate(401.8 183.7)"><tspan x="0" y="0">l</tspan></text>
    <text class="st4" transform="translate(405.6 187.3)"><tspan class="st49" x="0" y="0">5</tspan><tspan class="st52" x="6" y="0">,</tspan><tspan x="9" y="0">1</tspan></text>
    <path class="st0" d="M412.8,34.5c0,9.9-15,18-33.6,18s-33.6-8.1-33.6-18,15-18,33.6-18,33.6,8.1,33.6,18"/>
    <text class="st3" transform="translate(360.8 39.7)"><tspan x="0" y="0">∑</tspan></text>
    <text class="st3" transform="translate(374.3 39.7)"><tspan x="0" y="0">/</tspan></text>
    <text class="st3" transform="translate(381.8 39.7)"><tspan x="0" y="0">w</tspan></text>
    <text class="st4" transform="translate(391.6 43.3)"><tspan x="0" y="0">3</tspan></text>
    <path class="st0" d="M366.2,178.5c0,9.9-12.1,18-27,18s-27-8.1-27-18,12.1-18,27-18,27,8.1,27,18"/>
    <text class="st2" transform="translate(329.8 183.7)"><tspan x="0" y="0">l</tspan></text>
    <text class="st4" transform="translate(333.6 187.3)"><tspan class="st48" x="0" y="0">4</tspan><tspan class="st55" x="6" y="0">,</tspan><tspan x="9" y="0">1</tspan></text>
    <path class="st0" d="M366.6,106.5c0,9.9-12.2,18-27.3,18s-27.3-8.1-27.3-18,12.2-18,27.3-18,27.3,8.1,27.3,18"/>
    <text class="st2" transform="translate(325.7 111.7)"><tspan x="0" y="0">w</tspan></text>
    <text class="st4" transform="translate(334.7 115.3)"><tspan x="0" y="0">4</tspan></text>
    <text class="st6" transform="translate(340.7 111.7)"><tspan x="0" y="0">Π</tspan></text>
    <path class="st0" d="M339.2,160.2v-35.6"/>
    <path class="st0" d="M348.5,89.3c6.4-11.1,14.8-25.9,21.2-37.1"/>
    <path class="st0" d="M439.6,106.5c0,9.9-12.2,18-27.3,18s-27.3-8.1-27.3-18,12.2-18,27.3-18,27.3,8.1,27.3,18"/>
    <text class="st2" transform="translate(398.7 111.7)"><tspan x="0" y="0">w</tspan></text>
    <text class="st4" transform="translate(407.7 115.3)"><tspan x="0" y="0">5</tspan></text>
    <text class="st6" transform="translate(413.7 111.7)"><tspan x="0" y="0">Π</tspan></text>
    <path class="st0" d="M404.4,88.9c-5.2-11-12-25.4-17.2-36.5"/>
    <path class="st0" d="M411.5,160.2c.2-10.8.4-24.8.5-35.6"/>
    <path class="st0" d="M510.2,178.5c0,9.9-12.1,18-27,18s-27-8.1-27-18,12.1-18,27-18,27,8.1,27,18"/>
    <text class="st2" transform="translate(473.8 183.7)"><tspan x="0" y="0">l</tspan></text>
    <text class="st4" transform="translate(477.6 187.3)"><tspan class="st49" x="0" y="0">5</tspan><tspan class="st52" x="6" y="0">,</tspan><tspan x="9" y="0">2</tspan></text>
    <path class="st0" d="M468.5,163c-12.2-12-29.4-29-41.6-41"/>
    <path class="st50" d="M719.8,34.5c0,9.9-15,18-33.6,18s-33.6-8.1-33.6-18,15-18,33.6-18,33.6,8.1,33.6,18"/>
    <path class="st0" d="M719.8,34.5c0,9.9-15,18-33.6,18s-33.6-8.1-33.6-18,15-18,33.6-18,33.6,8.1,33.6,18"/>
    <text class="st12" transform="translate(667.8 39.7)"><tspan x="0" y="0">∑</tspan></text>
    <text class="st12" transform="translate(681.3 39.7)"><tspan x="0" y="0">/</tspan></text>
    <text class="st12" transform="translate(688.8 39.7)"><tspan x="0" y="0">w</tspan></text>
    <text class="st14" transform="translate(698.6 43.3)"><tspan x="0" y="0">0</tspan></text>
    <path class="st0" d="M588.2,178.5c0,9.9-12.1,18-27,18s-27-8.1-27-18,12.1-18,27-18,27,8.1,27,18"/>
    <text class="st2" transform="translate(551.8 183.7)"><tspan x="0" y="0">l</tspan></text>
    <text class="st4" transform="translate(555.6 187.3)"><tspan class="st49" x="0" y="0">1</tspan><tspan class="st54" x="6" y="0">,</tspan><tspan x="9" y="0">1</tspan></text>
    <path class="st0" d="M623.6,106.5c0,9.9-12.2,18-27.3,18s-27.3-8.1-27.3-18,12.2-18,27.3-18,27.3,8.1,27.3,18"/>
    <text class="st2" transform="translate(582.7 111.7)"><tspan x="0" y="0">w</tspan></text>
    <text class="st4" transform="translate(591.7 115.3)"><tspan x="0" y="0">1</tspan></text>
    <text class="st6" transform="translate(597.7 111.7)"><tspan x="0" y="0">Π</tspan></text>
    <path class="st0" d="M569.5,160.9c5.6-11.2,12.9-25.8,18.5-36.9"/>
    <path class="st0" d="M613.1,92.3c15.6-12.1,38.6-30.1,54.7-42.5"/>
    <path class="st0" d="M713.6,106.5c0,9.9-12.2,18-27.3,18s-27.3-8.1-27.3-18,12.2-18,27.3-18,27.3,8.1,27.3,18"/>
    <text class="st2" transform="translate(672.7 111.7)"><tspan x="0" y="0">w</tspan></text>
    <text class="st4" transform="translate(681.7 115.3)"><tspan x="0" y="0">2</tspan></text>
    <text class="st6" transform="translate(687.7 111.7)"><tspan x="0" y="0">Π</tspan></text>
    <path class="st0" d="M686.2,88.2v-35.6"/>
    <path class="st0" d="M660.2,178.5c0,9.9-12.1,18-27,18s-27-8.1-27-18,12.1-18,27-18,27,8.1,27,18"/>
    <text class="st2" transform="translate(623.8 183.7)"><tspan x="0" y="0">l</tspan></text>
    <text class="st4" transform="translate(627.6 187.3)"><tspan class="st49" x="0" y="0">2</tspan><tspan class="st54" x="6" y="0">,</tspan><tspan x="9" y="0">1</tspan></text>
    <path class="st0" d="M645,162c8.8-11.6,20.7-27.4,29.5-39"/>
    <path class="st0" d="M732.2,178.5c0,9.9-12.1,18-27,18s-27-8.1-27-18,12.1-18,27-18,27,8.1,27,18"/>
    <text class="st2" transform="translate(695.8 183.7)"><tspan x="0" y="0">l</tspan></text>
    <text class="st4" transform="translate(699.6 187.3)"><tspan class="st49" x="0" y="0">2</tspan><tspan class="st54" x="6" y="0">,</tspan><tspan x="9" y="0">2</tspan></text>
    <path class="st0" d="M700.6,160.6c-3-11-6.9-25.3-9.8-36.3"/>
    <path class="st15" d="M804.6,106.5c0,9.9-12.2,18-27.3,18s-27.3-8.1-27.3-18,12.2-18,27.3-18,27.3,8.1,27.3,18"/>
    <path class="st0" d="M804.6,106.5c0,9.9-12.2,18-27.3,18s-27.3-8.1-27.3-18,12.2-18,27.3-18,27.3,8.1,27.3,18"/>
    <text class="st2" transform="translate(763.7 111.7)"><tspan x="0" y="0">w</tspan></text>
    <text class="st4" transform="translate(772.7 115.3)"><tspan x="0" y="0">5</tspan></text>
    <text class="st6" transform="translate(778.7 111.7)"><tspan x="0" y="0">Π</tspan></text>
    <path class="st0" d="M760.1,92.3c-15.8-12.1-39.1-30.1-55.3-42.5"/>
    <path class="st15" d="M804.2,178.5c0,9.9-12.1,18-27,18s-27-8.1-27-18,12.1-18,27-18,27,8.1,27,18"/>
    <path class="st0" d="M804.2,178.5c0,9.9-12.1,18-27,18s-27-8.1-27-18,12.1-18,27-18,27,8.1,27,18"/>
    <text class="st2" transform="translate(767.8 183.7)"><tspan x="0" y="0">l</tspan></text>
    <text class="st4" transform="translate(771.6 187.3)"><tspan class="st49" x="0" y="0">5</tspan><tspan class="st54" x="6" y="0">,</tspan><tspan x="9" y="0">1</tspan></text>
    <path class="st0" d="M777.2,160.2v-35.6"/>
    <path class="st15" d="M876.2,178.5c0,9.9-12.1,18-27,18s-27-8.1-27-18,12.1-18,27-18,27,8.1,27,18"/>
    <path class="st0" d="M876.2,178.5c0,9.9-12.1,18-27,18s-27-8.1-27-18,12.1-18,27-18,27,8.1,27,18"/>
    <text class="st2" transform="translate(839.8 183.7)"><tspan x="0" y="0">l</tspan></text>
    <text class="st4" transform="translate(843.6 187.3)"><tspan class="st49" x="0" y="0">5</tspan><tspan class="st54" x="6" y="0">,</tspan><tspan x="9" y="0">2</tspan></text>
    <path class="st0" d="M834.3,163c-12.4-12-29.8-29-42.2-41"/>
  </g>
  <g>
    <g>
      <path class="st1" d="M54.5,589.1c0,9.9-12.1,18-27,18s-27-8.1-27-18,12.1-18,27-18,27,8.1,27,18"/>
      <text class="st10" transform="translate(18.9 594.3)"><tspan class="st34" x="0" y="0">x</tspan><tspan class="st19" x="5.6" y="0">y</tspan><tspan class="st17" x="11.5" y="0">z</tspan></text>
      <text class="st3" transform="translate(61.5 594.4)"><tspan class="st20" x="0" y="0">d</tspan><tspan class="st31" x="6.7" y="0">e</tspan><tspan class="st45" x="12.8" y="0">l</tspan><tspan class="st30" x="16.5" y="0">e</tspan><tspan class="st44" x="22.5" y="0">t</tspan><tspan class="st23" x="26.3" y="0">e</tspan><tspan x="32.3" y="0">d</tspan></text>
      <path class="st15" d="M54.5,535.1c0,9.9-12.1,18-27,18s-27-8.1-27-18,12.1-18,27-18,27,8.1,27,18"/>
      <path class="st0" d="M54.5,535.1c0,9.9-12.1,18-27,18s-27-8.1-27-18,12.1-18,27-18,27,8.1,27,18"/>
      <text class="st2" transform="translate(18.9 540.3)"><tspan class="st34" x="0" y="0">x</tspan><tspan class="st19" x="5.6" y="0">y</tspan><tspan class="st17" x="11.5" y="0">z</tspan></text>
      <text class="st3" transform="translate(61.5 540.4)"><tspan class="st20" x="0" y="0">n</tspan><tspan class="st31" x="6.7" y="0">e</tspan><tspan class="st16" x="12.8" y="0">w</tspan></text>
      <path class="st50" d="M54.5,481.1c0,9.9-12.1,18-27,18S.5,491.1.5,481.1s12.1-18,27-18,27,8.1,27,18"/>
      <path class="st0" d="M54.5,481.1c0,9.9-12.1,18-27,18S.5,491.1.5,481.1s12.1-18,27-18,27,8.1,27,18"/>
      <text class="st11" transform="translate(18.9 486.3)"><tspan class="st34" x="0" y="0">x</tspan><tspan class="st19" x="5.6" y="0">y</tspan><tspan class="st17" x="11.5" y="0">z</tspan></text>
      <text class="st3" transform="translate(61.5 486.4)"><tspan class="st51" x="0" y="0">m</tspan><tspan class="st20" x="11.3" y="0">od</tspan><tspan x="24.8" y="0">i</tspan></text>
      <path class="st5" d="M90.5,486.2c.4,0,.6,0,.7-.2.1-.1.2-.4.2-.9v-4.5h-1v-.4h1c0-1,.3-1.8.7-2.4.5-.6,1.2-.9,2.2-.9s.8.1,1.2.3c.4.2.5.4.5.7s0,.3-.1.4c0,.1-.2.2-.4.2s-.4-.2-.7-.6c-.3-.4-.6-.6-.9-.6s-.6,0-.7.2c-.2.1-.4.3-.5.6,0,.2-.1.5-.2.7,0,.2,0,.7,0,1.4h1.9c.2,0,.3,0,.6,0,.2,0,.4,0,.5,0,0,0,.1,0,.3,0,.2,0,.3,0,.3,0s0,0,0,0c0,0,0,0,0,.1s0,.2,0,.4v.3c0,.1,0,.2,0,.3,0,0,0,.2,0,.3v3.7c0,.5,0,.8.2.9.1.1.4.2.8.3v.2h-3.1v-.2c.4,0,.7-.1.8-.2.1-.1.2-.4.2-.9v-3.7c0-.3,0-.5-.1-.6,0,0-.3-.1-.6-.1-.2,0-.4,0-.5,0-.3,0-.8,0-1.3,0v4.6c0,.4,0,.7.3.8.1,0,.4.2.7.2v.2h-3.1v-.2Z"/>
      <text class="st3" transform="translate(97.5 486.4)"><tspan class="st23" x="0" y="0">e</tspan><tspan x="6" y="0">d</tspan></text>
      <path class="st0" d="M54.5,427.1c0,9.9-12.1,18-27,18S.5,437.1.5,427.1s12.1-18,27-18,27,8.1,27,18"/>
      <text class="st2" transform="translate(18.9 432.3)"><tspan class="st34" x="0" y="0">x</tspan><tspan class="st19" x="5.6" y="0">y</tspan><tspan class="st17" x="11.5" y="0">z</tspan></text>
      <text class="st3" transform="translate(61.5 432.4)"><tspan class="st20" x="0" y="0">un</tspan><tspan class="st51" x="13.5" y="0">m</tspan><tspan class="st28" x="24.8" y="0">o</tspan><tspan class="st24" x="31.5" y="0">d</tspan><tspan x="38.3" y="0">i</tspan></text>
      <path class="st5" d="M103.9,432.2c.4,0,.6,0,.7-.2.1-.1.2-.4.2-.9v-4.5h-1v-.4h1c0-1,.3-1.8.7-2.4.5-.6,1.2-.9,2.2-.9s.8.1,1.2.3c.4.2.5.4.5.7s0,.3-.1.4c0,.1-.2.2-.4.2s-.4-.2-.7-.6c-.3-.4-.6-.6-.9-.6s-.6,0-.7.2c-.2.1-.4.3-.5.6,0,.2-.1.5-.2.7,0,.2,0,.7,0,1.4h1.9c.2,0,.3,0,.6,0,.2,0,.4,0,.5,0,0,0,.1,0,.3,0,.2,0,.3,0,.3,0s0,0,0,0c0,0,0,0,0,.1s0,.2,0,.4v.3c0,.1,0,.2,0,.3,0,0,0,.2,0,.3v3.7c0,.5,0,.8.2.9.1.1.4.2.8.3v.2h-3.1v-.2c.4,0,.7-.1.8-.2.1-.1.2-.4.2-.9v-3.7c0-.3,0-.5-.1-.6,0,0-.3-.1-.6-.1-.2,0-.4,0-.5,0-.3,0-.8,0-1.3,0v4.6c0,.4,0,.7.3.8.1,0,.4.2.7.2v.2h-3.1v-.2Z"/>
      <text class="st3" transform="translate(111 432.4)"><tspan class="st23" x="0" y="0">e</tspan><tspan x="6" y="0">d</tspan></text>
    </g>
    <text class="st7" transform="translate(35.7 378.2)"><tspan x="0" y="0">Legend</tspan></text>
  </g>
</svg>