<?xml version="1.0" encoding="UTF-8" standalone="no"?><svg xmlns="http://www.w3.org/2000/svg" xmlns:xlink="http://www.w3.org/1999/xlink" contentScriptType="application/ecmascript" contentStyleType="text/css" height="281px" preserveAspectRatio="none" style="width:487px;height:281px;background:#000000;" version="1.1" viewBox="0 0 487 281" width="487px" zoomAndPan="magnify"><defs><filter height="300%" id="fhdwoj8ep09k" width="300%" x="-1" y="-1"><feGaussianBlur result="blurOut" stdDeviation="2.0"/><feColorMatrix in="blurOut" result="blurOut2" type="matrix" values="0 0 0 0 0 0 0 0 0 0 0 0 0 0 0 0 0 0 .4 0"/><feOffset dx="4.0" dy="4.0" in="blurOut2" result="blurOut3"/><feBlend in="SourceGraphic" in2="blurOut3" mode="normal"/></filter></defs><g><!--MD5=[64ded33063b381d0c076867f0602b0cd]
cluster Core Ports (driving)--><rect fill="#000000" filter="url(#fhdwoj8ep09k)" height="105" style="stroke: #FFFFFF; stroke-width: 1.5;" width="202" x="31" y="165"/><text fill="#FFFFFF" font-family="Helvetica" font-size="12" font-weight="bold" lengthAdjust="spacingAndGlyphs" textLength="112" x="76" y="176.2402">Core Ports (driving)</text><!--MD5=[2c2e2644034c00788261e03c85b06837]
cluster Core--><rect fill="#000000" filter="url(#fhdwoj8ep09k)" height="117" style="stroke: #FFFFFF; stroke-width: 1.5;" width="220" x="22" y="24"/><text fill="#FFFFFF" font-family="Helvetica" font-size="12" font-weight="bold" lengthAdjust="spacingAndGlyphs" textLength="28" x="118" y="35.2402">Core</text><!--MD5=[58cd0fc95685ab825995d15636045f4d]
cluster Core Ports (driven)--><rect fill="#000000" filter="url(#fhdwoj8ep09k)" height="105" style="stroke: #FFFFFF; stroke-width: 1.5;" width="210" x="266" y="30"/><text fill="#FFFFFF" font-family="Helvetica" font-size="12" font-weight="bold" lengthAdjust="spacingAndGlyphs" textLength="109" x="316.5" y="41.2402">Core Ports (driven)</text><!--MD5=[06e48cd7e9da3e1a2b98125e6afa94c0]
class GetAnswerCommand--><rect fill="#070707" filter="url(#fhdwoj8ep09k)" height="58" id="GetAnswerCommand" style="stroke: #C7C7C7; stroke-width: 1.5;" width="169" x="47.5" y="196"/><ellipse cx="71.4" cy="211" fill="#4E4E4E" rx="10" ry="10" style="stroke: #C7C7C7; stroke-width: 1.0;"/><path d="M68.9078,208.2754 L68.9078,206.752 L74.1168,206.752 L74.1168,208.2754 L72.3766,208.2754 L72.3766,213.9766 L74.1168,213.9766 L74.1168,215.5 L68.9078,215.5 L68.9078,213.9766 L70.648,213.9766 L70.648,208.2754 Z "/><text fill="#FFFFFF" font-family="Helvetica" font-size="12" font-style="italic" lengthAdjust="spacingAndGlyphs" textLength="117" x="86.6" y="214.2402">GetAnswerCommand</text><line style="stroke: #C7C7C7; stroke-width: 1.5;" x1="48.5" x2="215.5" y1="226" y2="226"/><line style="stroke: #C7C7C7; stroke-width: 1.5;" x1="48.5" x2="215.5" y1="234" y2="234"/><text fill="#FFFFFF" font-family="Helvetica" font-size="12" lengthAdjust="spacingAndGlyphs" textLength="157" x="53.5" y="247.2402">String Execute(String inDTO)</text><!--MD5=[a3624a2a5a43b8ade92fe710669ccfb9]
class CommandHandler--><rect fill="#070707" filter="url(#fhdwoj8ep09k)" height="70" id="CommandHandler" style="stroke: #C7C7C7; stroke-width: 1.5;" width="187" x="38.5" y="55"/><ellipse cx="70.5" cy="70" fill="#3D3D3D" rx="10" ry="10" style="stroke: #C7C7C7; stroke-width: 1.0;"/><path d="M72.334,74.248 Q71.9238,74.459 71.4727,74.5645 Q71.0215,74.6699 70.5234,74.6699 Q68.7539,74.6699 67.8223,73.5039 Q66.8906,72.3379 66.8906,70.1348 Q66.8906,67.9258 67.8223,66.7598 Q68.7539,65.5938 70.5234,65.5938 Q71.0215,65.5938 71.4785,65.6992 Q71.9355,65.8047 72.334,66.0156 L72.334,67.9375 Q71.8887,67.5273 71.4697,67.3369 Q71.0508,67.1465 70.6055,67.1465 Q69.6563,67.1465 69.1729,67.8994 Q68.6895,68.6523 68.6895,70.1348 Q68.6895,71.6113 69.1729,72.3643 Q69.6563,73.1172 70.6055,73.1172 Q71.0508,73.1172 71.4697,72.9268 Q71.8887,72.7363 72.334,72.3262 Z "/><text fill="#FFFFFF" font-family="Helvetica" font-size="12" lengthAdjust="spacingAndGlyphs" textLength="117" x="87.5" y="73.2402">GetAnswerCommand</text><line style="stroke: #C7C7C7; stroke-width: 1.5;" x1="39.5" x2="224.5" y1="85" y2="85"/><text fill="#FFFFFF" font-family="Helvetica" font-size="12" lengthAdjust="spacingAndGlyphs" textLength="175" x="44.5" y="98.2402">SuperComputer superComputer</text><line style="stroke: #C7C7C7; stroke-width: 1.5;" x1="39.5" x2="224.5" y1="105" y2="105"/><text fill="#FFFFFF" font-family="Helvetica" font-size="12" lengthAdjust="spacingAndGlyphs" textLength="157" x="44.5" y="118.2402">String Execute(String inDTO)</text><!--MD5=[d3aff4ca2bbc97cfc6e1ae926168f002]
class SuperComputer--><rect fill="#070707" filter="url(#fhdwoj8ep09k)" height="58" id="SuperComputer" style="stroke: #C7C7C7; stroke-width: 1.5;" width="177" x="282.5" y="61"/><ellipse cx="323.5" cy="76" fill="#4E4E4E" rx="10" ry="10" style="stroke: #C7C7C7; stroke-width: 1.0;"/><path d="M321.0078,73.2754 L321.0078,71.752 L326.2168,71.752 L326.2168,73.2754 L324.4766,73.2754 L324.4766,78.9766 L326.2168,78.9766 L326.2168,80.5 L321.0078,80.5 L321.0078,78.9766 L322.748,78.9766 L322.748,73.2754 Z "/><text fill="#FFFFFF" font-family="Helvetica" font-size="12" font-style="italic" lengthAdjust="spacingAndGlyphs" textLength="87" x="342.5" y="79.2402">SuperComputer</text><line style="stroke: #C7C7C7; stroke-width: 1.5;" x1="283.5" x2="458.5" y1="91" y2="91"/><line style="stroke: #C7C7C7; stroke-width: 1.5;" x1="283.5" x2="458.5" y1="99" y2="99"/><text fill="#FFFFFF" font-family="Helvetica" font-size="12" lengthAdjust="spacingAndGlyphs" textLength="165" x="288.5" y="112.2402">String answer(String question)</text><!--MD5=[908f88ae920323878b98eaebfd5be457]
link CommandHandler to GetAnswerCommand--><path d="M132,125.25 C132,140.53 132,158.82 132,175.47 " fill="none" id="CommandHandler-&gt;GetAnswerCommand" style="stroke: #C7C7C7; stroke-width: 1.0; stroke-dasharray: 7.0,7.0;"/><polygon fill="none" points="139,175.7,132,195.7,125,175.7,139,175.7" style="stroke: #C7C7C7; stroke-width: 1.0;"/><!--MD5=[93e355b9f950b36252b34bd595c2205c]
link CommandHandler to SuperComputer--><path d="M225.83,90 C242.87,90 259.92,90 276.96,90 " fill="none" id="CommandHandler-&gt;SuperComputer" style="stroke: #C7C7C7; stroke-width: 1.0;"/><polygon fill="#C7C7C7" points="282.25,90,273.25,86,277.25,90,273.25,94,282.25,90" style="stroke: #C7C7C7; stroke-width: 1.0;"/><!--MD5=[1f301ec1d75716260dd251e3d5f0b214]
@startuml
skinparam monochrome reverse
skinparam componentStyle uml2
skinparam defaultFont {
    Size 12
    Name Helvetica
}
skinparam backgroundColor white

package "Core Ports (driving)" <<Rectangle>> {
    interface GetAnswerCommand {
            {method} String Execute(String inDTO)
    }

}

package "Core" <<Rectangle>> {
    class "GetAnswerCommand" as CommandHandler {
        SuperComputer superComputer
        {method} String Execute(String inDTO)
    }
}

package "Core Ports (driven)" <<Rectangle>> {
        interface SuperComputer {
            String answer(String question) 
        }
}

CommandHandler ..|> GetAnswerCommand
CommandHandler -> SuperComputer
@enduml

PlantUML version 1.2020.06(Sun Apr 05 14:38:32 CEST 2020)
(GPL source distribution)
Java Runtime: OpenJDK Runtime Environment
JVM: OpenJDK 64-Bit Server VM
Java Version: 11.0.11+9
Operating System: Mac OS X
Default Encoding: UTF-8
Language: de
Country: DE
--></g></svg>