<?xml version="1.0" encoding="UTF-8" standalone="no"?><svg xmlns="http://www.w3.org/2000/svg" xmlns:xlink="http://www.w3.org/1999/xlink" contentScriptType="application/ecmascript" contentStyleType="text/css" height="281px" preserveAspectRatio="none" style="width:431px;height:281px;background:#000000;" version="1.1" viewBox="0 0 431 281" width="431px" zoomAndPan="magnify"><defs><filter height="300%" id="f1mc7wnprc2jcd" width="300%" x="-1" y="-1"><feGaussianBlur result="blurOut" stdDeviation="2.0"/><feColorMatrix in="blurOut" result="blurOut2" type="matrix" values="0 0 0 0 0 0 0 0 0 0 0 0 0 0 0 0 0 0 .4 0"/><feOffset dx="4.0" dy="4.0" in="blurOut2" result="blurOut3"/><feBlend in="SourceGraphic" in2="blurOut3" mode="normal"/></filter></defs><g><!--MD5=[58cd0fc95685ab825995d15636045f4d]
cluster Core Ports (driven)--><rect fill="#000000" filter="url(#f1mc7wnprc2jcd)" height="105" style="stroke: #FFFFFF; stroke-width: 1.5;" width="210" x="35" y="165"/><text fill="#FFFFFF" font-family="Helvetica" font-size="12" font-weight="bold" lengthAdjust="spacingAndGlyphs" textLength="109" x="85.5" y="176.2402">Core Ports (driven)</text><!--MD5=[afbd3dd4b684d727eb07508c2fb8c3a3]
cluster Infrastructure Adapters--><rect fill="#000000" filter="url(#f1mc7wnprc2jcd)" height="117" style="stroke: #FFFFFF; stroke-width: 1.5;" width="236" x="22" y="24"/><text fill="#FFFFFF" font-family="Helvetica" font-size="12" font-weight="bold" lengthAdjust="spacingAndGlyphs" textLength="135" x="72.5" y="35.2402">Infrastructure Adapters</text><!--MD5=[9ddaf8ee8bcae11a9a9232f969198262]
cluster Infrastructure--><rect fill="#000000" filter="url(#f1mc7wnprc2jcd)" height="93" style="stroke: #FFFFFF; stroke-width: 1.5;" width="138" x="282" y="36"/><text fill="#FFFFFF" font-family="Helvetica" font-size="12" font-weight="bold" lengthAdjust="spacingAndGlyphs" textLength="79" x="311.5" y="47.2402">Infrastructure</text><!--MD5=[d3aff4ca2bbc97cfc6e1ae926168f002]
class SuperComputer--><rect fill="#070707" filter="url(#f1mc7wnprc2jcd)" height="58" id="SuperComputer" style="stroke: #C7C7C7; stroke-width: 1.5;" width="177" x="51.5" y="196"/><ellipse cx="92.5" cy="211" fill="#4E4E4E" rx="10" ry="10" style="stroke: #C7C7C7; stroke-width: 1.0;"/><path d="M89.5078,208.2754 L89.5078,206.752 L94.7168,206.752 L94.7168,208.2754 L92.9766,208.2754 L92.9766,213.9766 L94.7168,213.9766 L94.7168,215.5 L89.5078,215.5 L89.5078,213.9766 L91.248,213.9766 L91.248,208.2754 Z "/><text fill="#FFFFFF" font-family="Helvetica" font-size="12" font-style="italic" lengthAdjust="spacingAndGlyphs" textLength="87" x="111.5" y="214.2402">SuperComputer</text><line style="stroke: #C7C7C7; stroke-width: 1.5;" x1="52.5" x2="227.5" y1="226" y2="226"/><line style="stroke: #C7C7C7; stroke-width: 1.5;" x1="52.5" x2="227.5" y1="234" y2="234"/><text fill="#FFFFFF" font-family="Helvetica" font-size="12" lengthAdjust="spacingAndGlyphs" textLength="165" x="57.5" y="247.2402">String answer(String question)</text><!--MD5=[efff9d47250f8650119fc9690069f7e6]
class SuperComputerAdapter--><rect fill="#070707" filter="url(#f1mc7wnprc2jcd)" height="70" id="SuperComputerAdapter" style="stroke: #C7C7C7; stroke-width: 1.5;" width="203" x="38.5" y="55"/><ellipse cx="71.85" cy="70" fill="#3D3D3D" rx="10" ry="10" style="stroke: #C7C7C7; stroke-width: 1.0;"/><path d="M73.684,74.248 Q73.2738,74.459 72.8227,74.5645 Q72.3715,74.6699 71.8734,74.6699 Q70.1039,74.6699 69.1723,73.5039 Q68.2406,72.3379 68.2406,70.1348 Q68.2406,67.9258 69.1723,66.7598 Q70.1039,65.5938 71.8734,65.5938 Q72.3715,65.5938 72.8285,65.6992 Q73.2855,65.8047 73.684,66.0156 L73.684,67.9375 Q73.2387,67.5273 72.8197,67.3369 Q72.4008,67.1465 71.9555,67.1465 Q71.0063,67.1465 70.5229,67.8994 Q70.0395,68.6523 70.0395,70.1348 Q70.0395,71.6113 70.5229,72.3643 Q71.0063,73.1172 71.9555,73.1172 Q72.4008,73.1172 72.8197,72.9268 Q73.2387,72.7363 73.684,72.3262 Z "/><text fill="#FFFFFF" font-family="Helvetica" font-size="12" lengthAdjust="spacingAndGlyphs" textLength="130" x="89.15" y="73.2402">SuperComputerAdapter</text><line style="stroke: #C7C7C7; stroke-width: 1.5;" x1="39.5" x2="240.5" y1="85" y2="85"/><text fill="#FFFFFF" font-family="Helvetica" font-size="12" lengthAdjust="spacingAndGlyphs" textLength="191" x="44.5" y="98.2402">private DeepThought deepThought</text><line style="stroke: #C7C7C7; stroke-width: 1.5;" x1="39.5" x2="240.5" y1="105" y2="105"/><text fill="#FFFFFF" font-family="Helvetica" font-size="12" lengthAdjust="spacingAndGlyphs" textLength="165" x="44.5" y="118.2402">String answer(String question)</text><!--MD5=[4d85bf6dbbe8f9e562b4d196b7dd6cbc]
class DeepThought--><rect fill="#070707" filter="url(#f1mc7wnprc2jcd)" height="46" id="DeepThought" style="stroke: #C7C7C7; stroke-width: 1.5;" width="105" x="298.5" y="67"/><ellipse cx="312.5" cy="82" fill="#3D3D3D" rx="10" ry="10" style="stroke: #C7C7C7; stroke-width: 1.0;"/><path d="M314.334,86.248 Q313.9238,86.459 313.4727,86.5645 Q313.0215,86.6699 312.5234,86.6699 Q310.7539,86.6699 309.8223,85.5039 Q308.8906,84.3379 308.8906,82.1348 Q308.8906,79.9258 309.8223,78.7598 Q310.7539,77.5938 312.5234,77.5938 Q313.0215,77.5938 313.4785,77.6992 Q313.9355,77.8047 314.334,78.0156 L314.334,79.9375 Q313.8887,79.5273 313.4697,79.3369 Q313.0508,79.1465 312.6055,79.1465 Q311.6563,79.1465 311.1729,79.8994 Q310.6895,80.6523 310.6895,82.1348 Q310.6895,83.6113 311.1729,84.3643 Q311.6563,85.1172 312.6055,85.1172 Q313.0508,85.1172 313.4697,84.9268 Q313.8887,84.7363 314.334,84.3262 Z "/><text fill="#FFFFFF" font-family="Helvetica" font-size="12" lengthAdjust="spacingAndGlyphs" textLength="75" x="325.5" y="85.2402">DeepThought</text><line style="stroke: #C7C7C7; stroke-width: 1.5;" x1="299.5" x2="402.5" y1="97" y2="97"/><line style="stroke: #C7C7C7; stroke-width: 1.5;" x1="299.5" x2="402.5" y1="105" y2="105"/><!--MD5=[755254e845bc2e47eaa94508919eb7bb]
link SuperComputerAdapter to SuperComputer--><path d="M140,125.25 C140,140.53 140,158.82 140,175.47 " fill="none" id="SuperComputerAdapter-&gt;SuperComputer" style="stroke: #C7C7C7; stroke-width: 1.0; stroke-dasharray: 7.0,7.0;"/><polygon fill="none" points="147,175.7,140,195.7,133,175.7,147,175.7" style="stroke: #C7C7C7; stroke-width: 1.0;"/><!--MD5=[5613ca2cab799523eda78b718facb1f1]
link SuperComputerAdapter to DeepThought--><path d="M241.79,90 C258.8,90 275.81,90 292.82,90 " fill="none" id="SuperComputerAdapter-&gt;DeepThought" style="stroke: #C7C7C7; stroke-width: 1.0;"/><polygon fill="#C7C7C7" points="298.1,90,289.1,86,293.1,90,289.1,94,298.1,90" style="stroke: #C7C7C7; stroke-width: 1.0;"/><!--MD5=[1b5de6f9b95c6c49f5a1192a5f68443e]
@startuml
skinparam monochrome reverse
skinparam componentStyle uml2
skinparam defaultFont {
    Size 12
    Name Helvetica
}
skinparam backgroundColor white

package "Core Ports (driven)" <<Rectangle>> {
        interface SuperComputer {
            String answer(String question) 
        }
}

package "Infrastructure Adapters" <<Rectangle>> {
        class SuperComputerAdapter {
            private DeepThought deepThought
            String answer(String question) 
        }
}

package "Infrastructure" <<Rectangle>> {
    class DeepThought 
}

SuperComputerAdapter ..|> SuperComputer
SuperComputerAdapter -> DeepThought
@enduml

PlantUML version 1.2020.06(Sun Apr 05 14:38:32 CEST 2020)
(GPL source distribution)
Java Runtime: Java(TM) SE Runtime Environment
JVM: Java HotSpot(TM) 64-Bit Server VM
Java Version: 1.8.0_131-b11
Operating System: Mac OS X
Default Encoding: UTF-8
Language: de
Country: DE
--></g></svg>