<?xml version="1.0" encoding="us-ascii" standalone="no"?><svg xmlns="http://www.w3.org/2000/svg" xmlns:xlink="http://www.w3.org/1999/xlink" contentStyleType="text/css" height="290px" preserveAspectRatio="none" style="width:730px;height:290px;background:#000000;" version="1.1" viewBox="0 0 730 290" width="730px" zoomAndPan="magnify"><defs/><g><line style="stroke:#3F3F3F;stroke-width:1.0;" x1="0" x2="0" y1="0" y2="274"/><line style="stroke:#3F3F3F;stroke-width:1.0;" x1="16" x2="16" y1="0" y2="274"/><line style="stroke:#3F3F3F;stroke-width:1.0;" x1="32" x2="32" y1="0" y2="274"/><line style="stroke:#3F3F3F;stroke-width:1.0;" x1="48" x2="48" y1="0" y2="274"/><line style="stroke:#3F3F3F;stroke-width:1.0;" x1="64" x2="64" y1="0" y2="274"/><line style="stroke:#3F3F3F;stroke-width:1.0;" x1="80" x2="80" y1="0" y2="274"/><line style="stroke:#3F3F3F;stroke-width:1.0;" x1="96" x2="96" y1="0" y2="274"/><line style="stroke:#3F3F3F;stroke-width:1.0;" x1="112" x2="112" y1="0" y2="274"/><line style="stroke:#3F3F3F;stroke-width:1.0;" x1="128" x2="128" y1="0" y2="274"/><line style="stroke:#3F3F3F;stroke-width:1.0;" x1="144" x2="144" y1="0" y2="274"/><line style="stroke:#3F3F3F;stroke-width:1.0;" x1="160" x2="160" y1="0" y2="274"/><line style="stroke:#3F3F3F;stroke-width:1.0;" x1="176" x2="176" y1="0" y2="274"/><line style="stroke:#3F3F3F;stroke-width:1.0;" x1="192" x2="192" y1="0" y2="274"/><line style="stroke:#3F3F3F;stroke-width:1.0;" x1="208" x2="208" y1="0" y2="274"/><line style="stroke:#3F3F3F;stroke-width:1.0;" x1="224" x2="224" y1="0" y2="274"/><line style="stroke:#3F3F3F;stroke-width:1.0;" x1="240" x2="240" y1="0" y2="274"/><line style="stroke:#3F3F3F;stroke-width:1.0;" x1="256" x2="256" y1="0" y2="274"/><line style="stroke:#3F3F3F;stroke-width:1.0;" x1="272" x2="272" y1="0" y2="274"/><line style="stroke:#3F3F3F;stroke-width:1.0;" x1="288" x2="288" y1="0" y2="274"/><line style="stroke:#3F3F3F;stroke-width:1.0;" x1="304" x2="304" y1="0" y2="274"/><line style="stroke:#3F3F3F;stroke-width:1.0;" x1="320" x2="320" y1="0" y2="274"/><line style="stroke:#3F3F3F;stroke-width:1.0;" x1="336" x2="336" y1="0" y2="274"/><line style="stroke:#3F3F3F;stroke-width:1.0;" x1="352" x2="352" y1="0" y2="274"/><line style="stroke:#3F3F3F;stroke-width:1.0;" x1="368" x2="368" y1="0" y2="274"/><line style="stroke:#3F3F3F;stroke-width:1.0;" x1="384" x2="384" y1="0" y2="274"/><line style="stroke:#3F3F3F;stroke-width:1.0;" x1="400" x2="400" y1="0" y2="274"/><line style="stroke:#3F3F3F;stroke-width:1.0;" x1="416" x2="416" y1="0" y2="274"/><line style="stroke:#3F3F3F;stroke-width:1.0;" x1="432" x2="432" y1="0" y2="274"/><line style="stroke:#3F3F3F;stroke-width:1.0;" x1="448" x2="448" y1="0" y2="274"/><line style="stroke:#3F3F3F;stroke-width:1.0;" x1="464" x2="464" y1="0" y2="274"/><line style="stroke:#3F3F3F;stroke-width:1.0;" x1="480" x2="480" y1="0" y2="274"/><line style="stroke:#3F3F3F;stroke-width:1.0;" x1="496" x2="496" y1="0" y2="274"/><line style="stroke:#3F3F3F;stroke-width:1.0;" x1="512" x2="512" y1="0" y2="274"/><line style="stroke:#3F3F3F;stroke-width:1.0;" x1="528" x2="528" y1="0" y2="274"/><line style="stroke:#3F3F3F;stroke-width:1.0;" x1="544" x2="544" y1="0" y2="274"/><line style="stroke:#3F3F3F;stroke-width:1.0;" x1="560" x2="560" y1="0" y2="274"/><line style="stroke:#3F3F3F;stroke-width:1.0;" x1="576" x2="576" y1="0" y2="274"/><line style="stroke:#3F3F3F;stroke-width:1.0;" x1="592" x2="592" y1="0" y2="274"/><line style="stroke:#3F3F3F;stroke-width:1.0;" x1="608" x2="608" y1="0" y2="274"/><line style="stroke:#3F3F3F;stroke-width:1.0;" x1="624" x2="624" y1="0" y2="274"/><line style="stroke:#3F3F3F;stroke-width:1.0;" x1="640" x2="640" y1="0" y2="274"/><line style="stroke:#3F3F3F;stroke-width:1.0;" x1="656" x2="656" y1="0" y2="274"/><line style="stroke:#3F3F3F;stroke-width:1.0;" x1="672" x2="672" y1="0" y2="274"/><text fill="#FFFFFF" font-family="Serif" font-size="10" lengthAdjust="spacing" textLength="5" x="5.5" y="7.5">1</text><text fill="#FFFFFF" font-family="Serif" font-size="10" lengthAdjust="spacing" textLength="5" x="21.5" y="7.5">2</text><text fill="#FFFFFF" font-family="Serif" font-size="10" lengthAdjust="spacing" textLength="5" x="37.5" y="7.5">3</text><text fill="#FFFFFF" font-family="Serif" font-size="10" lengthAdjust="spacing" textLength="5" x="53.5" y="7.5">4</text><text fill="#FFFFFF" font-family="Serif" font-size="10" lengthAdjust="spacing" textLength="5" x="69.5" y="7.5">5</text><text fill="#FFFFFF" font-family="Serif" font-size="10" lengthAdjust="spacing" textLength="5" x="85.5" y="7.5">6</text><text fill="#FFFFFF" font-family="Serif" font-size="10" lengthAdjust="spacing" textLength="5" x="101.5" y="7.5">7</text><text fill="#FFFFFF" font-family="Serif" font-size="10" lengthAdjust="spacing" textLength="5" x="117.5" y="7.5">8</text><text fill="#FFFFFF" font-family="Serif" font-size="10" lengthAdjust="spacing" textLength="5" x="133.5" y="7.5">9</text><text fill="#FFFFFF" font-family="Serif" font-size="10" lengthAdjust="spacing" textLength="10" x="147" y="7.5">10</text><text fill="#FFFFFF" font-family="Serif" font-size="10" lengthAdjust="spacing" textLength="10" x="163" y="7.5">11</text><text fill="#FFFFFF" font-family="Serif" font-size="10" lengthAdjust="spacing" textLength="10" x="179" y="7.5">12</text><text fill="#FFFFFF" font-family="Serif" font-size="10" lengthAdjust="spacing" textLength="10" x="195" y="7.5">13</text><text fill="#FFFFFF" font-family="Serif" font-size="10" lengthAdjust="spacing" textLength="10" x="211" y="7.5">14</text><text fill="#FFFFFF" font-family="Serif" font-size="10" lengthAdjust="spacing" textLength="10" x="227" y="7.5">15</text><text fill="#FFFFFF" font-family="Serif" font-size="10" lengthAdjust="spacing" textLength="10" x="243" y="7.5">16</text><text fill="#FFFFFF" font-family="Serif" font-size="10" lengthAdjust="spacing" textLength="10" x="259" y="7.5">17</text><text fill="#FFFFFF" font-family="Serif" font-size="10" lengthAdjust="spacing" textLength="10" x="275" y="7.5">18</text><text fill="#FFFFFF" font-family="Serif" font-size="10" lengthAdjust="spacing" textLength="10" x="291" y="7.5">19</text><text fill="#FFFFFF" font-family="Serif" font-size="10" lengthAdjust="spacing" textLength="10" x="307" y="7.5">20</text><text fill="#FFFFFF" font-family="Serif" font-size="10" lengthAdjust="spacing" textLength="10" x="323" y="7.5">21</text><text fill="#FFFFFF" font-family="Serif" font-size="10" lengthAdjust="spacing" textLength="10" x="339" y="7.5">22</text><text fill="#FFFFFF" font-family="Serif" font-size="10" lengthAdjust="spacing" textLength="10" x="355" y="7.5">23</text><text fill="#FFFFFF" font-family="Serif" font-size="10" lengthAdjust="spacing" textLength="10" x="371" y="7.5">24</text><text fill="#FFFFFF" font-family="Serif" font-size="10" lengthAdjust="spacing" textLength="10" x="387" y="7.5">25</text><text fill="#FFFFFF" font-family="Serif" font-size="10" lengthAdjust="spacing" textLength="10" x="403" y="7.5">26</text><text fill="#FFFFFF" font-family="Serif" font-size="10" lengthAdjust="spacing" textLength="10" x="419" y="7.5">27</text><text fill="#FFFFFF" font-family="Serif" font-size="10" lengthAdjust="spacing" textLength="10" x="435" y="7.5">28</text><text fill="#FFFFFF" font-family="Serif" font-size="10" lengthAdjust="spacing" textLength="10" x="451" y="7.5">29</text><text fill="#FFFFFF" font-family="Serif" font-size="10" lengthAdjust="spacing" textLength="10" x="467" y="7.5">30</text><text fill="#FFFFFF" font-family="Serif" font-size="10" lengthAdjust="spacing" textLength="10" x="483" y="7.5">31</text><text fill="#FFFFFF" font-family="Serif" font-size="10" lengthAdjust="spacing" textLength="10" x="499" y="7.5">32</text><text fill="#FFFFFF" font-family="Serif" font-size="10" lengthAdjust="spacing" textLength="10" x="515" y="7.5">33</text><text fill="#FFFFFF" font-family="Serif" font-size="10" lengthAdjust="spacing" textLength="10" x="531" y="7.5">34</text><text fill="#FFFFFF" font-family="Serif" font-size="10" lengthAdjust="spacing" textLength="10" x="547" y="7.5">35</text><text fill="#FFFFFF" font-family="Serif" font-size="10" lengthAdjust="spacing" textLength="10" x="563" y="7.5">36</text><text fill="#FFFFFF" font-family="Serif" font-size="10" lengthAdjust="spacing" textLength="10" x="579" y="7.5">37</text><text fill="#FFFFFF" font-family="Serif" font-size="10" lengthAdjust="spacing" textLength="10" x="595" y="7.5">38</text><text fill="#FFFFFF" font-family="Serif" font-size="10" lengthAdjust="spacing" textLength="10" x="611" y="7.5">39</text><text fill="#FFFFFF" font-family="Serif" font-size="10" lengthAdjust="spacing" textLength="10" x="627" y="7.5">40</text><text fill="#FFFFFF" font-family="Serif" font-size="10" lengthAdjust="spacing" textLength="10" x="643" y="7.5">41</text><text fill="#FFFFFF" font-family="Serif" font-size="10" lengthAdjust="spacing" textLength="10" x="659" y="7.5">42</text><line style="stroke:#3F3F3F;stroke-width:1.0;" x1="0" x2="672" y1="0" y2="0"/><line style="stroke:#3F3F3F;stroke-width:1.0;" x1="0" x2="672" y1="13" y2="13"/><line style="stroke:#E7E7E7;stroke-width:1.5;" x1="71" x2="71" y1="78" y2="88"/><line style="stroke:#E7E7E7;stroke-width:1.5;" x1="71" x2="79" y1="88" y2="88"/><polygon fill="#E7E7E7" points="75,84,75,88,75,92,79,88" style="stroke:#E7E7E7;stroke-width:1.5;"/><line style="stroke:#E7E7E7;stroke-width:1.5;" x1="151" x2="151" y1="94" y2="104"/><line style="stroke:#E7E7E7;stroke-width:1.5;" x1="151" x2="159" y1="104" y2="104"/><polygon fill="#E7E7E7" points="155,100,155,104,155,108,159,104" style="stroke:#E7E7E7;stroke-width:1.5;"/><line style="stroke:#E7E7E7;stroke-width:1.5;" x1="231" x2="231" y1="110" y2="120"/><line style="stroke:#E7E7E7;stroke-width:1.5;" x1="231" x2="239" y1="120" y2="120"/><polygon fill="#E7E7E7" points="235,116,235,120,235,124,239,120" style="stroke:#E7E7E7;stroke-width:1.5;"/><line style="stroke:#E7E7E7;stroke-width:1.5;" x1="311" x2="311" y1="142" y2="152"/><line style="stroke:#E7E7E7;stroke-width:1.5;" x1="311" x2="319" y1="152" y2="152"/><polygon fill="#E7E7E7" points="315,148,315,152,315,156,319,152" style="stroke:#E7E7E7;stroke-width:1.5;"/><line style="stroke:#E7E7E7;stroke-width:1.5;" x1="391" x2="391" y1="158" y2="168"/><line style="stroke:#E7E7E7;stroke-width:1.5;" x1="391" x2="399" y1="168" y2="168"/><polygon fill="#E7E7E7" points="395,164,395,168,395,172,399,168" style="stroke:#E7E7E7;stroke-width:1.5;"/><line style="stroke:#E7E7E7;stroke-width:1.5;" x1="391" x2="391" y1="158" y2="184"/><line style="stroke:#E7E7E7;stroke-width:1.5;" x1="391" x2="399" y1="184" y2="184"/><polygon fill="#E7E7E7" points="395,180,395,184,395,188,399,184" style="stroke:#E7E7E7;stroke-width:1.5;"/><line style="stroke:#E7E7E7;stroke-width:1.5;" x1="471" x2="471" y1="190" y2="200"/><line style="stroke:#E7E7E7;stroke-width:1.5;" x1="471" x2="479" y1="200" y2="200"/><polygon fill="#E7E7E7" points="475,196,475,200,475,204,479,200" style="stroke:#E7E7E7;stroke-width:1.5;"/><line style="stroke:#E7E7E7;stroke-width:1.5;" x1="391" x2="391" y1="158" y2="216"/><line style="stroke:#E7E7E7;stroke-width:1.5;" x1="391" x2="399" y1="216" y2="216"/><polygon fill="#E7E7E7" points="395,212,395,216,395,220,399,216" style="stroke:#E7E7E7;stroke-width:1.5;"/><line style="stroke:#E7E7E7;stroke-width:1.5;" x1="391" x2="391" y1="158" y2="232"/><line style="stroke:#E7E7E7;stroke-width:1.5;" x1="391" x2="399" y1="232" y2="232"/><polygon fill="#E7E7E7" points="395,228,395,232,395,236,399,232" style="stroke:#E7E7E7;stroke-width:1.5;"/><line style="stroke:#E7E7E7;stroke-width:1.5;" x1="551" x2="551" y1="254" y2="264"/><line style="stroke:#E7E7E7;stroke-width:1.5;" x1="551" x2="559" y1="264" y2="264"/><polygon fill="#E7E7E7" points="555,260,555,264,555,268,559,264" style="stroke:#E7E7E7;stroke-width:1.5;"/><rect fill="#1C1C1C" height="12" style="stroke:none;stroke-width:1.0;" width="668" x="2" y="18"/><line style="stroke:#E7E7E7;stroke-width:1.0;" x1="2" x2="670" y1="18" y2="18"/><line style="stroke:#E7E7E7;stroke-width:1.0;" x1="2" x2="670" y1="30" y2="30"/><line style="stroke:#E7E7E7;stroke-width:1.0;" x1="2" x2="2" y1="18" y2="30"/><line style="stroke:#E7E7E7;stroke-width:1.0;" x1="670" x2="670" y1="18" y2="30"/><rect fill="#1C1C1C" height="12" style="stroke:none;stroke-width:1.0;" width="668" x="2" y="34"/><line style="stroke:#E7E7E7;stroke-width:1.0;" x1="2" x2="670" y1="34" y2="34"/><line style="stroke:#E7E7E7;stroke-width:1.0;" x1="2" x2="670" y1="46" y2="46"/><line style="stroke:#E7E7E7;stroke-width:1.0;" x1="2" x2="2" y1="34" y2="46"/><line style="stroke:#E7E7E7;stroke-width:1.0;" x1="670" x2="670" y1="34" y2="46"/><rect fill="#1C1C1C" height="12" style="stroke:none;stroke-width:1.0;" width="76" x="2" y="50"/><line style="stroke:#E7E7E7;stroke-width:1.0;" x1="2" x2="78" y1="50" y2="50"/><line style="stroke:#E7E7E7;stroke-width:1.0;" x1="2" x2="78" y1="62" y2="62"/><line style="stroke:#E7E7E7;stroke-width:1.0;" x1="2" x2="2" y1="50" y2="62"/><line style="stroke:#E7E7E7;stroke-width:1.0;" x1="78" x2="78" y1="50" y2="62"/><polygon fill="#FFFFFF" points="72,66,78,72,72,78,66,72" style="stroke:#FFFFFF;stroke-width:1.0;"/><rect fill="#1C1C1C" height="12" style="stroke:none;stroke-width:1.0;" width="76" x="82" y="82"/><line style="stroke:#E7E7E7;stroke-width:1.0;" x1="82" x2="158" y1="82" y2="82"/><line style="stroke:#E7E7E7;stroke-width:1.0;" x1="82" x2="158" y1="94" y2="94"/><line style="stroke:#E7E7E7;stroke-width:1.0;" x1="82" x2="82" y1="82" y2="94"/><line style="stroke:#E7E7E7;stroke-width:1.0;" x1="158" x2="158" y1="82" y2="94"/><rect fill="#1C1C1C" height="12" style="stroke:none;stroke-width:1.0;" width="76" x="162" y="98"/><line style="stroke:#E7E7E7;stroke-width:1.0;" x1="162" x2="238" y1="98" y2="98"/><line style="stroke:#E7E7E7;stroke-width:1.0;" x1="162" x2="238" y1="110" y2="110"/><line style="stroke:#E7E7E7;stroke-width:1.0;" x1="162" x2="162" y1="98" y2="110"/><line style="stroke:#E7E7E7;stroke-width:1.0;" x1="238" x2="238" y1="98" y2="110"/><rect fill="#1C1C1C" height="12" style="stroke:none;stroke-width:1.0;" width="76" x="242" y="114"/><line style="stroke:#E7E7E7;stroke-width:1.0;" x1="242" x2="318" y1="114" y2="114"/><line style="stroke:#E7E7E7;stroke-width:1.0;" x1="242" x2="318" y1="126" y2="126"/><line style="stroke:#E7E7E7;stroke-width:1.0;" x1="242" x2="242" y1="114" y2="126"/><line style="stroke:#E7E7E7;stroke-width:1.0;" x1="318" x2="318" y1="114" y2="126"/><polygon fill="#FFFFFF" points="312,130,318,136,312,142,306,136" style="stroke:#FFFFFF;stroke-width:1.0;"/><rect fill="#1C1C1C" height="12" style="stroke:none;stroke-width:1.0;" width="76" x="322" y="146"/><line style="stroke:#E7E7E7;stroke-width:1.0;" x1="322" x2="398" y1="146" y2="146"/><line style="stroke:#E7E7E7;stroke-width:1.0;" x1="322" x2="398" y1="158" y2="158"/><line style="stroke:#E7E7E7;stroke-width:1.0;" x1="322" x2="322" y1="146" y2="158"/><line style="stroke:#E7E7E7;stroke-width:1.0;" x1="398" x2="398" y1="146" y2="158"/><rect fill="#1C1C1C" height="12" style="stroke:none;stroke-width:1.0;" width="76" x="402" y="162"/><line style="stroke:#E7E7E7;stroke-width:1.0;" x1="402" x2="478" y1="162" y2="162"/><line style="stroke:#E7E7E7;stroke-width:1.0;" x1="402" x2="478" y1="174" y2="174"/><line style="stroke:#E7E7E7;stroke-width:1.0;" x1="402" x2="402" y1="162" y2="174"/><line style="stroke:#E7E7E7;stroke-width:1.0;" x1="478" x2="478" y1="162" y2="174"/><rect fill="#1C1C1C" height="12" style="stroke:none;stroke-width:1.0;" width="76" x="402" y="178"/><line style="stroke:#E7E7E7;stroke-width:1.0;" x1="402" x2="478" y1="178" y2="178"/><line style="stroke:#E7E7E7;stroke-width:1.0;" x1="402" x2="478" y1="190" y2="190"/><line style="stroke:#E7E7E7;stroke-width:1.0;" x1="402" x2="402" y1="178" y2="190"/><line style="stroke:#E7E7E7;stroke-width:1.0;" x1="478" x2="478" y1="178" y2="190"/><rect fill="#1C1C1C" height="12" style="stroke:none;stroke-width:1.0;" width="76" x="482" y="194"/><line style="stroke:#E7E7E7;stroke-width:1.0;" x1="482" x2="558" y1="194" y2="194"/><line style="stroke:#E7E7E7;stroke-width:1.0;" x1="482" x2="558" y1="206" y2="206"/><line style="stroke:#E7E7E7;stroke-width:1.0;" x1="482" x2="482" y1="194" y2="206"/><line style="stroke:#E7E7E7;stroke-width:1.0;" x1="558" x2="558" y1="194" y2="206"/><rect fill="#1C1C1C" height="12" style="stroke:none;stroke-width:1.0;" width="76" x="402" y="210"/><line style="stroke:#E7E7E7;stroke-width:1.0;" x1="402" x2="478" y1="210" y2="210"/><line style="stroke:#E7E7E7;stroke-width:1.0;" x1="402" x2="478" y1="222" y2="222"/><line style="stroke:#E7E7E7;stroke-width:1.0;" x1="402" x2="402" y1="210" y2="222"/><line style="stroke:#E7E7E7;stroke-width:1.0;" x1="478" x2="478" y1="210" y2="222"/><rect fill="#1C1C1C" height="12" style="stroke:none;stroke-width:1.0;" width="76" x="402" y="226"/><line style="stroke:#E7E7E7;stroke-width:1.0;" x1="402" x2="478" y1="226" y2="226"/><line style="stroke:#E7E7E7;stroke-width:1.0;" x1="402" x2="478" y1="238" y2="238"/><line style="stroke:#E7E7E7;stroke-width:1.0;" x1="402" x2="402" y1="226" y2="238"/><line style="stroke:#E7E7E7;stroke-width:1.0;" x1="478" x2="478" y1="226" y2="238"/><polygon fill="#FFFFFF" points="552,242,558,248,552,254,546,248" style="stroke:#FFFFFF;stroke-width:1.0;"/><rect fill="#1C1C1C" height="12" style="stroke:none;stroke-width:1.0;" width="76" x="562" y="258"/><line style="stroke:#E7E7E7;stroke-width:1.0;" x1="562" x2="638" y1="258" y2="258"/><line style="stroke:#E7E7E7;stroke-width:1.0;" x1="562" x2="638" y1="270" y2="270"/><line style="stroke:#E7E7E7;stroke-width:1.0;" x1="562" x2="562" y1="258" y2="270"/><line style="stroke:#E7E7E7;stroke-width:1.0;" x1="638" x2="638" y1="258" y2="270"/><text fill="#FFFFFF" font-family="Helvetica" font-size="12" lengthAdjust="spacing" textLength="110" x="6" y="27.2402">Projektmanagement</text><text fill="#FFFFFF" font-family="Helvetica" font-size="12" lengthAdjust="spacing" textLength="102" x="6" y="43.2402">Qualit&#228;tssicherung</text><text fill="#FFFFFF" font-family="Helvetica" font-size="12" lengthAdjust="spacing" textLength="85" x="82" y="59.2402">Idee und Vision</text><text fill="#FFFFFF" font-family="Helvetica" font-size="12" lengthAdjust="spacing" textLength="79" x="81" y="75.2402">Inception Gate</text><text fill="#FFFFFF" font-family="Helvetica" font-size="12" lengthAdjust="spacing" textLength="82" x="162" y="91.2402">Anforderungen</text><text fill="#FFFFFF" font-family="Helvetica" font-size="12" lengthAdjust="spacing" textLength="58" x="166" y="107.2402">Architektur</text><text fill="#FFFFFF" font-family="Helvetica" font-size="12" lengthAdjust="spacing" textLength="113" x="322" y="123.2402">Benutzerschnittstelle</text><text fill="#FFFFFF" font-family="Helvetica" font-size="12" lengthAdjust="spacing" textLength="92" x="321" y="139.2402">Elaboration Gate</text><text fill="#FFFFFF" font-family="Helvetica" font-size="12" lengthAdjust="spacing" textLength="68" x="402" y="155.2402">Grundger&#252;st</text><text fill="#FFFFFF" font-family="Helvetica" font-size="12" lengthAdjust="spacing" textLength="25" x="406" y="171.2402">Quiz</text><text fill="#FFFFFF" font-family="Helvetica" font-size="12" lengthAdjust="spacing" textLength="123" x="482" y="187.2402">Mensa UI und Settings</text><text fill="#FFFFFF" font-family="Helvetica" font-size="12" lengthAdjust="spacing" textLength="120" x="562" y="203.2402">Mensa Gesch&#228;ftslogik</text><text fill="#FFFFFF" font-family="Helvetica" font-size="12" lengthAdjust="spacing" textLength="90" x="482" y="219.2402">Veranstaltungen</text><text fill="#FFFFFF" font-family="Helvetica" font-size="12" lengthAdjust="spacing" textLength="66" x="406" y="235.2402">Professoren</text><text fill="#FFFFFF" font-family="Helvetica" font-size="12" lengthAdjust="spacing" textLength="98" x="561" y="251.2402">Construction Gate</text><text fill="#FFFFFF" font-family="Helvetica" font-size="12" lengthAdjust="spacing" textLength="86" x="642" y="267.2402">Inbetriebnahme</text><line style="stroke:#3F3F3F;stroke-width:1.0;" x1="0" x2="0" y1="275" y2="288"/><line style="stroke:#3F3F3F;stroke-width:1.0;" x1="16" x2="16" y1="275" y2="288"/><line style="stroke:#3F3F3F;stroke-width:1.0;" x1="32" x2="32" y1="275" y2="288"/><line style="stroke:#3F3F3F;stroke-width:1.0;" x1="48" x2="48" y1="275" y2="288"/><line style="stroke:#3F3F3F;stroke-width:1.0;" x1="64" x2="64" y1="275" y2="288"/><line style="stroke:#3F3F3F;stroke-width:1.0;" x1="80" x2="80" y1="275" y2="288"/><line style="stroke:#3F3F3F;stroke-width:1.0;" x1="96" x2="96" y1="275" y2="288"/><line style="stroke:#3F3F3F;stroke-width:1.0;" x1="112" x2="112" y1="275" y2="288"/><line style="stroke:#3F3F3F;stroke-width:1.0;" x1="128" x2="128" y1="275" y2="288"/><line style="stroke:#3F3F3F;stroke-width:1.0;" x1="144" x2="144" y1="275" y2="288"/><line style="stroke:#3F3F3F;stroke-width:1.0;" x1="160" x2="160" y1="275" y2="288"/><line style="stroke:#3F3F3F;stroke-width:1.0;" x1="176" x2="176" y1="275" y2="288"/><line style="stroke:#3F3F3F;stroke-width:1.0;" x1="192" x2="192" y1="275" y2="288"/><line style="stroke:#3F3F3F;stroke-width:1.0;" x1="208" x2="208" y1="275" y2="288"/><line style="stroke:#3F3F3F;stroke-width:1.0;" x1="224" x2="224" y1="275" y2="288"/><line style="stroke:#3F3F3F;stroke-width:1.0;" x1="240" x2="240" y1="275" y2="288"/><line style="stroke:#3F3F3F;stroke-width:1.0;" x1="256" x2="256" y1="275" y2="288"/><line style="stroke:#3F3F3F;stroke-width:1.0;" x1="272" x2="272" y1="275" y2="288"/><line style="stroke:#3F3F3F;stroke-width:1.0;" x1="288" x2="288" y1="275" y2="288"/><line style="stroke:#3F3F3F;stroke-width:1.0;" x1="304" x2="304" y1="275" y2="288"/><line style="stroke:#3F3F3F;stroke-width:1.0;" x1="320" x2="320" y1="275" y2="288"/><line style="stroke:#3F3F3F;stroke-width:1.0;" x1="336" x2="336" y1="275" y2="288"/><line style="stroke:#3F3F3F;stroke-width:1.0;" x1="352" x2="352" y1="275" y2="288"/><line style="stroke:#3F3F3F;stroke-width:1.0;" x1="368" x2="368" y1="275" y2="288"/><line style="stroke:#3F3F3F;stroke-width:1.0;" x1="384" x2="384" y1="275" y2="288"/><line style="stroke:#3F3F3F;stroke-width:1.0;" x1="400" x2="400" y1="275" y2="288"/><line style="stroke:#3F3F3F;stroke-width:1.0;" x1="416" x2="416" y1="275" y2="288"/><line style="stroke:#3F3F3F;stroke-width:1.0;" x1="432" x2="432" y1="275" y2="288"/><line style="stroke:#3F3F3F;stroke-width:1.0;" x1="448" x2="448" y1="275" y2="288"/><line style="stroke:#3F3F3F;stroke-width:1.0;" x1="464" x2="464" y1="275" y2="288"/><line style="stroke:#3F3F3F;stroke-width:1.0;" x1="480" x2="480" y1="275" y2="288"/><line style="stroke:#3F3F3F;stroke-width:1.0;" x1="496" x2="496" y1="275" y2="288"/><line style="stroke:#3F3F3F;stroke-width:1.0;" x1="512" x2="512" y1="275" y2="288"/><line style="stroke:#3F3F3F;stroke-width:1.0;" x1="528" x2="528" y1="275" y2="288"/><line style="stroke:#3F3F3F;stroke-width:1.0;" x1="544" x2="544" y1="275" y2="288"/><line style="stroke:#3F3F3F;stroke-width:1.0;" x1="560" x2="560" y1="275" y2="288"/><line style="stroke:#3F3F3F;stroke-width:1.0;" x1="576" x2="576" y1="275" y2="288"/><line style="stroke:#3F3F3F;stroke-width:1.0;" x1="592" x2="592" y1="275" y2="288"/><line style="stroke:#3F3F3F;stroke-width:1.0;" x1="608" x2="608" y1="275" y2="288"/><line style="stroke:#3F3F3F;stroke-width:1.0;" x1="624" x2="624" y1="275" y2="288"/><line style="stroke:#3F3F3F;stroke-width:1.0;" x1="640" x2="640" y1="275" y2="288"/><line style="stroke:#3F3F3F;stroke-width:1.0;" x1="656" x2="656" y1="275" y2="288"/><line style="stroke:#3F3F3F;stroke-width:1.0;" x1="672" x2="672" y1="275" y2="288"/><text fill="#FFFFFF" font-family="Serif" font-size="10" lengthAdjust="spacing" textLength="5" x="5.5" y="282.5">1</text><text fill="#FFFFFF" font-family="Serif" font-size="10" lengthAdjust="spacing" textLength="5" x="21.5" y="282.5">2</text><text fill="#FFFFFF" font-family="Serif" font-size="10" lengthAdjust="spacing" textLength="5" x="37.5" y="282.5">3</text><text fill="#FFFFFF" font-family="Serif" font-size="10" lengthAdjust="spacing" textLength="5" x="53.5" y="282.5">4</text><text fill="#FFFFFF" font-family="Serif" font-size="10" lengthAdjust="spacing" textLength="5" x="69.5" y="282.5">5</text><text fill="#FFFFFF" font-family="Serif" font-size="10" lengthAdjust="spacing" textLength="5" x="85.5" y="282.5">6</text><text fill="#FFFFFF" font-family="Serif" font-size="10" lengthAdjust="spacing" textLength="5" x="101.5" y="282.5">7</text><text fill="#FFFFFF" font-family="Serif" font-size="10" lengthAdjust="spacing" textLength="5" x="117.5" y="282.5">8</text><text fill="#FFFFFF" font-family="Serif" font-size="10" lengthAdjust="spacing" textLength="5" x="133.5" y="282.5">9</text><text fill="#FFFFFF" font-family="Serif" font-size="10" lengthAdjust="spacing" textLength="10" x="147" y="282.5">10</text><text fill="#FFFFFF" font-family="Serif" font-size="10" lengthAdjust="spacing" textLength="10" x="163" y="282.5">11</text><text fill="#FFFFFF" font-family="Serif" font-size="10" lengthAdjust="spacing" textLength="10" x="179" y="282.5">12</text><text fill="#FFFFFF" font-family="Serif" font-size="10" lengthAdjust="spacing" textLength="10" x="195" y="282.5">13</text><text fill="#FFFFFF" font-family="Serif" font-size="10" lengthAdjust="spacing" textLength="10" x="211" y="282.5">14</text><text fill="#FFFFFF" font-family="Serif" font-size="10" lengthAdjust="spacing" textLength="10" x="227" y="282.5">15</text><text fill="#FFFFFF" font-family="Serif" font-size="10" lengthAdjust="spacing" textLength="10" x="243" y="282.5">16</text><text fill="#FFFFFF" font-family="Serif" font-size="10" lengthAdjust="spacing" textLength="10" x="259" y="282.5">17</text><text fill="#FFFFFF" font-family="Serif" font-size="10" lengthAdjust="spacing" textLength="10" x="275" y="282.5">18</text><text fill="#FFFFFF" font-family="Serif" font-size="10" lengthAdjust="spacing" textLength="10" x="291" y="282.5">19</text><text fill="#FFFFFF" font-family="Serif" font-size="10" lengthAdjust="spacing" textLength="10" x="307" y="282.5">20</text><text fill="#FFFFFF" font-family="Serif" font-size="10" lengthAdjust="spacing" textLength="10" x="323" y="282.5">21</text><text fill="#FFFFFF" font-family="Serif" font-size="10" lengthAdjust="spacing" textLength="10" x="339" y="282.5">22</text><text fill="#FFFFFF" font-family="Serif" font-size="10" lengthAdjust="spacing" textLength="10" x="355" y="282.5">23</text><text fill="#FFFFFF" font-family="Serif" font-size="10" lengthAdjust="spacing" textLength="10" x="371" y="282.5">24</text><text fill="#FFFFFF" font-family="Serif" font-size="10" lengthAdjust="spacing" textLength="10" x="387" y="282.5">25</text><text fill="#FFFFFF" font-family="Serif" font-size="10" lengthAdjust="spacing" textLength="10" x="403" y="282.5">26</text><text fill="#FFFFFF" font-family="Serif" font-size="10" lengthAdjust="spacing" textLength="10" x="419" y="282.5">27</text><text fill="#FFFFFF" font-family="Serif" font-size="10" lengthAdjust="spacing" textLength="10" x="435" y="282.5">28</text><text fill="#FFFFFF" font-family="Serif" font-size="10" lengthAdjust="spacing" textLength="10" x="451" y="282.5">29</text><text fill="#FFFFFF" font-family="Serif" font-size="10" lengthAdjust="spacing" textLength="10" x="467" y="282.5">30</text><text fill="#FFFFFF" font-family="Serif" font-size="10" lengthAdjust="spacing" textLength="10" x="483" y="282.5">31</text><text fill="#FFFFFF" font-family="Serif" font-size="10" lengthAdjust="spacing" textLength="10" x="499" y="282.5">32</text><text fill="#FFFFFF" font-family="Serif" font-size="10" lengthAdjust="spacing" textLength="10" x="515" y="282.5">33</text><text fill="#FFFFFF" font-family="Serif" font-size="10" lengthAdjust="spacing" textLength="10" x="531" y="282.5">34</text><text fill="#FFFFFF" font-family="Serif" font-size="10" lengthAdjust="spacing" textLength="10" x="547" y="282.5">35</text><text fill="#FFFFFF" font-family="Serif" font-size="10" lengthAdjust="spacing" textLength="10" x="563" y="282.5">36</text><text fill="#FFFFFF" font-family="Serif" font-size="10" lengthAdjust="spacing" textLength="10" x="579" y="282.5">37</text><text fill="#FFFFFF" font-family="Serif" font-size="10" lengthAdjust="spacing" textLength="10" x="595" y="282.5">38</text><text fill="#FFFFFF" font-family="Serif" font-size="10" lengthAdjust="spacing" textLength="10" x="611" y="282.5">39</text><text fill="#FFFFFF" font-family="Serif" font-size="10" lengthAdjust="spacing" textLength="10" x="627" y="282.5">40</text><text fill="#FFFFFF" font-family="Serif" font-size="10" lengthAdjust="spacing" textLength="10" x="643" y="282.5">41</text><text fill="#FFFFFF" font-family="Serif" font-size="10" lengthAdjust="spacing" textLength="10" x="659" y="282.5">42</text><line style="stroke:#3F3F3F;stroke-width:1.0;" x1="0" x2="672" y1="275" y2="275"/><!--SRC=[ZPJFKjim4CRlUegz5Gumn0NQyOaIGafAMcX8BXaEYhsnrSYhZBGA4pfz6nwZDrwiSi2j4oT3VR0z-dP_t-hVdZcMbZD9pCBD5CsbbGKKXaoIMrCWM5oWTLWJ4rFC3I7nW9SQmHSwggafJgNNV6c8uQU0y0pK8q8hMlr_bG7v6VK2MILI_AebJcGoowpnbBQDDXOUSiKenZVM_C0P5v9aXaLmlGSj7JiuZY2LIoV6jrvgnSzFx9nAShIUiaRCLOgXKafXf9moLEadbKm9pZa8q9MCzv3B-Hp9WMHefBvpW9IAyIUQ6fkkxB01t11NY_oAMxVwIxD9ETyPUzjWrQKQQTsZ0fqZUNuCMvRaf9WTezQuYTmHL8VNJ2jqHyk9iNB7EcrdLhdTK6QQeNt-xNYpcdMjLaJ3iABTUlMuINaPgsMlOQlCVYXNml1gjQC3P5QKkKtKZg3_OtSnhC3pqvITDfcQRMStWchixUwLoGYjf12jUUl1QyXl5HtkrnITCxR9MfFUuhHDiBK-sN4wja-xIhwY2R9LE26P5zYydUjghPIcwoloBBnUkfguqU4xx5z3sSZAkDPXT1IzFups1fxW4YSGdKBhA8vEukCFqExSGIdlYxtkpJKuuss2aAfWeoQ-zDaNFRcGyDqJgm9Z-1OcsRluKWr0XnRA6YfxbUYD-ly2JeyFpXM7BRMX4XZrnSLBhmmPYKd3BiSmlBiy-2Yk9MK-jBiuT5FH3YsHxJA6YyuV]--></g></svg>