<?xml version="1.0" encoding="us-ascii" standalone="no"?><svg xmlns="http://www.w3.org/2000/svg" xmlns:xlink="http://www.w3.org/1999/xlink" contentStyleType="text/css" height="698px" preserveAspectRatio="none" style="width:575px;height:698px;background:#000000;" version="1.1" viewBox="0 0 575 698" width="575px" zoomAndPan="magnify"><defs/><g><rect fill="#0E0E0E" height="32" rx="12.5" ry="12.5" style="stroke:#E7E7E7;stroke-width:1.5;" width="103" x="10" y="332"/><text fill="#FFFFFF" font-family="Helvetica" font-size="12" lengthAdjust="spacing" textLength="83" x="20" y="351.2402">Dokumentation</text><rect fill="#0E0E0E" height="32" rx="12.5" ry="12.5" style="stroke:#E7E7E7;stroke-width:1.5;" width="90" x="163" y="72"/><text fill="#FFFFFF" font-family="Helvetica" font-size="12" lengthAdjust="spacing" textLength="70" x="173" y="91.2402">Projektvision</text><path d="M113,348 L123,348 C138,348 138,88 153,88 L163,88 " fill="none" style="stroke:#E7E7E7;stroke-width:1.0;"/><rect fill="#0E0E0E" height="32" rx="12.5" ry="12.5" style="stroke:#E7E7E7;stroke-width:1.5;" width="102" x="163" y="124"/><text fill="#FFFFFF" font-family="Helvetica" font-size="12" lengthAdjust="spacing" textLength="82" x="173" y="143.2402">Anforderungen</text><rect fill="#0E0E0E" height="32" rx="12.5" ry="12.5" style="stroke:#E7E7E7;stroke-width:1.5;" width="135" x="315" y="20"/><text fill="#FFFFFF" font-family="Helvetica" font-size="12" lengthAdjust="spacing" textLength="115" x="325" y="39.2402">Anforderungsquellen</text><path d="M265,140 L275,140 C290,140 290,36 305,36 L315,36 " fill="none" style="stroke:#E7E7E7;stroke-width:1.0;"/><rect fill="#0E0E0E" height="32" rx="12.5" ry="12.5" style="stroke:#E7E7E7;stroke-width:1.5;" width="123" x="315" y="72"/><text fill="#FFFFFF" font-family="Helvetica" font-size="12" lengthAdjust="spacing" textLength="103" x="325" y="91.2402">Randbedingungen</text><path d="M265,140 L275,140 C290,140 290,88 305,88 L315,88 " fill="none" style="stroke:#E7E7E7;stroke-width:1.0;"/><rect fill="#0E0E0E" height="32" rx="12.5" ry="12.5" style="stroke:#E7E7E7;stroke-width:1.5;" width="61" x="315" y="124"/><text fill="#FFFFFF" font-family="Helvetica" font-size="12" lengthAdjust="spacing" textLength="41" x="325" y="143.2402">Kontext</text><path d="M265,140 L275,140 C290,140 290,140 305,140 L315,140 " fill="none" style="stroke:#E7E7E7;stroke-width:1.0;"/><rect fill="#0E0E0E" height="32" rx="12.5" ry="12.5" style="stroke:#E7E7E7;stroke-width:1.5;" width="67" x="315" y="176"/><text fill="#FFFFFF" font-family="Helvetica" font-size="12" lengthAdjust="spacing" textLength="47" x="325" y="195.2402">Dom&#228;ne</text><path d="M265,140 L275,140 C290,140 290,192 305,192 L315,192 " fill="none" style="stroke:#E7E7E7;stroke-width:1.0;"/><rect fill="#0E0E0E" height="32" rx="12.5" ry="12.5" style="stroke:#E7E7E7;stroke-width:1.5;" width="68" x="315" y="228"/><text fill="#FFFFFF" font-family="Helvetica" font-size="12" lengthAdjust="spacing" textLength="48" x="325" y="247.2402">Dynamik</text><path d="M265,140 L275,140 C290,140 290,244 305,244 L315,244 " fill="none" style="stroke:#E7E7E7;stroke-width:1.0;"/><path d="M113,348 L123,348 C138,348 138,140 153,140 L163,140 " fill="none" style="stroke:#E7E7E7;stroke-width:1.0;"/><rect fill="#0E0E0E" height="32" rx="12.5" ry="12.5" style="stroke:#E7E7E7;stroke-width:1.5;" width="148" x="163" y="384"/><text fill="#FFFFFF" font-family="Helvetica" font-size="12" lengthAdjust="spacing" textLength="128" x="173" y="403.2402">Technik und Architektur</text><rect fill="#0E0E0E" height="32" rx="12.5" ry="12.5" style="stroke:#E7E7E7;stroke-width:1.5;" width="155" x="361" y="280"/><text fill="#FFFFFF" font-family="Helvetica" font-size="12" lengthAdjust="spacing" textLength="135" x="371" y="299.2402">Entwurfsentscheidungen</text><path d="M311,400 L321,400 C336,400 336,296 351,296 L361,296 " fill="none" style="stroke:#E7E7E7;stroke-width:1.0;"/><rect fill="#0E0E0E" height="32" rx="12.5" ry="12.5" style="stroke:#E7E7E7;stroke-width:1.5;" width="135" x="361" y="332"/><text fill="#FFFFFF" font-family="Helvetica" font-size="12" lengthAdjust="spacing" textLength="115" x="371" y="351.2402">Systembeschreibung</text><path d="M311,400 L321,400 C336,400 336,348 351,348 L361,348 " fill="none" style="stroke:#E7E7E7;stroke-width:1.0;"/><rect fill="#0E0E0E" height="32" rx="12.5" ry="12.5" style="stroke:#E7E7E7;stroke-width:1.5;" width="202" x="361" y="384"/><text fill="#FFFFFF" font-family="Helvetica" font-size="12" lengthAdjust="spacing" textLength="182" x="371" y="403.2402">Interne und externe Schnittstellen</text><path d="M311,400 L321,400 C336,400 336,400 351,400 L361,400 " fill="none" style="stroke:#E7E7E7;stroke-width:1.0;"/><rect fill="#0E0E0E" height="32" rx="12.5" ry="12.5" style="stroke:#E7E7E7;stroke-width:1.5;" width="93" x="361" y="436"/><text fill="#FFFFFF" font-family="Helvetica" font-size="12" lengthAdjust="spacing" textLength="73" x="371" y="455.2402">Bausteinsicht</text><path d="M311,400 L321,400 C336,400 336,452 351,452 L361,452 " fill="none" style="stroke:#E7E7E7;stroke-width:1.0;"/><rect fill="#0E0E0E" height="32" rx="12.5" ry="12.5" style="stroke:#E7E7E7;stroke-width:1.5;" width="124" x="361" y="488"/><text fill="#FFFFFF" font-family="Helvetica" font-size="12" lengthAdjust="spacing" textLength="104" x="371" y="507.2402">Detaillierte Abl&#228;ufe</text><path d="M311,400 L321,400 C336,400 336,504 351,504 L361,504 " fill="none" style="stroke:#E7E7E7;stroke-width:1.0;"/><path d="M113,348 L123,348 C138,348 138,400 153,400 L163,400 " fill="none" style="stroke:#E7E7E7;stroke-width:1.0;"/><rect fill="#0E0E0E" height="32" rx="12.5" ry="12.5" style="stroke:#E7E7E7;stroke-width:1.5;" width="140" x="163" y="592"/><text fill="#FFFFFF" font-family="Helvetica" font-size="12" lengthAdjust="spacing" textLength="120" x="173" y="611.2402">Benutzerschnittstellen</text><rect fill="#0E0E0E" height="32" rx="12.5" ry="12.5" style="stroke:#E7E7E7;stroke-width:1.5;" width="120" x="353" y="540"/><text fill="#FFFFFF" font-family="Helvetica" font-size="12" lengthAdjust="spacing" textLength="100" x="363" y="559.2402">Interaktionsdesign</text><path d="M303,608 L313,608 C328,608 328,556 343,556 L353,556 " fill="none" style="stroke:#E7E7E7;stroke-width:1.0;"/><rect fill="#0E0E0E" height="32" rx="12.5" ry="12.5" style="stroke:#E7E7E7;stroke-width:1.5;" width="177" x="353" y="592"/><text fill="#FFFFFF" font-family="Helvetica" font-size="12" lengthAdjust="spacing" textLength="157" x="363" y="611.2402">Benutzerschnittstellendesign</text><path d="M303,608 L313,608 C328,608 328,608 343,608 L353,608 " fill="none" style="stroke:#E7E7E7;stroke-width:1.0;"/><rect fill="#0E0E0E" height="32" rx="12.5" ry="12.5" style="stroke:#E7E7E7;stroke-width:1.5;" width="112" x="353" y="644"/><text fill="#FFFFFF" font-family="Helvetica" font-size="12" lengthAdjust="spacing" textLength="92" x="363" y="663.2402">Visuelles Design</text><path d="M303,608 L313,608 C328,608 328,660 343,660 L353,660 " fill="none" style="stroke:#E7E7E7;stroke-width:1.0;"/><path d="M113,348 L123,348 C138,348 138,608 153,608 L163,608 " fill="none" style="stroke:#E7E7E7;stroke-width:1.0;"/><rect fill="#0E0E0E" height="32" rx="12.5" ry="12.5" style="stroke:#E7E7E7;stroke-width:1.5;" width="62" x="163" y="644"/><text fill="#FFFFFF" font-family="Helvetica" font-size="12" lengthAdjust="spacing" textLength="42" x="173" y="663.2402">Glossar</text><path d="M113,348 L123,348 C138,348 138,660 153,660 L163,660 " fill="none" style="stroke:#E7E7E7;stroke-width:1.0;"/><!--SRC=[RLBBSjim3BppAt1CF9DChAPfnwVucTPnMa_i-4v9iCsA15qITEfq-ZVva_nO8SMftMbrWXRBtHq0rv5rO6UeT7gZOcLeeuDsu3pvOXsyGmYunH3ng5buj_64n3FUMOJaR7RKBN6fa-MH9uQV2kIRcIU4TjRKNxH8VaAxHJQ5Lh-E7kQwg5R19ohxtle0Zsl3g5emy5LougRPU5Aj5ao3_uOLRqtS0rrQ-b1YIBJ26lWBYTyJMhl7xpMLEPQ6LWVkhIJ57zpK0-zUdWbVwnrfPwhQO8x5cam5aWsweQY3LPn2GniIFwQmZ98m5ciqvK5vjekCBaV10vfS6WtyMVm2OQCcnaqzgmsOXVydQqyd-JKKJR7UfqFMnbg3WH6wkNrvJiiwA_IG4Z_9clvLQSnqLSykbXZDQY_-tnT7X8M9pToYkEv1kB4-HXtKjJ3VRaPDhIP-k9j0VIRY0ktpx29xTvwTp1B127F8hg1zqSdUTou_G7yuXxfzgavkfXE8FeK2eJIHWmoeJdcgndghuJuH6uST-Bf16Wzktm2PzzO4J_L5gF7Yxa2ukZph6OOP1aa2YpirUBr4UL7uUkKTU9YFpZwgYPRrwvLebwZwSd0STXqO37y3]--></g></svg>