<?xml version="1.0" encoding="UTF-8" standalone="no"?><svg xmlns="http://www.w3.org/2000/svg" xmlns:xlink="http://www.w3.org/1999/xlink" contentScriptType="application/ecmascript" contentStyleType="text/css" height="523px" preserveAspectRatio="none" style="width:558px;height:523px;background:#000000;" version="1.1" viewBox="0 0 558 523" width="558px" zoomAndPan="magnify"><defs><filter height="300%" id="fttss1pdowbd9" width="300%" x="-1" y="-1"><feGaussianBlur result="blurOut" stdDeviation="2.0"/><feColorMatrix in="blurOut" result="blurOut2" type="matrix" values="0 0 0 0 0 0 0 0 0 0 0 0 0 0 0 0 0 0 .4 0"/><feOffset dx="4.0" dy="4.0" in="blurOut2" result="blurOut3"/><feBlend in="SourceGraphic" in2="blurOut3" mode="normal"/></filter></defs><g><!--MD5=[fd5897a013ba4b26a7024f7f2625a1f7]
cluster Tabs--><rect fill="#070707" filter="url(#fttss1pdowbd9)" height="81" rx="12.5" ry="12.5" style="stroke: #C7C7C7; stroke-width: 1.5;" width="393" x="27" y="67"/><rect fill="#000000" height="53" rx="12.5" ry="12.5" style="stroke: #000000; stroke-width: 1.0;" width="387" x="30" y="92"/><line style="stroke: #C7C7C7; stroke-width: 1.5;" x1="27" x2="420" y1="89" y2="89"/><text fill="#FFFFFF" font-family="Helvetica" font-size="12" lengthAdjust="spacingAndGlyphs" textLength="27" x="210" y="80.2402">Tabs</text><rect fill="#070707" filter="url(#fttss1pdowbd9)" height="50" rx="12.5" ry="12.5" style="stroke: #C7C7C7; stroke-width: 1.5;" width="82" x="330" y="90"/><line style="stroke: #C7C7C7; stroke-width: 1.5;" x1="330" x2="412" y1="112" y2="112"/><text fill="#FFFFFF" font-family="Helvetica" font-size="12" lengthAdjust="spacingAndGlyphs" textLength="62" x="340" y="104.2402">Stop Watch</text><rect fill="#070707" filter="url(#fttss1pdowbd9)" height="50" rx="12.5" ry="12.5" style="stroke: #C7C7C7; stroke-width: 1.5;" width="86" x="35" y="90"/><line style="stroke: #C7C7C7; stroke-width: 1.5;" x1="35" x2="121" y1="112" y2="112"/><text fill="#FFFFFF" font-family="Helvetica" font-size="12" lengthAdjust="spacingAndGlyphs" textLength="66" x="45" y="104.2402">World Clock</text><rect fill="#070707" filter="url(#fttss1pdowbd9)" height="50" rx="12.5" ry="12.5" style="stroke: #C7C7C7; stroke-width: 1.5;" width="51" x="156.5" y="90"/><line style="stroke: #C7C7C7; stroke-width: 1.5;" x1="156.5" x2="207.5" y1="112" y2="112"/><text fill="#FFFFFF" font-family="Helvetica" font-size="12" lengthAdjust="spacingAndGlyphs" textLength="31" x="166.5" y="104.2402">Timer</text><rect fill="#070707" filter="url(#fttss1pdowbd9)" height="50" rx="12.5" ry="12.5" style="stroke: #C7C7C7; stroke-width: 1.5;" width="52" x="243" y="90"/><line style="stroke: #C7C7C7; stroke-width: 1.5;" x1="243" x2="295" y1="112" y2="112"/><text fill="#FFFFFF" font-family="Helvetica" font-size="12" lengthAdjust="spacingAndGlyphs" textLength="32" x="253" y="104.2402">Alarm</text><rect fill="#070707" filter="url(#fttss1pdowbd9)" height="50" rx="12.5" ry="12.5" style="stroke: #C7C7C7; stroke-width: 1.5;" width="106" x="6" y="214"/><line style="stroke: #C7C7C7; stroke-width: 1.5;" x1="6" x2="112" y1="248" y2="248"/><text fill="#FFFFFF" font-family="Helvetica" font-size="12" lengthAdjust="spacingAndGlyphs" textLength="62" x="28" y="228.2402">&lt;&lt;modal&gt;&gt;</text><text fill="#FFFFFF" font-family="Helvetica" font-size="12" lengthAdjust="spacingAndGlyphs" textLength="86" x="16" y="240.2402">New Time Zone</text><rect fill="#070707" filter="url(#fttss1pdowbd9)" height="50" rx="12.5" ry="12.5" style="stroke: #C7C7C7; stroke-width: 1.5;" width="80" x="339" y="214"/><line style="stroke: #C7C7C7; stroke-width: 1.5;" x1="339" x2="419" y1="236" y2="236"/><text fill="#FFFFFF" font-family="Helvetica" font-size="12" lengthAdjust="spacingAndGlyphs" textLength="60" x="349" y="228.2402">New Alarm</text><rect fill="#070707" filter="url(#fttss1pdowbd9)" height="50" rx="12.5" ry="12.5" style="stroke: #C7C7C7; stroke-width: 1.5;" width="111" x="313.5" y="338"/><line style="stroke: #C7C7C7; stroke-width: 1.5;" x1="313.5" x2="424.5" y1="372" y2="372"/><text fill="#FFFFFF" font-family="Helvetica" font-size="12" lengthAdjust="spacingAndGlyphs" textLength="62" x="338" y="352.2402">&lt;&lt;modal&gt;&gt;</text><text fill="#FFFFFF" font-family="Helvetica" font-size="12" lengthAdjust="spacingAndGlyphs" textLength="91" x="323.5" y="364.2402">Alarm Repetition</text><rect fill="#070707" filter="url(#fttss1pdowbd9)" height="50" rx="12.5" ry="12.5" style="stroke: #C7C7C7; stroke-width: 1.5;" width="86" x="460" y="338"/><line style="stroke: #C7C7C7; stroke-width: 1.5;" x1="460" x2="546" y1="372" y2="372"/><text fill="#FFFFFF" font-family="Helvetica" font-size="12" lengthAdjust="spacingAndGlyphs" textLength="62" x="472" y="352.2402">&lt;&lt;modal&gt;&gt;</text><text fill="#FFFFFF" font-family="Helvetica" font-size="12" lengthAdjust="spacingAndGlyphs" textLength="66" x="470" y="364.2402">Alarm Label</text><rect fill="#070707" filter="url(#fttss1pdowbd9)" height="50" rx="12.5" ry="12.5" style="stroke: #C7C7C7; stroke-width: 1.5;" width="102" x="154" y="338"/><line style="stroke: #C7C7C7; stroke-width: 1.5;" x1="154" x2="256" y1="360" y2="360"/><text fill="#FFFFFF" font-family="Helvetica" font-size="12" lengthAdjust="spacingAndGlyphs" textLength="82" x="164" y="352.2402">Choose Sound</text><rect fill="#070707" filter="url(#fttss1pdowbd9)" height="50" rx="12.5" ry="12.5" style="stroke: #C7C7C7; stroke-width: 1.5;" width="92" x="82" y="462"/><line style="stroke: #C7C7C7; stroke-width: 1.5;" x1="82" x2="174" y1="496" y2="496"/><text fill="#FFFFFF" font-family="Helvetica" font-size="12" lengthAdjust="spacingAndGlyphs" textLength="72" x="92" y="476.2402">&lt;&lt;external&gt;&gt;</text><text fill="#FFFFFF" font-family="Helvetica" font-size="12" lengthAdjust="spacingAndGlyphs" textLength="69" x="93.5" y="488.2402">iTunes Store</text><rect fill="#070707" filter="url(#fttss1pdowbd9)" height="50" rx="12.5" ry="12.5" style="stroke: #C7C7C7; stroke-width: 1.5;" width="86" x="239" y="462"/><line style="stroke: #C7C7C7; stroke-width: 1.5;" x1="239" x2="325" y1="496" y2="496"/><text fill="#FFFFFF" font-family="Helvetica" font-size="12" lengthAdjust="spacingAndGlyphs" textLength="62" x="251" y="476.2402">&lt;&lt;modal&gt;&gt;</text><text fill="#FFFFFF" font-family="Helvetica" font-size="12" lengthAdjust="spacingAndGlyphs" textLength="66" x="249" y="488.2402">Song Picker</text><ellipse cx="78" cy="18" fill="#FFFFFF" filter="url(#fttss1pdowbd9)" rx="10" ry="10" style="stroke: none; stroke-width: 1.0;"/><!--MD5=[6eddd5bed8ee1426b8bc3e0d91e0bfcd]
link *start to WorldClock--><path d="M78,28.0154 C78,41.2004 78,64.9762 78,84.342 " fill="none" id="*start-&gt;WorldClock" style="stroke: #C7C7C7; stroke-width: 1.0;"/><polygon fill="#C7C7C7" points="78,89.6747,82,80.6747,78,84.6747,74,80.6747,78,89.6747" style="stroke: #C7C7C7; stroke-width: 1.0;"/><!--MD5=[4ffe27661fd291bc87144f9af1d1928c]
link WorldClock to NewTimeZone--><path d="M74.1551,140.0933 C71.1162,159.926 66.8635,187.6804 63.6362,208.7424 " fill="none" id="WorldClock-&gt;NewTimeZone" style="stroke: #C7C7C7; stroke-width: 1.0;"/><polygon fill="#C7C7C7" points="62.8392,213.9441,68.1562,205.6538,63.5965,209.0018,60.2485,204.4421,62.8392,213.9441" style="stroke: #C7C7C7; stroke-width: 1.0;"/><text fill="#FFFFFF" font-family="Helvetica" font-size="12" lengthAdjust="spacingAndGlyphs" textLength="83" x="71" y="180.2402">tap[Add Button]</text><!--MD5=[d904c2471e624dc483eed73a9dbb3da3]
link Alarm to NewAlarm--><path d="M291.2601,140.0933 C309.2264,160.3461 334.5209,188.86 353.338,210.0719 " fill="none" id="Alarm-&gt;NewAlarm" style="stroke: #C7C7C7; stroke-width: 1.0;"/><polygon fill="#C7C7C7" points="356.773,213.9441,353.7927,204.557,353.4549,210.2037,347.8082,209.8659,356.773,213.9441" style="stroke: #C7C7C7; stroke-width: 1.0;"/><text fill="#FFFFFF" font-family="Helvetica" font-size="12" lengthAdjust="spacingAndGlyphs" textLength="83" x="328" y="180.2402">tap[Add Button]</text><!--MD5=[f255d40701f922c983a98db2ddd7243f]
link NewAlarm to Repetition--><path d="M376.9764,264.0933 C375.3769,283.926 373.1387,311.6804 371.4401,332.7424 " fill="none" id="NewAlarm-&gt;Repetition" style="stroke: #C7C7C7; stroke-width: 1.0;"/><polygon fill="#C7C7C7" points="371.0206,337.9441,375.7315,329.295,371.4227,332.9603,367.7574,328.6515,371.0206,337.9441" style="stroke: #C7C7C7; stroke-width: 1.0;"/><text fill="#FFFFFF" font-family="Helvetica" font-size="12" lengthAdjust="spacingAndGlyphs" textLength="63" x="375" y="304.2402">tap[Repeat]</text><!--MD5=[84838b9bac864858c6b7720a543547d0]
link NewAlarm to AlarmLabel--><path d="M413.0476,264.2526 C424.2897,273.1778 436.5768,283.5943 447,294 C459.2618,306.2413 471.5425,321.0213 481.4657,333.7568 " fill="none" id="NewAlarm-&gt;AlarmLabel" style="stroke: #C7C7C7; stroke-width: 1.0;"/><polygon fill="#C7C7C7" points="484.7372,337.9908,482.3996,328.4234,481.6801,334.0343,476.0692,333.3147,484.7372,337.9908" style="stroke: #C7C7C7; stroke-width: 1.0;"/><text fill="#FFFFFF" font-family="Helvetica" font-size="12" lengthAdjust="spacingAndGlyphs" textLength="54" x="459" y="304.2402">tap[Label]</text><!--MD5=[596b35b20288c9b078c0349acc2235c5]
link NewAlarm to ChooseSound--><path d="M343.7885,264.0933 C315.0154,284.5982 274.3599,313.5711 244.4858,334.8607 " fill="none" id="NewAlarm-&gt;ChooseSound" style="stroke: #C7C7C7; stroke-width: 1.0;"/><polygon fill="#C7C7C7" points="240.1591,337.9441,249.8098,335.9783,244.2309,335.0423,245.1669,329.4634,240.1591,337.9441" style="stroke: #C7C7C7; stroke-width: 1.0;"/><text fill="#FFFFFF" font-family="Helvetica" font-size="12" lengthAdjust="spacingAndGlyphs" textLength="59" x="298" y="304.2402">tap[Sound]</text><!--MD5=[9e02f47b321b910456cd3bb7469c8ca8]
link ChooseSound to Store--><path d="M153.698,387.4422 C142.2118,395.485 131.5127,405.6191 125,418 C118.8945,429.6067 118.5537,443.8908 120.1663,456.4458 " fill="none" id="ChooseSound-&gt;Store" style="stroke: #C7C7C7; stroke-width: 1.0;"/><polygon fill="#C7C7C7" points="120.9658,461.7077,123.5684,452.2089,120.2147,456.7644,115.6591,453.4107,120.9658,461.7077" style="stroke: #C7C7C7; stroke-width: 1.0;"/><text fill="#FFFFFF" font-family="Helvetica" font-size="12" lengthAdjust="spacingAndGlyphs" textLength="112" x="126" y="428.2402">tap[Buy More Tones]</text><!--MD5=[41cab8e9c7eef14cedcfaba9bafd1e7d]
link ChooseSound to SongPicker--><path d="M223.0799,388.1463 C229.5508,397.4089 236.7781,408.0655 243,418 C250.9359,430.6714 259.161,445.0166 266.0002,457.3319 " fill="none" id="ChooseSound-&gt;SongPicker" style="stroke: #C7C7C7; stroke-width: 1.0;"/><polygon fill="#C7C7C7" points="268.454,461.7705,267.5999,451.9588,266.0347,457.3948,260.5987,455.8296,268.454,461.7705" style="stroke: #C7C7C7; stroke-width: 1.0;"/><text fill="#FFFFFF" font-family="Helvetica" font-size="12" lengthAdjust="spacingAndGlyphs" textLength="88" x="251" y="428.2402">tap[Pick a Song]</text><!--MD5=[a613921e8b2f2943b2c2d1b6d6421ce4]
link Timer to ChooseSound--><path d="M184.3319,140.1443 C188.5852,186.0062 197.5866,283.0639 202.178,332.5715 " fill="none" id="Timer-&gt;ChooseSound" style="stroke: #C7C7C7; stroke-width: 1.0;"/><polygon fill="#C7C7C7" points="202.6619,337.7891,205.8134,328.4581,202.2,332.8105,197.8477,329.1971,202.6619,337.7891" style="stroke: #C7C7C7; stroke-width: 1.0;"/><text fill="#FFFFFF" font-family="Helvetica" font-size="12" lengthAdjust="spacingAndGlyphs" textLength="120" x="196" y="242.2402">tap[When Timer Ends]</text><!--MD5=[ad2d3185132f169445480ac7f16555e5]
@startuml
skinparam monochrome reverse
skinparam componentStyle uml2
skinparam defaultFont {
    Size 12
    Name Helvetica
}
skinparam backgroundColor white

state "<<modal>>\nNew Time Zone" as NewTimeZone
state "New Alarm" as NewAlarm
state "<<modal>>\nAlarm Repetition" as Repetition
state "<<modal>>\nAlarm Label" as AlarmLabel
state "Choose Sound" as ChooseSound
state "<<external>>\niTunes Store" as Store
state "<<modal>>\nSong Picker" as SongPicker

state Tabs {
state "Stop Watch" as StopWatch
state "World Clock" as WorldClock
state Timer
state Alarm
}
[*] - -> WorldClock
WorldClock - -> NewTimeZone : tap[Add Button]
Alarm - -> NewAlarm : tap[Add Button]
NewAlarm - -> Repetition : tap[Repeat]
NewAlarm - -> AlarmLabel : tap[Label]
NewAlarm - -> ChooseSound : tap[Sound]
ChooseSound - -> Store : tap[Buy More Tones]
ChooseSound - -> SongPicker : tap[Pick a Song]
Timer - -> ChooseSound : tap[When Timer Ends]
@enduml

PlantUML version 1.2020.06(Sun Apr 05 14:38:32 CEST 2020)
(GPL source distribution)
Java Runtime: Java(TM) SE Runtime Environment
JVM: Java HotSpot(TM) 64-Bit Server VM
Java Version: 1.8.0_131-b11
Operating System: Mac OS X
Default Encoding: UTF-8
Language: de
Country: DE
--></g></svg>