<?xml version="1.0" encoding="UTF-8" standalone="no"?><svg xmlns="http://www.w3.org/2000/svg" xmlns:xlink="http://www.w3.org/1999/xlink" contentScriptType="application/ecmascript" contentStyleType="text/css" height="399px" preserveAspectRatio="none" style="width:1044px;height:399px;background:#000000;" version="1.1" viewBox="0 0 1044 399" width="1044px" zoomAndPan="magnify"><defs><filter height="300%" id="fga5easfsf4id" width="300%" x="-1" y="-1"><feGaussianBlur result="blurOut" stdDeviation="2.0"/><feColorMatrix in="blurOut" result="blurOut2" type="matrix" values="0 0 0 0 0 0 0 0 0 0 0 0 0 0 0 0 0 0 .4 0"/><feOffset dx="4.0" dy="4.0" in="blurOut2" result="blurOut3"/><feBlend in="SourceGraphic" in2="blurOut3" mode="normal"/></filter></defs><g><!--MD5=[fd5897a013ba4b26a7024f7f2625a1f7]
cluster Tabs--><rect fill="#070707" filter="url(#fga5easfsf4id)" height="81" rx="12.5" ry="12.5" style="stroke: #C7C7C7; stroke-width: 1.5;" width="393" x="259" y="67"/><rect fill="#000000" height="53" rx="12.5" ry="12.5" style="stroke: #000000; stroke-width: 1.0;" width="387" x="262" y="92"/><line style="stroke: #C7C7C7; stroke-width: 1.5;" x1="259" x2="652" y1="89" y2="89"/><text fill="#FFFFFF" font-family="Helvetica" font-size="12" lengthAdjust="spacingAndGlyphs" textLength="27" x="442" y="80.2402">Tabs</text><rect fill="#070707" filter="url(#fga5easfsf4id)" height="50" rx="12.5" ry="12.5" style="stroke: #C7C7C7; stroke-width: 1.5;" width="82" x="267" y="90"/><line style="stroke: #C7C7C7; stroke-width: 1.5;" x1="267" x2="349" y1="112" y2="112"/><text fill="#FFFFFF" font-family="Helvetica" font-size="12" lengthAdjust="spacingAndGlyphs" textLength="62" x="277" y="104.2402">Stop Watch</text><rect fill="#070707" filter="url(#fga5easfsf4id)" height="50" rx="12.5" ry="12.5" style="stroke: #C7C7C7; stroke-width: 1.5;" width="86" x="384" y="90"/><line style="stroke: #C7C7C7; stroke-width: 1.5;" x1="384" x2="470" y1="112" y2="112"/><text fill="#FFFFFF" font-family="Helvetica" font-size="12" lengthAdjust="spacingAndGlyphs" textLength="66" x="394" y="104.2402">World Clock</text><rect fill="#070707" filter="url(#fga5easfsf4id)" height="50" rx="12.5" ry="12.5" style="stroke: #C7C7C7; stroke-width: 1.5;" width="51" x="505.5" y="90"/><line style="stroke: #C7C7C7; stroke-width: 1.5;" x1="505.5" x2="556.5" y1="112" y2="112"/><text fill="#FFFFFF" font-family="Helvetica" font-size="12" lengthAdjust="spacingAndGlyphs" textLength="31" x="515.5" y="104.2402">Timer</text><rect fill="#070707" filter="url(#fga5easfsf4id)" height="50" rx="12.5" ry="12.5" style="stroke: #C7C7C7; stroke-width: 1.5;" width="52" x="592" y="90"/><line style="stroke: #C7C7C7; stroke-width: 1.5;" x1="592" x2="644" y1="112" y2="112"/><text fill="#FFFFFF" font-family="Helvetica" font-size="12" lengthAdjust="spacingAndGlyphs" textLength="32" x="602" y="104.2402">Alarm</text><rect fill="#070707" filter="url(#fga5easfsf4id)" height="50" rx="12.5" ry="12.5" style="stroke: #C7C7C7; stroke-width: 1.5;" width="106" x="287" y="214"/><line style="stroke: #C7C7C7; stroke-width: 1.5;" x1="287" x2="393" y1="236" y2="236"/><text fill="#FFFFFF" font-family="Helvetica" font-size="12" lengthAdjust="spacingAndGlyphs" textLength="86" x="297" y="228.2402">New Time Zone</text><rect fill="#070707" filter="url(#fga5easfsf4id)" height="50" rx="12.5" ry="12.5" style="stroke: #C7C7C7; stroke-width: 1.5;" width="82" x="696" y="214"/><line style="stroke: #C7C7C7; stroke-width: 1.5;" x1="696" x2="778" y1="248" y2="248"/><text fill="#FFFFFF" font-family="Helvetica" font-size="12" lengthAdjust="spacingAndGlyphs" textLength="62" x="706" y="228.2402">&lt;&lt;modal&gt;&gt;</text><text fill="#FFFFFF" font-family="Helvetica" font-size="12" lengthAdjust="spacingAndGlyphs" textLength="60" x="707" y="240.2402">New Alarm</text><rect fill="#070707" filter="url(#fga5easfsf4id)" height="50" rx="12.5" ry="12.5" style="stroke: #C7C7C7; stroke-width: 1.5;" width="96" x="565" y="214"/><line style="stroke: #C7C7C7; stroke-width: 1.5;" x1="565" x2="661" y1="248" y2="248"/><text fill="#FFFFFF" font-family="Helvetica" font-size="12" lengthAdjust="spacingAndGlyphs" textLength="76" x="575" y="228.2402">&lt;&lt;webview&gt;&gt;</text><text fill="#FFFFFF" font-family="Helvetica" font-size="12" lengthAdjust="spacingAndGlyphs" textLength="26" x="600" y="240.2402">Help</text><rect fill="#070707" filter="url(#fga5easfsf4id)" height="50" rx="12.5" ry="12.5" style="stroke: #C7C7C7; stroke-width: 1.5;" width="102" x="813" y="214"/><line style="stroke: #C7C7C7; stroke-width: 1.5;" x1="813" x2="915" y1="248" y2="248"/><text fill="#FFFFFF" font-family="Helvetica" font-size="12" lengthAdjust="spacingAndGlyphs" textLength="62" x="833" y="228.2402">&lt;&lt;modal&gt;&gt;</text><text fill="#FFFFFF" font-family="Helvetica" font-size="12" lengthAdjust="spacingAndGlyphs" textLength="82" x="823" y="240.2402">Choose Sound</text><rect fill="#070707" filter="url(#fga5easfsf4id)" height="50" rx="12.5" ry="12.5" style="stroke: #C7C7C7; stroke-width: 1.5;" width="92" x="6" y="214"/><line style="stroke: #C7C7C7; stroke-width: 1.5;" x1="6" x2="98" y1="248" y2="248"/><text fill="#FFFFFF" font-family="Helvetica" font-size="12" lengthAdjust="spacingAndGlyphs" textLength="72" x="16" y="228.2402">&lt;&lt;external&gt;&gt;</text><text fill="#FFFFFF" font-family="Helvetica" font-size="12" lengthAdjust="spacingAndGlyphs" textLength="70" x="17" y="240.2402">External App</text><rect fill="#070707" filter="url(#fga5easfsf4id)" height="50" rx="12.5" ry="12.5" style="stroke: #C7C7C7; stroke-width: 1.5;" width="101" x="428.5" y="214"/><line style="stroke: #C7C7C7; stroke-width: 1.5;" x1="428.5" x2="529.5" y1="236" y2="236"/><text fill="#FFFFFF" font-family="Helvetica" font-size="12" lengthAdjust="spacingAndGlyphs" textLength="81" x="438.5" y="228.2402">Running Timer</text><ellipse cx="427" cy="18" fill="#FFFFFF" filter="url(#fga5easfsf4id)" rx="10" ry="10" style="stroke: none; stroke-width: 1.0;"/><rect fill="#070707" filter="url(#fga5easfsf4id)" height="50" rx="12.5" ry="12.5" style="stroke: #C7C7C7; stroke-width: 1.5;" width="64" x="308" y="338"/><line style="stroke: #C7C7C7; stroke-width: 1.5;" x1="308" x2="372" y1="360" y2="360"/><text fill="#FFFFFF" font-family="Helvetica" font-size="12" lengthAdjust="spacingAndGlyphs" textLength="44" x="318" y="352.2402">Settings</text><!--MD5=[6eddd5bed8ee1426b8bc3e0d91e0bfcd]
link *start to WorldClock--><path d="M427,28.0154 C427,41.2004 427,64.9762 427,84.342 " fill="none" id="*start-&gt;WorldClock" style="stroke: #C7C7C7; stroke-width: 1.0;"/><polygon fill="#C7C7C7" points="427,89.6747,431,80.6747,427,84.6747,423,80.6747,427,89.6747" style="stroke: #C7C7C7; stroke-width: 1.0;"/><!--MD5=[4ffe27661fd291bc87144f9af1d1928c]
link WorldClock to NewTimeZone--><path d="M383.8383,139.6293 C377.9274,142.6232 371.8721,145.5016 366,148 C336.3817,160.6018 315.9911,144.0118 297,170 C287.7169,182.7033 294.6706,197.426 305.4813,210.001 " fill="none" id="WorldClock-&gt;NewTimeZone" style="stroke: #C7C7C7; stroke-width: 1.0;"/><polygon fill="#C7C7C7" points="308.9464,213.83,305.873,204.4729,305.5913,210.1228,299.9415,209.8411,308.9464,213.83" style="stroke: #C7C7C7; stroke-width: 1.0;"/><text fill="#FFFFFF" font-family="Helvetica" font-size="12" lengthAdjust="spacingAndGlyphs" textLength="83" x="298" y="180.2402">tap[Add Button]</text><!--MD5=[d904c2471e624dc483eed73a9dbb3da3]
link Alarm to NewAlarm--><path d="M644.2025,132.3661 C658.3339,142.4253 675.5762,155.8695 689,170 C700.2873,181.8815 710.9089,196.6174 719.2766,209.4167 " fill="none" id="Alarm-&gt;NewAlarm" style="stroke: #C7C7C7; stroke-width: 1.0;"/><polygon fill="#C7C7C7" points="722.0257,213.6762,720.5061,203.9453,719.3143,209.4752,713.7845,208.2834,722.0257,213.6762" style="stroke: #C7C7C7; stroke-width: 1.0;"/><text fill="#FFFFFF" font-family="Helvetica" font-size="12" lengthAdjust="spacingAndGlyphs" textLength="83" x="702" y="180.2402">tap[Add Button]</text><!--MD5=[337eae6fb2b02e9a24c7ab4e1d0e59c8]
link WorldClock to Help--><path d="M420.8519,140.1874 C418.9021,154.5082 419.3344,171.9345 429,184 C462.8321,226.2325 495.3932,197.7232 547,214 C551.2907,215.3533 555.7084,216.8327 560.1283,218.3742 " fill="none" id="WorldClock-&gt;Help" style="stroke: #C7C7C7; stroke-width: 1.0;"/><polygon fill="#C7C7C7" points="564.9194,220.0682,557.7677,213.2967,560.2054,218.4013,555.1008,220.8391,564.9194,220.0682" style="stroke: #C7C7C7; stroke-width: 1.0;"/><text fill="#FFFFFF" font-family="Helvetica" font-size="12" lengthAdjust="spacingAndGlyphs" textLength="64" x="430" y="180.2402">select[Help]</text><!--MD5=[695a57ddcc3505855df12ea9534216b5]
link Alarm to Help--><path d="M616.9882,140.0933 C616.1885,159.926 615.0693,187.6804 614.2201,208.7424 " fill="none" id="Alarm-&gt;Help" style="stroke: #C7C7C7; stroke-width: 1.0;"/><polygon fill="#C7C7C7" points="614.0103,213.9441,618.3699,205.1127,614.2119,208.9482,610.3764,204.7902,614.0103,213.9441" style="stroke: #C7C7C7; stroke-width: 1.0;"/><text fill="#FFFFFF" font-family="Helvetica" font-size="12" lengthAdjust="spacingAndGlyphs" textLength="64" x="616" y="180.2402">select[Help]</text><!--MD5=[6f035f8614e4218898e06e6d7694603d]
link WorldClock to Settings--><path d="M383.9381,139.871 C378.0113,142.8264 371.925,145.6297 366,148 C286.5,179.8041 231.7919,142.2904 185,214 C147.1051,272.0747 245.838,324.3285 302.8556,348.6259 " fill="none" id="WorldClock-&gt;Settings" style="stroke: #C7C7C7; stroke-width: 1.0;"/><polygon fill="#C7C7C7" points="307.5615,350.6083,300.8204,343.4279,302.9537,348.6671,297.7145,350.8004,307.5615,350.6083" style="stroke: #C7C7C7; stroke-width: 1.0;"/><text fill="#FFFFFF" font-family="Helvetica" font-size="12" lengthAdjust="spacingAndGlyphs" textLength="82" x="186" y="242.2402">select[Settings]</text><!--MD5=[3c21fcb6746f716f4fa6c6eefe3e0390]
link Alarm to Settings--><path d="M644.1253,116.1797 C710.2347,119.7003 881.7673,132.3385 922,170 C952.708,198.7455 960.184,231.9015 933,264 C896.6563,306.9142 501.2419,347.7359 377.0786,359.5747 " fill="none" id="Alarm-&gt;Settings" style="stroke: #C7C7C7; stroke-width: 1.0;"/><polygon fill="#C7C7C7" points="372.0734,360.0502,381.4114,363.1809,377.051,359.5772,380.6546,355.2167,372.0734,360.0502" style="stroke: #C7C7C7; stroke-width: 1.0;"/><text fill="#FFFFFF" font-family="Helvetica" font-size="12" lengthAdjust="spacingAndGlyphs" textLength="82" x="950" y="242.2402">select[Settings]</text><!--MD5=[0d0a0e296db4eefd1087cf71168cb2f4]
link NewTimeZone to Settings--><path d="M340,264.0933 C340,283.926 340,311.6804 340,332.7424 " fill="none" id="NewTimeZone-&gt;Settings" style="stroke: #C7C7C7; stroke-width: 1.0;"/><polygon fill="#C7C7C7" points="340,337.9441,344,328.9441,340,332.9441,336,328.9441,340,337.9441" style="stroke: #C7C7C7; stroke-width: 1.0;"/><text fill="#FFFFFF" font-family="Helvetica" font-size="12" lengthAdjust="spacingAndGlyphs" textLength="82" x="341" y="304.2402">select[Settings]</text><!--MD5=[1ceaea411eda308dafc35a4cb1e09401]
link Alarm to ChooseSound--><path d="M644.0571,119.15 C679.879,125.7112 745.4159,140.8413 794,170 C811.52,180.515 827.9651,196.2894 840.5078,210.1026 " fill="none" id="Alarm-&gt;ChooseSound" style="stroke: #C7C7C7; stroke-width: 1.0;"/><polygon fill="#C7C7C7" points="843.9397,213.9407,840.9224,204.5654,840.6069,210.2135,834.9588,209.8979,843.9397,213.9407" style="stroke: #C7C7C7; stroke-width: 1.0;"/><text fill="#FFFFFF" font-family="Helvetica" font-size="12" lengthAdjust="spacingAndGlyphs" textLength="101" x="812" y="180.2402">tap[Current sound]</text><!--MD5=[e893b07b4973fa114a74e9f43a4908f3]
link StopWatch to External--><path d="M266.9056,120.7526 C210.1613,129.4089 111.6715,147.2239 84,170 C72.0141,179.8655 64.2883,195.2214 59.4375,208.9445 " fill="none" id="StopWatch-&gt;External" style="stroke: #C7C7C7; stroke-width: 1.0;"/><polygon fill="#C7C7C7" points="57.7779,213.9133,64.4233,206.6443,59.362,209.1709,56.8354,204.1096,57.7779,213.9133" style="stroke: #C7C7C7; stroke-width: 1.0;"/><text fill="#FFFFFF" font-family="Helvetica" font-size="12" lengthAdjust="spacingAndGlyphs" textLength="56" x="85" y="180.2402">tap[Share]</text><!--MD5=[0ab5a7620140a396d00bc4f88b484046]
link Timer to RunningTimer--><path d="M520.477,140.0933 C512.0896,160.094 500.3236,188.1514 491.4647,209.2764 " fill="none" id="Timer-&gt;RunningTimer" style="stroke: #C7C7C7; stroke-width: 1.0;"/><polygon fill="#C7C7C7" points="489.5073,213.9441,496.6767,207.1913,491.441,209.3332,489.2992,204.0974,489.5073,213.9441" style="stroke: #C7C7C7; stroke-width: 1.0;"/><text fill="#FFFFFF" font-family="Helvetica" font-size="12" lengthAdjust="spacingAndGlyphs" textLength="48" x="507" y="180.2402">tap[Start]</text><!--MD5=[0a04400e19a5c9a4b4c04b460cf22bf1]
@startuml
skinparam monochrome reverse
skinparam componentStyle uml2
skinparam defaultFont {
    Size 12
    Name Helvetica
}
skinparam backgroundColor white

state "New Time Zone" as NewTimeZone
state "<<modal>>\nNew Alarm" as NewAlarm
state "<<webview>>\nHelp" as Help
state "<<modal>>\nChoose Sound" as ChooseSound
state "<<external>>\nExternal App" as External
state "Running Timer" as RunningTimer

state Tabs {
state "Stop Watch" as StopWatch
state "World Clock" as WorldClock
state Timer
state Alarm
}
[*] - -> WorldClock
WorldClock - -> NewTimeZone : tap[Add Button]
Alarm - -> NewAlarm : tap[Add Button]
WorldClock - -> Help : select[Help]
Alarm - -> Help : select[Help]
WorldClock - -> Settings : select[Settings]
Alarm - -> Settings : select[Settings]
NewTimeZone - -> Settings : select[Settings]
Alarm - -> ChooseSound : tap[Current sound]
StopWatch - -> External : tap[Share]
Timer - -> RunningTimer : tap[Start]
@enduml

PlantUML version 1.2020.06(Sun Apr 05 14:38:32 CEST 2020)
(GPL source distribution)
Java Runtime: Java(TM) SE Runtime Environment
JVM: Java HotSpot(TM) 64-Bit Server VM
Java Version: 1.8.0_131-b11
Operating System: Mac OS X
Default Encoding: UTF-8
Language: de
Country: DE
--></g></svg>