<?xml version="1.0" encoding="UTF-8" standalone="no"?><svg xmlns="http://www.w3.org/2000/svg" xmlns:xlink="http://www.w3.org/1999/xlink" contentScriptType="application/ecmascript" contentStyleType="text/css" height="837px" preserveAspectRatio="none" style="width:737px;height:837px;background:#000000;" version="1.1" viewBox="0 0 737 837" width="737px" zoomAndPan="magnify"><defs><filter height="300%" id="f86fkgthsrdda" width="300%" x="-1" y="-1"><feGaussianBlur result="blurOut" stdDeviation="2.0"/><feColorMatrix in="blurOut" result="blurOut2" type="matrix" values="0 0 0 0 0 0 0 0 0 0 0 0 0 0 0 0 0 0 .4 0"/><feOffset dx="4.0" dy="4.0" in="blurOut2" result="blurOut3"/><feBlend in="SourceGraphic" in2="blurOut3" mode="normal"/></filter></defs><g><!--MD5=[38432366bfe819e98b676fd15dc38953]
cluster Launching--><polygon fill="#000000" filter="url(#f86fkgthsrdda)" points="14,16,79,16,86,34,118,34,118,498,14,498,14,16" style="stroke: #FFFFFF; stroke-width: 1.5;"/><line style="stroke: #FFFFFF; stroke-width: 1.5;" x1="14" x2="86" y1="34" y2="34"/><text fill="#FFFFFF" font-family="Helvetica" font-size="12" font-weight="bold" lengthAdjust="spacingAndGlyphs" textLength="59" x="18" y="27.2402">Launching</text><!--MD5=[04aee1d8cadfe8db85d02551925bd584]
cluster Running--><polygon fill="#000000" filter="url(#f86fkgthsrdda)" points="67,519,120,519,127,537,185,537,185,582,67,582,67,519" style="stroke: #FFFFFF; stroke-width: 1.5;"/><line style="stroke: #FFFFFF; stroke-width: 1.5;" x1="67" x2="127" y1="537" y2="537"/><text fill="#FFFFFF" font-family="Helvetica" font-size="12" font-weight="bold" lengthAdjust="spacingAndGlyphs" textLength="47" x="71" y="530.2402">Running</text><!--MD5=[dfcf3491fa28dd7bdf73ed84eccda2c2]
cluster Leaving--><polygon fill="#000000" filter="url(#f86fkgthsrdda)" points="301,349,352,349,359,367,680,367,680,825,301,825,301,349" style="stroke: #FFFFFF; stroke-width: 1.5;"/><line style="stroke: #FFFFFF; stroke-width: 1.5;" x1="301" x2="359" y1="367" y2="367"/><text fill="#FFFFFF" font-family="Helvetica" font-size="12" font-weight="bold" lengthAdjust="spacingAndGlyphs" textLength="45" x="305" y="360.2402">Leaving</text><ellipse cx="66" cy="49" fill="#FFFFFF" filter="url(#f86fkgthsrdda)" rx="10" ry="10" style="stroke: none; stroke-width: 1.0;"/><rect fill="#070707" filter="url(#f86fkgthsrdda)" height="32" rx="12.5" ry="12.5" style="stroke: #C7C7C7; stroke-width: 1.5;" width="79" x="26.5" y="142"/><text fill="#FFFFFF" font-family="Helvetica" font-size="12" lengthAdjust="spacingAndGlyphs" textLength="59" x="36.5" y="161.2402">onCreate()</text><rect fill="#070707" filter="url(#f86fkgthsrdda)" height="32" rx="12.5" ry="12.5" style="stroke: #C7C7C7; stroke-width: 1.5;" width="67" x="32.5" y="288"/><text fill="#FFFFFF" font-family="Helvetica" font-size="12" lengthAdjust="spacingAndGlyphs" textLength="47" x="42.5" y="307.2402">onStart()</text><rect fill="#070707" filter="url(#f86fkgthsrdda)" height="32" rx="12.5" ry="12.5" style="stroke: #C7C7C7; stroke-width: 1.5;" width="88" x="22" y="458"/><text fill="#FFFFFF" font-family="Helvetica" font-size="12" lengthAdjust="spacingAndGlyphs" textLength="68" x="32" y="477.2402">onResume()</text><rect fill="#070707" filter="url(#f86fkgthsrdda)" height="32" rx="12.5" ry="12.5" style="stroke: #C7C7C7; stroke-width: 1.5;" width="102" x="75" y="542"/><text fill="#FFFFFF" font-family="Helvetica" font-size="12" lengthAdjust="spacingAndGlyphs" textLength="82" x="85" y="561.2402">Custom Events</text><rect fill="#070707" filter="url(#f86fkgthsrdda)" height="32" rx="12.5" ry="12.5" style="stroke: #C7C7C7; stroke-width: 1.5;" width="77" x="309.5" y="372"/><text fill="#FFFFFF" font-family="Helvetica" font-size="12" lengthAdjust="spacingAndGlyphs" textLength="57" x="319.5" y="391.2402">onPause()</text><rect fill="#070707" filter="url(#f86fkgthsrdda)" height="32" rx="12.5" ry="12.5" style="stroke: #C7C7C7; stroke-width: 1.5;" width="67" x="468.5" y="542"/><text fill="#FFFFFF" font-family="Helvetica" font-size="12" lengthAdjust="spacingAndGlyphs" textLength="47" x="478.5" y="561.2402">onStop()</text><rect fill="#070707" filter="url(#f86fkgthsrdda)" height="32" rx="12.5" ry="12.5" style="stroke: #C7C7C7; stroke-width: 1.5;" width="84" x="422" y="682"/><text fill="#FFFFFF" font-family="Helvetica" font-size="12" lengthAdjust="spacingAndGlyphs" textLength="64" x="432" y="701.2402">onDestroy()</text><ellipse cx="378" cy="807" fill="none" filter="url(#f86fkgthsrdda)" rx="10" ry="10" style="stroke: #FFFFFF; stroke-width: 1.0;"/><ellipse cx="378.5" cy="807.5" fill="#FFFFFF" rx="6" ry="6" style="stroke: none; stroke-width: 1.0;"/><rect fill="#070707" filter="url(#f86fkgthsrdda)" height="32" rx="12.5" ry="12.5" style="stroke: #C7C7C7; stroke-width: 1.5;" width="81" x="391.5" y="215"/><text fill="#FFFFFF" font-family="Helvetica" font-size="12" lengthAdjust="spacingAndGlyphs" textLength="61" x="401.5" y="234.2402">onRestart()</text><!--MD5=[dcafacc43ce989190c7e285a8610fa39]
link start to onCreate()--><path d="M66,59.0591 C66,76.6001 66,113.1455 66,136.5751 " fill="none" id="start-&gt;onCreate()" style="stroke: #C7C7C7; stroke-width: 1.0;"/><polygon fill="#C7C7C7" points="66,141.6521,70,132.6521,66,136.6521,62,132.6521,66,141.6521" style="stroke: #C7C7C7; stroke-width: 1.0;"/><!--MD5=[e63bece0040034bf5b329d6d9f326a15]
link onCreate() to onStart()--><path d="M66,174.1824 C66,200.6022 66,253.0065 66,282.5134 " fill="none" id="onCreate()-&gt;onStart()" style="stroke: #C7C7C7; stroke-width: 1.0;"/><polygon fill="#C7C7C7" points="66,287.7451,70,278.7451,66,282.7451,62,278.7451,66,287.7451" style="stroke: #C7C7C7; stroke-width: 1.0;"/><!--MD5=[76527fc6f754b62e12ed49abc2935716]
link onStart() to onResume()--><path d="M62.6178,320.1553 C57.8217,345.4015 50.2341,395.6999 56,438 C56.6562,442.8144 57.7846,447.8936 59.0526,452.6704 " fill="none" id="onStart()-&gt;onResume()" style="stroke: #C7C7C7; stroke-width: 1.0;"/><polygon fill="#C7C7C7" points="60.4676,457.7082,61.8847,447.9618,59.1155,452.8945,54.1828,450.1252,60.4676,457.7082" style="stroke: #C7C7C7; stroke-width: 1.0;"/><!--MD5=[dd727eab69787c2e119a07e765fb3f2c]
link onResume() to Custom Events--><path d="M77.5686,490.196 C87.1972,503.6761 100.9615,522.9461 111.3571,537.5 " fill="none" id="onResume()-&gt;Custom Events" style="stroke: #C7C7C7; stroke-width: 1.0;"/><polygon fill="#C7C7C7" points="114.4669,541.8537,112.4906,532.2052,111.5607,537.7851,105.9808,536.8551,114.4669,541.8537" style="stroke: #C7C7C7; stroke-width: 1.0;"/><!--MD5=[c6d27693227785c06738d5c7f48b63ec]
link Custom Events to onPause()--><path d="M134.9125,541.9115 C147.4873,520.4227 172.2547,482.2513 202,458 C232.6069,433.0462 273.5889,414.3999 304.3418,402.6531 " fill="none" id="Custom Events-&gt;onPause()" style="stroke: #C7C7C7; stroke-width: 1.0;"/><polygon fill="#C7C7C7" points="309.1865,400.8271,299.3541,400.2583,304.5078,402.5905,302.1756,407.7442,309.1865,400.8271" style="stroke: #C7C7C7; stroke-width: 1.0;"/><text fill="#FFFFFF" font-family="Helvetica" font-size="12" lengthAdjust="spacingAndGlyphs" textLength="119" x="203" y="471.2402">Another activty comes</text><text fill="#FFFFFF" font-family="Helvetica" font-size="12" lengthAdjust="spacingAndGlyphs" textLength="103" x="212.5" y="483.2402">into the foreground</text><!--MD5=[a7408f03650ad7a674741e09e049aff7]
link onPause() to onResume()--><path d="M309.4574,390.1333 C236.0055,394.5942 81.8388,406.0107 66,424 C59.259,431.6563 58.7068,442.8196 60.0821,452.6567 " fill="none" id="onPause()-&gt;onResume()" style="stroke: #C7C7C7; stroke-width: 1.0;"/><polygon fill="#C7C7C7" points="60.9544,457.6544,63.3473,448.1007,60.0947,452.7289,55.4665,449.4762,60.9544,457.6544" style="stroke: #C7C7C7; stroke-width: 1.0;"/><text fill="#FFFFFF" font-family="Helvetica" font-size="12" lengthAdjust="spacingAndGlyphs" textLength="140" x="67" y="434.2402">User returns to the activity</text><!--MD5=[b898d38d8e92b6839786bb841756ebcd]
link onPause() to onStop()--><path d="M349.591,404.0605 C352.6597,427.2972 361.3401,470.5129 385,498 C405.5233,521.8431 437.8565,537.4032 463.3367,546.6886 " fill="none" id="onPause()-&gt;onStop()" style="stroke: #C7C7C7; stroke-width: 1.0;"/><polygon fill="#C7C7C7" points="468.3358,548.4626,461.1919,541.6829,463.6237,546.7903,458.5163,549.2222,468.3358,548.4626" style="stroke: #C7C7C7; stroke-width: 1.0;"/><text fill="#FFFFFF" font-family="Helvetica" font-size="12" lengthAdjust="spacingAndGlyphs" textLength="166" x="386" y="477.2402">The activity is no longer visible</text><!--MD5=[313a6ace28494df9dfb28844fda38f63]
link onStop() to onDestroy()--><path d="M497.6409,574.0598 C490.777,599.3477 477.4449,648.466 469.7864,676.6815 " fill="none" id="onStop()-&gt;onDestroy()" style="stroke: #C7C7C7; stroke-width: 1.0;"/><polygon fill="#C7C7C7" points="468.4253,681.6963,474.6433,674.0585,469.7351,676.8709,466.9227,671.9627,468.4253,681.6963" style="stroke: #C7C7C7; stroke-width: 1.0;"/><text fill="#FFFFFF" font-family="Helvetica" font-size="12" lengthAdjust="spacingAndGlyphs" textLength="136" x="503" y="625.2402">The activity is finishing or</text><text fill="#FFFFFF" font-family="Helvetica" font-size="12" lengthAdjust="spacingAndGlyphs" textLength="165" x="490" y="637.2402">being destroyed by the system</text><!--MD5=[62170dd2c9ece94c0dd051003cd5fb10]
link onDestroy() to end--><path d="M451.3104,714.0833 C433.9352,736.1054 403.1258,775.1545 387.5633,794.8791 " fill="none" id="onDestroy()-&gt;end" style="stroke: #C7C7C7; stroke-width: 1.0;"/><polygon fill="#C7C7C7" points="384.3064,799.0071,393.0215,794.4193,387.4035,795.0818,386.741,789.4639,384.3064,799.0071" style="stroke: #C7C7C7; stroke-width: 1.0;"/><!--MD5=[3766423e2ed3bcdf7c38baa5a1e0d251]
link onPause() to end--><path d="M342.1961,404.2509 C336.6086,421.3701 329,449.2292 329,474 C329,474 329,474 329,755.5 C329,775.9018 349.4328,791.4299 363.9093,799.8712 " fill="none" id="onPause()-&gt;end" style="stroke: #C7C7C7; stroke-width: 1.0;"/><polygon fill="#C7C7C7" points="368.5523,802.459,362.6384,794.5834,364.1849,800.0247,358.7435,801.5712,368.5523,802.459" style="stroke: #C7C7C7; stroke-width: 1.0;"/><text fill="#FFFFFF" font-family="Helvetica" font-size="12" lengthAdjust="spacingAndGlyphs" textLength="131" x="330" y="625.2402">Apps with higher priority</text><text fill="#FFFFFF" font-family="Helvetica" font-size="12" lengthAdjust="spacingAndGlyphs" textLength="75" x="359.5" y="637.2402">need memory</text><!--MD5=[7a38321ae3f8497386872e72c79ca7f4]
link onStop() to onRestart()--><path d="M526.1885,541.7127 C545.3799,526.6511 569,502.3542 569,474 C569,304 569,304 569,304 C569,261.8292 517.8167,243.9376 478.0195,236.3999 " fill="none" id="onStop()-&gt;onRestart()" style="stroke: #C7C7C7; stroke-width: 1.0;"/><polygon fill="#C7C7C7" points="472.7336,235.446,480.8801,240.9808,477.6541,236.334,482.3009,233.108,472.7336,235.446" style="stroke: #C7C7C7; stroke-width: 1.0;"/><text fill="#FFFFFF" font-family="Helvetica" font-size="12" lengthAdjust="spacingAndGlyphs" textLength="155" x="570" y="391.2402">User navigates to the activity</text><!--MD5=[fa1706b3d8697c7a856fe2ee531e291c]
link onRestart() to onStart()--><path d="M391.4332,239.0912 C320.5086,253.2373 174.8843,282.2826 105.0446,296.2124 " fill="none" id="onRestart()-&gt;onStart()" style="stroke: #C7C7C7; stroke-width: 1.0;"/><polygon fill="#C7C7C7" points="99.7432,297.2698,109.3518,299.4321,104.6466,296.2918,107.787,291.5867,99.7432,297.2698" style="stroke: #C7C7C7; stroke-width: 1.0;"/><!--MD5=[9909fcf138f121985e96e4e148b520e5]
@startuml
skinparam monochrome reverse
skinparam componentStyle uml2
skinparam defaultFont {
    Size 12
    Name Helvetica
}
skinparam backgroundColor white

partition Launching {
(*) - -> "onCreate()"
- -> "onStart()"
- -> "onResume()"
}
partition Running {
"onResume()" - -> "Custom Events"
}
partition Leaving {
"Custom Events" - ->[Another activty comes\n into the foreground] "onPause()"
"onPause()" - ->[User returns to the activity] "onResume()"
"onPause()" - ->[The activity is no longer visible] "onStop()"
"onStop()" - ->[The activity is finishing or\n being destroyed by the system] "onDestroy()"
"onDestroy()" - -> (*)
"onPause()" - ->[Apps with higher priority\n need memory] (*)
}
"onStop()" - ->[User navigates to the activity] "onRestart()"
"onRestart()" - -> "onStart()"

@enduml

PlantUML version 1.2020.06(Sun Apr 05 14:38:32 CEST 2020)
(GPL source distribution)
Java Runtime: Java(TM) SE Runtime Environment
JVM: Java HotSpot(TM) 64-Bit Server VM
Java Version: 1.8.0_131-b11
Operating System: Mac OS X
Default Encoding: UTF-8
Language: de
Country: DE
--></g></svg>