<?xml version="1.0" encoding="UTF-8" standalone="no"?><svg xmlns="http://www.w3.org/2000/svg" xmlns:xlink="http://www.w3.org/1999/xlink" contentScriptType="application/ecmascript" contentStyleType="text/css" height="601px" preserveAspectRatio="none" style="width:758px;height:601px;background:#000000;" version="1.1" viewBox="0 0 758 601" width="758px" zoomAndPan="magnify"><defs><filter height="300%" id="fiv79iprjricy" width="300%" x="-1" y="-1"><feGaussianBlur result="blurOut" stdDeviation="2.0"/><feColorMatrix in="blurOut" result="blurOut2" type="matrix" values="0 0 0 0 0 0 0 0 0 0 0 0 0 0 0 0 0 0 .4 0"/><feOffset dx="4.0" dy="4.0" in="blurOut2" result="blurOut3"/><feBlend in="SourceGraphic" in2="blurOut3" mode="normal"/></filter></defs><g><!--MD5=[d64883541e3d62e3241c4d12decf100d]
cluster Application--><polygon fill="#000000" filter="url(#fiv79iprjricy)" points="297,16,367,16,374,34,507,34,507,321,297,321,297,16" style="stroke: #FFFFFF; stroke-width: 1.5;"/><line style="stroke: #FFFFFF; stroke-width: 1.5;" x1="297" x2="374" y1="34" y2="34"/><text fill="#FFFFFF" font-family="Helvetica" font-size="12" font-weight="bold" lengthAdjust="spacingAndGlyphs" textLength="64" x="301" y="27.2402">Application</text><!--MD5=[652171ff7b6131a32ceaea9ce7a7fa85]
cluster Scene--><polygon fill="#000000" filter="url(#fiv79iprjricy)" points="270,367,312,367,319,385,736,385,736,589,270,589,270,367" style="stroke: #FFFFFF; stroke-width: 1.5;"/><line style="stroke: #FFFFFF; stroke-width: 1.5;" x1="270" x2="319" y1="385" y2="385"/><text fill="#FFFFFF" font-family="Helvetica" font-size="12" font-weight="bold" lengthAdjust="spacingAndGlyphs" textLength="36" x="274" y="378.2402">Scene</text><!--MD5=[e320b41f2d43b11d6de1346cab4ea5fc]
cluster View--><polygon fill="#000000" filter="url(#fiv79iprjricy)" points="14,130,47,130,54,148,262,148,262,516,14,516,14,130" style="stroke: #FFFFFF; stroke-width: 1.5;"/><line style="stroke: #FFFFFF; stroke-width: 1.5;" x1="14" x2="54" y1="148" y2="148"/><text fill="#FFFFFF" font-family="Helvetica" font-size="12" font-weight="bold" lengthAdjust="spacingAndGlyphs" textLength="27" x="18" y="141.2402">View</text><ellipse cx="402" cy="49" fill="#FFFFFF" filter="url(#fiv79iprjricy)" rx="10" ry="10" style="stroke: none; stroke-width: 1.0;"/><rect fill="#070707" filter="url(#fiv79iprjricy)" height="32" rx="12.5" ry="12.5" style="stroke: #C7C7C7; stroke-width: 1.5;" width="194" x="305" y="153"/><text fill="#FFFFFF" font-family="Helvetica" font-size="12" lengthAdjust="spacingAndGlyphs" textLength="174" x="315" y="172.2402">didFinishLaunchingWithOptions</text><rect fill="#070707" filter="url(#fiv79iprjricy)" height="32" rx="12.5" ry="12.5" style="stroke: #C7C7C7; stroke-width: 1.5;" width="172" x="316" y="281"/><text fill="#FFFFFF" font-family="Helvetica" font-size="12" lengthAdjust="spacingAndGlyphs" textLength="152" x="326" y="300.2402">configurationForConnecting</text><rect fill="#070707" filter="url(#fiv79iprjricy)" height="32" rx="12.5" ry="12.5" style="stroke: #C7C7C7; stroke-width: 1.5;" width="98" x="278" y="390"/><text fill="#FFFFFF" font-family="Helvetica" font-size="12" lengthAdjust="spacingAndGlyphs" textLength="78" x="288" y="409.2402">willConnectTo</text><rect fill="#070707" filter="url(#fiv79iprjricy)" height="32" rx="12.5" ry="12.5" style="stroke: #C7C7C7; stroke-width: 1.5;" width="166" x="396" y="390"/><text fill="#FFFFFF" font-family="Helvetica" font-size="12" lengthAdjust="spacingAndGlyphs" textLength="146" x="406" y="409.2402">sceneWillEnterForeground</text><rect fill="#070707" filter="url(#fiv79iprjricy)" height="32" rx="12.5" ry="12.5" style="stroke: #C7C7C7; stroke-width: 1.5;" width="150" x="390" y="549"/><text fill="#FFFFFF" font-family="Helvetica" font-size="12" lengthAdjust="spacingAndGlyphs" textLength="130" x="400" y="568.2402">sceneDidBecomeActive</text><rect fill="#070707" filter="url(#fiv79iprjricy)" height="32" rx="12.5" ry="12.5" style="stroke: #C7C7C7; stroke-width: 1.5;" width="145" x="582.5" y="390"/><text fill="#FFFFFF" font-family="Helvetica" font-size="12" lengthAdjust="spacingAndGlyphs" textLength="125" x="592.5" y="409.2402">sceneWillResignActive</text><rect fill="#070707" filter="url(#fiv79iprjricy)" height="32" rx="12.5" ry="12.5" style="stroke: #C7C7C7; stroke-width: 1.5;" width="167" x="560.5" y="549"/><text fill="#FFFFFF" font-family="Helvetica" font-size="12" lengthAdjust="spacingAndGlyphs" textLength="147" x="570.5" y="568.2402">sceneDidEnterBackground</text><rect fill="#070707" filter="url(#fiv79iprjricy)" height="32" rx="12.5" ry="12.5" style="stroke: #C7C7C7; stroke-width: 1.5;" width="36" x="166" y="476"/><text fill="#FFFFFF" font-family="Helvetica" font-size="12" lengthAdjust="spacingAndGlyphs" textLength="16" x="176" y="495.2402">init</text><rect fill="#070707" filter="url(#fiv79iprjricy)" height="32" rx="12.5" ry="12.5" style="stroke: #C7C7C7; stroke-width: 1.5;" width="74" x="22" y="153"/><text fill="#FFFFFF" font-family="Helvetica" font-size="12" lengthAdjust="spacingAndGlyphs" textLength="54" x="32" y="172.2402">onAppear</text><rect fill="#070707" filter="url(#fiv79iprjricy)" height="32" rx="12.5" ry="12.5" style="stroke: #C7C7C7; stroke-width: 1.5;" width="102" x="116" y="153"/><text fill="#FFFFFF" font-family="Helvetica" font-size="12" lengthAdjust="spacingAndGlyphs" textLength="82" x="126" y="172.2402">Custom Events</text><rect fill="#070707" filter="url(#fiv79iprjricy)" height="32" rx="12.5" ry="12.5" style="stroke: #C7C7C7; stroke-width: 1.5;" width="93" x="160.5" y="281"/><text fill="#FFFFFF" font-family="Helvetica" font-size="12" lengthAdjust="spacingAndGlyphs" textLength="73" x="170.5" y="300.2402">OnDisappear</text><!--MD5=[8e02e08ac767e49259046c3a2543d865]
link start to didFinishLaunchingWithOptions--><path d="M402,59.2311 C402,78.7037 402,121.4688 402,147.4989 " fill="none" id="start-&gt;didFinishLaunchingWithOptions" style="stroke: #C7C7C7; stroke-width: 1.0;"/><polygon fill="#C7C7C7" points="402,152.7851,406,143.7851,402,147.7851,398,143.7851,402,152.7851" style="stroke: #C7C7C7; stroke-width: 1.0;"/><!--MD5=[927cbb271483cfa90e3115c1c394c242]
link didFinishLaunchingWithOptions to configurationForConnecting--><path d="M402,185.2113 C402,208.1976 402,250.2923 402,275.7527 " fill="none" id="didFinishLaunchingWithOptions-&gt;configurationForConnecting" style="stroke: #C7C7C7; stroke-width: 1.0;"/><polygon fill="#C7C7C7" points="402,280.9203,406,271.9203,402,275.9203,398,271.9203,402,280.9203" style="stroke: #C7C7C7; stroke-width: 1.0;"/><!--MD5=[2f966f26815a5b7015967b624e2b4262]
link configurationForConnecting to willConnectTo--><path d="M390.9335,313.0833 C377.6951,332.3231 355.5144,364.559 341.0706,385.5507 " fill="none" id="configurationForConnecting-&gt;willConnectTo" style="stroke: #C7C7C7; stroke-width: 1.0;"/><polygon fill="#C7C7C7" points="338.1119,389.8507,346.5088,384.7037,340.9462,385.7316,339.9183,380.1689,338.1119,389.8507" style="stroke: #C7C7C7; stroke-width: 1.0;"/><text fill="#FFFFFF" font-family="Helvetica" font-size="12" lengthAdjust="spacingAndGlyphs" textLength="117" x="376" y="349.2402">Chosen configuration</text><!--MD5=[de8bdb9d2076218ae66b7cc63fdd1c90]
link sceneWillEnterForeground to sceneDidBecomeActive--><path d="M477.5806,422.1208 C475.044,450.9289 469.7332,511.2448 466.8907,543.5269 " fill="none" id="sceneWillEnterForeground-&gt;sceneDidBecomeActive" style="stroke: #C7C7C7; stroke-width: 1.0;"/><polygon fill="#C7C7C7" points="466.4232,548.8366,471.1975,540.2223,466.8619,543.8559,463.2283,539.5203,466.4232,548.8366" style="stroke: #C7C7C7; stroke-width: 1.0;"/><!--MD5=[b79dd4c38ffe0415e766bc1044e1f3ba]
link sceneWillResignActive to sceneDidEnterBackground--><path d="M653.8847,422.1208 C651.8917,450.9289 647.7189,511.2448 645.4856,543.5269 " fill="none" id="sceneWillResignActive-&gt;sceneDidEnterBackground" style="stroke: #C7C7C7; stroke-width: 1.0;"/><polygon fill="#C7C7C7" points="645.1182,548.8366,649.7299,540.1342,645.4633,543.8485,641.749,539.582,645.1182,548.8366" style="stroke: #C7C7C7; stroke-width: 1.0;"/><!--MD5=[11b8bd694ccc82bcd4a379835b62b20e]
link willConnectTo to init--><path d="M300.1028,422.1759 C273.1404,438.3911 232.0889,463.0794 206.7122,478.3409 " fill="none" id="willConnectTo-&gt;init" style="stroke: #C7C7C7; stroke-width: 1.0;"/><polygon fill="#C7C7C7" points="202.1632,481.0767,211.9373,479.8659,206.4479,478.4997,207.8141,473.0103,202.1632,481.0767" style="stroke: #C7C7C7; stroke-width: 1.0;"/><text fill="#FFFFFF" font-family="Helvetica" font-size="12" lengthAdjust="spacingAndGlyphs" textLength="71" x="265" y="452.2402">Chosen view</text><!--MD5=[3648cb346c4d3bc18ddec7021d4b4ec9]
link init to onAppear--><path d="M165.6024,476.4243 C134.7448,448.8864 73.8858,388.134 53,321 C39.0575,276.1842 47.3648,220.3381 53.7489,190.3747 " fill="none" id="init-&gt;onAppear" style="stroke: #C7C7C7; stroke-width: 1.0;"/><polygon fill="#C7C7C7" points="54.8329,185.4414,48.9944,193.3731,53.7597,190.3249,56.808,195.0902,54.8329,185.4414" style="stroke: #C7C7C7; stroke-width: 1.0;"/><text fill="#FFFFFF" font-family="Helvetica" font-size="12" lengthAdjust="spacingAndGlyphs" textLength="96" x="54" y="300.2402">For each subview</text><!--MD5=[5caf47f57ded598283313c4ab98717aa]
link onAppear to Custom Events--><path d="M96.125,169 C100.9368,169 105.7486,169 110.5604,169 " fill="none" id="onAppear-&gt;Custom Events" style="stroke: #C7C7C7; stroke-width: 1.0;"/><polygon fill="#C7C7C7" points="115.7817,169,106.7817,165,110.7817,169,106.7817,173,115.7817,169" style="stroke: #C7C7C7; stroke-width: 1.0;"/><!--MD5=[87d1cef6f53dda099a6eeee6741e3a35]
link init to sceneWillEnterForeground--><path d="M202.1995,488.6283 C231.7982,482.9723 292.0815,470.7325 342,456 C373.3194,446.7567 407.8539,434.1362 434.4147,423.8875 " fill="none" id="init-&gt;sceneWillEnterForeground" style="stroke: #C7C7C7; stroke-width: 1.0;"/><polygon fill="#C7C7C7" points="439.2788,422.0028,429.4416,421.5245,434.6165,423.8092,432.3318,428.9842,439.2788,422.0028" style="stroke: #C7C7C7; stroke-width: 1.0;"/><!--MD5=[78886d48ce67569b45d8dd22d00506b9]
link Custom Events to OnDisappear--><path d="M141.4665,185.0833 C122.8605,198.9527 102.7268,219.8685 114,240 C123.5568,257.0664 140.5413,269.6402 157.404,278.5684 " fill="none" id="Custom Events-&gt;OnDisappear" style="stroke: #C7C7C7; stroke-width: 1.0;"/><polygon fill="#C7C7C7" points="162.1506,280.9906,155.9523,273.3368,157.697,278.7179,152.3159,280.4626,162.1506,280.9906" style="stroke: #C7C7C7; stroke-width: 1.0;"/><text fill="#FFFFFF" font-family="Helvetica" font-size="12" lengthAdjust="spacingAndGlyphs" textLength="176" x="115" y="236.2402">Leaving page / for each subview</text><!--MD5=[9fb239b8a51dddec059cb0bb4ee20633]
link OnDisappear to sceneWillResignActive--><path d="M193.0427,313.243 C182.8854,327.066 172.8517,346.598 185,359 C192.524,366.6812 561.5308,364.5491 572,367 C589.9824,371.2098 608.71,379.612 623.8153,387.543 " fill="none" id="OnDisappear-&gt;sceneWillResignActive" style="stroke: #C7C7C7; stroke-width: 1.0;"/><polygon fill="#C7C7C7" points="628.382,389.984,622.3305,382.2136,623.9725,387.6269,618.5591,389.2688,628.382,389.984" style="stroke: #C7C7C7; stroke-width: 1.0;"/><text fill="#FFFFFF" font-family="Helvetica" font-size="12" lengthAdjust="spacingAndGlyphs" textLength="127" x="206.5" y="343.2402">The page is finishing or</text><text fill="#FFFFFF" font-family="Helvetica" font-size="12" lengthAdjust="spacingAndGlyphs" textLength="165" x="189" y="355.2402">being destroyed by the system</text><!--MD5=[bfe89818fdb7cac261e92c28297e489d]
link OnDisappear to init--><path d="M185.8451,313.0928 C170.9576,325.8516 152.2689,345.1307 144,367 C135.3548,389.8646 137.7259,398.3745 144,422 C148.777,439.9881 159.383,458.1749 168.474,471.5009 " fill="none" id="OnDisappear-&gt;init" style="stroke: #C7C7C7; stroke-width: 1.0;"/><polygon fill="#C7C7C7" points="171.4883,475.8266,169.6245,466.1557,168.6296,471.7244,163.061,470.7296,171.4883,475.8266" style="stroke: #C7C7C7; stroke-width: 1.0;"/><text fill="#FFFFFF" font-family="Helvetica" font-size="12" lengthAdjust="spacingAndGlyphs" textLength="119" x="145" y="409.2402">Navigate to new page</text><!--MD5=[140d67a161f7813212bfbb776d859dbe]
@startuml
skinparam monochrome reverse
skinparam componentStyle uml2
skinparam defaultFont {
    Size 12
    Name Helvetica
}
skinparam backgroundColor white

partition Application {
(*) - -> "didFinishLaunchingWithOptions"
- -> "configurationForConnecting"
}
partition Scene {
"configurationForConnecting" - ->[Chosen configuration] "willConnectTo"
"sceneWillEnterForeground" - -> "sceneDidBecomeActive"
"sceneWillResignActive" - -> "sceneDidEnterBackground"
}
partition View {
"willConnectTo" - ->[Chosen view] "init"
"init" - ->[For each subview] "onAppear" 
"onAppear" -> "Custom Events"
"init" - -> "sceneWillEnterForeground"
"Custom Events" - ->[Leaving page / for each subview] "OnDisappear"
"OnDisappear" - ->[The page is finishing or\n being destroyed by the system] "sceneWillResignActive"
"OnDisappear" - ->[Navigate to new page] "init"
}

@enduml

PlantUML version 1.2020.06(Sun Apr 05 14:38:32 CEST 2020)
(GPL source distribution)
Java Runtime: Java(TM) SE Runtime Environment
JVM: Java HotSpot(TM) 64-Bit Server VM
Java Version: 1.8.0_131-b11
Operating System: Mac OS X
Default Encoding: UTF-8
Language: de
Country: DE
--></g></svg>