<?xml version="1.0" encoding="UTF-8" standalone="no"?><svg xmlns="http://www.w3.org/2000/svg" xmlns:xlink="http://www.w3.org/1999/xlink" contentScriptType="application/ecmascript" contentStyleType="text/css" height="486px" preserveAspectRatio="none" style="width:731px;height:486px;background:#000000;" version="1.1" viewBox="0 0 731 486" width="731px" zoomAndPan="magnify"><defs><filter height="300%" id="f1qk5j3ndje7z7" width="300%" x="-1" y="-1"><feGaussianBlur result="blurOut" stdDeviation="2.0"/><feColorMatrix in="blurOut" result="blurOut2" type="matrix" values="0 0 0 0 0 0 0 0 0 0 0 0 0 0 0 0 0 0 .4 0"/><feOffset dx="4.0" dy="4.0" in="blurOut2" result="blurOut3"/><feBlend in="SourceGraphic" in2="blurOut3" mode="normal"/></filter></defs><g><!--MD5=[ea52431d0583b5fee2e33fda93c23c35]
cluster Core Ports--><rect fill="#000000" filter="url(#f1qk5j3ndje7z7)" height="346" style="stroke: #FFFFFF; stroke-width: 1.5;" width="248" x="268" y="129"/><text fill="#FFFFFF" font-family="Helvetica" font-size="12" font-weight="bold" lengthAdjust="spacingAndGlyphs" textLength="62" x="361" y="140.2402">Core Ports</text><!--MD5=[3b07e60f83c52c509f9a621f74a135ae]
cluster driven--><rect fill="#000000" filter="url(#f1qk5j3ndje7z7)" height="153" style="stroke: #FFFFFF; stroke-width: 1.5;" width="200" x="292" y="168"/><text fill="#FFFFFF" font-family="Helvetica" font-size="12" font-weight="bold" lengthAdjust="spacingAndGlyphs" textLength="36" x="374" y="179.2402">driven</text><!--MD5=[afbd3dd4b684d727eb07508c2fb8c3a3]
cluster Infrastructure Adapters--><rect fill="#000000" filter="url(#f1qk5j3ndje7z7)" height="267" style="stroke: #FFFFFF; stroke-width: 1.5;" width="222" x="22" y="24"/><text fill="#FFFFFF" font-family="Helvetica" font-size="12" font-weight="bold" lengthAdjust="spacingAndGlyphs" textLength="135" x="65.5" y="35.2402">Infrastructure Adapters</text><!--MD5=[9ddaf8ee8bcae11a9a9232f969198262]
cluster Infrastructure--><rect fill="#000000" filter="url(#f1qk5j3ndje7z7)" height="261" style="stroke: #FFFFFF; stroke-width: 1.5;" width="180" x="540" y="30"/><text fill="#FFFFFF" font-family="Helvetica" font-size="12" font-weight="bold" lengthAdjust="spacingAndGlyphs" textLength="79" x="590.5" y="41.2402">Infrastructure</text><!--MD5=[9bb0bdd047fba1a3c8d48282c35b4537]
class Post--><rect fill="#070707" filter="url(#f1qk5j3ndje7z7)" height="94" id="Post" style="stroke: #C7C7C7; stroke-width: 1.5;" width="72" x="320" y="365"/><ellipse cx="342.1" cy="380" fill="#4E4E4E" rx="10" ry="10" style="stroke: #C7C7C7; stroke-width: 1.0;"/><path d="M339.6078,377.2754 L339.6078,375.752 L344.8168,375.752 L344.8168,377.2754 L343.0766,377.2754 L343.0766,382.9766 L344.8168,382.9766 L344.8168,384.5 L339.6078,384.5 L339.6078,382.9766 L341.348,382.9766 L341.348,377.2754 Z "/><text fill="#FFFFFF" font-family="Helvetica" font-size="12" font-style="italic" lengthAdjust="spacingAndGlyphs" textLength="24" x="356.9" y="383.2402">Post</text><line style="stroke: #C7C7C7; stroke-width: 1.5;" x1="321" x2="391" y1="395" y2="395"/><text fill="#FFFFFF" font-family="Helvetica" font-size="12" lengthAdjust="spacingAndGlyphs" textLength="50" x="326" y="408.2402">int userId</text><text fill="#FFFFFF" font-family="Helvetica" font-size="12" lengthAdjust="spacingAndGlyphs" textLength="26" x="326" y="420.2402">int id</text><text fill="#FFFFFF" font-family="Helvetica" font-size="12" lengthAdjust="spacingAndGlyphs" textLength="52" x="326" y="432.2402">string title</text><text fill="#FFFFFF" font-family="Helvetica" font-size="12" lengthAdjust="spacingAndGlyphs" textLength="60" x="326" y="444.2402">string body</text><line style="stroke: #C7C7C7; stroke-width: 1.5;" x1="321" x2="391" y1="451" y2="451"/><!--MD5=[0f497c5fd98558ce34baece1687c05d0]
class PostCrudRepository--><rect fill="#070707" filter="url(#f1qk5j3ndje7z7)" height="106" id="PostCrudRepository" style="stroke: #C7C7C7; stroke-width: 1.5;" width="167" x="308.5" y="199"/><ellipse cx="334.65" cy="214" fill="#4E4E4E" rx="10" ry="10" style="stroke: #C7C7C7; stroke-width: 1.0;"/><path d="M332.1578,211.2754 L332.1578,209.752 L337.3668,209.752 L337.3668,211.2754 L335.6266,211.2754 L335.6266,216.9766 L337.3668,216.9766 L337.3668,218.5 L332.1578,218.5 L332.1578,216.9766 L333.898,216.9766 L333.898,211.2754 Z "/><text fill="#FFFFFF" font-family="Helvetica" font-size="12" font-style="italic" lengthAdjust="spacingAndGlyphs" textLength="110" x="350.35" y="217.2402">PostCrudRepository</text><line style="stroke: #C7C7C7; stroke-width: 1.5;" x1="309.5" x2="474.5" y1="229" y2="229"/><line style="stroke: #C7C7C7; stroke-width: 1.5;" x1="309.5" x2="474.5" y1="237" y2="237"/><text fill="#FFFFFF" font-family="Helvetica" font-size="12" lengthAdjust="spacingAndGlyphs" textLength="108" x="314.5" y="250.2402">int create(Post post)</text><text fill="#FFFFFF" font-family="Helvetica" font-size="12" lengthAdjust="spacingAndGlyphs" textLength="102" x="314.5" y="262.2402">Post retrieve(int id)</text><text fill="#FFFFFF" font-family="Helvetica" font-size="12" lengthAdjust="spacingAndGlyphs" textLength="96" x="314.5" y="274.2402">Post[] retrieveAll()</text><text fill="#FFFFFF" font-family="Helvetica" font-size="12" lengthAdjust="spacingAndGlyphs" textLength="155" x="314.5" y="286.2402">bool update(int id, Post post)</text><text fill="#FFFFFF" font-family="Helvetica" font-size="12" lengthAdjust="spacingAndGlyphs" textLength="95" x="314.5" y="298.2402">bool delete(int id)</text><!--MD5=[05c997b335b09e38867eb6ce2dfb84a2]
class PostRepositoryAdapter--><rect fill="#070707" filter="url(#f1qk5j3ndje7z7)" height="58" id="PostRepositoryAdapter" style="stroke: #C7C7C7; stroke-width: 1.5;" width="189" x="38.5" y="55"/><ellipse cx="67.35" cy="70" fill="#3D3D3D" rx="10" ry="10" style="stroke: #C7C7C7; stroke-width: 1.0;"/><path d="M69.184,74.248 Q68.7738,74.459 68.3227,74.5645 Q67.8715,74.6699 67.3734,74.6699 Q65.6039,74.6699 64.6723,73.5039 Q63.7406,72.3379 63.7406,70.1348 Q63.7406,67.9258 64.6723,66.7598 Q65.6039,65.5938 67.3734,65.5938 Q67.8715,65.5938 68.3285,65.6992 Q68.7855,65.8047 69.184,66.0156 L69.184,67.9375 Q68.7387,67.5273 68.3197,67.3369 Q67.9008,67.1465 67.4555,67.1465 Q66.5063,67.1465 66.0229,67.8994 Q65.5395,68.6523 65.5395,70.1348 Q65.5395,71.6113 66.0229,72.3643 Q66.5063,73.1172 67.4555,73.1172 Q67.9008,73.1172 68.3197,72.9268 Q68.7387,72.7363 69.184,72.3262 Z "/><text fill="#FFFFFF" font-family="Helvetica" font-size="12" lengthAdjust="spacingAndGlyphs" textLength="126" x="83.65" y="73.2402">PostRepositoryAdapter</text><line style="stroke: #C7C7C7; stroke-width: 1.5;" x1="39.5" x2="226.5" y1="85" y2="85"/><text fill="#FFFFFF" font-family="Helvetica" font-size="12" lengthAdjust="spacingAndGlyphs" textLength="177" x="44.5" y="98.2402">private JSONPlaceholderAPI api</text><line style="stroke: #C7C7C7; stroke-width: 1.5;" x1="39.5" x2="226.5" y1="105" y2="105"/><!--MD5=[e09a5545ce65d69a7dc1ae829dd73135]
class PostAdapter--><rect fill="#070707" filter="url(#f1qk5j3ndje7z7)" height="46" id="PostAdapter" style="stroke: #C7C7C7; stroke-width: 1.5;" width="97" x="130.5" y="229"/><ellipse cx="144.5" cy="244" fill="#3D3D3D" rx="10" ry="10" style="stroke: #C7C7C7; stroke-width: 1.0;"/><path d="M146.334,248.248 Q145.9238,248.459 145.4727,248.5645 Q145.0215,248.6699 144.5234,248.6699 Q142.7539,248.6699 141.8223,247.5039 Q140.8906,246.3379 140.8906,244.1348 Q140.8906,241.9258 141.8223,240.7598 Q142.7539,239.5938 144.5234,239.5938 Q145.0215,239.5938 145.4785,239.6992 Q145.9355,239.8047 146.334,240.0156 L146.334,241.9375 Q145.8887,241.5273 145.4697,241.3369 Q145.0508,241.1465 144.6055,241.1465 Q143.6563,241.1465 143.1729,241.8994 Q142.6895,242.6523 142.6895,244.1348 Q142.6895,245.6113 143.1729,246.3643 Q143.6563,247.1172 144.6055,247.1172 Q145.0508,247.1172 145.4697,246.9268 Q145.8887,246.7363 146.334,246.3262 Z "/><text fill="#FFFFFF" font-family="Helvetica" font-size="12" lengthAdjust="spacingAndGlyphs" textLength="67" x="157.5" y="247.2402">PostAdapter</text><line style="stroke: #C7C7C7; stroke-width: 1.5;" x1="131.5" x2="226.5" y1="259" y2="259"/><line style="stroke: #C7C7C7; stroke-width: 1.5;" x1="131.5" x2="226.5" y1="267" y2="267"/><!--MD5=[21ee0629e09cce9562b1e2c49779cfae]
class JSONPlaceholderAPI--><rect fill="#070707" filter="url(#f1qk5j3ndje7z7)" height="46" id="JSONPlaceholderAPI" style="stroke: #C7C7C7; stroke-width: 1.5;" width="147" x="556.5" y="61"/><ellipse cx="570.5" cy="76" fill="#3D3D3D" rx="10" ry="10" style="stroke: #C7C7C7; stroke-width: 1.0;"/><path d="M572.334,80.248 Q571.9238,80.459 571.4727,80.5645 Q571.0215,80.6699 570.5234,80.6699 Q568.7539,80.6699 567.8223,79.5039 Q566.8906,78.3379 566.8906,76.1348 Q566.8906,73.9258 567.8223,72.7598 Q568.7539,71.5938 570.5234,71.5938 Q571.0215,71.5938 571.4785,71.6992 Q571.9355,71.8047 572.334,72.0156 L572.334,73.9375 Q571.8887,73.5273 571.4697,73.3369 Q571.0508,73.1465 570.6055,73.1465 Q569.6563,73.1465 569.1729,73.8994 Q568.6895,74.6523 568.6895,76.1348 Q568.6895,77.6113 569.1729,78.3643 Q569.6563,79.1172 570.6055,79.1172 Q571.0508,79.1172 571.4697,78.9268 Q571.8887,78.7363 572.334,78.3262 Z "/><text fill="#FFFFFF" font-family="Helvetica" font-size="12" lengthAdjust="spacingAndGlyphs" textLength="117" x="583.5" y="79.2402">JSONPlaceholderAPI</text><line style="stroke: #C7C7C7; stroke-width: 1.5;" x1="557.5" x2="702.5" y1="91" y2="91"/><line style="stroke: #C7C7C7; stroke-width: 1.5;" x1="557.5" x2="702.5" y1="99" y2="99"/><!--MD5=[a06cd2db27cc4595b55f6e0efbb047c7]
class JSONPost--><rect fill="#070707" filter="url(#f1qk5j3ndje7z7)" height="46" id="JSONPost" style="stroke: #C7C7C7; stroke-width: 1.5;" width="86" x="571" y="229"/><ellipse cx="585" cy="244" fill="#3D3D3D" rx="10" ry="10" style="stroke: #C7C7C7; stroke-width: 1.0;"/><path d="M586.834,248.248 Q586.4238,248.459 585.9727,248.5645 Q585.5215,248.6699 585.0234,248.6699 Q583.2539,248.6699 582.3223,247.5039 Q581.3906,246.3379 581.3906,244.1348 Q581.3906,241.9258 582.3223,240.7598 Q583.2539,239.5938 585.0234,239.5938 Q585.5215,239.5938 585.9785,239.6992 Q586.4355,239.8047 586.834,240.0156 L586.834,241.9375 Q586.3887,241.5273 585.9697,241.3369 Q585.5508,241.1465 585.1055,241.1465 Q584.1563,241.1465 583.6729,241.8994 Q583.1895,242.6523 583.1895,244.1348 Q583.1895,245.6113 583.6729,246.3643 Q584.1563,247.1172 585.1055,247.1172 Q585.5508,247.1172 585.9697,246.9268 Q586.3887,246.7363 586.834,246.3262 Z "/><text fill="#FFFFFF" font-family="Helvetica" font-size="12" lengthAdjust="spacingAndGlyphs" textLength="56" x="598" y="247.2402">JSONPost</text><line style="stroke: #C7C7C7; stroke-width: 1.5;" x1="572" x2="656" y1="259" y2="259"/><line style="stroke: #C7C7C7; stroke-width: 1.5;" x1="572" x2="656" y1="267" y2="267"/><!--MD5=[618ffc7924f3aa5e61a1d9443461d184]
link PostRepositoryAdapter to PostCrudRepository--><path d="M227.72,112.74 C233.33,115.29 238.81,118.05 244,121 C274.16,138.15 303.65,162.13 328.28,184.82 " fill="none" id="PostRepositoryAdapter-&gt;PostCrudRepository" style="stroke: #C7C7C7; stroke-width: 1.0; stroke-dasharray: 7.0,7.0;"/><polygon fill="none" points="333.24,179.88,342.94,198.71,323.61,190.04,333.24,179.88" style="stroke: #C7C7C7; stroke-width: 1.0;"/><!--MD5=[d5589e0d150ca2bd7978521096ee5e57]
link PostRepositoryAdapter to PostAdapter--><path d="M140.8,113.16 C149.85,145.81 164.58,198.96 172.85,228.82 " fill="none" id="PostRepositoryAdapter-PostAdapter" style="stroke: #C7C7C7; stroke-width: 1.0;"/><!--MD5=[56773cb5d17b4c650f70bcbc3b3cee0e]
link PostAdapter to Post--><path d="M203.98,275.3 C230.06,298.58 271.69,335.74 304.8,365.29 " fill="none" id="PostAdapter-&gt;Post" style="stroke: #C7C7C7; stroke-width: 1.0; stroke-dasharray: 7.0,7.0;"/><polygon fill="none" points="309.53,360.14,319.79,378.68,300.21,370.58,309.53,360.14" style="stroke: #C7C7C7; stroke-width: 1.0;"/><!--MD5=[f1a5dddcecba9fb07a0d5940a1098f56]
link PostRepositoryAdapter to JSONPlaceholderAPI--><path d="M227.64,84 C335.43,84 443.21,84 551,84 " fill="none" id="PostRepositoryAdapter-&gt;JSONPlaceholderAPI" style="stroke: #C7C7C7; stroke-width: 1.0;"/><polygon fill="#C7C7C7" points="556.13,84,547.13,80,551.13,84,547.13,88,556.13,84" style="stroke: #C7C7C7; stroke-width: 1.0;"/><!--MD5=[f1456337d8d36264b091e6c95c407ce7]
link PostCrudRepository to Post--><path d="M380.11,305.17 C375.71,324.5 370.75,346.25 366.48,364.99 " fill="none" id="PostCrudRepository-Post" style="stroke: #C7C7C7; stroke-width: 1.0;"/><!--MD5=[2cd6ec316457cc40fa444e9584a8b1bc]
link JSONPlaceholderAPI to JSONPost--><path d="M627.88,107.04 C624.82,138.79 619.2,197.06 616.13,228.87 " fill="none" id="JSONPlaceholderAPI-JSONPost" style="stroke: #C7C7C7; stroke-width: 1.0;"/><!--MD5=[53428ecda98ff3d4ab0863f06460cf41]
link PostAdapter to JSONPost--><path d="M192.41,228.84 C210.91,199.08 247.1,148.03 292,121 C298.84,116.89 301.57,117.89 309.5,117 C345.94,112.89 438.06,112.89 474.5,117 C534.36,123.75 578.63,186.88 599.91,224.38 " fill="none" id="PostAdapter-&gt;JSONPost" style="stroke: #C7C7C7; stroke-width: 1.0;"/><polygon fill="#C7C7C7" points="602.39,228.82,601.5158,219.01,599.9618,224.4492,594.5226,222.8952,602.39,228.82" style="stroke: #C7C7C7; stroke-width: 1.0;"/><!--MD5=[66c6cdf1ce69a92a207e51611450d2de]
@startuml
skinparam monochrome reverse
skinparam componentStyle uml2
skinparam defaultFont {
    Size 12
    Name Helvetica
}
skinparam backgroundColor white

package "Core Ports" <<Rectangle>> {

interface Post {
            int userId
            int id
            string title
            string body
        }

package "driven" <<Rectangle>> {
        interface PostCrudRepository {
            int create(Post post)
            Post retrieve(int id)
            Post[] retrieveAll()
            bool update(int id, Post post)
            bool delete(int id)
        }

        

}
}

package "Infrastructure Adapters" <<Rectangle>> {
        class PostRepositoryAdapter {
            private JSONPlaceholderAPI api
        }

        class PostAdapter {

        }
}

package "Infrastructure" <<Rectangle>> {
    class JSONPlaceholderAPI 

    class JSONPost
}

PostRepositoryAdapter ..|> PostCrudRepository
PostRepositoryAdapter - - PostAdapter
PostAdapter ..|> Post
PostRepositoryAdapter -> JSONPlaceholderAPI
PostCrudRepository - - Post
JSONPlaceholderAPI - - JSONPost
PostAdapter -> JSONPost
@enduml

PlantUML version 1.2020.06(Sun Apr 05 14:38:32 CEST 2020)
(GPL source distribution)
Java Runtime: OpenJDK Runtime Environment
JVM: OpenJDK 64-Bit Server VM
Java Version: 11.0.11+9
Operating System: Mac OS X
Default Encoding: UTF-8
Language: de
Country: DE
--></g></svg>