<?xml version="1.0" encoding="UTF-8" standalone="no"?><svg xmlns="http://www.w3.org/2000/svg" xmlns:xlink="http://www.w3.org/1999/xlink" contentScriptType="application/ecmascript" contentStyleType="text/css" height="375px" preserveAspectRatio="none" style="width:638px;height:375px;background:#000000;" version="1.1" viewBox="0 0 638 375" width="638px" zoomAndPan="magnify"><defs><filter height="300%" id="f12wglk6wq5ebg" width="300%" x="-1" y="-1"><feGaussianBlur result="blurOut" stdDeviation="2.0"/><feColorMatrix in="blurOut" result="blurOut2" type="matrix" values="0 0 0 0 0 0 0 0 0 0 0 0 0 0 0 0 0 0 .4 0"/><feOffset dx="4.0" dy="4.0" in="blurOut2" result="blurOut3"/><feBlend in="SourceGraphic" in2="blurOut3" mode="normal"/></filter></defs><g><!--MD5=[3fc59b17a2df0e8aa43d25b99d46893c]
cluster User Interface--><rect fill="#000000" filter="url(#f12wglk6wq5ebg)" height="93" style="stroke: #FFFFFF; stroke-width: 1.5;" width="223" x="22" y="105"/><text fill="#FFFFFF" font-family="Helvetica" font-size="12" font-weight="bold" lengthAdjust="spacingAndGlyphs" textLength="82" x="92.5" y="116.2402">User Interface</text><!--MD5=[ea52431d0583b5fee2e33fda93c23c35]
cluster Core Ports--><rect fill="#000000" filter="url(#f12wglk6wq5ebg)" height="304" style="stroke: #FFFFFF; stroke-width: 1.5;" width="358" x="269" y="60"/><text fill="#FFFFFF" font-family="Helvetica" font-size="12" font-weight="bold" lengthAdjust="spacingAndGlyphs" textLength="62" x="417" y="71.2402">Core Ports</text><!--MD5=[706e293e40b9975d54157de39c026966]
cluster driving--><rect fill="#000000" filter="url(#f12wglk6wq5ebg)" height="241" style="stroke: #FFFFFF; stroke-width: 1.5;" width="230" x="293" y="99"/><text fill="#FFFFFF" font-family="Helvetica" font-size="12" font-weight="bold" lengthAdjust="spacingAndGlyphs" textLength="39" x="388.5" y="110.2402">driving</text><!--MD5=[c045e12321b83266d36d22b9096c24ea]
class View--><rect fill="#070707" filter="url(#f12wglk6wq5ebg)" height="46" id="View" style="stroke: #C7C7C7; stroke-width: 1.5;" width="57" x="38.5" y="136"/><ellipse cx="52.5" cy="151" fill="#3D3D3D" rx="10" ry="10" style="stroke: #C7C7C7; stroke-width: 1.0;"/><path d="M54.334,155.248 Q53.9238,155.459 53.4727,155.5645 Q53.0215,155.6699 52.5234,155.6699 Q50.7539,155.6699 49.8223,154.5039 Q48.8906,153.3379 48.8906,151.1348 Q48.8906,148.9258 49.8223,147.7598 Q50.7539,146.5938 52.5234,146.5938 Q53.0215,146.5938 53.4785,146.6992 Q53.9355,146.8047 54.334,147.0156 L54.334,148.9375 Q53.8887,148.5273 53.4697,148.3369 Q53.0508,148.1465 52.6055,148.1465 Q51.6563,148.1465 51.1729,148.8994 Q50.6895,149.6523 50.6895,151.1348 Q50.6895,152.6113 51.1729,153.3643 Q51.6563,154.1172 52.6055,154.1172 Q53.0508,154.1172 53.4697,153.9268 Q53.8887,153.7363 54.334,153.3262 Z "/><text fill="#FFFFFF" font-family="Helvetica" font-size="12" lengthAdjust="spacingAndGlyphs" textLength="27" x="65.5" y="154.2402">View</text><line style="stroke: #C7C7C7; stroke-width: 1.5;" x1="39.5" x2="94.5" y1="166" y2="166"/><line style="stroke: #C7C7C7; stroke-width: 1.5;" x1="39.5" x2="94.5" y1="174" y2="174"/><!--MD5=[01aef50de84f211ddb70be69f75b44b6]
class ConcreteDTO--><rect fill="#070707" filter="url(#f12wglk6wq5ebg)" height="46" id="ConcreteDTO" style="stroke: #C7C7C7; stroke-width: 1.5;" width="98" x="131" y="136"/><ellipse cx="145" cy="151" fill="#3D3D3D" rx="10" ry="10" style="stroke: #C7C7C7; stroke-width: 1.0;"/><path d="M146.834,155.248 Q146.4238,155.459 145.9727,155.5645 Q145.5215,155.6699 145.0234,155.6699 Q143.2539,155.6699 142.3223,154.5039 Q141.3906,153.3379 141.3906,151.1348 Q141.3906,148.9258 142.3223,147.7598 Q143.2539,146.5938 145.0234,146.5938 Q145.5215,146.5938 145.9785,146.6992 Q146.4355,146.8047 146.834,147.0156 L146.834,148.9375 Q146.3887,148.5273 145.9697,148.3369 Q145.5508,148.1465 145.1055,148.1465 Q144.1563,148.1465 143.6729,148.8994 Q143.1895,149.6523 143.1895,151.1348 Q143.1895,152.6113 143.6729,153.3643 Q144.1563,154.1172 145.1055,154.1172 Q145.5508,154.1172 145.9697,153.9268 Q146.3887,153.7363 146.834,153.3262 Z "/><text fill="#FFFFFF" font-family="Helvetica" font-size="12" lengthAdjust="spacingAndGlyphs" textLength="68" x="158" y="154.2402">GetPostDTO</text><line style="stroke: #C7C7C7; stroke-width: 1.5;" x1="132" x2="228" y1="166" y2="166"/><line style="stroke: #C7C7C7; stroke-width: 1.5;" x1="132" x2="228" y1="174" y2="174"/><!--MD5=[9bb0bdd047fba1a3c8d48282c35b4537]
class Post--><rect fill="#070707" filter="url(#f12wglk6wq5ebg)" height="94" id="Post" style="stroke: #C7C7C7; stroke-width: 1.5;" width="72" x="539" y="248"/><ellipse cx="561.1" cy="263" fill="#4E4E4E" rx="10" ry="10" style="stroke: #C7C7C7; stroke-width: 1.0;"/><path d="M558.6078,260.2754 L558.6078,258.752 L563.8168,258.752 L563.8168,260.2754 L562.0766,260.2754 L562.0766,265.9766 L563.8168,265.9766 L563.8168,267.5 L558.6078,267.5 L558.6078,265.9766 L560.348,265.9766 L560.348,260.2754 Z "/><text fill="#FFFFFF" font-family="Helvetica" font-size="12" font-style="italic" lengthAdjust="spacingAndGlyphs" textLength="24" x="575.9" y="266.2402">Post</text><line style="stroke: #C7C7C7; stroke-width: 1.5;" x1="540" x2="610" y1="278" y2="278"/><text fill="#FFFFFF" font-family="Helvetica" font-size="12" lengthAdjust="spacingAndGlyphs" textLength="50" x="545" y="291.2402">int userId</text><text fill="#FFFFFF" font-family="Helvetica" font-size="12" lengthAdjust="spacingAndGlyphs" textLength="26" x="545" y="303.2402">int id</text><text fill="#FFFFFF" font-family="Helvetica" font-size="12" lengthAdjust="spacingAndGlyphs" textLength="52" x="545" y="315.2402">string title</text><text fill="#FFFFFF" font-family="Helvetica" font-size="12" lengthAdjust="spacingAndGlyphs" textLength="60" x="545" y="327.2402">string body</text><line style="stroke: #C7C7C7; stroke-width: 1.5;" x1="540" x2="610" y1="334" y2="334"/><!--MD5=[9b64f1979d1dc2875c36a5e2319f42c6]
class GetPostDTO--><rect fill="#070707" filter="url(#f12wglk6wq5ebg)" height="58" id="GetPostDTO" style="stroke: #C7C7C7; stroke-width: 1.5;" width="98" x="334" y="266"/><ellipse cx="348" cy="281" fill="#4E4E4E" rx="10" ry="10" style="stroke: #C7C7C7; stroke-width: 1.0;"/><path d="M345.5078,278.2754 L345.5078,276.752 L350.7168,276.752 L350.7168,278.2754 L348.9766,278.2754 L348.9766,283.9766 L350.7168,283.9766 L350.7168,285.5 L345.5078,285.5 L345.5078,283.9766 L347.248,283.9766 L347.248,278.2754 Z "/><text fill="#FFFFFF" font-family="Helvetica" font-size="12" font-style="italic" lengthAdjust="spacingAndGlyphs" textLength="68" x="361" y="284.2402">GetPostDTO</text><line style="stroke: #C7C7C7; stroke-width: 1.5;" x1="335" x2="431" y1="296" y2="296"/><text fill="#FFFFFF" font-family="Helvetica" font-size="12" lengthAdjust="spacingAndGlyphs" textLength="26" x="340" y="309.2402">int id</text><line style="stroke: #C7C7C7; stroke-width: 1.5;" x1="335" x2="431" y1="316" y2="316"/><!--MD5=[675bd7f72210747324e62440ce48d103]
class GetPostCommand--><rect fill="#070707" filter="url(#f12wglk6wq5ebg)" height="58" id="GetPostCommand" style="stroke: #C7C7C7; stroke-width: 1.5;" width="197" x="309.5" y="130"/><ellipse cx="354" cy="145" fill="#4E4E4E" rx="10" ry="10" style="stroke: #C7C7C7; stroke-width: 1.0;"/><path d="M351.5078,142.2754 L351.5078,140.752 L356.7168,140.752 L356.7168,142.2754 L354.9766,142.2754 L354.9766,147.9766 L356.7168,147.9766 L356.7168,149.5 L351.5078,149.5 L351.5078,147.9766 L353.248,147.9766 L353.248,142.2754 Z "/><text fill="#FFFFFF" font-family="Helvetica" font-size="12" font-style="italic" lengthAdjust="spacingAndGlyphs" textLength="100" x="373" y="148.2402">GetPostCommand</text><line style="stroke: #C7C7C7; stroke-width: 1.5;" x1="310.5" x2="505.5" y1="160" y2="160"/><line style="stroke: #C7C7C7; stroke-width: 1.5;" x1="310.5" x2="505.5" y1="168" y2="168"/><text fill="#FFFFFF" font-family="Helvetica" font-size="12" lengthAdjust="spacingAndGlyphs" textLength="185" x="315.5" y="181.2402">Post Execute(GetPostDTO inDTO)</text><!--MD5=[b60335cdacfde4f6a85e749e2695416b]
link View to ConcreteDTO--><path d="M95.69,159 C105.69,159 115.7,159 125.7,159 " fill="none" id="View-&gt;ConcreteDTO" style="stroke: #C7C7C7; stroke-width: 1.0;"/><polygon fill="#C7C7C7" points="130.93,159,121.93,155,125.93,159,121.93,163,130.93,159" style="stroke: #C7C7C7; stroke-width: 1.0;"/><!--MD5=[2436ffaf00f4efd6a009e7dd747364d2]
link View to GetPostCommand--><path d="M69.69,135.89 C74.89,103.36 89.7,45.44 130.5,22 C167.88,0.53 186.64,8.25 227.5,22 C288.48,42.52 345.21,92.73 378.24,126.33 " fill="none" id="View-&gt;GetPostCommand" style="stroke: #C7C7C7; stroke-width: 1.0;"/><polygon fill="#C7C7C7" points="381.75,129.93,378.3264,120.6954,378.2577,126.3518,372.6012,126.2831,381.75,129.93" style="stroke: #C7C7C7; stroke-width: 1.0;"/><!--MD5=[d6784f0d5140feea7e3c7a93ef4d1ee8]
link ConcreteDTO to GetPostDTO--><path d="M213.52,182.13 C243.33,201.8 287.61,231.03 323.44,254.68 " fill="none" id="ConcreteDTO-&gt;GetPostDTO" style="stroke: #C7C7C7; stroke-width: 1.0; stroke-dasharray: 7.0,7.0;"/><polygon fill="none" points="327.41,248.92,340.24,265.78,319.7,260.6,327.41,248.92" style="stroke: #C7C7C7; stroke-width: 1.0;"/><!--MD5=[a35c842d697776e3fbe01265e4d4dd05]
link GetPostCommand to GetPostDTO--><path d="M402.76,188.09 C398.49,210.96 392.5,243.09 388.23,265.95 " fill="none" id="GetPostCommand-GetPostDTO" style="stroke: #C7C7C7; stroke-width: 1.0;"/><!--MD5=[f17f0b4b6650044d4ddff34ffe1e7572]
link GetPostCommand to Post--><path d="M446.08,188.07 C468.73,205.03 497.86,227.31 523,248 C528.21,252.29 533.63,256.9 538.92,261.5 " fill="none" id="GetPostCommand-Post" style="stroke: #C7C7C7; stroke-width: 1.0;"/><!--MD5=[54a37025c3788fcd79259746cf26d096]
@startuml
skinparam monochrome reverse
skinparam componentStyle uml2
skinparam defaultFont {
    Size 12
    Name Helvetica
}
skinparam backgroundColor white

package "User Interface" <<Rectangle>> {
    class View
    class "GetPostDTO" as ConcreteDTO {
    }
}

package "Core Ports" <<Rectangle>> {

interface Post {
            int userId
            int id
            string title
            string body
        }

package "driving" <<Rectangle>> {
    interface GetPostDTO {
        int id
    }

    interface GetPostCommand {
            {method} Post Execute(GetPostDTO inDTO)
    }

}
}


View -> ConcreteDTO
View -> GetPostCommand
ConcreteDTO ..|> GetPostDTO 
GetPostCommand - - GetPostDTO
GetPostCommand - - Post
@enduml

PlantUML version 1.2020.06(Sun Apr 05 14:38:32 CEST 2020)
(GPL source distribution)
Java Runtime: OpenJDK Runtime Environment
JVM: OpenJDK 64-Bit Server VM
Java Version: 11.0.11+9
Operating System: Mac OS X
Default Encoding: UTF-8
Language: de
Country: DE
--></g></svg>