<?xml version="1.0" encoding="UTF-8" standalone="no"?>
<!DOCTYPE svg PUBLIC "-//W3C//DTD SVG 1.1//EN"
 "http://www.w3.org/Graphics/SVG/1.1/DTD/svg11.dtd">
<!-- Generated by graphviz version 12.1.2 (20240928.0832)
 -->
<!-- Title: G Pages: 1 -->
<svg width="496pt" height="422pt"
 viewBox="0.00 0.00 495.50 422.00" xmlns="http://www.w3.org/2000/svg" xmlns:xlink="http://www.w3.org/1999/xlink">
<g id="graph0" class="graph" transform="scale(1 1) rotate(0) translate(4 418)">
<title>G</title>
<polygon fill="none" stroke="none" points="-4,4 -4,-418 491.5,-418 491.5,4 -4,4"/>
<!-- VS1 -->
<g id="node1" class="node">
<title>VS1</title>
<polygon fill="none" stroke="mediumorchid" points="487.5,-279 381.5,-279 381.5,-243 487.5,-243 487.5,-279"/>
<text text-anchor="middle" x="434.5" y="-254.82" font-family="Times,serif" font-size="14.00" fill="white">MASVS&#45;Auth&#45;2</text>
</g>
<!-- WE41 -->
<g id="node2" class="node">
<title>WE41</title>
<polygon fill="none" stroke="limegreen" points="290.75,-414 191.5,-414 191.5,-378 290.75,-378 290.75,-414"/>
<text text-anchor="middle" x="241.12" y="-389.82" font-family="Times,serif" font-size="14.00" fill="white">MASWE&#45;0041</text>
</g>
<!-- WE41&#45;&gt;VS1 -->
<g id="edge1" class="edge">
<title>WE41&#45;&gt;VS1</title>
<path fill="none" stroke="#00688b" d="M289.04,-377.57C312.55,-367.19 340.77,-352.9 363.5,-336 381.9,-322.32 399.49,-303.43 412.44,-288.03"/>
<polygon fill="#00688b" stroke="#00688b" points="414.9,-290.56 418.54,-280.61 409.49,-286.11 414.9,-290.56"/>
<text text-anchor="middle" x="336.12" y="-369" font-family="Times,serif" font-size="14.00" fill="white">endangers</text>
</g>
<!-- WE42 -->
<g id="node3" class="node">
<title>WE42</title>
<polygon fill="none" stroke="limegreen" points="290.75,-360 191.5,-360 191.5,-324 290.75,-324 290.75,-360"/>
<text text-anchor="middle" x="241.12" y="-335.82" font-family="Times,serif" font-size="14.00" fill="white">MASWE&#45;0042</text>
</g>
<!-- WE42&#45;&gt;VS1 -->
<g id="edge2" class="edge">
<title>WE42&#45;&gt;VS1</title>
<path fill="none" stroke="#00688b" d="M291.09,-325.36C313.42,-317.38 340.05,-307.33 363.5,-297 372.04,-293.24 380.99,-288.93 389.55,-284.62"/>
<polygon fill="#00688b" stroke="#00688b" points="391.06,-287.77 398.37,-280.1 387.87,-281.54 391.06,-287.77"/>
<text text-anchor="middle" x="336.12" y="-319.12" font-family="Times,serif" font-size="14.00" fill="white">endangers</text>
</g>
<!-- WE43 -->
<g id="node4" class="node">
<title>WE43</title>
<polygon fill="none" stroke="gold" points="290.75,-306 191.5,-306 191.5,-270 290.75,-270 290.75,-306"/>
<text text-anchor="middle" x="241.12" y="-281.82" font-family="Times,serif" font-size="14.00" fill="white">MASWE&#45;0043</text>
</g>
<!-- WE43&#45;&gt;VS1 -->
<g id="edge3" class="edge">
<title>WE43&#45;&gt;VS1</title>
<path fill="none" stroke="#00688b" d="M290.91,-281.12C314.93,-277.73 344.19,-273.6 369.94,-269.97"/>
<polygon fill="#00688b" stroke="#00688b" points="370.2,-273.47 379.61,-268.6 369.22,-266.53 370.2,-273.47"/>
<text text-anchor="middle" x="336.12" y="-279.45" font-family="Times,serif" font-size="14.00" fill="white">endangers</text>
</g>
<!-- WE44 -->
<g id="node5" class="node">
<title>WE44</title>
<polygon fill="none" stroke="gold" points="290.75,-252 191.5,-252 191.5,-216 290.75,-216 290.75,-252"/>
<text text-anchor="middle" x="241.12" y="-227.82" font-family="Times,serif" font-size="14.00" fill="white">MASWE&#45;0044</text>
</g>
<!-- WE44&#45;&gt;VS1 -->
<g id="edge4" class="edge">
<title>WE44&#45;&gt;VS1</title>
<path fill="none" stroke="#00688b" d="M290.91,-240.88C314.93,-244.27 344.19,-248.4 369.94,-252.03"/>
<polygon fill="#00688b" stroke="#00688b" points="369.22,-255.47 379.61,-253.4 370.2,-248.53 369.22,-255.47"/>
<text text-anchor="middle" x="336.12" y="-251.66" font-family="Times,serif" font-size="14.00" fill="white">endangers</text>
</g>
<!-- WE45 -->
<g id="node6" class="node">
<title>WE45</title>
<polygon fill="none" stroke="gold" points="290.75,-198 191.5,-198 191.5,-162 290.75,-162 290.75,-198"/>
<text text-anchor="middle" x="241.12" y="-173.82" font-family="Times,serif" font-size="14.00" fill="white">MASWE&#45;0045</text>
</g>
<!-- WE45&#45;&gt;VS1 -->
<g id="edge5" class="edge">
<title>WE45&#45;&gt;VS1</title>
<path fill="none" stroke="#00688b" d="M291.03,-197.09C313.35,-205.23 339.99,-215.44 363.5,-225.75 371.65,-229.33 380.2,-233.37 388.42,-237.42"/>
<polygon fill="#00688b" stroke="#00688b" points="386.73,-240.49 397.24,-241.83 389.86,-234.23 386.73,-240.49"/>
<text text-anchor="middle" x="336.12" y="-226.7" font-family="Times,serif" font-size="14.00" fill="white">endangers</text>
</g>
<!-- WE46 -->
<g id="node7" class="node">
<title>WE46</title>
<polygon fill="none" stroke="gold" points="290.75,-90 191.5,-90 191.5,-54 290.75,-54 290.75,-90"/>
<text text-anchor="middle" x="241.12" y="-65.83" font-family="Times,serif" font-size="14.00" fill="white">MASWE&#45;0046</text>
</g>
<!-- WE46&#45;&gt;VS1 -->
<g id="edge6" class="edge">
<title>WE46&#45;&gt;VS1</title>
<path fill="none" stroke="#00688b" d="M262.28,-90.11C286.7,-112.22 328.85,-150.97 363.5,-185.75 379.29,-201.6 396.41,-219.98 409.76,-234.6"/>
<polygon fill="#00688b" stroke="#00688b" points="406.82,-236.57 416.13,-241.61 412,-231.86 406.82,-236.57"/>
<text text-anchor="middle" x="336.12" y="-186.7" font-family="Times,serif" font-size="14.00" fill="white">endangers</text>
</g>
<!-- TG266 -->
<g id="node8" class="node">
<title>TG266</title>
<polygon fill="none" stroke="gold" points="131.5,-306 0,-306 0,-270 131.5,-270 131.5,-306"/>
<text text-anchor="middle" x="65.75" y="-281.82" font-family="Times,serif" font-size="14.00" fill="white">MASTG&#45;TEST&#45;0266</text>
</g>
<!-- TG266&#45;&gt;WE44 -->
<g id="edge7" class="edge">
<title>TG266&#45;&gt;WE44</title>
<path fill="none" stroke="#00688b" d="M125.93,-269.57C143.48,-264.1 162.7,-258.11 180.29,-252.64"/>
<polygon fill="#00688b" stroke="#00688b" points="181.05,-256.07 189.56,-249.75 178.97,-249.38 181.05,-256.07"/>
<text text-anchor="middle" x="161.5" y="-261.95" font-family="Times,serif" font-size="14.00" fill="white">tests</text>
</g>
<!-- TG267 -->
<g id="node9" class="node">
<title>TG267</title>
<polygon fill="none" stroke="gold" points="131.5,-252 0,-252 0,-216 131.5,-216 131.5,-252"/>
<text text-anchor="middle" x="65.75" y="-227.82" font-family="Times,serif" font-size="14.00" fill="white">MASTG&#45;TEST&#45;0267</text>
</g>
<!-- TG267&#45;&gt;WE44 -->
<g id="edge8" class="edge">
<title>TG267&#45;&gt;WE44</title>
<path fill="none" stroke="#00688b" d="M131.8,-234C147.65,-234 164.53,-234 180.14,-234"/>
<polygon fill="#00688b" stroke="#00688b" points="179.72,-237.5 189.72,-234 179.72,-230.5 179.72,-237.5"/>
<text text-anchor="middle" x="161.5" y="-234.95" font-family="Times,serif" font-size="14.00" fill="white">tests</text>
</g>
<!-- TG268 -->
<g id="node10" class="node">
<title>TG268</title>
<polygon fill="none" stroke="gold" points="131.5,-198 0,-198 0,-162 131.5,-162 131.5,-198"/>
<text text-anchor="middle" x="65.75" y="-173.82" font-family="Times,serif" font-size="14.00" fill="white">MASTG&#45;TEST&#45;0268</text>
</g>
<!-- TG268&#45;&gt;WE45 -->
<g id="edge9" class="edge">
<title>TG268&#45;&gt;WE45</title>
<path fill="none" stroke="#00688b" d="M131.8,-180C147.65,-180 164.53,-180 180.14,-180"/>
<polygon fill="#00688b" stroke="#00688b" points="179.72,-183.5 189.72,-180 179.72,-176.5 179.72,-183.5"/>
<text text-anchor="middle" x="161.5" y="-180.95" font-family="Times,serif" font-size="14.00" fill="white">tests</text>
</g>
<!-- TG269 -->
<g id="node11" class="node">
<title>TG269</title>
<polygon fill="none" stroke="gold" points="131.5,-144 0,-144 0,-108 131.5,-108 131.5,-144"/>
<text text-anchor="middle" x="65.75" y="-119.83" font-family="Times,serif" font-size="14.00" fill="white">MASTG&#45;TEST&#45;0269</text>
</g>
<!-- TG269&#45;&gt;WE45 -->
<g id="edge10" class="edge">
<title>TG269&#45;&gt;WE45</title>
<path fill="none" stroke="#00688b" d="M125.93,-144.43C143.48,-149.9 162.7,-155.89 180.29,-161.36"/>
<polygon fill="#00688b" stroke="#00688b" points="178.97,-164.62 189.56,-164.25 181.05,-157.93 178.97,-164.62"/>
<text text-anchor="middle" x="161.5" y="-158.79" font-family="Times,serif" font-size="14.00" fill="white">tests</text>
</g>
<!-- TG270 -->
<g id="node12" class="node">
<title>TG270</title>
<polygon fill="none" stroke="gold" points="131.5,-90 0,-90 0,-54 131.5,-54 131.5,-90"/>
<text text-anchor="middle" x="65.75" y="-65.83" font-family="Times,serif" font-size="14.00" fill="white">MASTG&#45;TEST&#45;0270</text>
</g>
<!-- TG270&#45;&gt;WE46 -->
<g id="edge11" class="edge">
<title>TG270&#45;&gt;WE46</title>
<path fill="none" stroke="#00688b" d="M131.8,-72C147.65,-72 164.53,-72 180.14,-72"/>
<polygon fill="#00688b" stroke="#00688b" points="179.72,-75.5 189.72,-72 179.72,-68.5 179.72,-75.5"/>
<text text-anchor="middle" x="161.5" y="-72.95" font-family="Times,serif" font-size="14.00" fill="white">tests</text>
</g>
<!-- TG271 -->
<g id="node13" class="node">
<title>TG271</title>
<polygon fill="none" stroke="gold" points="131.5,-36 0,-36 0,0 131.5,0 131.5,-36"/>
<text text-anchor="middle" x="65.75" y="-11.82" font-family="Times,serif" font-size="14.00" fill="white">MASTG&#45;TEST&#45;0271</text>
</g>
<!-- TG271&#45;&gt;WE46 -->
<g id="edge12" class="edge">
<title>TG271&#45;&gt;WE46</title>
<path fill="none" stroke="#00688b" d="M125.93,-36.43C143.48,-41.9 162.7,-47.89 180.29,-53.36"/>
<polygon fill="#00688b" stroke="#00688b" points="178.97,-56.62 189.56,-56.25 181.05,-49.93 178.97,-56.62"/>
<text text-anchor="middle" x="161.5" y="-50.79" font-family="Times,serif" font-size="14.00" fill="white">tests</text>
</g>
</g>
</svg>
