<?xml version="1.0" encoding="UTF-8" standalone="no"?>
<!DOCTYPE svg PUBLIC "-//W3C//DTD SVG 1.1//EN"
 "http://www.w3.org/Graphics/SVG/1.1/DTD/svg11.dtd">
<!-- Generated by graphviz version 12.1.2 (20240928.0832)
 -->
<!-- Title: G Pages: 1 -->
<svg width="506pt" height="503pt"
 viewBox="0.00 0.00 506.00 503.00" xmlns="http://www.w3.org/2000/svg" xmlns:xlink="http://www.w3.org/1999/xlink">
<g id="graph0" class="graph" transform="scale(1 1) rotate(0) translate(4 499)">
<title>G</title>
<polygon fill="none" stroke="none" points="-4,4 -4,-499 502,-499 502,4 -4,4"/>
<!-- VS1 -->
<g id="node1" class="node">
<title>VS1</title>
<polygon fill="none" stroke="mediumorchid" points="498,-252 381.5,-252 381.5,-216 498,-216 498,-252"/>
<text text-anchor="middle" x="439.75" y="-227.82" font-family="Times,serif" font-size="14.00" fill="white">MASVS&#45;Crypto&#45;2</text>
</g>
<!-- WE09 -->
<g id="node2" class="node">
<title>WE09</title>
<polygon fill="none" stroke="limegreen" points="290.75,-468 191.5,-468 191.5,-432 290.75,-432 290.75,-468"/>
<text text-anchor="middle" x="241.12" y="-443.82" font-family="Times,serif" font-size="14.00" fill="white">MASWE&#45;0009</text>
</g>
<!-- WE09&#45;&gt;VS1 -->
<g id="edge1" class="edge">
<title>WE09&#45;&gt;VS1</title>
<path fill="none" stroke="#00688b" d="M290.98,-432.15C315.13,-421.41 343.35,-405.75 363.5,-385 397.63,-349.85 419.29,-296.16 430.2,-263.17"/>
<polygon fill="#00688b" stroke="#00688b" points="433.46,-264.46 433.15,-253.87 426.79,-262.34 433.46,-264.46"/>
<text text-anchor="middle" x="336.12" y="-424.58" font-family="Times,serif" font-size="14.00" fill="white">endangers</text>
</g>
<!-- WE10 -->
<g id="node3" class="node">
<title>WE10</title>
<polygon fill="none" stroke="limegreen" points="290.75,-414 191.5,-414 191.5,-378 290.75,-378 290.75,-414"/>
<text text-anchor="middle" x="241.12" y="-389.82" font-family="Times,serif" font-size="14.00" fill="white">MASWE&#45;0010</text>
</g>
<!-- WE10&#45;&gt;VS1 -->
<g id="edge2" class="edge">
<title>WE10&#45;&gt;VS1</title>
<path fill="none" stroke="#00688b" d="M287.94,-377.56C311.97,-366.53 341.01,-350.97 363.5,-332 387.32,-311.92 408.33,-283.08 422.05,-261.88"/>
<polygon fill="#00688b" stroke="#00688b" points="425,-263.77 427.38,-253.44 419.08,-260.03 425,-263.77"/>
<text text-anchor="middle" x="336.12" y="-367.58" font-family="Times,serif" font-size="14.00" fill="white">endangers</text>
</g>
<!-- WE11 -->
<g id="node4" class="node">
<title>WE11</title>
<polygon fill="none" stroke="gold" points="290.75,-360 191.5,-360 191.5,-324 290.75,-324 290.75,-360"/>
<text text-anchor="middle" x="241.12" y="-335.82" font-family="Times,serif" font-size="14.00" fill="white">MASWE&#45;0011</text>
</g>
<!-- WE11&#45;&gt;VS1 -->
<g id="edge3" class="edge">
<title>WE11&#45;&gt;VS1</title>
<path fill="none" stroke="#00688b" d="M288.09,-323.6C311.23,-313.73 339.4,-300.78 363.5,-287 378.01,-278.7 393.23,-268.33 406.15,-258.98"/>
<polygon fill="#00688b" stroke="#00688b" points="407.91,-262.03 413.89,-253.28 403.76,-256.39 407.91,-262.03"/>
<text text-anchor="middle" x="336.12" y="-314.29" font-family="Times,serif" font-size="14.00" fill="white">endangers</text>
</g>
<!-- WE12 -->
<g id="node5" class="node">
<title>WE12</title>
<polygon fill="none" stroke="gold" points="290.75,-306 191.5,-306 191.5,-270 290.75,-270 290.75,-306"/>
<text text-anchor="middle" x="241.12" y="-281.82" font-family="Times,serif" font-size="14.00" fill="white">MASWE&#45;0012</text>
</g>
<!-- WE12&#45;&gt;VS1 -->
<g id="edge4" class="edge">
<title>WE12&#45;&gt;VS1</title>
<path fill="none" stroke="#00688b" d="M291.23,-274.51C315.12,-267.95 344.23,-259.96 370.26,-252.81"/>
<polygon fill="#00688b" stroke="#00688b" points="371.02,-256.23 379.74,-250.21 369.17,-249.48 371.02,-256.23"/>
<text text-anchor="middle" x="336.12" y="-269.94" font-family="Times,serif" font-size="14.00" fill="white">endangers</text>
</g>
<!-- WE14 -->
<g id="node6" class="node">
<title>WE14</title>
<polygon fill="none" stroke="limegreen" points="290.75,-252 191.5,-252 191.5,-216 290.75,-216 290.75,-252"/>
<text text-anchor="middle" x="241.12" y="-227.82" font-family="Times,serif" font-size="14.00" fill="white">MASWE&#45;0014</text>
</g>
<!-- WE14&#45;&gt;VS1 -->
<g id="edge5" class="edge">
<title>WE14&#45;&gt;VS1</title>
<path fill="none" stroke="#00688b" d="M291.23,-234C315.02,-234 343.97,-234 369.91,-234"/>
<polygon fill="#00688b" stroke="#00688b" points="369.69,-237.5 379.69,-234 369.69,-230.5 369.69,-237.5"/>
<text text-anchor="middle" x="336.12" y="-234.95" font-family="Times,serif" font-size="14.00" fill="white">endangers</text>
</g>
<!-- WE15 -->
<g id="node7" class="node">
<title>WE15</title>
<polygon fill="none" stroke="gold" points="290.75,-198 191.5,-198 191.5,-162 290.75,-162 290.75,-198"/>
<text text-anchor="middle" x="241.12" y="-173.82" font-family="Times,serif" font-size="14.00" fill="white">MASWE&#45;0015</text>
</g>
<!-- WE15&#45;&gt;VS1 -->
<g id="edge6" class="edge">
<title>WE15&#45;&gt;VS1</title>
<path fill="none" stroke="#00688b" d="M291.23,-193.49C315.12,-200.05 344.23,-208.04 370.26,-215.19"/>
<polygon fill="#00688b" stroke="#00688b" points="369.17,-218.52 379.74,-217.79 371.02,-211.77 369.17,-218.52"/>
<text text-anchor="middle" x="336.12" y="-212.79" font-family="Times,serif" font-size="14.00" fill="white">endangers</text>
</g>
<!-- WE16 -->
<g id="node8" class="node">
<title>WE16</title>
<polygon fill="none" stroke="gold" points="290.75,-144 191.5,-144 191.5,-108 290.75,-108 290.75,-144"/>
<text text-anchor="middle" x="241.12" y="-119.83" font-family="Times,serif" font-size="14.00" fill="white">MASWE&#45;0016</text>
</g>
<!-- WE16&#45;&gt;VS1 -->
<g id="edge7" class="edge">
<title>WE16&#45;&gt;VS1</title>
<path fill="none" stroke="#00688b" d="M288.4,-144.39C311.48,-154.19 339.52,-167.03 363.5,-180.75 378.03,-189.07 393.25,-199.48 406.17,-208.88"/>
<polygon fill="#00688b" stroke="#00688b" points="403.79,-211.48 413.91,-214.61 407.96,-205.85 403.79,-211.48"/>
<text text-anchor="middle" x="336.12" y="-181.7" font-family="Times,serif" font-size="14.00" fill="white">endangers</text>
</g>
<!-- WE17 -->
<g id="node9" class="node">
<title>WE17</title>
<polygon fill="none" stroke="gold" points="290.75,-90 191.5,-90 191.5,-54 290.75,-54 290.75,-90"/>
<text text-anchor="middle" x="241.12" y="-65.83" font-family="Times,serif" font-size="14.00" fill="white">MASWE&#45;0017</text>
</g>
<!-- WE17&#45;&gt;VS1 -->
<g id="edge8" class="edge">
<title>WE17&#45;&gt;VS1</title>
<path fill="none" stroke="#00688b" d="M288.24,-90.46C312.22,-101.43 341.12,-116.88 363.5,-135.75 387.36,-155.86 408.37,-184.78 422.08,-206.03"/>
<polygon fill="#00688b" stroke="#00688b" points="419.11,-207.89 427.4,-214.5 425.04,-204.17 419.11,-207.89"/>
<text text-anchor="middle" x="336.12" y="-136.7" font-family="Times,serif" font-size="14.00" fill="white">endangers</text>
</g>
<!-- WE18 -->
<g id="node10" class="node">
<title>WE18</title>
<polygon fill="none" stroke="gold" points="290.75,-36 191.5,-36 191.5,0 290.75,0 290.75,-36"/>
<text text-anchor="middle" x="241.12" y="-11.82" font-family="Times,serif" font-size="14.00" fill="white">MASWE&#45;0018</text>
</g>
<!-- WE18&#45;&gt;VS1 -->
<g id="edge9" class="edge">
<title>WE18&#45;&gt;VS1</title>
<path fill="none" stroke="#00688b" d="M290.98,-35.74C315.14,-46.43 343.36,-62.03 363.5,-82.75 397.7,-117.93 419.33,-171.71 430.22,-204.77"/>
<polygon fill="#00688b" stroke="#00688b" points="426.82,-205.61 433.17,-214.09 433.49,-203.5 426.82,-205.61"/>
<text text-anchor="middle" x="336.12" y="-83.7" font-family="Times,serif" font-size="14.00" fill="white">endangers</text>
</g>
<!-- TG208 -->
<g id="node11" class="node">
<title>TG208</title>
<polygon fill="none" stroke="limegreen" points="131.5,-495 0,-495 0,-459 131.5,-459 131.5,-495"/>
<text text-anchor="middle" x="65.75" y="-470.82" font-family="Times,serif" font-size="14.00" fill="white">MASTG&#45;TEST&#45;0208</text>
</g>
<!-- TG208&#45;&gt;WE09 -->
<g id="edge10" class="edge">
<title>TG208&#45;&gt;WE09</title>
<path fill="none" stroke="#00688b" d="M131.8,-466.87C147.65,-464.4 164.53,-461.77 180.14,-459.34"/>
<polygon fill="#00688b" stroke="#00688b" points="180.4,-462.84 189.74,-457.85 179.32,-455.93 180.4,-462.84"/>
<text text-anchor="middle" x="161.5" y="-464.45" font-family="Times,serif" font-size="14.00" fill="white">tests</text>
</g>
<!-- TG209 -->
<g id="node12" class="node">
<title>TG209</title>
<polygon fill="none" stroke="limegreen" points="131.5,-441 0,-441 0,-405 131.5,-405 131.5,-441"/>
<text text-anchor="middle" x="65.75" y="-416.82" font-family="Times,serif" font-size="14.00" fill="white">MASTG&#45;TEST&#45;0209</text>
</g>
<!-- TG209&#45;&gt;WE09 -->
<g id="edge11" class="edge">
<title>TG209&#45;&gt;WE09</title>
<path fill="none" stroke="#00688b" d="M131.8,-433.13C147.65,-435.6 164.53,-438.23 180.14,-440.66"/>
<polygon fill="#00688b" stroke="#00688b" points="179.32,-444.07 189.74,-442.15 180.4,-437.16 179.32,-444.07"/>
<text text-anchor="middle" x="161.5" y="-439.87" font-family="Times,serif" font-size="14.00" fill="white">tests</text>
</g>
<!-- TG212 -->
<g id="node13" class="node">
<title>TG212</title>
<polygon fill="none" stroke="limegreen" points="131.5,-306 0,-306 0,-270 131.5,-270 131.5,-306"/>
<text text-anchor="middle" x="65.75" y="-281.82" font-family="Times,serif" font-size="14.00" fill="white">MASTG&#45;TEST&#45;0212</text>
</g>
<!-- TG212&#45;&gt;WE14 -->
<g id="edge12" class="edge">
<title>TG212&#45;&gt;WE14</title>
<path fill="none" stroke="#00688b" d="M125.93,-269.57C143.48,-264.1 162.7,-258.11 180.29,-252.64"/>
<polygon fill="#00688b" stroke="#00688b" points="181.05,-256.07 189.56,-249.75 178.97,-249.38 181.05,-256.07"/>
<text text-anchor="middle" x="161.5" y="-261.95" font-family="Times,serif" font-size="14.00" fill="white">tests</text>
</g>
<!-- TG213 -->
<g id="node14" class="node">
<title>TG213</title>
<polygon fill="none" stroke="limegreen" points="131.5,-252 0,-252 0,-216 131.5,-216 131.5,-252"/>
<text text-anchor="middle" x="65.75" y="-227.82" font-family="Times,serif" font-size="14.00" fill="white">MASTG&#45;TEST&#45;0213</text>
</g>
<!-- TG213&#45;&gt;WE14 -->
<g id="edge13" class="edge">
<title>TG213&#45;&gt;WE14</title>
<path fill="none" stroke="#00688b" d="M131.8,-234C147.65,-234 164.53,-234 180.14,-234"/>
<polygon fill="#00688b" stroke="#00688b" points="179.72,-237.5 189.72,-234 179.72,-230.5 179.72,-237.5"/>
<text text-anchor="middle" x="161.5" y="-234.95" font-family="Times,serif" font-size="14.00" fill="white">tests</text>
</g>
<!-- TG214 -->
<g id="node15" class="node">
<title>TG214</title>
<polygon fill="none" stroke="limegreen" points="131.5,-198 0,-198 0,-162 131.5,-162 131.5,-198"/>
<text text-anchor="middle" x="65.75" y="-173.82" font-family="Times,serif" font-size="14.00" fill="white">MASTG&#45;TEST&#45;0214</text>
</g>
<!-- TG214&#45;&gt;WE14 -->
<g id="edge14" class="edge">
<title>TG214&#45;&gt;WE14</title>
<path fill="none" stroke="#00688b" d="M125.93,-198.43C143.48,-203.9 162.7,-209.89 180.29,-215.36"/>
<polygon fill="#00688b" stroke="#00688b" points="178.97,-218.62 189.56,-218.25 181.05,-211.93 178.97,-218.62"/>
<text text-anchor="middle" x="161.5" y="-212.79" font-family="Times,serif" font-size="14.00" fill="white">tests</text>
</g>
</g>
</svg>
