<?xml version="1.0" encoding="UTF-8" standalone="no"?>
<!DOCTYPE svg PUBLIC "-//W3C//DTD SVG 1.1//EN"
 "http://www.w3.org/Graphics/SVG/1.1/DTD/svg11.dtd">
<!-- Generated by graphviz version 12.1.2 (20240928.0832)
 -->
<!-- Title: G Pages: 1 -->
<svg width="506pt" height="530pt"
 viewBox="0.00 0.00 506.00 530.00" xmlns="http://www.w3.org/2000/svg" xmlns:xlink="http://www.w3.org/1999/xlink">
<g id="graph0" class="graph" transform="scale(1 1) rotate(0) translate(4 526)">
<title>G</title>
<polygon fill="none" stroke="none" points="-4,4 -4,-526 502,-526 502,4 -4,4"/>
<!-- VS1 -->
<g id="node1" class="node">
<title>VS1</title>
<polygon fill="none" stroke="mediumorchid" points="498,-279 381.5,-279 381.5,-243 498,-243 498,-279"/>
<text text-anchor="middle" x="439.75" y="-254.82" font-family="Times,serif" font-size="14.00" fill="white">MASVS&#45;Crypto&#45;1</text>
</g>
<!-- WE19 -->
<g id="node2" class="node">
<title>WE19</title>
<polygon fill="none" stroke="gold" points="290.75,-495 191.5,-495 191.5,-459 290.75,-459 290.75,-495"/>
<text text-anchor="middle" x="241.12" y="-470.82" font-family="Times,serif" font-size="14.00" fill="white">MASWE&#45;0019</text>
</g>
<!-- WE19&#45;&gt;VS1 -->
<g id="edge1" class="edge">
<title>WE19&#45;&gt;VS1</title>
<path fill="none" stroke="#00688b" d="M290.98,-459.15C315.13,-448.41 343.35,-432.75 363.5,-412 397.63,-376.85 419.29,-323.16 430.2,-290.17"/>
<polygon fill="#00688b" stroke="#00688b" points="433.46,-291.46 433.15,-280.87 426.79,-289.34 433.46,-291.46"/>
<text text-anchor="middle" x="336.12" y="-451.58" font-family="Times,serif" font-size="14.00" fill="white">endangers</text>
</g>
<!-- WE20 -->
<g id="node3" class="node">
<title>WE20</title>
<polygon fill="none" stroke="limegreen" points="290.75,-441 191.5,-441 191.5,-405 290.75,-405 290.75,-441"/>
<text text-anchor="middle" x="241.12" y="-416.82" font-family="Times,serif" font-size="14.00" fill="white">MASWE&#45;0020</text>
</g>
<!-- WE20&#45;&gt;VS1 -->
<g id="edge2" class="edge">
<title>WE20&#45;&gt;VS1</title>
<path fill="none" stroke="#00688b" d="M287.94,-404.56C311.97,-393.53 341.01,-377.97 363.5,-359 387.32,-338.92 408.33,-310.08 422.05,-288.88"/>
<polygon fill="#00688b" stroke="#00688b" points="425,-290.77 427.38,-280.44 419.08,-287.03 425,-290.77"/>
<text text-anchor="middle" x="336.12" y="-394.58" font-family="Times,serif" font-size="14.00" fill="white">endangers</text>
</g>
<!-- WE21 -->
<g id="node4" class="node">
<title>WE21</title>
<polygon fill="none" stroke="limegreen" points="290.75,-387 191.5,-387 191.5,-351 290.75,-351 290.75,-387"/>
<text text-anchor="middle" x="241.12" y="-362.82" font-family="Times,serif" font-size="14.00" fill="white">MASWE&#45;0021</text>
</g>
<!-- WE21&#45;&gt;VS1 -->
<g id="edge3" class="edge">
<title>WE21&#45;&gt;VS1</title>
<path fill="none" stroke="#00688b" d="M288.09,-350.6C311.23,-340.73 339.4,-327.78 363.5,-314 378.01,-305.7 393.23,-295.33 406.15,-285.98"/>
<polygon fill="#00688b" stroke="#00688b" points="407.91,-289.03 413.89,-280.28 403.76,-283.39 407.91,-289.03"/>
<text text-anchor="middle" x="336.12" y="-341.29" font-family="Times,serif" font-size="14.00" fill="white">endangers</text>
</g>
<!-- WE22 -->
<g id="node5" class="node">
<title>WE22</title>
<polygon fill="none" stroke="limegreen" points="290.75,-333 191.5,-333 191.5,-297 290.75,-297 290.75,-333"/>
<text text-anchor="middle" x="241.12" y="-308.82" font-family="Times,serif" font-size="14.00" fill="white">MASWE&#45;0022</text>
</g>
<!-- WE22&#45;&gt;VS1 -->
<g id="edge4" class="edge">
<title>WE22&#45;&gt;VS1</title>
<path fill="none" stroke="#00688b" d="M291.23,-301.51C315.12,-294.95 344.23,-286.96 370.26,-279.81"/>
<polygon fill="#00688b" stroke="#00688b" points="371.02,-283.23 379.74,-277.21 369.17,-276.48 371.02,-283.23"/>
<text text-anchor="middle" x="336.12" y="-296.94" font-family="Times,serif" font-size="14.00" fill="white">endangers</text>
</g>
<!-- WE23 -->
<g id="node6" class="node">
<title>WE23</title>
<polygon fill="none" stroke="limegreen" points="290.75,-279 191.5,-279 191.5,-243 290.75,-243 290.75,-279"/>
<text text-anchor="middle" x="241.12" y="-254.82" font-family="Times,serif" font-size="14.00" fill="white">MASWE&#45;0023</text>
</g>
<!-- WE23&#45;&gt;VS1 -->
<g id="edge5" class="edge">
<title>WE23&#45;&gt;VS1</title>
<path fill="none" stroke="#00688b" d="M291.23,-261C315.02,-261 343.97,-261 369.91,-261"/>
<polygon fill="#00688b" stroke="#00688b" points="369.69,-264.5 379.69,-261 369.69,-257.5 369.69,-264.5"/>
<text text-anchor="middle" x="336.12" y="-261.95" font-family="Times,serif" font-size="14.00" fill="white">endangers</text>
</g>
<!-- WE24 -->
<g id="node7" class="node">
<title>WE24</title>
<polygon fill="none" stroke="limegreen" points="290.75,-225 191.5,-225 191.5,-189 290.75,-189 290.75,-225"/>
<text text-anchor="middle" x="241.12" y="-200.82" font-family="Times,serif" font-size="14.00" fill="white">MASWE&#45;0024</text>
</g>
<!-- WE24&#45;&gt;VS1 -->
<g id="edge6" class="edge">
<title>WE24&#45;&gt;VS1</title>
<path fill="none" stroke="#00688b" d="M291.23,-220.49C315.12,-227.05 344.23,-235.04 370.26,-242.19"/>
<polygon fill="#00688b" stroke="#00688b" points="369.17,-245.52 379.74,-244.79 371.02,-238.77 369.17,-245.52"/>
<text text-anchor="middle" x="336.12" y="-239.79" font-family="Times,serif" font-size="14.00" fill="white">endangers</text>
</g>
<!-- WE25 -->
<g id="node8" class="node">
<title>WE25</title>
<polygon fill="none" stroke="limegreen" points="290.75,-171 191.5,-171 191.5,-135 290.75,-135 290.75,-171"/>
<text text-anchor="middle" x="241.12" y="-146.82" font-family="Times,serif" font-size="14.00" fill="white">MASWE&#45;0025</text>
</g>
<!-- WE25&#45;&gt;VS1 -->
<g id="edge7" class="edge">
<title>WE25&#45;&gt;VS1</title>
<path fill="none" stroke="#00688b" d="M288.4,-171.39C311.48,-181.19 339.52,-194.03 363.5,-207.75 378.03,-216.07 393.25,-226.48 406.17,-235.88"/>
<polygon fill="#00688b" stroke="#00688b" points="403.79,-238.48 413.91,-241.61 407.96,-232.85 403.79,-238.48"/>
<text text-anchor="middle" x="336.12" y="-208.7" font-family="Times,serif" font-size="14.00" fill="white">endangers</text>
</g>
<!-- WE26 -->
<g id="node9" class="node">
<title>WE26</title>
<polygon fill="none" stroke="limegreen" points="290.75,-117 191.5,-117 191.5,-81 290.75,-81 290.75,-117"/>
<text text-anchor="middle" x="241.12" y="-92.83" font-family="Times,serif" font-size="14.00" fill="white">MASWE&#45;0026</text>
</g>
<!-- WE26&#45;&gt;VS1 -->
<g id="edge8" class="edge">
<title>WE26&#45;&gt;VS1</title>
<path fill="none" stroke="#00688b" d="M288.24,-117.46C312.22,-128.43 341.12,-143.88 363.5,-162.75 387.36,-182.86 408.37,-211.78 422.08,-233.03"/>
<polygon fill="#00688b" stroke="#00688b" points="419.11,-234.89 427.4,-241.5 425.04,-231.17 419.11,-234.89"/>
<text text-anchor="middle" x="336.12" y="-163.7" font-family="Times,serif" font-size="14.00" fill="white">endangers</text>
</g>
<!-- WE27 -->
<g id="node10" class="node">
<title>WE27</title>
<polygon fill="none" stroke="limegreen" points="290.75,-63 191.5,-63 191.5,-27 290.75,-27 290.75,-63"/>
<text text-anchor="middle" x="241.12" y="-38.83" font-family="Times,serif" font-size="14.00" fill="white">MASWE&#45;0027</text>
</g>
<!-- WE27&#45;&gt;VS1 -->
<g id="edge9" class="edge">
<title>WE27&#45;&gt;VS1</title>
<path fill="none" stroke="#00688b" d="M290.98,-62.74C315.14,-73.43 343.36,-89.03 363.5,-109.75 397.7,-144.93 419.33,-198.71 430.22,-231.77"/>
<polygon fill="#00688b" stroke="#00688b" points="426.82,-232.61 433.17,-241.09 433.49,-230.5 426.82,-232.61"/>
<text text-anchor="middle" x="336.12" y="-110.7" font-family="Times,serif" font-size="14.00" fill="white">endangers</text>
</g>
<!-- TG221 -->
<g id="node11" class="node">
<title>TG221</title>
<polygon fill="none" stroke="limegreen" points="131.5,-522 0,-522 0,-486 131.5,-486 131.5,-522"/>
<text text-anchor="middle" x="65.75" y="-497.82" font-family="Times,serif" font-size="14.00" fill="white">MASTG&#45;TEST&#45;0221</text>
</g>
<!-- TG221&#45;&gt;WE20 -->
<g id="edge10" class="edge">
<title>TG221&#45;&gt;WE20</title>
<path fill="none" stroke="#00688b" d="M111.85,-485.65C118.47,-482.82 125.18,-479.88 131.5,-477 152.45,-467.44 175.32,-456.19 194.65,-446.45"/>
<polygon fill="#00688b" stroke="#00688b" points="196.01,-449.68 203.35,-442.04 192.84,-443.44 196.01,-449.68"/>
<text text-anchor="middle" x="161.5" y="-468.12" font-family="Times,serif" font-size="14.00" fill="white">tests</text>
</g>
<!-- TG232 -->
<g id="node12" class="node">
<title>TG232</title>
<polygon fill="none" stroke="limegreen" points="131.5,-468 0,-468 0,-432 131.5,-432 131.5,-468"/>
<text text-anchor="middle" x="65.75" y="-443.82" font-family="Times,serif" font-size="14.00" fill="white">MASTG&#45;TEST&#45;0232</text>
</g>
<!-- TG232&#45;&gt;WE20 -->
<g id="edge11" class="edge">
<title>TG232&#45;&gt;WE20</title>
<path fill="none" stroke="#00688b" d="M131.8,-439.87C147.65,-437.4 164.53,-434.77 180.14,-432.34"/>
<polygon fill="#00688b" stroke="#00688b" points="180.4,-435.84 189.74,-430.85 179.32,-428.93 180.4,-435.84"/>
<text text-anchor="middle" x="161.5" y="-437.45" font-family="Times,serif" font-size="14.00" fill="white">tests</text>
</g>
<!-- TG210 -->
<g id="node13" class="node">
<title>TG210</title>
<polygon fill="none" stroke="limegreen" points="131.5,-414 0,-414 0,-378 131.5,-378 131.5,-414"/>
<text text-anchor="middle" x="65.75" y="-389.82" font-family="Times,serif" font-size="14.00" fill="white">MASTG&#45;TEST&#45;0210</text>
</g>
<!-- TG210&#45;&gt;WE20 -->
<g id="edge12" class="edge">
<title>TG210&#45;&gt;WE20</title>
<path fill="none" stroke="#00688b" d="M131.8,-406.13C147.65,-408.6 164.53,-411.23 180.14,-413.66"/>
<polygon fill="#00688b" stroke="#00688b" points="179.32,-417.07 189.74,-415.15 180.4,-410.16 179.32,-417.07"/>
<text text-anchor="middle" x="161.5" y="-412.87" font-family="Times,serif" font-size="14.00" fill="white">tests</text>
</g>
<!-- TG211 -->
<g id="node14" class="node">
<title>TG211</title>
<polygon fill="none" stroke="limegreen" points="131.5,-360 0,-360 0,-324 131.5,-324 131.5,-360"/>
<text text-anchor="middle" x="65.75" y="-335.82" font-family="Times,serif" font-size="14.00" fill="white">MASTG&#45;TEST&#45;0211</text>
</g>
<!-- TG211&#45;&gt;WE21 -->
<g id="edge13" class="edge">
<title>TG211&#45;&gt;WE21</title>
<path fill="none" stroke="#00688b" d="M131.8,-352.13C147.65,-354.6 164.53,-357.23 180.14,-359.66"/>
<polygon fill="#00688b" stroke="#00688b" points="179.32,-363.07 189.74,-361.15 180.4,-356.16 179.32,-363.07"/>
<text text-anchor="middle" x="161.5" y="-358.87" font-family="Times,serif" font-size="14.00" fill="white">tests</text>
</g>
<!-- TG204 -->
<g id="node15" class="node">
<title>TG204</title>
<polygon fill="none" stroke="limegreen" points="131.5,-90 0,-90 0,-54 131.5,-54 131.5,-90"/>
<text text-anchor="middle" x="65.75" y="-65.83" font-family="Times,serif" font-size="14.00" fill="white">MASTG&#45;TEST&#45;0204</text>
</g>
<!-- TG204&#45;&gt;WE27 -->
<g id="edge14" class="edge">
<title>TG204&#45;&gt;WE27</title>
<path fill="none" stroke="#00688b" d="M131.8,-61.87C147.65,-59.4 164.53,-56.77 180.14,-54.34"/>
<polygon fill="#00688b" stroke="#00688b" points="180.4,-57.84 189.74,-52.85 179.32,-50.93 180.4,-57.84"/>
<text text-anchor="middle" x="161.5" y="-59.45" font-family="Times,serif" font-size="14.00" fill="white">tests</text>
</g>
<!-- TG205 -->
<g id="node16" class="node">
<title>TG205</title>
<polygon fill="none" stroke="limegreen" points="131.5,-36 0,-36 0,0 131.5,0 131.5,-36"/>
<text text-anchor="middle" x="65.75" y="-11.82" font-family="Times,serif" font-size="14.00" fill="white">MASTG&#45;TEST&#45;0205</text>
</g>
<!-- TG205&#45;&gt;WE27 -->
<g id="edge15" class="edge">
<title>TG205&#45;&gt;WE27</title>
<path fill="none" stroke="#00688b" d="M131.8,-28.13C147.65,-30.6 164.53,-33.23 180.14,-35.66"/>
<polygon fill="#00688b" stroke="#00688b" points="179.32,-39.07 189.74,-37.15 180.4,-32.16 179.32,-39.07"/>
<text text-anchor="middle" x="161.5" y="-34.87" font-family="Times,serif" font-size="14.00" fill="white">tests</text>
</g>
</g>
</svg>
