<?xml version="1.0" encoding="UTF-8" standalone="no"?>
<!DOCTYPE svg PUBLIC "-//W3C//DTD SVG 1.1//EN"
 "http://www.w3.org/Graphics/SVG/1.1/DTD/svg11.dtd">
<!-- Generated by graphviz version 12.1.2 (20240928.0832)
 -->
<!-- Title: G Pages: 1 -->
<svg width="510pt" height="314pt"
 viewBox="0.00 0.00 509.75 314.00" xmlns="http://www.w3.org/2000/svg" xmlns:xlink="http://www.w3.org/1999/xlink">
<g id="graph0" class="graph" transform="scale(1 1) rotate(0) translate(4 310)">
<title>G</title>
<polygon fill="none" stroke="none" points="-4,4 -4,-310 505.75,-310 505.75,4 -4,4"/>
<!-- VS1 -->
<g id="node1" class="node">
<title>VS1</title>
<polygon fill="none" stroke="mediumorchid" points="501.75,-197 381.5,-197 381.5,-161 501.75,-161 501.75,-197"/>
<text text-anchor="middle" x="441.62" y="-172.82" font-family="Times,serif" font-size="14.00" fill="white">MASVS&#45;Privacy&#45;1</text>
</g>
<!-- WE108 -->
<g id="node2" class="node">
<title>WE108</title>
<polygon fill="none" stroke="limegreen" points="290.75,-252 191.5,-252 191.5,-216 290.75,-216 290.75,-252"/>
<text text-anchor="middle" x="241.12" y="-227.82" font-family="Times,serif" font-size="14.00" fill="white">MASWE&#45;0108</text>
</g>
<!-- WE108&#45;&gt;VS1 -->
<g id="edge1" class="edge">
<title>WE108&#45;&gt;VS1</title>
<path fill="none" stroke="#00688b" d="M291.19,-220.4C315,-213.81 344.04,-205.76 370.16,-198.52"/>
<polygon fill="#00688b" stroke="#00688b" points="370.99,-201.93 379.7,-195.88 369.12,-195.18 370.99,-201.93"/>
<text text-anchor="middle" x="336.12" y="-215.59" font-family="Times,serif" font-size="14.00" fill="white">endangers</text>
</g>
<!-- WE117 -->
<g id="node3" class="node">
<title>WE117</title>
<polygon fill="none" stroke="limegreen" points="290.75,-144 191.5,-144 191.5,-108 290.75,-108 290.75,-144"/>
<text text-anchor="middle" x="241.12" y="-119.83" font-family="Times,serif" font-size="14.00" fill="white">MASWE&#45;0117</text>
</g>
<!-- WE117&#45;&gt;VS1 -->
<g id="edge2" class="edge">
<title>WE117&#45;&gt;VS1</title>
<path fill="none" stroke="#00688b" d="M291.19,-139.1C315,-145.46 344.04,-153.21 370.16,-160.19"/>
<polygon fill="#00688b" stroke="#00688b" points="369.13,-163.53 379.69,-162.73 370.93,-156.77 369.13,-163.53"/>
<text text-anchor="middle" x="336.12" y="-158.2" font-family="Times,serif" font-size="14.00" fill="white">endangers</text>
</g>
<!-- TG206 -->
<g id="node4" class="node">
<title>TG206</title>
<polygon fill="none" stroke="limegreen" points="131.5,-306 0,-306 0,-270 131.5,-270 131.5,-306"/>
<text text-anchor="middle" x="65.75" y="-281.82" font-family="Times,serif" font-size="14.00" fill="white">MASTG&#45;TEST&#45;0206</text>
</g>
<!-- TG206&#45;&gt;WE108 -->
<g id="edge3" class="edge">
<title>TG206&#45;&gt;WE108</title>
<path fill="none" stroke="#00688b" d="M125.93,-269.57C143.48,-264.1 162.7,-258.11 180.29,-252.64"/>
<polygon fill="#00688b" stroke="#00688b" points="181.05,-256.07 189.56,-249.75 178.97,-249.38 181.05,-256.07"/>
<text text-anchor="middle" x="161.5" y="-261.95" font-family="Times,serif" font-size="14.00" fill="white">tests</text>
</g>
<!-- TG281 -->
<g id="node5" class="node">
<title>TG281</title>
<polygon fill="none" stroke="limegreen" points="131.5,-252 0,-252 0,-216 131.5,-216 131.5,-252"/>
<text text-anchor="middle" x="65.75" y="-227.82" font-family="Times,serif" font-size="14.00" fill="white">MASTG&#45;TEST&#45;0281</text>
</g>
<!-- TG281&#45;&gt;WE108 -->
<g id="edge4" class="edge">
<title>TG281&#45;&gt;WE108</title>
<path fill="none" stroke="#00688b" d="M131.8,-234C147.65,-234 164.53,-234 180.14,-234"/>
<polygon fill="#00688b" stroke="#00688b" points="179.72,-237.5 189.72,-234 179.72,-230.5 179.72,-237.5"/>
<text text-anchor="middle" x="161.5" y="-234.95" font-family="Times,serif" font-size="14.00" fill="white">tests</text>
</g>
<!-- TG254 -->
<g id="node6" class="node">
<title>TG254</title>
<polygon fill="none" stroke="limegreen" points="131.5,-198 0,-198 0,-162 131.5,-162 131.5,-198"/>
<text text-anchor="middle" x="65.75" y="-173.82" font-family="Times,serif" font-size="14.00" fill="white">MASTG&#45;TEST&#45;0254</text>
</g>
<!-- TG254&#45;&gt;WE117 -->
<g id="edge5" class="edge">
<title>TG254&#45;&gt;WE117</title>
<path fill="none" stroke="#00688b" d="M125.93,-161.57C143.48,-156.1 162.7,-150.11 180.29,-144.64"/>
<polygon fill="#00688b" stroke="#00688b" points="181.05,-148.07 189.56,-141.75 178.97,-141.38 181.05,-148.07"/>
<text text-anchor="middle" x="161.5" y="-153.95" font-family="Times,serif" font-size="14.00" fill="white">tests</text>
</g>
<!-- TG255 -->
<g id="node7" class="node">
<title>TG255</title>
<polygon fill="none" stroke="limegreen" points="131.5,-144 0,-144 0,-108 131.5,-108 131.5,-144"/>
<text text-anchor="middle" x="65.75" y="-119.83" font-family="Times,serif" font-size="14.00" fill="white">MASTG&#45;TEST&#45;0255</text>
</g>
<!-- TG255&#45;&gt;WE117 -->
<g id="edge6" class="edge">
<title>TG255&#45;&gt;WE117</title>
<path fill="none" stroke="#00688b" d="M131.8,-126C147.65,-126 164.53,-126 180.14,-126"/>
<polygon fill="#00688b" stroke="#00688b" points="179.72,-129.5 189.72,-126 179.72,-122.5 179.72,-129.5"/>
<text text-anchor="middle" x="161.5" y="-126.95" font-family="Times,serif" font-size="14.00" fill="white">tests</text>
</g>
<!-- TG256 -->
<g id="node8" class="node">
<title>TG256</title>
<polygon fill="none" stroke="limegreen" points="131.5,-90 0,-90 0,-54 131.5,-54 131.5,-90"/>
<text text-anchor="middle" x="65.75" y="-65.83" font-family="Times,serif" font-size="14.00" fill="white">MASTG&#45;TEST&#45;0256</text>
</g>
<!-- TG256&#45;&gt;WE117 -->
<g id="edge7" class="edge">
<title>TG256&#45;&gt;WE117</title>
<path fill="none" stroke="#00688b" d="M125.93,-90.43C143.48,-95.9 162.7,-101.89 180.29,-107.36"/>
<polygon fill="#00688b" stroke="#00688b" points="178.97,-110.62 189.56,-110.25 181.05,-103.93 178.97,-110.62"/>
<text text-anchor="middle" x="161.5" y="-104.79" font-family="Times,serif" font-size="14.00" fill="white">tests</text>
</g>
<!-- TG257 -->
<g id="node9" class="node">
<title>TG257</title>
<polygon fill="none" stroke="limegreen" points="131.5,-36 0,-36 0,0 131.5,0 131.5,-36"/>
<text text-anchor="middle" x="65.75" y="-11.82" font-family="Times,serif" font-size="14.00" fill="white">MASTG&#45;TEST&#45;0257</text>
</g>
<!-- TG257&#45;&gt;WE117 -->
<g id="edge8" class="edge">
<title>TG257&#45;&gt;WE117</title>
<path fill="none" stroke="#00688b" d="M114.78,-36.46C120.51,-39.12 126.21,-41.99 131.5,-45 159.63,-61.03 188.91,-83.23 209.97,-100.34"/>
<polygon fill="#00688b" stroke="#00688b" points="207.64,-102.96 217.59,-106.61 212.09,-97.55 207.64,-102.96"/>
<text text-anchor="middle" x="161.5" y="-72.26" font-family="Times,serif" font-size="14.00" fill="white">tests</text>
</g>
</g>
</svg>
