<?xml version="1.0" encoding="UTF-8" standalone="no"?>
<!DOCTYPE svg PUBLIC "-//W3C//DTD SVG 1.1//EN"
 "http://www.w3.org/Graphics/SVG/1.1/DTD/svg11.dtd">
<!-- Generated by graphviz version 12.1.2 (20240928.0832)
 -->
<!-- Title: G Pages: 1 -->
<svg width="510pt" height="260pt"
 viewBox="0.00 0.00 509.75 260.00" xmlns="http://www.w3.org/2000/svg" xmlns:xlink="http://www.w3.org/1999/xlink">
<g id="graph0" class="graph" transform="scale(1 1) rotate(0) translate(4 256)">
<title>G</title>
<polygon fill="none" stroke="none" points="-4,4 -4,-256 505.75,-256 505.75,4 -4,4"/>
<!-- VS1 -->
<g id="node1" class="node">
<title>VS1</title>
<polygon fill="none" stroke="mediumorchid" points="501.75,-143 381.5,-143 381.5,-107 501.75,-107 501.75,-143"/>
<text text-anchor="middle" x="441.62" y="-118.83" font-family="Times,serif" font-size="14.00" fill="white">MASVS&#45;Storage&#45;1</text>
</g>
<!-- WE06 -->
<g id="node2" class="node">
<title>WE06</title>
<polygon fill="none" stroke="gold" points="290.75,-198 191.5,-198 191.5,-162 290.75,-162 290.75,-198"/>
<text text-anchor="middle" x="241.12" y="-173.82" font-family="Times,serif" font-size="14.00" fill="white">MASWE&#45;0006</text>
</g>
<!-- WE06&#45;&gt;VS1 -->
<g id="edge1" class="edge">
<title>WE06&#45;&gt;VS1</title>
<path fill="none" stroke="#00688b" d="M291.19,-166.4C315,-159.81 344.04,-151.76 370.16,-144.52"/>
<polygon fill="#00688b" stroke="#00688b" points="370.99,-147.93 379.7,-141.88 369.12,-141.18 370.99,-147.93"/>
<text text-anchor="middle" x="336.12" y="-161.59" font-family="Times,serif" font-size="14.00" fill="white">endangers</text>
</g>
<!-- WE07 -->
<g id="node3" class="node">
<title>WE07</title>
<polygon fill="none" stroke="limegreen" points="290.75,-117 191.5,-117 191.5,-81 290.75,-81 290.75,-117"/>
<text text-anchor="middle" x="241.12" y="-92.83" font-family="Times,serif" font-size="14.00" fill="white">MASWE&#45;0007</text>
</g>
<!-- WE07&#45;&gt;VS1 -->
<g id="edge2" class="edge">
<title>WE07&#45;&gt;VS1</title>
<path fill="none" stroke="#00688b" d="M291.23,-103.42C313.36,-105.6 339.78,-108.47 363.5,-111.75 365.67,-112.05 367.87,-112.36 370.1,-112.69"/>
<polygon fill="#00688b" stroke="#00688b" points="369.4,-116.13 379.82,-114.18 370.46,-109.21 369.4,-116.13"/>
<text text-anchor="middle" x="336.12" y="-112.7" font-family="Times,serif" font-size="14.00" fill="white">endangers</text>
</g>
<!-- TG207 -->
<g id="node4" class="node">
<title>TG207</title>
<polygon fill="none" stroke="gold" points="131.5,-252 0,-252 0,-216 131.5,-216 131.5,-252"/>
<text text-anchor="middle" x="65.75" y="-227.82" font-family="Times,serif" font-size="14.00" fill="white">MASTG&#45;TEST&#45;0207</text>
</g>
<!-- TG207&#45;&gt;WE06 -->
<g id="edge3" class="edge">
<title>TG207&#45;&gt;WE06</title>
<path fill="none" stroke="#00688b" d="M125.93,-215.57C143.48,-210.1 162.7,-204.11 180.29,-198.64"/>
<polygon fill="#00688b" stroke="#00688b" points="181.05,-202.07 189.56,-195.75 178.97,-195.38 181.05,-202.07"/>
<text text-anchor="middle" x="161.5" y="-207.95" font-family="Times,serif" font-size="14.00" fill="white">tests</text>
</g>
<!-- TG287 -->
<g id="node5" class="node">
<title>TG287</title>
<polygon fill="none" stroke="limegreen" points="131.5,-198 0,-198 0,-162 131.5,-162 131.5,-198"/>
<text text-anchor="middle" x="65.75" y="-173.82" font-family="Times,serif" font-size="14.00" fill="white">MASTG&#45;TEST&#45;0287</text>
</g>
<!-- TG287&#45;&gt;WE06 -->
<g id="edge4" class="edge">
<title>TG287&#45;&gt;WE06</title>
<path fill="none" stroke="#00688b" d="M131.8,-180C147.65,-180 164.53,-180 180.14,-180"/>
<polygon fill="#00688b" stroke="#00688b" points="179.72,-183.5 189.72,-180 179.72,-176.5 179.72,-183.5"/>
<text text-anchor="middle" x="161.5" y="-180.95" font-family="Times,serif" font-size="14.00" fill="white">tests</text>
</g>
<!-- TG200 -->
<g id="node6" class="node">
<title>TG200</title>
<polygon fill="none" stroke="limegreen" points="131.5,-144 0,-144 0,-108 131.5,-108 131.5,-144"/>
<text text-anchor="middle" x="65.75" y="-119.83" font-family="Times,serif" font-size="14.00" fill="white">MASTG&#45;TEST&#45;0200</text>
</g>
<!-- TG200&#45;&gt;WE07 -->
<g id="edge5" class="edge">
<title>TG200&#45;&gt;WE07</title>
<path fill="none" stroke="#00688b" d="M131.8,-115.87C147.65,-113.4 164.53,-110.77 180.14,-108.34"/>
<polygon fill="#00688b" stroke="#00688b" points="180.4,-111.84 189.74,-106.85 179.32,-104.93 180.4,-111.84"/>
<text text-anchor="middle" x="161.5" y="-113.45" font-family="Times,serif" font-size="14.00" fill="white">tests</text>
</g>
<!-- TG201 -->
<g id="node7" class="node">
<title>TG201</title>
<polygon fill="#262626" stroke="limegreen" points="131.5,-90 0,-90 0,-54 131.5,-54 131.5,-90"/>
<text text-anchor="middle" x="65.75" y="-65.83" font-family="Times,serif" font-size="14.00" fill="white">MASTG&#45;TEST&#45;0201</text>
</g>
<!-- TG201&#45;&gt;WE07 -->
<g id="edge6" class="edge">
<title>TG201&#45;&gt;WE07</title>
<path fill="none" stroke="#00688b" d="M131.8,-82.13C147.65,-84.6 164.53,-87.23 180.14,-89.66"/>
<polygon fill="#00688b" stroke="#00688b" points="179.32,-93.07 189.74,-91.15 180.4,-86.16 179.32,-93.07"/>
<text text-anchor="middle" x="161.5" y="-88.87" font-family="Times,serif" font-size="14.00" fill="white">tests</text>
</g>
<!-- TG202 -->
<g id="node8" class="node">
<title>TG202</title>
<polygon fill="none" stroke="limegreen" points="131.5,-36 0,-36 0,0 131.5,0 131.5,-36"/>
<text text-anchor="middle" x="65.75" y="-11.82" font-family="Times,serif" font-size="14.00" fill="white">MASTG&#45;TEST&#45;0202</text>
</g>
<!-- TG202&#45;&gt;WE07 -->
<g id="edge7" class="edge">
<title>TG202&#45;&gt;WE07</title>
<path fill="none" stroke="#00688b" d="M111.85,-36.35C118.47,-39.18 125.18,-42.12 131.5,-45 152.45,-54.56 175.32,-65.81 194.65,-75.55"/>
<polygon fill="#00688b" stroke="#00688b" points="192.84,-78.56 203.35,-79.96 196.01,-72.32 192.84,-78.56"/>
<text text-anchor="middle" x="161.5" y="-64.57" font-family="Times,serif" font-size="14.00" fill="white">tests</text>
</g>
</g>
</svg>
