<?xml version="1.0" encoding="UTF-8" standalone="no"?>
<!DOCTYPE svg PUBLIC "-//W3C//DTD SVG 1.1//EN"
 "http://www.w3.org/Graphics/SVG/1.1/DTD/svg11.dtd">
<!-- Generated by graphviz version 12.1.2 (20240928.0832)
 -->
<!-- Title: G Pages: 1 -->
<svg width="325pt" height="476pt"
 viewBox="0.00 0.00 325.00 476.00" xmlns="http://www.w3.org/2000/svg" xmlns:xlink="http://www.w3.org/1999/xlink">
<g id="graph0" class="graph" transform="scale(1 1) rotate(0) translate(4 472)">
<title>G</title>
<polygon fill="none" stroke="none" points="-4,4 -4,-472 321,-472 321,4 -4,4"/>
<!-- VS1 -->
<g id="node1" class="node">
<title>VS1</title>
<polygon fill="none" stroke="mediumorchid" points="317,-252 190,-252 190,-216 317,-216 317,-252"/>
<text text-anchor="middle" x="253.5" y="-227.82" font-family="Times,serif" font-size="14.00" fill="white">MASVS&#45;Platform&#45;1</text>
</g>
<!-- WE58 -->
<g id="node2" class="node">
<title>WE58</title>
<polygon fill="none" stroke="limegreen" points="99.25,-468 0,-468 0,-432 99.25,-432 99.25,-468"/>
<text text-anchor="middle" x="49.62" y="-443.82" font-family="Times,serif" font-size="14.00" fill="white">MASWE&#45;0058</text>
</g>
<!-- WE58&#45;&gt;VS1 -->
<g id="edge1" class="edge">
<title>WE58&#45;&gt;VS1</title>
<path fill="none" stroke="#00688b" d="M98.91,-431.6C123.07,-420.58 151.45,-404.66 172,-384 206.86,-348.95 230.54,-295.66 242.76,-262.93"/>
<polygon fill="#00688b" stroke="#00688b" points="245.99,-264.29 246.09,-253.7 239.4,-261.92 245.99,-264.29"/>
<text text-anchor="middle" x="144.62" y="-422" font-family="Times,serif" font-size="14.00" fill="white">endangers</text>
</g>
<!-- WE59 -->
<g id="node3" class="node">
<title>WE59</title>
<polygon fill="none" stroke="limegreen" points="99.25,-414 0,-414 0,-378 99.25,-378 99.25,-414"/>
<text text-anchor="middle" x="49.62" y="-389.82" font-family="Times,serif" font-size="14.00" fill="white">MASWE&#45;0059</text>
</g>
<!-- WE59&#45;&gt;VS1 -->
<g id="edge2" class="edge">
<title>WE59&#45;&gt;VS1</title>
<path fill="none" stroke="#00688b" d="M94.4,-377.61C118.67,-366.22 148.58,-350.13 172,-331 196.58,-310.92 219.15,-282.46 234.09,-261.56"/>
<polygon fill="#00688b" stroke="#00688b" points="236.87,-263.7 239.73,-253.5 231.13,-259.69 236.87,-263.7"/>
<text text-anchor="middle" x="144.62" y="-366.58" font-family="Times,serif" font-size="14.00" fill="white">endangers</text>
</g>
<!-- WE60 -->
<g id="node4" class="node">
<title>WE60</title>
<polygon fill="none" stroke="limegreen" points="99.25,-360 0,-360 0,-324 99.25,-324 99.25,-360"/>
<text text-anchor="middle" x="49.62" y="-335.82" font-family="Times,serif" font-size="14.00" fill="white">MASWE&#45;0060</text>
</g>
<!-- WE60&#45;&gt;VS1 -->
<g id="edge3" class="edge">
<title>WE60&#45;&gt;VS1</title>
<path fill="none" stroke="#00688b" d="M95.83,-323.52C119.03,-313.54 147.49,-300.52 172,-287 187.36,-278.53 203.63,-268.11 217.5,-258.76"/>
<polygon fill="#00688b" stroke="#00688b" points="219.14,-261.88 225.43,-253.35 215.2,-256.1 219.14,-261.88"/>
<text text-anchor="middle" x="144.62" y="-313.93" font-family="Times,serif" font-size="14.00" fill="white">endangers</text>
</g>
<!-- WE61 -->
<g id="node5" class="node">
<title>WE61</title>
<polygon fill="none" stroke="limegreen" points="99.25,-306 0,-306 0,-270 99.25,-270 99.25,-306"/>
<text text-anchor="middle" x="49.62" y="-281.82" font-family="Times,serif" font-size="14.00" fill="white">MASWE&#45;0061</text>
</g>
<!-- WE61&#45;&gt;VS1 -->
<g id="edge4" class="edge">
<title>WE61&#45;&gt;VS1</title>
<path fill="none" stroke="#00688b" d="M99.49,-274.93C123.18,-268.59 152.14,-260.85 178.46,-253.8"/>
<polygon fill="#00688b" stroke="#00688b" points="179.34,-257.19 188.1,-251.23 177.53,-250.43 179.34,-257.19"/>
<text text-anchor="middle" x="144.62" y="-269.94" font-family="Times,serif" font-size="14.00" fill="white">endangers</text>
</g>
<!-- WE62 -->
<g id="node6" class="node">
<title>WE62</title>
<polygon fill="none" stroke="limegreen" points="99.25,-252 0,-252 0,-216 99.25,-216 99.25,-252"/>
<text text-anchor="middle" x="49.62" y="-227.82" font-family="Times,serif" font-size="14.00" fill="white">MASWE&#45;0062</text>
</g>
<!-- WE62&#45;&gt;VS1 -->
<g id="edge5" class="edge">
<title>WE62&#45;&gt;VS1</title>
<path fill="none" stroke="#00688b" d="M99.49,-234C123.08,-234 151.88,-234 178.11,-234"/>
<polygon fill="#00688b" stroke="#00688b" points="178.05,-237.5 188.05,-234 178.05,-230.5 178.05,-237.5"/>
<text text-anchor="middle" x="144.62" y="-234.95" font-family="Times,serif" font-size="14.00" fill="white">endangers</text>
</g>
<!-- WE63 -->
<g id="node7" class="node">
<title>WE63</title>
<polygon fill="none" stroke="limegreen" points="99.25,-198 0,-198 0,-162 99.25,-162 99.25,-198"/>
<text text-anchor="middle" x="49.62" y="-173.82" font-family="Times,serif" font-size="14.00" fill="white">MASWE&#45;0063</text>
</g>
<!-- WE63&#45;&gt;VS1 -->
<g id="edge6" class="edge">
<title>WE63&#45;&gt;VS1</title>
<path fill="none" stroke="#00688b" d="M99.49,-193.07C123.18,-199.41 152.14,-207.15 178.46,-214.2"/>
<polygon fill="#00688b" stroke="#00688b" points="177.53,-217.57 188.1,-216.77 179.34,-210.81 177.53,-217.57"/>
<text text-anchor="middle" x="144.62" y="-212.79" font-family="Times,serif" font-size="14.00" fill="white">endangers</text>
</g>
<!-- WE64 -->
<g id="node8" class="node">
<title>WE64</title>
<polygon fill="none" stroke="limegreen" points="99.25,-144 0,-144 0,-108 99.25,-108 99.25,-144"/>
<text text-anchor="middle" x="49.62" y="-119.83" font-family="Times,serif" font-size="14.00" fill="white">MASWE&#45;0064</text>
</g>
<!-- WE64&#45;&gt;VS1 -->
<g id="edge7" class="edge">
<title>WE64&#45;&gt;VS1</title>
<path fill="none" stroke="#00688b" d="M96.14,-144.47C119.29,-154.38 147.61,-167.3 172,-180.75 187.5,-189.3 203.91,-199.86 217.85,-209.31"/>
<polygon fill="#00688b" stroke="#00688b" points="215.58,-212.01 225.81,-214.79 219.55,-206.24 215.58,-212.01"/>
<text text-anchor="middle" x="144.62" y="-181.7" font-family="Times,serif" font-size="14.00" fill="white">endangers</text>
</g>
<!-- WE65 -->
<g id="node9" class="node">
<title>WE65</title>
<polygon fill="none" stroke="limegreen" points="99.25,-90 0,-90 0,-54 99.25,-54 99.25,-90"/>
<text text-anchor="middle" x="49.62" y="-65.83" font-family="Times,serif" font-size="14.00" fill="white">MASWE&#45;0065</text>
</g>
<!-- WE65&#45;&gt;VS1 -->
<g id="edge8" class="edge">
<title>WE65&#45;&gt;VS1</title>
<path fill="none" stroke="#00688b" d="M94.7,-90.41C118.92,-101.74 148.69,-117.72 172,-136.75 196.62,-156.85 219.18,-185.39 234.12,-206.35"/>
<polygon fill="#00688b" stroke="#00688b" points="231.16,-208.24 239.75,-214.44 236.9,-204.23 231.16,-208.24"/>
<text text-anchor="middle" x="144.62" y="-137.7" font-family="Times,serif" font-size="14.00" fill="white">endangers</text>
</g>
<!-- WE66 -->
<g id="node10" class="node">
<title>WE66</title>
<polygon fill="none" stroke="limegreen" points="99.25,-36 0,-36 0,0 99.25,0 99.25,-36"/>
<text text-anchor="middle" x="49.62" y="-11.82" font-family="Times,serif" font-size="14.00" fill="white">MASWE&#45;0066</text>
</g>
<!-- WE66&#45;&gt;VS1 -->
<g id="edge9" class="edge">
<title>WE66&#45;&gt;VS1</title>
<path fill="none" stroke="#00688b" d="M99.22,-36.42C123.31,-47.39 151.54,-63.2 172,-83.75 206.92,-118.83 230.58,-172.22 242.78,-205.01"/>
<polygon fill="#00688b" stroke="#00688b" points="239.43,-206.04 246.1,-214.26 246.02,-203.67 239.43,-206.04"/>
<text text-anchor="middle" x="144.62" y="-84.7" font-family="Times,serif" font-size="14.00" fill="white">endangers</text>
</g>
</g>
</svg>
