<?xml version="1.0" encoding="UTF-8" standalone="no"?>
<!DOCTYPE svg PUBLIC "-//W3C//DTD SVG 1.1//EN"
 "http://www.w3.org/Graphics/SVG/1.1/DTD/svg11.dtd">
<!-- Generated by graphviz version 12.1.2 (20240928.0832)
 -->
<!-- Title: G Pages: 1 -->
<svg width="318pt" height="152pt"
 viewBox="0.00 0.00 318.25 152.00" xmlns="http://www.w3.org/2000/svg" xmlns:xlink="http://www.w3.org/1999/xlink">
<g id="graph0" class="graph" transform="scale(1 1) rotate(0) translate(4 148)">
<title>G</title>
<polygon fill="none" stroke="none" points="-4,4 -4,-148 314.25,-148 314.25,4 -4,4"/>
<!-- VS1 -->
<g id="node1" class="node">
<title>VS1</title>
<polygon fill="none" stroke="mediumorchid" points="310.25,-90 190,-90 190,-54 310.25,-54 310.25,-90"/>
<text text-anchor="middle" x="250.12" y="-65.83" font-family="Times,serif" font-size="14.00" fill="white">MASVS&#45;Privacy&#45;4</text>
</g>
<!-- WE113 -->
<g id="node2" class="node">
<title>WE113</title>
<polygon fill="none" stroke="limegreen" points="99.25,-144 0,-144 0,-108 99.25,-108 99.25,-144"/>
<text text-anchor="middle" x="49.62" y="-119.83" font-family="Times,serif" font-size="14.00" fill="white">MASWE&#45;0113</text>
</g>
<!-- WE113&#45;&gt;VS1 -->
<g id="edge1" class="edge">
<title>WE113&#45;&gt;VS1</title>
<path fill="none" stroke="#00688b" d="M99.69,-112.65C123.5,-106.17 152.54,-98.28 178.66,-91.17"/>
<polygon fill="#00688b" stroke="#00688b" points="179.46,-94.58 188.19,-88.58 177.63,-87.82 179.46,-94.58"/>
<text text-anchor="middle" x="144.62" y="-107.94" font-family="Times,serif" font-size="14.00" fill="white">endangers</text>
</g>
<!-- WE114 -->
<g id="node3" class="node">
<title>WE114</title>
<polygon fill="none" stroke="limegreen" points="99.25,-90 0,-90 0,-54 99.25,-54 99.25,-90"/>
<text text-anchor="middle" x="49.62" y="-65.83" font-family="Times,serif" font-size="14.00" fill="white">MASWE&#45;0114</text>
</g>
<!-- WE114&#45;&gt;VS1 -->
<g id="edge2" class="edge">
<title>WE114&#45;&gt;VS1</title>
<path fill="none" stroke="#00688b" d="M99.69,-72C123.39,-72 152.28,-72 178.31,-72"/>
<polygon fill="#00688b" stroke="#00688b" points="178.14,-75.5 188.14,-72 178.14,-68.5 178.14,-75.5"/>
<text text-anchor="middle" x="144.62" y="-72.95" font-family="Times,serif" font-size="14.00" fill="white">endangers</text>
</g>
<!-- WE115 -->
<g id="node4" class="node">
<title>WE115</title>
<polygon fill="none" stroke="limegreen" points="99.25,-36 0,-36 0,0 99.25,0 99.25,-36"/>
<text text-anchor="middle" x="49.62" y="-11.82" font-family="Times,serif" font-size="14.00" fill="white">MASWE&#45;0115</text>
</g>
<!-- WE115&#45;&gt;VS1 -->
<g id="edge3" class="edge">
<title>WE115&#45;&gt;VS1</title>
<path fill="none" stroke="#00688b" d="M99.69,-31.35C123.5,-37.83 152.54,-45.72 178.66,-52.83"/>
<polygon fill="#00688b" stroke="#00688b" points="177.63,-56.18 188.19,-55.42 179.46,-49.42 177.63,-56.18"/>
<text text-anchor="middle" x="144.62" y="-50.79" font-family="Times,serif" font-size="14.00" fill="white">endangers</text>
</g>
</g>
</svg>
