<?xml version="1.0" encoding="UTF-8" standalone="no"?>
<!DOCTYPE svg PUBLIC "-//W3C//DTD SVG 1.1//EN"
 "http://www.w3.org/Graphics/SVG/1.1/DTD/svg11.dtd">
<!-- Generated by graphviz version 12.1.2 (20240928.0832)
 -->
<!-- Title: G Pages: 1 -->
<svg width="517pt" height="314pt"
 viewBox="0.00 0.00 516.50 314.00" xmlns="http://www.w3.org/2000/svg" xmlns:xlink="http://www.w3.org/1999/xlink">
<g id="graph0" class="graph" transform="scale(1 1) rotate(0) translate(4 310)">
<title>G</title>
<polygon fill="none" stroke="none" points="-4,4 -4,-310 512.5,-310 512.5,4 -4,4"/>
<!-- VS1 -->
<g id="node1" class="node">
<title>VS1</title>
<polygon fill="none" stroke="mediumorchid" points="508.5,-171 381.5,-171 381.5,-135 508.5,-135 508.5,-171"/>
<text text-anchor="middle" x="445" y="-146.82" font-family="Times,serif" font-size="14.00" fill="white">MASVS&#45;Platform&#45;3</text>
</g>
<!-- WE53 -->
<g id="node2" class="node">
<title>WE53</title>
<polygon fill="none" stroke="gold" points="290.75,-279 191.5,-279 191.5,-243 290.75,-243 290.75,-279"/>
<text text-anchor="middle" x="241.12" y="-254.82" font-family="Times,serif" font-size="14.00" fill="white">MASWE&#45;0053</text>
</g>
<!-- WE53&#45;&gt;VS1 -->
<g id="edge1" class="edge">
<title>WE53&#45;&gt;VS1</title>
<path fill="none" stroke="#00688b" d="M287.33,-242.52C310.53,-232.54 338.99,-219.52 363.5,-206 378.86,-197.53 395.13,-187.11 409,-177.76"/>
<polygon fill="#00688b" stroke="#00688b" points="410.64,-180.88 416.93,-172.35 406.7,-175.1 410.64,-180.88"/>
<text text-anchor="middle" x="336.12" y="-232.93" font-family="Times,serif" font-size="14.00" fill="white">endangers</text>
</g>
<!-- WE54 -->
<g id="node3" class="node">
<title>WE54</title>
<polygon fill="none" stroke="gold" points="290.75,-225 191.5,-225 191.5,-189 290.75,-189 290.75,-225"/>
<text text-anchor="middle" x="241.12" y="-200.82" font-family="Times,serif" font-size="14.00" fill="white">MASWE&#45;0054</text>
</g>
<!-- WE54&#45;&gt;VS1 -->
<g id="edge2" class="edge">
<title>WE54&#45;&gt;VS1</title>
<path fill="none" stroke="#00688b" d="M290.99,-193.93C314.68,-187.59 343.64,-179.85 369.96,-172.8"/>
<polygon fill="#00688b" stroke="#00688b" points="370.84,-176.19 379.6,-170.23 369.03,-169.43 370.84,-176.19"/>
<text text-anchor="middle" x="336.12" y="-188.94" font-family="Times,serif" font-size="14.00" fill="white">endangers</text>
</g>
<!-- WE55 -->
<g id="node4" class="node">
<title>WE55</title>
<polygon fill="none" stroke="gold" points="290.75,-171 191.5,-171 191.5,-135 290.75,-135 290.75,-171"/>
<text text-anchor="middle" x="241.12" y="-146.82" font-family="Times,serif" font-size="14.00" fill="white">MASWE&#45;0055</text>
</g>
<!-- WE55&#45;&gt;VS1 -->
<g id="edge3" class="edge">
<title>WE55&#45;&gt;VS1</title>
<path fill="none" stroke="#00688b" d="M290.99,-153C314.58,-153 343.38,-153 369.61,-153"/>
<polygon fill="#00688b" stroke="#00688b" points="369.55,-156.5 379.55,-153 369.55,-149.5 369.55,-156.5"/>
<text text-anchor="middle" x="336.12" y="-153.95" font-family="Times,serif" font-size="14.00" fill="white">endangers</text>
</g>
<!-- WE56 -->
<g id="node5" class="node">
<title>WE56</title>
<polygon fill="none" stroke="gold" points="290.75,-117 191.5,-117 191.5,-81 290.75,-81 290.75,-117"/>
<text text-anchor="middle" x="241.12" y="-92.83" font-family="Times,serif" font-size="14.00" fill="white">MASWE&#45;0056</text>
</g>
<!-- WE56&#45;&gt;VS1 -->
<g id="edge4" class="edge">
<title>WE56&#45;&gt;VS1</title>
<path fill="none" stroke="#00688b" d="M290.99,-112.07C314.68,-118.41 343.64,-126.15 369.96,-133.2"/>
<polygon fill="#00688b" stroke="#00688b" points="369.03,-136.57 379.6,-135.77 370.84,-129.81 369.03,-136.57"/>
<text text-anchor="middle" x="336.12" y="-131.79" font-family="Times,serif" font-size="14.00" fill="white">endangers</text>
</g>
<!-- WE57 -->
<g id="node6" class="node">
<title>WE57</title>
<polygon fill="none" stroke="limegreen" points="290.75,-63 191.5,-63 191.5,-27 290.75,-27 290.75,-63"/>
<text text-anchor="middle" x="241.12" y="-38.83" font-family="Times,serif" font-size="14.00" fill="white">MASWE&#45;0057</text>
</g>
<!-- WE57&#45;&gt;VS1 -->
<g id="edge5" class="edge">
<title>WE57&#45;&gt;VS1</title>
<path fill="none" stroke="#00688b" d="M287.64,-63.47C310.79,-73.38 339.11,-86.3 363.5,-99.75 379,-108.3 395.41,-118.86 409.35,-128.31"/>
<polygon fill="#00688b" stroke="#00688b" points="407.08,-131.01 417.31,-133.79 411.05,-125.24 407.08,-131.01"/>
<text text-anchor="middle" x="336.12" y="-100.7" font-family="Times,serif" font-size="14.00" fill="white">endangers</text>
</g>
<!-- TG289 -->
<g id="node7" class="node">
<title>TG289</title>
<polygon fill="none" stroke="gold" points="131.5,-306 0,-306 0,-270 131.5,-270 131.5,-306"/>
<text text-anchor="middle" x="65.75" y="-281.82" font-family="Times,serif" font-size="14.00" fill="white">MASTG&#45;TEST&#45;0289</text>
</g>
<!-- TG289&#45;&gt;WE55 -->
<g id="edge6" class="edge">
<title>TG289&#45;&gt;WE55</title>
<path fill="none" stroke="#00688b" d="M117.06,-269.64C122.11,-267.03 127.02,-264.15 131.5,-261 154.14,-245.07 157.7,-237.73 173.5,-215 183.48,-200.64 179.33,-192.56 191.5,-180 191.98,-179.5 192.48,-179.01 192.98,-178.52"/>
<polygon fill="#00688b" stroke="#00688b" points="195.18,-181.25 200.71,-172.21 190.75,-175.83 195.18,-181.25"/>
<text text-anchor="middle" x="161.5" y="-246.97" font-family="Times,serif" font-size="14.00" fill="white">tests</text>
</g>
<!-- TG290 -->
<g id="node8" class="node">
<title>TG290</title>
<polygon fill="none" stroke="gold" points="131.5,-252 0,-252 0,-216 131.5,-216 131.5,-252"/>
<text text-anchor="middle" x="65.75" y="-227.82" font-family="Times,serif" font-size="14.00" fill="white">MASTG&#45;TEST&#45;0290</text>
</g>
<!-- TG290&#45;&gt;WE55 -->
<g id="edge7" class="edge">
<title>TG290&#45;&gt;WE55</title>
<path fill="none" stroke="#00688b" d="M111.85,-215.65C118.47,-212.82 125.18,-209.88 131.5,-207 152.45,-197.44 175.32,-186.19 194.65,-176.45"/>
<polygon fill="#00688b" stroke="#00688b" points="196.01,-179.68 203.35,-172.04 192.84,-173.44 196.01,-179.68"/>
<text text-anchor="middle" x="161.5" y="-198.12" font-family="Times,serif" font-size="14.00" fill="white">tests</text>
</g>
<!-- TG291 -->
<g id="node9" class="node">
<title>TG291</title>
<polygon fill="none" stroke="gold" points="131.5,-198 0,-198 0,-162 131.5,-162 131.5,-198"/>
<text text-anchor="middle" x="65.75" y="-173.82" font-family="Times,serif" font-size="14.00" fill="white">MASTG&#45;TEST&#45;0291</text>
</g>
<!-- TG291&#45;&gt;WE55 -->
<g id="edge8" class="edge">
<title>TG291&#45;&gt;WE55</title>
<path fill="none" stroke="#00688b" d="M131.8,-169.87C147.65,-167.4 164.53,-164.77 180.14,-162.34"/>
<polygon fill="#00688b" stroke="#00688b" points="180.4,-165.84 189.74,-160.85 179.32,-158.93 180.4,-165.84"/>
<text text-anchor="middle" x="161.5" y="-167.45" font-family="Times,serif" font-size="14.00" fill="white">tests</text>
</g>
<!-- TG292 -->
<g id="node10" class="node">
<title>TG292</title>
<polygon fill="none" stroke="gold" points="131.5,-144 0,-144 0,-108 131.5,-108 131.5,-144"/>
<text text-anchor="middle" x="65.75" y="-119.83" font-family="Times,serif" font-size="14.00" fill="white">MASTG&#45;TEST&#45;0292</text>
</g>
<!-- TG292&#45;&gt;WE55 -->
<g id="edge9" class="edge">
<title>TG292&#45;&gt;WE55</title>
<path fill="none" stroke="#00688b" d="M131.8,-136.13C147.65,-138.6 164.53,-141.23 180.14,-143.66"/>
<polygon fill="#00688b" stroke="#00688b" points="179.32,-147.07 189.74,-145.15 180.4,-140.16 179.32,-147.07"/>
<text text-anchor="middle" x="161.5" y="-142.87" font-family="Times,serif" font-size="14.00" fill="white">tests</text>
</g>
<!-- TG293 -->
<g id="node11" class="node">
<title>TG293</title>
<polygon fill="none" stroke="gold" points="131.5,-90 0,-90 0,-54 131.5,-54 131.5,-90"/>
<text text-anchor="middle" x="65.75" y="-65.83" font-family="Times,serif" font-size="14.00" fill="white">MASTG&#45;TEST&#45;0293</text>
</g>
<!-- TG293&#45;&gt;WE55 -->
<g id="edge10" class="edge">
<title>TG293&#45;&gt;WE55</title>
<path fill="none" stroke="#00688b" d="M111.85,-90.35C118.47,-93.18 125.18,-96.12 131.5,-99 152.45,-108.56 175.32,-119.81 194.65,-129.55"/>
<polygon fill="#00688b" stroke="#00688b" points="192.84,-132.56 203.35,-133.96 196.01,-126.32 192.84,-132.56"/>
<text text-anchor="middle" x="161.5" y="-118.57" font-family="Times,serif" font-size="14.00" fill="white">tests</text>
</g>
<!-- TG294 -->
<g id="node12" class="node">
<title>TG294</title>
<polygon fill="none" stroke="gold" points="131.5,-36 0,-36 0,0 131.5,0 131.5,-36"/>
<text text-anchor="middle" x="65.75" y="-11.82" font-family="Times,serif" font-size="14.00" fill="white">MASTG&#45;TEST&#45;0294</text>
</g>
<!-- TG294&#45;&gt;WE55 -->
<g id="edge11" class="edge">
<title>TG294&#45;&gt;WE55</title>
<path fill="none" stroke="#00688b" d="M117.06,-36.38C122.1,-38.98 127.01,-41.85 131.5,-45 154.1,-60.85 157.75,-68.08 173.5,-90.75 183.54,-105.19 179.28,-113.35 191.5,-126 191.98,-126.5 192.48,-126.99 192.98,-127.48"/>
<polygon fill="#00688b" stroke="#00688b" points="190.75,-130.17 200.7,-133.79 195.18,-124.75 190.75,-130.17"/>
<text text-anchor="middle" x="161.5" y="-91.7" font-family="Times,serif" font-size="14.00" fill="white">tests</text>
</g>
</g>
</svg>
