<?xml version="1.0" encoding="UTF-8" standalone="no"?>
<!DOCTYPE svg PUBLIC "-//W3C//DTD SVG 1.1//EN"
 "http://www.w3.org/Graphics/SVG/1.1/DTD/svg11.dtd">
<!-- Generated by graphviz version 12.1.2 (20240928.0832)
 -->
<!-- Title: G Pages: 1 -->
<svg width="525pt" height="422pt"
 viewBox="0.00 0.00 524.75 422.00" xmlns="http://www.w3.org/2000/svg" xmlns:xlink="http://www.w3.org/1999/xlink">
<g id="graph0" class="graph" transform="scale(1 1) rotate(0) translate(4 418)">
<title>G</title>
<polygon fill="none" stroke="none" points="-4,4 -4,-418 520.75,-418 520.75,4 -4,4"/>
<!-- VS1 -->
<g id="node1" class="node">
<title>VS1</title>
<polygon fill="none" stroke="mediumorchid" points="516.75,-144 381.5,-144 381.5,-108 516.75,-108 516.75,-144"/>
<text text-anchor="middle" x="449.12" y="-119.83" font-family="Times,serif" font-size="14.00" fill="white">MASVS&#45;Resilience&#45;1</text>
</g>
<!-- WE08 -->
<g id="node2" class="node">
<title>WE08</title>
<polygon fill="none" stroke="gold" points="290.75,-306 191.5,-306 191.5,-270 290.75,-270 290.75,-306"/>
<text text-anchor="middle" x="241.12" y="-281.82" font-family="Times,serif" font-size="14.00" fill="white">MASWE&#45;0008</text>
</g>
<!-- WE08&#45;&gt;VS1 -->
<g id="edge1" class="edge">
<title>WE08&#45;&gt;VS1</title>
<path fill="none" stroke="#00688b" d="M265.36,-269.73C302.14,-240.81 373.89,-184.38 415.72,-151.49"/>
<polygon fill="#00688b" stroke="#00688b" points="417.78,-154.32 423.47,-145.39 413.45,-148.82 417.78,-154.32"/>
<text text-anchor="middle" x="336.12" y="-236.55" font-family="Times,serif" font-size="14.00" fill="white">endangers</text>
</g>
<!-- WE97 -->
<g id="node3" class="node">
<title>WE97</title>
<polygon fill="none" stroke="crimson" points="290.75,-198 191.5,-198 191.5,-162 290.75,-162 290.75,-198"/>
<text text-anchor="middle" x="241.12" y="-173.82" font-family="Times,serif" font-size="14.00" fill="white">MASWE&#45;0097</text>
</g>
<!-- WE97&#45;&gt;VS1 -->
<g id="edge2" class="edge">
<title>WE97&#45;&gt;VS1</title>
<path fill="none" stroke="#00688b" d="M291.21,-167.13C314.84,-160.94 343.76,-153.36 370.3,-146.4"/>
<polygon fill="#00688b" stroke="#00688b" points="370.86,-149.87 379.65,-143.95 369.09,-143.1 370.86,-149.87"/>
<text text-anchor="middle" x="336.12" y="-163.48" font-family="Times,serif" font-size="14.00" fill="white">endangers</text>
</g>
<!-- WE98 -->
<g id="node4" class="node">
<title>WE98</title>
<polygon fill="none" stroke="crimson" points="290.75,-144 191.5,-144 191.5,-108 290.75,-108 290.75,-144"/>
<text text-anchor="middle" x="241.12" y="-119.83" font-family="Times,serif" font-size="14.00" fill="white">MASWE&#45;0098</text>
</g>
<!-- WE98&#45;&gt;VS1 -->
<g id="edge3" class="edge">
<title>WE98&#45;&gt;VS1</title>
<path fill="none" stroke="#00688b" d="M291.21,-126C314.74,-126 343.5,-126 369.94,-126"/>
<polygon fill="#00688b" stroke="#00688b" points="369.6,-129.5 379.6,-126 369.6,-122.5 369.6,-129.5"/>
<text text-anchor="middle" x="336.12" y="-126.95" font-family="Times,serif" font-size="14.00" fill="white">endangers</text>
</g>
<!-- WE99 -->
<g id="node5" class="node">
<title>WE99</title>
<polygon fill="none" stroke="crimson" points="290.75,-90 191.5,-90 191.5,-54 290.75,-54 290.75,-90"/>
<text text-anchor="middle" x="241.12" y="-65.83" font-family="Times,serif" font-size="14.00" fill="white">MASWE&#45;0099</text>
</g>
<!-- WE99&#45;&gt;VS1 -->
<g id="edge4" class="edge">
<title>WE99&#45;&gt;VS1</title>
<path fill="none" stroke="#00688b" d="M291.21,-84.87C314.84,-91.06 343.76,-98.64 370.3,-105.6"/>
<polygon fill="#00688b" stroke="#00688b" points="369.09,-108.9 379.65,-108.05 370.86,-102.13 369.09,-108.9"/>
<text text-anchor="middle" x="336.12" y="-103.18" font-family="Times,serif" font-size="14.00" fill="white">endangers</text>
</g>
<!-- WE100 -->
<g id="node6" class="node">
<title>WE100</title>
<polygon fill="none" stroke="crimson" points="290.75,-36 191.5,-36 191.5,0 290.75,0 290.75,-36"/>
<text text-anchor="middle" x="241.12" y="-11.82" font-family="Times,serif" font-size="14.00" fill="white">MASWE&#45;0100</text>
</g>
<!-- WE100&#45;&gt;VS1 -->
<g id="edge5" class="edge">
<title>WE100&#45;&gt;VS1</title>
<path fill="none" stroke="#00688b" d="M289.69,-36.49C312.45,-45.89 339.83,-58 363.5,-70.75 380.35,-79.83 398.21,-91.21 413.16,-101.27"/>
<polygon fill="#00688b" stroke="#00688b" points="411.04,-104.06 421.27,-106.81 414.98,-98.28 411.04,-104.06"/>
<text text-anchor="middle" x="336.12" y="-71.7" font-family="Times,serif" font-size="14.00" fill="white">endangers</text>
</g>
<!-- TG246 -->
<g id="node7" class="node">
<title>TG246</title>
<polygon fill="none" stroke="gold" points="131.5,-414 0,-414 0,-378 131.5,-378 131.5,-414"/>
<text text-anchor="middle" x="65.75" y="-389.82" font-family="Times,serif" font-size="14.00" fill="white">MASTG&#45;TEST&#45;0246</text>
</g>
<!-- TG246&#45;&gt;WE08 -->
<g id="edge6" class="edge">
<title>TG246&#45;&gt;WE08</title>
<path fill="none" stroke="#00688b" d="M114.78,-377.54C120.51,-374.88 126.21,-372.01 131.5,-369 159.63,-352.97 188.91,-330.77 209.97,-313.66"/>
<polygon fill="#00688b" stroke="#00688b" points="212.09,-316.45 217.59,-307.39 207.64,-311.04 212.09,-316.45"/>
<text text-anchor="middle" x="161.5" y="-358.42" font-family="Times,serif" font-size="14.00" fill="white">tests</text>
</g>
<!-- TG247 -->
<g id="node8" class="node">
<title>TG247</title>
<polygon fill="none" stroke="gold" points="131.5,-360 0,-360 0,-324 131.5,-324 131.5,-360"/>
<text text-anchor="middle" x="65.75" y="-335.82" font-family="Times,serif" font-size="14.00" fill="white">MASTG&#45;TEST&#45;0247</text>
</g>
<!-- TG247&#45;&gt;WE08 -->
<g id="edge7" class="edge">
<title>TG247&#45;&gt;WE08</title>
<path fill="none" stroke="#00688b" d="M125.93,-323.57C143.48,-318.1 162.7,-312.11 180.29,-306.64"/>
<polygon fill="#00688b" stroke="#00688b" points="181.05,-310.07 189.56,-303.75 178.97,-303.38 181.05,-310.07"/>
<text text-anchor="middle" x="161.5" y="-315.95" font-family="Times,serif" font-size="14.00" fill="white">tests</text>
</g>
<!-- TG248 -->
<g id="node9" class="node">
<title>TG248</title>
<polygon fill="none" stroke="gold" points="131.5,-306 0,-306 0,-270 131.5,-270 131.5,-306"/>
<text text-anchor="middle" x="65.75" y="-281.82" font-family="Times,serif" font-size="14.00" fill="white">MASTG&#45;TEST&#45;0248</text>
</g>
<!-- TG248&#45;&gt;WE08 -->
<g id="edge8" class="edge">
<title>TG248&#45;&gt;WE08</title>
<path fill="none" stroke="#00688b" d="M131.8,-288C147.65,-288 164.53,-288 180.14,-288"/>
<polygon fill="#00688b" stroke="#00688b" points="179.72,-291.5 189.72,-288 179.72,-284.5 179.72,-291.5"/>
<text text-anchor="middle" x="161.5" y="-288.95" font-family="Times,serif" font-size="14.00" fill="white">tests</text>
</g>
<!-- TG249 -->
<g id="node10" class="node">
<title>TG249</title>
<polygon fill="none" stroke="gold" points="131.5,-252 0,-252 0,-216 131.5,-216 131.5,-252"/>
<text text-anchor="middle" x="65.75" y="-227.82" font-family="Times,serif" font-size="14.00" fill="white">MASTG&#45;TEST&#45;0249</text>
</g>
<!-- TG249&#45;&gt;WE08 -->
<g id="edge9" class="edge">
<title>TG249&#45;&gt;WE08</title>
<path fill="none" stroke="#00688b" d="M125.93,-252.43C143.48,-257.9 162.7,-263.89 180.29,-269.36"/>
<polygon fill="#00688b" stroke="#00688b" points="178.97,-272.62 189.56,-272.25 181.05,-265.93 178.97,-272.62"/>
<text text-anchor="middle" x="161.5" y="-266.79" font-family="Times,serif" font-size="14.00" fill="white">tests</text>
</g>
<!-- TG240 -->
<g id="node11" class="node">
<title>TG240</title>
<polygon fill="none" stroke="crimson" points="131.5,-198 0,-198 0,-162 131.5,-162 131.5,-198"/>
<text text-anchor="middle" x="65.75" y="-173.82" font-family="Times,serif" font-size="14.00" fill="white">MASTG&#45;TEST&#45;0240</text>
</g>
<!-- TG240&#45;&gt;WE97 -->
<g id="edge10" class="edge">
<title>TG240&#45;&gt;WE97</title>
<path fill="none" stroke="#00688b" d="M131.8,-180C147.65,-180 164.53,-180 180.14,-180"/>
<polygon fill="#00688b" stroke="#00688b" points="179.72,-183.5 189.72,-180 179.72,-176.5 179.72,-183.5"/>
<text text-anchor="middle" x="161.5" y="-180.95" font-family="Times,serif" font-size="14.00" fill="white">tests</text>
</g>
<!-- TG241 -->
<g id="node12" class="node">
<title>TG241</title>
<polygon fill="none" stroke="crimson" points="131.5,-144 0,-144 0,-108 131.5,-108 131.5,-144"/>
<text text-anchor="middle" x="65.75" y="-119.83" font-family="Times,serif" font-size="14.00" fill="white">MASTG&#45;TEST&#45;0241</text>
</g>
<!-- TG241&#45;&gt;WE97 -->
<g id="edge11" class="edge">
<title>TG241&#45;&gt;WE97</title>
<path fill="none" stroke="#00688b" d="M125.93,-144.43C143.48,-149.9 162.7,-155.89 180.29,-161.36"/>
<polygon fill="#00688b" stroke="#00688b" points="178.97,-164.62 189.56,-164.25 181.05,-157.93 178.97,-164.62"/>
<text text-anchor="middle" x="161.5" y="-158.79" font-family="Times,serif" font-size="14.00" fill="white">tests</text>
</g>
</g>
</svg>
