<?xml version="1.0" encoding="UTF-8" standalone="no"?>
<!DOCTYPE svg PUBLIC "-//W3C//DTD SVG 1.1//EN"
 "http://www.w3.org/Graphics/SVG/1.1/DTD/svg11.dtd">
<!-- Generated by graphviz version 12.1.2 (20240928.0832)
 -->
<!-- Title: G Pages: 1 -->
<svg width="516pt" height="152pt"
 viewBox="0.00 0.00 515.75 152.00" xmlns="http://www.w3.org/2000/svg" xmlns:xlink="http://www.w3.org/1999/xlink">
<g id="graph0" class="graph" transform="scale(1 1) rotate(0) translate(4 148)">
<title>G</title>
<polygon fill="none" stroke="none" points="-4,4 -4,-148 511.75,-148 511.75,4 -4,4"/>
<!-- VS1 -->
<g id="node1" class="node">
<title>VS1</title>
<polygon fill="none" stroke="mediumorchid" points="507.75,-90 381.5,-90 381.5,-54 507.75,-54 507.75,-90"/>
<text text-anchor="middle" x="444.62" y="-65.83" font-family="Times,serif" font-size="14.00" fill="white">MASVS&#45;Network&#45;2</text>
</g>
<!-- WE47 -->
<g id="node2" class="node">
<title>WE47</title>
<polygon fill="none" stroke="gold" points="290.75,-90 191.5,-90 191.5,-54 290.75,-54 290.75,-90"/>
<text text-anchor="middle" x="241.12" y="-65.83" font-family="Times,serif" font-size="14.00" fill="white">MASWE&#45;0047</text>
</g>
<!-- WE47&#45;&gt;VS1 -->
<g id="edge1" class="edge">
<title>WE47&#45;&gt;VS1</title>
<path fill="none" stroke="#00688b" d="M291.16,-72C314.8,-72 343.66,-72 369.88,-72"/>
<polygon fill="#00688b" stroke="#00688b" points="369.81,-75.5 379.81,-72 369.81,-68.5 369.81,-75.5"/>
<text text-anchor="middle" x="336.12" y="-72.95" font-family="Times,serif" font-size="14.00" fill="white">endangers</text>
</g>
<!-- TG243 -->
<g id="node3" class="node">
<title>TG243</title>
<polygon fill="none" stroke="gold" points="131.5,-144 0,-144 0,-108 131.5,-108 131.5,-144"/>
<text text-anchor="middle" x="65.75" y="-119.83" font-family="Times,serif" font-size="14.00" fill="white">MASTG&#45;TEST&#45;0243</text>
</g>
<!-- TG243&#45;&gt;WE47 -->
<g id="edge2" class="edge">
<title>TG243&#45;&gt;WE47</title>
<path fill="none" stroke="#00688b" d="M125.93,-107.57C143.48,-102.1 162.7,-96.11 180.29,-90.64"/>
<polygon fill="#00688b" stroke="#00688b" points="181.05,-94.07 189.56,-87.75 178.97,-87.38 181.05,-94.07"/>
<text text-anchor="middle" x="161.5" y="-99.95" font-family="Times,serif" font-size="14.00" fill="white">tests</text>
</g>
<!-- TG242 -->
<g id="node4" class="node">
<title>TG242</title>
<polygon fill="none" stroke="gold" points="131.5,-90 0,-90 0,-54 131.5,-54 131.5,-90"/>
<text text-anchor="middle" x="65.75" y="-65.83" font-family="Times,serif" font-size="14.00" fill="white">MASTG&#45;TEST&#45;0242</text>
</g>
<!-- TG242&#45;&gt;WE47 -->
<g id="edge3" class="edge">
<title>TG242&#45;&gt;WE47</title>
<path fill="none" stroke="#00688b" d="M131.8,-72C147.65,-72 164.53,-72 180.14,-72"/>
<polygon fill="#00688b" stroke="#00688b" points="179.72,-75.5 189.72,-72 179.72,-68.5 179.72,-75.5"/>
<text text-anchor="middle" x="161.5" y="-72.95" font-family="Times,serif" font-size="14.00" fill="white">tests</text>
</g>
<!-- TG244 -->
<g id="node5" class="node">
<title>TG244</title>
<polygon fill="none" stroke="gold" points="131.5,-36 0,-36 0,0 131.5,0 131.5,-36"/>
<text text-anchor="middle" x="65.75" y="-11.82" font-family="Times,serif" font-size="14.00" fill="white">MASTG&#45;TEST&#45;0244</text>
</g>
<!-- TG244&#45;&gt;WE47 -->
<g id="edge4" class="edge">
<title>TG244&#45;&gt;WE47</title>
<path fill="none" stroke="#00688b" d="M125.93,-36.43C143.48,-41.9 162.7,-47.89 180.29,-53.36"/>
<polygon fill="#00688b" stroke="#00688b" points="178.97,-56.62 189.56,-56.25 181.05,-49.93 178.97,-56.62"/>
<text text-anchor="middle" x="161.5" y="-50.79" font-family="Times,serif" font-size="14.00" fill="white">tests</text>
</g>
</g>
</svg>
