<?xml version="1.0" encoding="UTF-8" standalone="no"?>
<!DOCTYPE svg PUBLIC "-//W3C//DTD SVG 1.1//EN"
 "http://www.w3.org/Graphics/SVG/1.1/DTD/svg11.dtd">
<!-- Generated by graphviz version 12.1.2 (20240928.0832)
 -->
<!-- Title: G Pages: 1 -->
<svg width="497pt" height="476pt"
 viewBox="0.00 0.00 497.00 476.00" xmlns="http://www.w3.org/2000/svg" xmlns:xlink="http://www.w3.org/1999/xlink">
<g id="graph0" class="graph" transform="scale(1 1) rotate(0) translate(4 472)">
<title>G</title>
<polygon fill="none" stroke="none" points="-4,4 -4,-472 493,-472 493,4 -4,4"/>
<!-- VS1 -->
<g id="node1" class="node">
<title>VS1</title>
<polygon fill="none" stroke="mediumorchid" points="489,-251 381.5,-251 381.5,-215 489,-215 489,-251"/>
<text text-anchor="middle" x="435.25" y="-226.82" font-family="Times,serif" font-size="14.00" fill="white">MASVS&#45;Code&#45;3</text>
</g>
<!-- WE76 -->
<g id="node2" class="node">
<title>WE76</title>
<polygon fill="none" stroke="limegreen" points="290.75,-360 191.5,-360 191.5,-324 290.75,-324 290.75,-360"/>
<text text-anchor="middle" x="241.12" y="-335.82" font-family="Times,serif" font-size="14.00" fill="white">MASWE&#45;0076</text>
</g>
<!-- WE76&#45;&gt;VS1 -->
<g id="edge1" class="edge">
<title>WE76&#45;&gt;VS1</title>
<path fill="none" stroke="#00688b" d="M274.72,-323.51C306.97,-305.21 356.5,-277.11 391.81,-257.08"/>
<polygon fill="#00688b" stroke="#00688b" points="393.53,-260.12 400.5,-252.15 390.08,-254.04 393.53,-260.12"/>
<text text-anchor="middle" x="336.12" y="-304.58" font-family="Times,serif" font-size="14.00" fill="white">endangers</text>
</g>
<!-- WE116 -->
<g id="node3" class="node">
<title>WE116</title>
<polygon fill="none" stroke="gold" points="290.75,-171 191.5,-171 191.5,-135 290.75,-135 290.75,-171"/>
<text text-anchor="middle" x="241.12" y="-146.82" font-family="Times,serif" font-size="14.00" fill="white">MASWE&#45;0116</text>
</g>
<!-- WE116&#45;&gt;VS1 -->
<g id="edge2" class="edge">
<title>WE116&#45;&gt;VS1</title>
<path fill="none" stroke="#00688b" d="M286.2,-171.35C313.93,-182.9 349.92,-197.89 379.48,-210.19"/>
<polygon fill="#00688b" stroke="#00688b" points="378.07,-213.4 388.65,-214.01 380.76,-206.94 378.07,-213.4"/>
<text text-anchor="middle" x="336.12" y="-203.47" font-family="Times,serif" font-size="14.00" fill="white">endangers</text>
</g>
<!-- TG272 -->
<g id="node4" class="node">
<title>TG272</title>
<polygon fill="none" stroke="limegreen" points="131.5,-468 0,-468 0,-432 131.5,-432 131.5,-468"/>
<text text-anchor="middle" x="65.75" y="-443.82" font-family="Times,serif" font-size="14.00" fill="white">MASTG&#45;TEST&#45;0272</text>
</g>
<!-- TG272&#45;&gt;WE76 -->
<g id="edge3" class="edge">
<title>TG272&#45;&gt;WE76</title>
<path fill="none" stroke="#00688b" d="M114.78,-431.54C120.51,-428.88 126.21,-426.01 131.5,-423 159.63,-406.97 188.91,-384.77 209.97,-367.66"/>
<polygon fill="#00688b" stroke="#00688b" points="212.09,-370.45 217.59,-361.39 207.64,-365.04 212.09,-370.45"/>
<text text-anchor="middle" x="161.5" y="-412.42" font-family="Times,serif" font-size="14.00" fill="white">tests</text>
</g>
<!-- TG273 -->
<g id="node5" class="node">
<title>TG273</title>
<polygon fill="none" stroke="limegreen" points="131.5,-414 0,-414 0,-378 131.5,-378 131.5,-414"/>
<text text-anchor="middle" x="65.75" y="-389.82" font-family="Times,serif" font-size="14.00" fill="white">MASTG&#45;TEST&#45;0273</text>
</g>
<!-- TG273&#45;&gt;WE76 -->
<g id="edge4" class="edge">
<title>TG273&#45;&gt;WE76</title>
<path fill="none" stroke="#00688b" d="M125.93,-377.57C143.48,-372.1 162.7,-366.11 180.29,-360.64"/>
<polygon fill="#00688b" stroke="#00688b" points="181.05,-364.07 189.56,-357.75 178.97,-357.38 181.05,-364.07"/>
<text text-anchor="middle" x="161.5" y="-369.95" font-family="Times,serif" font-size="14.00" fill="white">tests</text>
</g>
<!-- TG274 -->
<g id="node6" class="node">
<title>TG274</title>
<polygon fill="none" stroke="limegreen" points="131.5,-360 0,-360 0,-324 131.5,-324 131.5,-360"/>
<text text-anchor="middle" x="65.75" y="-335.82" font-family="Times,serif" font-size="14.00" fill="white">MASTG&#45;TEST&#45;0274</text>
</g>
<!-- TG274&#45;&gt;WE76 -->
<g id="edge5" class="edge">
<title>TG274&#45;&gt;WE76</title>
<path fill="none" stroke="#00688b" d="M131.8,-342C147.65,-342 164.53,-342 180.14,-342"/>
<polygon fill="#00688b" stroke="#00688b" points="179.72,-345.5 189.72,-342 179.72,-338.5 179.72,-345.5"/>
<text text-anchor="middle" x="161.5" y="-342.95" font-family="Times,serif" font-size="14.00" fill="white">tests</text>
</g>
<!-- TG275 -->
<g id="node7" class="node">
<title>TG275</title>
<polygon fill="none" stroke="limegreen" points="131.5,-306 0,-306 0,-270 131.5,-270 131.5,-306"/>
<text text-anchor="middle" x="65.75" y="-281.82" font-family="Times,serif" font-size="14.00" fill="white">MASTG&#45;TEST&#45;0275</text>
</g>
<!-- TG275&#45;&gt;WE76 -->
<g id="edge6" class="edge">
<title>TG275&#45;&gt;WE76</title>
<path fill="none" stroke="#00688b" d="M125.93,-306.43C143.48,-311.9 162.7,-317.89 180.29,-323.36"/>
<polygon fill="#00688b" stroke="#00688b" points="178.97,-326.62 189.56,-326.25 181.05,-319.93 178.97,-326.62"/>
<text text-anchor="middle" x="161.5" y="-320.79" font-family="Times,serif" font-size="14.00" fill="white">tests</text>
</g>
<!-- TG222 -->
<g id="node8" class="node">
<title>TG222</title>
<polygon fill="none" stroke="gold" points="131.5,-252 0,-252 0,-216 131.5,-216 131.5,-252"/>
<text text-anchor="middle" x="65.75" y="-227.82" font-family="Times,serif" font-size="14.00" fill="white">MASTG&#45;TEST&#45;0222</text>
</g>
<!-- TG222&#45;&gt;WE116 -->
<g id="edge7" class="edge">
<title>TG222&#45;&gt;WE116</title>
<path fill="none" stroke="#00688b" d="M111.85,-215.65C118.47,-212.82 125.18,-209.88 131.5,-207 152.45,-197.44 175.32,-186.19 194.65,-176.45"/>
<polygon fill="#00688b" stroke="#00688b" points="196.01,-179.68 203.35,-172.04 192.84,-173.44 196.01,-179.68"/>
<text text-anchor="middle" x="161.5" y="-198.12" font-family="Times,serif" font-size="14.00" fill="white">tests</text>
</g>
<!-- TG223 -->
<g id="node9" class="node">
<title>TG223</title>
<polygon fill="none" stroke="gold" points="131.5,-198 0,-198 0,-162 131.5,-162 131.5,-198"/>
<text text-anchor="middle" x="65.75" y="-173.82" font-family="Times,serif" font-size="14.00" fill="white">MASTG&#45;TEST&#45;0223</text>
</g>
<!-- TG223&#45;&gt;WE116 -->
<g id="edge8" class="edge">
<title>TG223&#45;&gt;WE116</title>
<path fill="none" stroke="#00688b" d="M131.8,-169.87C147.65,-167.4 164.53,-164.77 180.14,-162.34"/>
<polygon fill="#00688b" stroke="#00688b" points="180.4,-165.84 189.74,-160.85 179.32,-158.93 180.4,-165.84"/>
<text text-anchor="middle" x="161.5" y="-167.45" font-family="Times,serif" font-size="14.00" fill="white">tests</text>
</g>
<!-- TG228 -->
<g id="node10" class="node">
<title>TG228</title>
<polygon fill="none" stroke="gold" points="131.5,-144 0,-144 0,-108 131.5,-108 131.5,-144"/>
<text text-anchor="middle" x="65.75" y="-119.83" font-family="Times,serif" font-size="14.00" fill="white">MASTG&#45;TEST&#45;0228</text>
</g>
<!-- TG228&#45;&gt;WE116 -->
<g id="edge9" class="edge">
<title>TG228&#45;&gt;WE116</title>
<path fill="none" stroke="#00688b" d="M131.8,-136.13C147.65,-138.6 164.53,-141.23 180.14,-143.66"/>
<polygon fill="#00688b" stroke="#00688b" points="179.32,-147.07 189.74,-145.15 180.4,-140.16 179.32,-147.07"/>
<text text-anchor="middle" x="161.5" y="-142.87" font-family="Times,serif" font-size="14.00" fill="white">tests</text>
</g>
<!-- TG229 -->
<g id="node11" class="node">
<title>TG229</title>
<polygon fill="none" stroke="gold" points="131.5,-90 0,-90 0,-54 131.5,-54 131.5,-90"/>
<text text-anchor="middle" x="65.75" y="-65.83" font-family="Times,serif" font-size="14.00" fill="white">MASTG&#45;TEST&#45;0229</text>
</g>
<!-- TG229&#45;&gt;WE116 -->
<g id="edge10" class="edge">
<title>TG229&#45;&gt;WE116</title>
<path fill="none" stroke="#00688b" d="M111.85,-90.35C118.47,-93.18 125.18,-96.12 131.5,-99 152.45,-108.56 175.32,-119.81 194.65,-129.55"/>
<polygon fill="#00688b" stroke="#00688b" points="192.84,-132.56 203.35,-133.96 196.01,-126.32 192.84,-132.56"/>
<text text-anchor="middle" x="161.5" y="-118.57" font-family="Times,serif" font-size="14.00" fill="white">tests</text>
</g>
<!-- TG230 -->
<g id="node12" class="node">
<title>TG230</title>
<polygon fill="none" stroke="gold" points="131.5,-36 0,-36 0,0 131.5,0 131.5,-36"/>
<text text-anchor="middle" x="65.75" y="-11.82" font-family="Times,serif" font-size="14.00" fill="white">MASTG&#45;TEST&#45;0230</text>
</g>
<!-- TG230&#45;&gt;WE116 -->
<g id="edge11" class="edge">
<title>TG230&#45;&gt;WE116</title>
<path fill="none" stroke="#00688b" d="M116.57,-36.42C121.77,-39.02 126.84,-41.89 131.5,-45 165.62,-67.79 198.07,-102.34 218.47,-126.19"/>
<polygon fill="#00688b" stroke="#00688b" points="215.59,-128.2 224.7,-133.61 220.95,-123.7 215.59,-128.2"/>
<text text-anchor="middle" x="161.5" y="-77.35" font-family="Times,serif" font-size="14.00" fill="white">tests</text>
</g>
</g>
</svg>
