<?xml version="1.0" encoding="UTF-8" standalone="no"?>
<!DOCTYPE svg PUBLIC "-//W3C//DTD SVG 1.1//EN"
 "http://www.w3.org/Graphics/SVG/1.1/DTD/svg11.dtd">
<!-- Generated by graphviz version 12.1.2 (20240928.0832)
 -->
<!-- Title: G Pages: 1 -->
<svg width="510pt" height="422pt"
 viewBox="0.00 0.00 509.75 422.00" xmlns="http://www.w3.org/2000/svg" xmlns:xlink="http://www.w3.org/1999/xlink">
<g id="graph0" class="graph" transform="scale(1 1) rotate(0) translate(4 418)">
<title>G</title>
<polygon fill="none" stroke="none" points="-4,4 -4,-418 505.75,-418 505.75,4 -4,4"/>
<!-- VS2 -->
<g id="node1" class="node">
<title>VS2</title>
<polygon fill="none" stroke="mediumorchid" points="501.75,-225 381.5,-225 381.5,-189 501.75,-189 501.75,-225"/>
<text text-anchor="middle" x="441.62" y="-200.82" font-family="Times,serif" font-size="14.00" fill="white">MASVS&#45;Storage&#45;2</text>
</g>
<!-- WE01 -->
<g id="node2" class="node">
<title>WE01</title>
<polygon fill="none" stroke="limegreen" points="290.75,-306 191.5,-306 191.5,-270 290.75,-270 290.75,-306"/>
<text text-anchor="middle" x="241.12" y="-281.82" font-family="Times,serif" font-size="14.00" fill="white">MASWE&#45;0001</text>
</g>
<!-- WE01&#45;&gt;VS2 -->
<g id="edge1" class="edge">
<title>WE01&#45;&gt;VS2</title>
<path fill="none" stroke="#00688b" d="M291.2,-270.84C313.44,-262.8 339.97,-252.84 363.5,-243 373.01,-239.02 383.07,-234.54 392.66,-230.12"/>
<polygon fill="#00688b" stroke="#00688b" points="393.89,-233.42 401.48,-226.02 390.93,-227.07 393.89,-233.42"/>
<text text-anchor="middle" x="336.12" y="-264.67" font-family="Times,serif" font-size="14.00" fill="white">endangers</text>
</g>
<!-- WE02 -->
<g id="node3" class="node">
<title>WE02</title>
<polygon fill="none" stroke="limegreen" points="290.75,-252 191.5,-252 191.5,-216 290.75,-216 290.75,-252"/>
<text text-anchor="middle" x="241.12" y="-227.82" font-family="Times,serif" font-size="14.00" fill="white">MASWE&#45;0002</text>
</g>
<!-- WE02&#45;&gt;VS2 -->
<g id="edge2" class="edge">
<title>WE02&#45;&gt;VS2</title>
<path fill="none" stroke="#00688b" d="M291.19,-227.33C314.89,-224.1 343.78,-220.17 369.81,-216.63"/>
<polygon fill="#00688b" stroke="#00688b" points="370.22,-220.11 379.65,-215.29 369.27,-213.17 370.22,-220.11"/>
<text text-anchor="middle" x="336.12" y="-225.45" font-family="Times,serif" font-size="14.00" fill="white">endangers</text>
</g>
<!-- WE03 -->
<g id="node4" class="node">
<title>WE03</title>
<polygon fill="none" stroke="gold" points="290.75,-198 191.5,-198 191.5,-162 290.75,-162 290.75,-198"/>
<text text-anchor="middle" x="241.12" y="-173.82" font-family="Times,serif" font-size="14.00" fill="white">MASWE&#45;0003</text>
</g>
<!-- WE03&#45;&gt;VS2 -->
<g id="edge3" class="edge">
<title>WE03&#45;&gt;VS2</title>
<path fill="none" stroke="#00688b" d="M291.19,-186.67C314.89,-189.9 343.78,-193.83 369.81,-197.37"/>
<polygon fill="#00688b" stroke="#00688b" points="369.27,-200.83 379.65,-198.71 370.22,-193.89 369.27,-200.83"/>
<text text-anchor="middle" x="336.12" y="-196.87" font-family="Times,serif" font-size="14.00" fill="white">endangers</text>
</g>
<!-- WE04 -->
<g id="node5" class="node">
<title>WE04</title>
<polygon fill="none" stroke="limegreen" points="290.75,-144 191.5,-144 191.5,-108 290.75,-108 290.75,-144"/>
<text text-anchor="middle" x="241.12" y="-119.83" font-family="Times,serif" font-size="14.00" fill="white">MASWE&#45;0004</text>
</g>
<!-- WE04&#45;&gt;VS2 -->
<g id="edge4" class="edge">
<title>WE04&#45;&gt;VS2</title>
<path fill="none" stroke="#00688b" d="M291.15,-143.61C313.37,-151.82 339.9,-161.92 363.5,-171.75 372.58,-175.53 382.18,-179.74 391.41,-183.9"/>
<polygon fill="#00688b" stroke="#00688b" points="389.69,-186.96 400.24,-187.92 392.59,-180.59 389.69,-186.96"/>
<text text-anchor="middle" x="336.12" y="-172.7" font-family="Times,serif" font-size="14.00" fill="white">endangers</text>
</g>
<!-- TG231 -->
<g id="node6" class="node">
<title>TG231</title>
<polygon fill="none" stroke="limegreen" points="131.5,-414 0,-414 0,-378 131.5,-378 131.5,-414"/>
<text text-anchor="middle" x="65.75" y="-389.82" font-family="Times,serif" font-size="14.00" fill="white">MASTG&#45;TEST&#45;0231</text>
</g>
<!-- TG231&#45;&gt;WE01 -->
<g id="edge5" class="edge">
<title>TG231&#45;&gt;WE01</title>
<path fill="none" stroke="#00688b" d="M114.78,-377.54C120.51,-374.88 126.21,-372.01 131.5,-369 159.63,-352.97 188.91,-330.77 209.97,-313.66"/>
<polygon fill="#00688b" stroke="#00688b" points="212.09,-316.45 217.59,-307.39 207.64,-311.04 212.09,-316.45"/>
<text text-anchor="middle" x="161.5" y="-358.42" font-family="Times,serif" font-size="14.00" fill="white">tests</text>
</g>
<!-- TG203 -->
<g id="node7" class="node">
<title>TG203</title>
<polygon fill="none" stroke="limegreen" points="131.5,-360 0,-360 0,-324 131.5,-324 131.5,-360"/>
<text text-anchor="middle" x="65.75" y="-335.82" font-family="Times,serif" font-size="14.00" fill="white">MASTG&#45;TEST&#45;0203</text>
</g>
<!-- TG203&#45;&gt;WE01 -->
<g id="edge6" class="edge">
<title>TG203&#45;&gt;WE01</title>
<path fill="none" stroke="#00688b" d="M125.93,-323.57C143.48,-318.1 162.7,-312.11 180.29,-306.64"/>
<polygon fill="#00688b" stroke="#00688b" points="181.05,-310.07 189.56,-303.75 178.97,-303.38 181.05,-310.07"/>
<text text-anchor="middle" x="161.5" y="-315.95" font-family="Times,serif" font-size="14.00" fill="white">tests</text>
</g>
<!-- TG297 -->
<g id="node8" class="node">
<title>TG297</title>
<polygon fill="none" stroke="limegreen" points="131.5,-306 0,-306 0,-270 131.5,-270 131.5,-306"/>
<text text-anchor="middle" x="65.75" y="-281.82" font-family="Times,serif" font-size="14.00" fill="white">MASTG&#45;TEST&#45;0297</text>
</g>
<!-- TG297&#45;&gt;WE01 -->
<g id="edge7" class="edge">
<title>TG297&#45;&gt;WE01</title>
<path fill="none" stroke="#00688b" d="M131.8,-288C147.65,-288 164.53,-288 180.14,-288"/>
<polygon fill="#00688b" stroke="#00688b" points="179.72,-291.5 189.72,-288 179.72,-284.5 179.72,-291.5"/>
<text text-anchor="middle" x="161.5" y="-288.95" font-family="Times,serif" font-size="14.00" fill="white">tests</text>
</g>
<!-- TG296 -->
<g id="node9" class="node">
<title>TG296</title>
<polygon fill="none" stroke="limegreen" points="131.5,-252 0,-252 0,-216 131.5,-216 131.5,-252"/>
<text text-anchor="middle" x="65.75" y="-227.82" font-family="Times,serif" font-size="14.00" fill="white">MASTG&#45;TEST&#45;0296</text>
</g>
<!-- TG296&#45;&gt;WE01 -->
<g id="edge8" class="edge">
<title>TG296&#45;&gt;WE01</title>
<path fill="none" stroke="#00688b" d="M125.93,-252.43C143.48,-257.9 162.7,-263.89 180.29,-269.36"/>
<polygon fill="#00688b" stroke="#00688b" points="178.97,-272.62 189.56,-272.25 181.05,-265.93 178.97,-272.62"/>
<text text-anchor="middle" x="161.5" y="-266.79" font-family="Times,serif" font-size="14.00" fill="white">tests</text>
</g>
<!-- TG262 -->
<g id="node10" class="node">
<title>TG262</title>
<polygon fill="none" stroke="limegreen" points="131.5,-198 0,-198 0,-162 131.5,-162 131.5,-198"/>
<text text-anchor="middle" x="65.75" y="-173.82" font-family="Times,serif" font-size="14.00" fill="white">MASTG&#45;TEST&#45;0262</text>
</g>
<!-- TG262&#45;&gt;WE04 -->
<g id="edge9" class="edge">
<title>TG262&#45;&gt;WE04</title>
<path fill="none" stroke="#00688b" d="M125.93,-161.57C143.48,-156.1 162.7,-150.11 180.29,-144.64"/>
<polygon fill="#00688b" stroke="#00688b" points="181.05,-148.07 189.56,-141.75 178.97,-141.38 181.05,-148.07"/>
<text text-anchor="middle" x="161.5" y="-153.95" font-family="Times,serif" font-size="14.00" fill="white">tests</text>
</g>
<!-- TG216 -->
<g id="node11" class="node">
<title>TG216</title>
<polygon fill="none" stroke="limegreen" points="131.5,-144 0,-144 0,-108 131.5,-108 131.5,-144"/>
<text text-anchor="middle" x="65.75" y="-119.83" font-family="Times,serif" font-size="14.00" fill="white">MASTG&#45;TEST&#45;0216</text>
</g>
<!-- TG216&#45;&gt;WE04 -->
<g id="edge10" class="edge">
<title>TG216&#45;&gt;WE04</title>
<path fill="none" stroke="#00688b" d="M131.8,-126C147.65,-126 164.53,-126 180.14,-126"/>
<polygon fill="#00688b" stroke="#00688b" points="179.72,-129.5 189.72,-126 179.72,-122.5 179.72,-129.5"/>
<text text-anchor="middle" x="161.5" y="-126.95" font-family="Times,serif" font-size="14.00" fill="white">tests</text>
</g>
<!-- TG215 -->
<g id="node12" class="node">
<title>TG215</title>
<polygon fill="none" stroke="limegreen" points="131.5,-90 0,-90 0,-54 131.5,-54 131.5,-90"/>
<text text-anchor="middle" x="65.75" y="-65.83" font-family="Times,serif" font-size="14.00" fill="white">MASTG&#45;TEST&#45;0215</text>
</g>
<!-- TG215&#45;&gt;WE04 -->
<g id="edge11" class="edge">
<title>TG215&#45;&gt;WE04</title>
<path fill="none" stroke="#00688b" d="M125.93,-90.43C143.48,-95.9 162.7,-101.89 180.29,-107.36"/>
<polygon fill="#00688b" stroke="#00688b" points="178.97,-110.62 189.56,-110.25 181.05,-103.93 178.97,-110.62"/>
<text text-anchor="middle" x="161.5" y="-104.79" font-family="Times,serif" font-size="14.00" fill="white">tests</text>
</g>
<!-- TG298 -->
<g id="node13" class="node">
<title>TG298</title>
<polygon fill="none" stroke="limegreen" points="131.5,-36 0,-36 0,0 131.5,0 131.5,-36"/>
<text text-anchor="middle" x="65.75" y="-11.82" font-family="Times,serif" font-size="14.00" fill="white">MASTG&#45;TEST&#45;0298</text>
</g>
<!-- TG298&#45;&gt;WE04 -->
<g id="edge12" class="edge">
<title>TG298&#45;&gt;WE04</title>
<path fill="none" stroke="#00688b" d="M114.78,-36.46C120.51,-39.12 126.21,-41.99 131.5,-45 159.63,-61.03 188.91,-83.23 209.97,-100.34"/>
<polygon fill="#00688b" stroke="#00688b" points="207.64,-102.96 217.59,-106.61 212.09,-97.55 207.64,-102.96"/>
<text text-anchor="middle" x="161.5" y="-72.26" font-family="Times,serif" font-size="14.00" fill="white">tests</text>
</g>
</g>
</svg>
