<?xml version="1.0" encoding="UTF-8" standalone="no"?>
<!DOCTYPE svg PUBLIC "-//W3C//DTD SVG 1.1//EN"
 "http://www.w3.org/Graphics/SVG/1.1/DTD/svg11.dtd">
<!-- Generated by graphviz version 12.1.2 (20240928.0832)
 -->
<!-- Title: G Pages: 1 -->
<svg width="304pt" height="476pt"
 viewBox="0.00 0.00 304.00 476.00" xmlns="http://www.w3.org/2000/svg" xmlns:xlink="http://www.w3.org/1999/xlink">
<g id="graph0" class="graph" transform="scale(1 1) rotate(0) translate(4 472)">
<title>G</title>
<polygon fill="none" stroke="none" points="-4,4 -4,-472 300,-472 300,4 -4,4"/>
<!-- VS1 -->
<g id="node1" class="node">
<title>VS1</title>
<polygon fill="none" stroke="mediumorchid" points="296,-252 190,-252 190,-216 296,-216 296,-252"/>
<text text-anchor="middle" x="243" y="-227.82" font-family="Times,serif" font-size="14.00" fill="white">MASVS&#45;Auth&#45;1</text>
</g>
<!-- WE05 -->
<g id="node2" class="node">
<title>WE05</title>
<polygon fill="none" stroke="limegreen" points="99.25,-468 0,-468 0,-432 99.25,-432 99.25,-468"/>
<text text-anchor="middle" x="49.62" y="-443.82" font-family="Times,serif" font-size="14.00" fill="white">MASWE&#45;0005</text>
</g>
<!-- WE05&#45;&gt;VS1 -->
<g id="edge1" class="edge">
<title>WE05&#45;&gt;VS1</title>
<path fill="none" stroke="#00688b" d="M99.72,-432.38C123.94,-421.7 152.15,-406.03 172,-385 205.18,-349.85 224.89,-296.17 234.56,-263.17"/>
<polygon fill="#00688b" stroke="#00688b" points="237.83,-264.46 237.16,-253.89 231.09,-262.58 237.83,-264.46"/>
<text text-anchor="middle" x="144.62" y="-424.84" font-family="Times,serif" font-size="14.00" fill="white">endangers</text>
</g>
<!-- WE36 -->
<g id="node3" class="node">
<title>WE36</title>
<polygon fill="none" stroke="limegreen" points="99.25,-414 0,-414 0,-378 99.25,-378 99.25,-414"/>
<text text-anchor="middle" x="49.62" y="-389.82" font-family="Times,serif" font-size="14.00" fill="white">MASWE&#45;0036</text>
</g>
<!-- WE36&#45;&gt;VS1 -->
<g id="edge2" class="edge">
<title>WE36&#45;&gt;VS1</title>
<path fill="none" stroke="#00688b" d="M97.29,-377.6C121.28,-366.68 150.02,-351.2 172,-332 194.87,-312.03 214.32,-283.17 226.87,-261.94"/>
<polygon fill="#00688b" stroke="#00688b" points="229.76,-263.94 231.71,-253.52 223.69,-260.45 229.76,-263.94"/>
<text text-anchor="middle" x="144.62" y="-367.94" font-family="Times,serif" font-size="14.00" fill="white">endangers</text>
</g>
<!-- WE37 -->
<g id="node4" class="node">
<title>WE37</title>
<polygon fill="none" stroke="limegreen" points="99.25,-360 0,-360 0,-324 99.25,-324 99.25,-360"/>
<text text-anchor="middle" x="49.62" y="-335.82" font-family="Times,serif" font-size="14.00" fill="white">MASWE&#45;0037</text>
</g>
<!-- WE37&#45;&gt;VS1 -->
<g id="edge3" class="edge">
<title>WE37&#45;&gt;VS1</title>
<path fill="none" stroke="#00688b" d="M97.67,-323.58C120.69,-313.84 148.44,-301.02 172,-287 185.67,-278.86 199.84,-268.55 211.81,-259.19"/>
<polygon fill="#00688b" stroke="#00688b" points="213.68,-262.18 219.32,-253.21 209.32,-256.7 213.68,-262.18"/>
<text text-anchor="middle" x="144.62" y="-314.69" font-family="Times,serif" font-size="14.00" fill="white">endangers</text>
</g>
<!-- WE38 -->
<g id="node5" class="node">
<title>WE38</title>
<polygon fill="none" stroke="limegreen" points="99.25,-306 0,-306 0,-270 99.25,-270 99.25,-306"/>
<text text-anchor="middle" x="49.62" y="-281.82" font-family="Times,serif" font-size="14.00" fill="white">MASWE&#45;0038</text>
</g>
<!-- WE38&#45;&gt;VS1 -->
<g id="edge4" class="edge">
<title>WE38&#45;&gt;VS1</title>
<path fill="none" stroke="#00688b" d="M99.41,-274.23C123.54,-267.43 152.95,-259.13 178.78,-251.84"/>
<polygon fill="#00688b" stroke="#00688b" points="179.48,-255.28 188.15,-249.19 177.58,-248.54 179.48,-255.28"/>
<text text-anchor="middle" x="144.62" y="-269.94" font-family="Times,serif" font-size="14.00" fill="white">endangers</text>
</g>
<!-- WE40 -->
<g id="node6" class="node">
<title>WE40</title>
<polygon fill="none" stroke="limegreen" points="99.25,-252 0,-252 0,-216 99.25,-216 99.25,-252"/>
<text text-anchor="middle" x="49.62" y="-227.82" font-family="Times,serif" font-size="14.00" fill="white">MASWE&#45;0040</text>
</g>
<!-- WE40&#45;&gt;VS1 -->
<g id="edge5" class="edge">
<title>WE40&#45;&gt;VS1</title>
<path fill="none" stroke="#00688b" d="M99.41,-234C123.43,-234 152.69,-234 178.44,-234"/>
<polygon fill="#00688b" stroke="#00688b" points="178.1,-237.5 188.1,-234 178.1,-230.5 178.1,-237.5"/>
<text text-anchor="middle" x="144.62" y="-234.95" font-family="Times,serif" font-size="14.00" fill="white">endangers</text>
</g>
<!-- WE32 -->
<g id="node7" class="node">
<title>WE32</title>
<polygon fill="none" stroke="gold" points="99.25,-198 0,-198 0,-162 99.25,-162 99.25,-198"/>
<text text-anchor="middle" x="49.62" y="-173.82" font-family="Times,serif" font-size="14.00" fill="white">MASWE&#45;0032</text>
</g>
<!-- WE32&#45;&gt;VS1 -->
<g id="edge6" class="edge">
<title>WE32&#45;&gt;VS1</title>
<path fill="none" stroke="#00688b" d="M99.41,-193.77C123.54,-200.57 152.95,-208.87 178.78,-216.16"/>
<polygon fill="#00688b" stroke="#00688b" points="177.58,-219.46 188.15,-218.81 179.48,-212.72 177.58,-219.46"/>
<text text-anchor="middle" x="144.62" y="-214.37" font-family="Times,serif" font-size="14.00" fill="white">endangers</text>
</g>
<!-- WE33 -->
<g id="node8" class="node">
<title>WE33</title>
<polygon fill="none" stroke="gold" points="99.25,-144 0,-144 0,-108 99.25,-108 99.25,-144"/>
<text text-anchor="middle" x="49.62" y="-119.83" font-family="Times,serif" font-size="14.00" fill="white">MASWE&#45;0033</text>
</g>
<!-- WE33&#45;&gt;VS1 -->
<g id="edge7" class="edge">
<title>WE33&#45;&gt;VS1</title>
<path fill="none" stroke="#00688b" d="M97.98,-144.41C120.94,-154.07 148.56,-166.79 172,-180.75 185.7,-188.9 199.86,-199.26 211.84,-208.67"/>
<polygon fill="#00688b" stroke="#00688b" points="209.35,-211.16 219.34,-214.68 213.73,-205.7 209.35,-211.16"/>
<text text-anchor="middle" x="144.62" y="-181.7" font-family="Times,serif" font-size="14.00" fill="white">endangers</text>
</g>
<!-- WE35 -->
<g id="node9" class="node">
<title>WE35</title>
<polygon fill="none" stroke="gold" points="99.25,-90 0,-90 0,-54 99.25,-54 99.25,-90"/>
<text text-anchor="middle" x="49.62" y="-65.83" font-family="Times,serif" font-size="14.00" fill="white">MASWE&#45;0035</text>
</g>
<!-- WE35&#45;&gt;VS1 -->
<g id="edge8" class="edge">
<title>WE35&#45;&gt;VS1</title>
<path fill="none" stroke="#00688b" d="M97.6,-90.42C121.53,-101.28 150.12,-116.65 172,-135.75 194.91,-155.75 214.36,-184.68 226.9,-205.97"/>
<polygon fill="#00688b" stroke="#00688b" points="223.73,-207.48 231.73,-214.42 229.8,-204 223.73,-207.48"/>
<text text-anchor="middle" x="144.62" y="-136.7" font-family="Times,serif" font-size="14.00" fill="white">endangers</text>
</g>
<!-- WE39 -->
<g id="node10" class="node">
<title>WE39</title>
<polygon fill="none" stroke="gold" points="99.25,-36 0,-36 0,0 99.25,0 99.25,-36"/>
<text text-anchor="middle" x="49.62" y="-11.82" font-family="Times,serif" font-size="14.00" fill="white">MASWE&#45;0039</text>
</g>
<!-- WE39&#45;&gt;VS1 -->
<g id="edge9" class="edge">
<title>WE39&#45;&gt;VS1</title>
<path fill="none" stroke="#00688b" d="M99.73,-35.5C123.95,-46.13 152.15,-61.75 172,-82.75 205.24,-117.93 224.93,-171.71 234.58,-204.77"/>
<polygon fill="#00688b" stroke="#00688b" points="231.12,-205.38 237.18,-214.07 237.86,-203.5 231.12,-205.38"/>
<text text-anchor="middle" x="144.62" y="-83.7" font-family="Times,serif" font-size="14.00" fill="white">endangers</text>
</g>
</g>
</svg>
