<?xml version="1.0" encoding="UTF-8" standalone="no"?>
<!DOCTYPE svg PUBLIC "-//W3C//DTD SVG 1.1//EN"
 "http://www.w3.org/Graphics/SVG/1.1/DTD/svg11.dtd">
<!-- Generated by graphviz version 12.1.2 (20240928.0832)
 -->
<!-- Title: G Pages: 1 -->
<svg width="525pt" height="260pt"
 viewBox="0.00 0.00 524.75 260.00" xmlns="http://www.w3.org/2000/svg" xmlns:xlink="http://www.w3.org/1999/xlink">
<g id="graph0" class="graph" transform="scale(1 1) rotate(0) translate(4 256)">
<title>G</title>
<polygon fill="none" stroke="none" points="-4,4 -4,-256 520.75,-256 520.75,4 -4,4"/>
<!-- VS1 -->
<g id="node1" class="node">
<title>VS1</title>
<polygon fill="none" stroke="mediumorchid" points="516.75,-117 381.5,-117 381.5,-81 516.75,-81 516.75,-117"/>
<text text-anchor="middle" x="449.12" y="-92.83" font-family="Times,serif" font-size="14.00" fill="white">MASVS&#45;Resilience&#45;2</text>
</g>
<!-- WE104 -->
<g id="node2" class="node">
<title>WE104</title>
<polygon fill="none" stroke="crimson" points="290.75,-198 191.5,-198 191.5,-162 290.75,-162 290.75,-198"/>
<text text-anchor="middle" x="241.12" y="-173.82" font-family="Times,serif" font-size="14.00" fill="white">MASWE&#45;0104</text>
</g>
<!-- WE104&#45;&gt;VS1 -->
<g id="edge1" class="edge">
<title>WE104&#45;&gt;VS1</title>
<path fill="none" stroke="#00688b" d="M291.12,-163.05C313.34,-155.15 339.87,-145.44 363.5,-136 374.45,-131.63 386.08,-126.72 397.11,-121.94"/>
<polygon fill="#00688b" stroke="#00688b" points="398.31,-125.23 406.07,-118.02 395.51,-118.82 398.31,-125.23"/>
<text text-anchor="middle" x="336.12" y="-157.03" font-family="Times,serif" font-size="14.00" fill="white">endangers</text>
</g>
<!-- WE105 -->
<g id="node3" class="node">
<title>WE105</title>
<polygon fill="none" stroke="crimson" points="290.75,-144 191.5,-144 191.5,-108 290.75,-108 290.75,-144"/>
<text text-anchor="middle" x="241.12" y="-119.83" font-family="Times,serif" font-size="14.00" fill="white">MASWE&#45;0105</text>
</g>
<!-- WE105&#45;&gt;VS1 -->
<g id="edge2" class="edge">
<title>WE105&#45;&gt;VS1</title>
<path fill="none" stroke="#00688b" d="M291.21,-119.57C314.74,-116.48 343.5,-112.71 369.94,-109.25"/>
<polygon fill="#00688b" stroke="#00688b" points="370.15,-112.75 379.61,-107.98 369.24,-105.81 370.15,-112.75"/>
<text text-anchor="middle" x="336.12" y="-118.22" font-family="Times,serif" font-size="14.00" fill="white">endangers</text>
</g>
<!-- WE106 -->
<g id="node4" class="node">
<title>WE106</title>
<polygon fill="none" stroke="crimson" points="290.75,-90 191.5,-90 191.5,-54 290.75,-54 290.75,-90"/>
<text text-anchor="middle" x="241.12" y="-65.83" font-family="Times,serif" font-size="14.00" fill="white">MASWE&#45;0106</text>
</g>
<!-- WE106&#45;&gt;VS1 -->
<g id="edge3" class="edge">
<title>WE106&#45;&gt;VS1</title>
<path fill="none" stroke="#00688b" d="M291.21,-78.43C314.74,-81.52 343.5,-85.29 369.94,-88.75"/>
<polygon fill="#00688b" stroke="#00688b" points="369.24,-92.19 379.61,-90.02 370.15,-85.25 369.24,-92.19"/>
<text text-anchor="middle" x="336.12" y="-88.07" font-family="Times,serif" font-size="14.00" fill="white">endangers</text>
</g>
<!-- WE107 -->
<g id="node5" class="node">
<title>WE107</title>
<polygon fill="none" stroke="crimson" points="290.75,-36 191.5,-36 191.5,0 290.75,0 290.75,-36"/>
<text text-anchor="middle" x="241.12" y="-11.82" font-family="Times,serif" font-size="14.00" fill="white">MASWE&#45;0107</text>
</g>
<!-- WE107&#45;&gt;VS1 -->
<g id="edge4" class="edge">
<title>WE107&#45;&gt;VS1</title>
<path fill="none" stroke="#00688b" d="M291.07,-35.39C313.28,-43.45 339.82,-53.32 363.5,-62.75 373.97,-66.92 385.09,-71.54 395.71,-76.05"/>
<polygon fill="#00688b" stroke="#00688b" points="394.16,-79.19 404.73,-79.91 396.91,-72.76 394.16,-79.19"/>
<text text-anchor="middle" x="336.12" y="-63.7" font-family="Times,serif" font-size="14.00" fill="white">endangers</text>
</g>
<!-- TG220 -->
<g id="node6" class="node">
<title>TG220</title>
<polygon fill="none" stroke="crimson" points="131.5,-252 0,-252 0,-216 131.5,-216 131.5,-252"/>
<text text-anchor="middle" x="65.75" y="-227.82" font-family="Times,serif" font-size="14.00" fill="white">MASTG&#45;TEST&#45;0220</text>
</g>
<!-- TG220&#45;&gt;WE104 -->
<g id="edge5" class="edge">
<title>TG220&#45;&gt;WE104</title>
<path fill="none" stroke="#00688b" d="M125.93,-215.57C143.48,-210.1 162.7,-204.11 180.29,-198.64"/>
<polygon fill="#00688b" stroke="#00688b" points="181.05,-202.07 189.56,-195.75 178.97,-195.38 181.05,-202.07"/>
<text text-anchor="middle" x="161.5" y="-207.95" font-family="Times,serif" font-size="14.00" fill="white">tests</text>
</g>
<!-- TG224 -->
<g id="node7" class="node">
<title>TG224</title>
<polygon fill="none" stroke="crimson" points="131.5,-198 0,-198 0,-162 131.5,-162 131.5,-198"/>
<text text-anchor="middle" x="65.75" y="-173.82" font-family="Times,serif" font-size="14.00" fill="white">MASTG&#45;TEST&#45;0224</text>
</g>
<!-- TG224&#45;&gt;WE104 -->
<g id="edge6" class="edge">
<title>TG224&#45;&gt;WE104</title>
<path fill="none" stroke="#00688b" d="M131.8,-180C147.65,-180 164.53,-180 180.14,-180"/>
<polygon fill="#00688b" stroke="#00688b" points="179.72,-183.5 189.72,-180 179.72,-176.5 179.72,-183.5"/>
<text text-anchor="middle" x="161.5" y="-180.95" font-family="Times,serif" font-size="14.00" fill="white">tests</text>
</g>
<!-- TG225 -->
<g id="node8" class="node">
<title>TG225</title>
<polygon fill="none" stroke="crimson" points="131.5,-144 0,-144 0,-108 131.5,-108 131.5,-144"/>
<text text-anchor="middle" x="65.75" y="-119.83" font-family="Times,serif" font-size="14.00" fill="white">MASTG&#45;TEST&#45;0225</text>
</g>
<!-- TG225&#45;&gt;WE104 -->
<g id="edge7" class="edge">
<title>TG225&#45;&gt;WE104</title>
<path fill="none" stroke="#00688b" d="M125.93,-144.43C143.48,-149.9 162.7,-155.89 180.29,-161.36"/>
<polygon fill="#00688b" stroke="#00688b" points="178.97,-164.62 189.56,-164.25 181.05,-157.93 178.97,-164.62"/>
<text text-anchor="middle" x="161.5" y="-158.79" font-family="Times,serif" font-size="14.00" fill="white">tests</text>
</g>
</g>
</svg>
