<?xml version="1.0" encoding="UTF-8" standalone="no"?>
<!DOCTYPE svg PUBLIC "-//W3C//DTD SVG 1.1//EN"
 "http://www.w3.org/Graphics/SVG/1.1/DTD/svg11.dtd">
<!-- Generated by graphviz version 12.1.2 (20240928.0832)
 -->
<!-- Title: G Pages: 1 -->
<svg width="318pt" height="98pt"
 viewBox="0.00 0.00 318.25 98.00" xmlns="http://www.w3.org/2000/svg" xmlns:xlink="http://www.w3.org/1999/xlink">
<g id="graph0" class="graph" transform="scale(1 1) rotate(0) translate(4 94)">
<title>G</title>
<polygon fill="none" stroke="none" points="-4,4 -4,-94 314.25,-94 314.25,4 -4,4"/>
<!-- VS1 -->
<g id="node1" class="node">
<title>VS1</title>
<polygon fill="none" stroke="mediumorchid" points="310.25,-63 190,-63 190,-27 310.25,-27 310.25,-63"/>
<text text-anchor="middle" x="250.12" y="-38.83" font-family="Times,serif" font-size="14.00" fill="white">MASVS&#45;Privacy&#45;3</text>
</g>
<!-- WE111 -->
<g id="node2" class="node">
<title>WE111</title>
<polygon fill="none" stroke="limegreen" points="99.25,-90 0,-90 0,-54 99.25,-54 99.25,-90"/>
<text text-anchor="middle" x="49.62" y="-65.83" font-family="Times,serif" font-size="14.00" fill="white">MASWE&#45;0111</text>
</g>
<!-- WE111&#45;&gt;VS1 -->
<g id="edge1" class="edge">
<title>WE111&#45;&gt;VS1</title>
<path fill="none" stroke="#00688b" d="M99.69,-65.33C123.39,-62.1 152.28,-58.17 178.31,-54.63"/>
<polygon fill="#00688b" stroke="#00688b" points="178.72,-58.11 188.15,-53.29 177.77,-51.17 178.72,-58.11"/>
<text text-anchor="middle" x="144.62" y="-63.45" font-family="Times,serif" font-size="14.00" fill="white">endangers</text>
</g>
<!-- WE112 -->
<g id="node3" class="node">
<title>WE112</title>
<polygon fill="none" stroke="limegreen" points="99.25,-36 0,-36 0,0 99.25,0 99.25,-36"/>
<text text-anchor="middle" x="49.62" y="-11.82" font-family="Times,serif" font-size="14.00" fill="white">MASWE&#45;0112</text>
</g>
<!-- WE112&#45;&gt;VS1 -->
<g id="edge2" class="edge">
<title>WE112&#45;&gt;VS1</title>
<path fill="none" stroke="#00688b" d="M99.69,-24.67C123.39,-27.9 152.28,-31.83 178.31,-35.37"/>
<polygon fill="#00688b" stroke="#00688b" points="177.77,-38.83 188.15,-36.71 178.72,-31.89 177.77,-38.83"/>
<text text-anchor="middle" x="144.62" y="-34.87" font-family="Times,serif" font-size="14.00" fill="white">endangers</text>
</g>
</g>
</svg>
