<?xml version="1.0" encoding="UTF-8" standalone="no"?>
<!DOCTYPE svg PUBLIC "-//W3C//DTD SVG 1.1//EN"
 "http://www.w3.org/Graphics/SVG/1.1/DTD/svg11.dtd">
<!-- Generated by graphviz version 12.1.2 (20240928.0832)
 -->
<!-- Title: G Pages: 1 -->
<svg width="517pt" height="395pt"
 viewBox="0.00 0.00 516.50 395.00" xmlns="http://www.w3.org/2000/svg" xmlns:xlink="http://www.w3.org/1999/xlink">
<g id="graph0" class="graph" transform="scale(1 1) rotate(0) translate(4 391)">
<title>G</title>
<polygon fill="none" stroke="none" points="-4,4 -4,-391 512.5,-391 512.5,4 -4,4"/>
<!-- VS1 -->
<g id="node1" class="node">
<title>VS1</title>
<polygon fill="none" stroke="mediumorchid" points="508.5,-198 381.5,-198 381.5,-162 508.5,-162 508.5,-198"/>
<text text-anchor="middle" x="445" y="-173.82" font-family="Times,serif" font-size="14.00" fill="white">MASVS&#45;Platform&#45;2</text>
</g>
<!-- WE68 -->
<g id="node2" class="node">
<title>WE68</title>
<polygon fill="none" stroke="limegreen" points="290.75,-360 191.5,-360 191.5,-324 290.75,-324 290.75,-360"/>
<text text-anchor="middle" x="241.12" y="-335.82" font-family="Times,serif" font-size="14.00" fill="white">MASWE&#45;0068</text>
</g>
<!-- WE68&#45;&gt;VS1 -->
<g id="edge1" class="edge">
<title>WE68&#45;&gt;VS1</title>
<path fill="none" stroke="#00688b" d="M285.9,-323.61C310.17,-312.22 340.08,-296.13 363.5,-277 388.08,-256.92 410.65,-228.46 425.59,-207.56"/>
<polygon fill="#00688b" stroke="#00688b" points="428.37,-209.7 431.23,-199.5 422.63,-205.69 428.37,-209.7"/>
<text text-anchor="middle" x="336.12" y="-312.58" font-family="Times,serif" font-size="14.00" fill="white">endangers</text>
</g>
<!-- WE69 -->
<g id="node3" class="node">
<title>WE69</title>
<polygon fill="none" stroke="limegreen" points="290.75,-306 191.5,-306 191.5,-270 290.75,-270 290.75,-306"/>
<text text-anchor="middle" x="241.12" y="-281.82" font-family="Times,serif" font-size="14.00" fill="white">MASWE&#45;0069</text>
</g>
<!-- WE69&#45;&gt;VS1 -->
<g id="edge2" class="edge">
<title>WE69&#45;&gt;VS1</title>
<path fill="none" stroke="#00688b" d="M287.33,-269.52C310.53,-259.54 338.99,-246.52 363.5,-233 378.86,-224.53 395.13,-214.11 409,-204.76"/>
<polygon fill="#00688b" stroke="#00688b" points="410.64,-207.88 416.93,-199.35 406.7,-202.1 410.64,-207.88"/>
<text text-anchor="middle" x="336.12" y="-259.93" font-family="Times,serif" font-size="14.00" fill="white">endangers</text>
</g>
<!-- WE70 -->
<g id="node4" class="node">
<title>WE70</title>
<polygon fill="none" stroke="limegreen" points="290.75,-252 191.5,-252 191.5,-216 290.75,-216 290.75,-252"/>
<text text-anchor="middle" x="241.12" y="-227.82" font-family="Times,serif" font-size="14.00" fill="white">MASWE&#45;0070</text>
</g>
<!-- WE70&#45;&gt;VS1 -->
<g id="edge3" class="edge">
<title>WE70&#45;&gt;VS1</title>
<path fill="none" stroke="#00688b" d="M290.99,-220.93C314.68,-214.59 343.64,-206.85 369.96,-199.8"/>
<polygon fill="#00688b" stroke="#00688b" points="370.84,-203.19 379.6,-197.23 369.03,-196.43 370.84,-203.19"/>
<text text-anchor="middle" x="336.12" y="-215.94" font-family="Times,serif" font-size="14.00" fill="white">endangers</text>
</g>
<!-- WE71 -->
<g id="node5" class="node">
<title>WE71</title>
<polygon fill="none" stroke="limegreen" points="290.75,-198 191.5,-198 191.5,-162 290.75,-162 290.75,-198"/>
<text text-anchor="middle" x="241.12" y="-173.82" font-family="Times,serif" font-size="14.00" fill="white">MASWE&#45;0071</text>
</g>
<!-- WE71&#45;&gt;VS1 -->
<g id="edge4" class="edge">
<title>WE71&#45;&gt;VS1</title>
<path fill="none" stroke="#00688b" d="M290.99,-180C314.58,-180 343.38,-180 369.61,-180"/>
<polygon fill="#00688b" stroke="#00688b" points="369.55,-183.5 379.55,-180 369.55,-176.5 369.55,-183.5"/>
<text text-anchor="middle" x="336.12" y="-180.95" font-family="Times,serif" font-size="14.00" fill="white">endangers</text>
</g>
<!-- WE72 -->
<g id="node6" class="node">
<title>WE72</title>
<polygon fill="none" stroke="limegreen" points="290.75,-144 191.5,-144 191.5,-108 290.75,-108 290.75,-144"/>
<text text-anchor="middle" x="241.12" y="-119.83" font-family="Times,serif" font-size="14.00" fill="white">MASWE&#45;0072</text>
</g>
<!-- WE72&#45;&gt;VS1 -->
<g id="edge5" class="edge">
<title>WE72&#45;&gt;VS1</title>
<path fill="none" stroke="#00688b" d="M290.99,-139.07C314.68,-145.41 343.64,-153.15 369.96,-160.2"/>
<polygon fill="#00688b" stroke="#00688b" points="369.03,-163.57 379.6,-162.77 370.84,-156.81 369.03,-163.57"/>
<text text-anchor="middle" x="336.12" y="-158.79" font-family="Times,serif" font-size="14.00" fill="white">endangers</text>
</g>
<!-- WE73 -->
<g id="node7" class="node">
<title>WE73</title>
<polygon fill="none" stroke="gold" points="290.75,-90 191.5,-90 191.5,-54 290.75,-54 290.75,-90"/>
<text text-anchor="middle" x="241.12" y="-65.83" font-family="Times,serif" font-size="14.00" fill="white">MASWE&#45;0073</text>
</g>
<!-- WE73&#45;&gt;VS1 -->
<g id="edge6" class="edge">
<title>WE73&#45;&gt;VS1</title>
<path fill="none" stroke="#00688b" d="M287.64,-90.47C310.79,-100.38 339.11,-113.3 363.5,-126.75 379,-135.3 395.41,-145.86 409.35,-155.31"/>
<polygon fill="#00688b" stroke="#00688b" points="407.08,-158.01 417.31,-160.79 411.05,-152.24 407.08,-158.01"/>
<text text-anchor="middle" x="336.12" y="-127.7" font-family="Times,serif" font-size="14.00" fill="white">endangers</text>
</g>
<!-- WE74 -->
<g id="node8" class="node">
<title>WE74</title>
<polygon fill="none" stroke="gold" points="290.75,-36 191.5,-36 191.5,0 290.75,0 290.75,-36"/>
<text text-anchor="middle" x="241.12" y="-11.82" font-family="Times,serif" font-size="14.00" fill="white">MASWE&#45;0074</text>
</g>
<!-- WE74&#45;&gt;VS1 -->
<g id="edge7" class="edge">
<title>WE74&#45;&gt;VS1</title>
<path fill="none" stroke="#00688b" d="M286.2,-36.41C310.42,-47.74 340.19,-63.72 363.5,-82.75 388.12,-102.85 410.68,-131.39 425.62,-152.35"/>
<polygon fill="#00688b" stroke="#00688b" points="422.66,-154.24 431.25,-160.44 428.4,-150.23 422.66,-154.24"/>
<text text-anchor="middle" x="336.12" y="-83.7" font-family="Times,serif" font-size="14.00" fill="white">endangers</text>
</g>
<!-- TG250 -->
<g id="node9" class="node">
<title>TG250</title>
<polygon fill="none" stroke="limegreen" points="131.5,-387 0,-387 0,-351 131.5,-351 131.5,-387"/>
<text text-anchor="middle" x="65.75" y="-362.82" font-family="Times,serif" font-size="14.00" fill="white">MASTG&#45;TEST&#45;0250</text>
</g>
<!-- TG250&#45;&gt;WE69 -->
<g id="edge8" class="edge">
<title>TG250&#45;&gt;WE69</title>
<path fill="none" stroke="#00688b" d="M111.85,-350.65C118.47,-347.82 125.18,-344.88 131.5,-342 152.45,-332.44 175.32,-321.19 194.65,-311.45"/>
<polygon fill="#00688b" stroke="#00688b" points="196.01,-314.68 203.35,-307.04 192.84,-308.44 196.01,-314.68"/>
<text text-anchor="middle" x="161.5" y="-333.12" font-family="Times,serif" font-size="14.00" fill="white">tests</text>
</g>
<!-- TG251 -->
<g id="node10" class="node">
<title>TG251</title>
<polygon fill="none" stroke="limegreen" points="131.5,-333 0,-333 0,-297 131.5,-297 131.5,-333"/>
<text text-anchor="middle" x="65.75" y="-308.82" font-family="Times,serif" font-size="14.00" fill="white">MASTG&#45;TEST&#45;0251</text>
</g>
<!-- TG251&#45;&gt;WE69 -->
<g id="edge9" class="edge">
<title>TG251&#45;&gt;WE69</title>
<path fill="none" stroke="#00688b" d="M131.8,-304.87C147.65,-302.4 164.53,-299.77 180.14,-297.34"/>
<polygon fill="#00688b" stroke="#00688b" points="180.4,-300.84 189.74,-295.85 179.32,-293.93 180.4,-300.84"/>
<text text-anchor="middle" x="161.5" y="-302.45" font-family="Times,serif" font-size="14.00" fill="white">tests</text>
</g>
<!-- TG252 -->
<g id="node11" class="node">
<title>TG252</title>
<polygon fill="none" stroke="limegreen" points="131.5,-279 0,-279 0,-243 131.5,-243 131.5,-279"/>
<text text-anchor="middle" x="65.75" y="-254.82" font-family="Times,serif" font-size="14.00" fill="white">MASTG&#45;TEST&#45;0252</text>
</g>
<!-- TG252&#45;&gt;WE69 -->
<g id="edge10" class="edge">
<title>TG252&#45;&gt;WE69</title>
<path fill="none" stroke="#00688b" d="M131.8,-271.13C147.65,-273.6 164.53,-276.23 180.14,-278.66"/>
<polygon fill="#00688b" stroke="#00688b" points="179.32,-282.07 189.74,-280.15 180.4,-275.16 179.32,-282.07"/>
<text text-anchor="middle" x="161.5" y="-277.87" font-family="Times,serif" font-size="14.00" fill="white">tests</text>
</g>
<!-- TG253 -->
<g id="node12" class="node">
<title>TG253</title>
<polygon fill="none" stroke="limegreen" points="131.5,-225 0,-225 0,-189 131.5,-189 131.5,-225"/>
<text text-anchor="middle" x="65.75" y="-200.82" font-family="Times,serif" font-size="14.00" fill="white">MASTG&#45;TEST&#45;0253</text>
</g>
<!-- TG253&#45;&gt;WE69 -->
<g id="edge11" class="edge">
<title>TG253&#45;&gt;WE69</title>
<path fill="none" stroke="#00688b" d="M111.85,-225.35C118.47,-228.18 125.18,-231.12 131.5,-234 152.45,-243.56 175.32,-254.81 194.65,-264.55"/>
<polygon fill="#00688b" stroke="#00688b" points="192.84,-267.56 203.35,-268.96 196.01,-261.32 192.84,-267.56"/>
<text text-anchor="middle" x="161.5" y="-253.57" font-family="Times,serif" font-size="14.00" fill="white">tests</text>
</g>
</g>
</svg>
