<?xml version="1.0" encoding="UTF-8" standalone="no"?>
<!DOCTYPE svg PUBLIC "-//W3C//DTD SVG 1.1//EN"
 "http://www.w3.org/Graphics/SVG/1.1/DTD/svg11.dtd">
<!-- Generated by graphviz version 12.1.2 (20240928.0832)
 -->
<!-- Title: G Pages: 1 -->
<svg width="516pt" height="800pt"
 viewBox="0.00 0.00 515.75 800.00" xmlns="http://www.w3.org/2000/svg" xmlns:xlink="http://www.w3.org/1999/xlink">
<g id="graph0" class="graph" transform="scale(1 1) rotate(0) translate(4 796)">
<title>G</title>
<polygon fill="none" stroke="none" points="-4,4 -4,-796 511.75,-796 511.75,4 -4,4"/>
<!-- VS1 -->
<g id="node1" class="node">
<title>VS1</title>
<polygon fill="none" stroke="mediumorchid" points="507.75,-252 381.5,-252 381.5,-216 507.75,-216 507.75,-252"/>
<text text-anchor="middle" x="444.62" y="-227.82" font-family="Times,serif" font-size="14.00" fill="white">MASVS&#45;Network&#45;1</text>
</g>
<!-- WE48 -->
<g id="node2" class="node">
<title>WE48</title>
<polygon fill="none" stroke="limegreen" points="290.75,-603 191.5,-603 191.5,-567 290.75,-567 290.75,-603"/>
<text text-anchor="middle" x="241.12" y="-578.83" font-family="Times,serif" font-size="14.00" fill="white">MASWE&#45;0048</text>
</g>
<!-- WE48&#45;&gt;VS1 -->
<g id="edge1" class="edge">
<title>WE48&#45;&gt;VS1</title>
<path fill="none" stroke="#00688b" d="M279.56,-566.77C283.54,-564.1 287.37,-561.17 290.75,-558 380.72,-473.71 423.02,-325.69 437.53,-263.18"/>
<polygon fill="#00688b" stroke="#00688b" points="440.89,-264.2 439.66,-253.67 434.06,-262.66 440.89,-264.2"/>
<text text-anchor="middle" x="336.12" y="-538.28" font-family="Times,serif" font-size="14.00" fill="white">endangers</text>
</g>
<!-- WE50 -->
<g id="node3" class="node">
<title>WE50</title>
<polygon fill="none" stroke="limegreen" points="290.75,-549 191.5,-549 191.5,-513 290.75,-513 290.75,-549"/>
<text text-anchor="middle" x="241.12" y="-524.83" font-family="Times,serif" font-size="14.00" fill="white">MASWE&#45;0050</text>
</g>
<!-- WE50&#45;&gt;VS1 -->
<g id="edge2" class="edge">
<title>WE50&#45;&gt;VS1</title>
<path fill="none" stroke="#00688b" d="M254.43,-512.87C288.5,-462.64 384.28,-321.47 424.97,-261.5"/>
<polygon fill="#00688b" stroke="#00688b" points="427.66,-263.76 430.38,-253.52 421.87,-259.83 427.66,-263.76"/>
<text text-anchor="middle" x="336.12" y="-427.41" font-family="Times,serif" font-size="14.00" fill="white">endangers</text>
</g>
<!-- WE52 -->
<g id="node4" class="node">
<title>WE52</title>
<polygon fill="none" stroke="limegreen" points="290.75,-252 191.5,-252 191.5,-216 290.75,-216 290.75,-252"/>
<text text-anchor="middle" x="241.12" y="-227.82" font-family="Times,serif" font-size="14.00" fill="white">MASWE&#45;0052</text>
</g>
<!-- WE52&#45;&gt;VS1 -->
<g id="edge3" class="edge">
<title>WE52&#45;&gt;VS1</title>
<path fill="none" stroke="#00688b" d="M291.16,-234C314.8,-234 343.66,-234 369.88,-234"/>
<polygon fill="#00688b" stroke="#00688b" points="369.81,-237.5 379.81,-234 369.81,-230.5 369.81,-237.5"/>
<text text-anchor="middle" x="336.12" y="-234.95" font-family="Times,serif" font-size="14.00" fill="white">endangers</text>
</g>
<!-- WE49 -->
<g id="node5" class="node">
<title>WE49</title>
<polygon fill="none" stroke="gold" points="290.75,-198 191.5,-198 191.5,-162 290.75,-162 290.75,-198"/>
<text text-anchor="middle" x="241.12" y="-173.82" font-family="Times,serif" font-size="14.00" fill="white">MASWE&#45;0049</text>
</g>
<!-- WE49&#45;&gt;VS1 -->
<g id="edge4" class="edge">
<title>WE49&#45;&gt;VS1</title>
<path fill="none" stroke="#00688b" d="M291.16,-193.14C314.91,-199.51 343.92,-207.28 370.24,-214.33"/>
<polygon fill="#00688b" stroke="#00688b" points="369.3,-217.7 379.86,-216.91 371.11,-210.94 369.3,-217.7"/>
<text text-anchor="middle" x="336.12" y="-212.79" font-family="Times,serif" font-size="14.00" fill="white">endangers</text>
</g>
<!-- WE51 -->
<g id="node6" class="node">
<title>WE51</title>
<polygon fill="none" stroke="gold" points="290.75,-144 191.5,-144 191.5,-108 290.75,-108 290.75,-144"/>
<text text-anchor="middle" x="241.12" y="-119.83" font-family="Times,serif" font-size="14.00" fill="white">MASWE&#45;0051</text>
</g>
<!-- WE51&#45;&gt;VS1 -->
<g id="edge5" class="edge">
<title>WE51&#45;&gt;VS1</title>
<path fill="none" stroke="#00688b" d="M287.65,-144.45C310.8,-154.35 339.12,-167.27 363.5,-180.75 378.94,-189.29 395.28,-199.85 409.15,-209.3"/>
<polygon fill="#00688b" stroke="#00688b" points="406.85,-211.97 417.07,-214.78 410.83,-206.21 406.85,-211.97"/>
<text text-anchor="middle" x="336.12" y="-181.7" font-family="Times,serif" font-size="14.00" fill="white">endangers</text>
</g>
<!-- TG235 -->
<g id="node7" class="node">
<title>TG235</title>
<polygon fill="none" stroke="limegreen" points="131.5,-792 0,-792 0,-756 131.5,-756 131.5,-792"/>
<text text-anchor="middle" x="65.75" y="-767.83" font-family="Times,serif" font-size="14.00" fill="white">MASTG&#45;TEST&#45;0235</text>
</g>
<!-- TG235&#45;&gt;WE50 -->
<g id="edge6" class="edge">
<title>TG235&#45;&gt;WE50</title>
<path fill="none" stroke="#00688b" d="M117.9,-755.51C122.67,-752.96 127.29,-750.12 131.5,-747 155.08,-729.5 161.81,-722.94 173.5,-696 198.12,-639.26 156.74,-609.16 191.5,-558 191.57,-557.9 191.64,-557.8 191.7,-557.7"/>
<polygon fill="#00688b" stroke="#00688b" points="194.11,-560.25 198.3,-550.52 188.96,-555.52 194.11,-560.25"/>
<text text-anchor="middle" x="161.5" y="-733.48" font-family="Times,serif" font-size="14.00" fill="white">tests</text>
</g>
<!-- TG237 -->
<g id="node8" class="node">
<title>TG237</title>
<polygon fill="none" stroke="limegreen" points="131.5,-738 0,-738 0,-702 131.5,-702 131.5,-738"/>
<text text-anchor="middle" x="65.75" y="-713.83" font-family="Times,serif" font-size="14.00" fill="white">MASTG&#45;TEST&#45;0237</text>
</g>
<!-- TG237&#45;&gt;WE50 -->
<g id="edge7" class="edge">
<title>TG237&#45;&gt;WE50</title>
<path fill="none" stroke="#00688b" d="M117.9,-701.51C122.67,-698.96 127.29,-696.12 131.5,-693 155.08,-675.5 160.73,-668.44 173.5,-642 190.11,-607.62 168.78,-588.68 191.5,-558 191.65,-557.8 191.8,-557.59 191.96,-557.39"/>
<polygon fill="#00688b" stroke="#00688b" points="194.44,-559.87 198.99,-550.3 189.46,-554.94 194.44,-559.87"/>
<text text-anchor="middle" x="161.5" y="-678.55" font-family="Times,serif" font-size="14.00" fill="white">tests</text>
</g>
<!-- TG217 -->
<g id="node9" class="node">
<title>TG217</title>
<polygon fill="none" stroke="limegreen" points="131.5,-684 0,-684 0,-648 131.5,-648 131.5,-684"/>
<text text-anchor="middle" x="65.75" y="-659.83" font-family="Times,serif" font-size="14.00" fill="white">MASTG&#45;TEST&#45;0217</text>
</g>
<!-- TG217&#45;&gt;WE50 -->
<g id="edge8" class="edge">
<title>TG217&#45;&gt;WE50</title>
<path fill="none" stroke="#00688b" d="M117.06,-647.64C122.11,-645.03 127.02,-642.15 131.5,-639 154.14,-623.07 157.7,-615.73 173.5,-593 183.48,-578.64 179.33,-570.56 191.5,-558 191.98,-557.5 192.48,-557.01 192.98,-556.52"/>
<polygon fill="#00688b" stroke="#00688b" points="195.18,-559.25 200.71,-550.21 190.75,-553.83 195.18,-559.25"/>
<text text-anchor="middle" x="161.5" y="-624.97" font-family="Times,serif" font-size="14.00" fill="white">tests</text>
</g>
<!-- TG236 -->
<g id="node10" class="node">
<title>TG236</title>
<polygon fill="none" stroke="limegreen" points="131.5,-630 0,-630 0,-594 131.5,-594 131.5,-630"/>
<text text-anchor="middle" x="65.75" y="-605.83" font-family="Times,serif" font-size="14.00" fill="white">MASTG&#45;TEST&#45;0236</text>
</g>
<!-- TG236&#45;&gt;WE50 -->
<g id="edge9" class="edge">
<title>TG236&#45;&gt;WE50</title>
<path fill="none" stroke="#00688b" d="M111.85,-593.65C118.47,-590.82 125.18,-587.88 131.5,-585 152.45,-575.44 175.32,-564.19 194.65,-554.45"/>
<polygon fill="#00688b" stroke="#00688b" points="196.01,-557.68 203.35,-550.04 192.84,-551.44 196.01,-557.68"/>
<text text-anchor="middle" x="161.5" y="-576.12" font-family="Times,serif" font-size="14.00" fill="white">tests</text>
</g>
<!-- TG239 -->
<g id="node11" class="node">
<title>TG239</title>
<polygon fill="none" stroke="limegreen" points="131.5,-576 0,-576 0,-540 131.5,-540 131.5,-576"/>
<text text-anchor="middle" x="65.75" y="-551.83" font-family="Times,serif" font-size="14.00" fill="white">MASTG&#45;TEST&#45;0239</text>
</g>
<!-- TG239&#45;&gt;WE50 -->
<g id="edge10" class="edge">
<title>TG239&#45;&gt;WE50</title>
<path fill="none" stroke="#00688b" d="M131.8,-547.87C147.65,-545.4 164.53,-542.77 180.14,-540.34"/>
<polygon fill="#00688b" stroke="#00688b" points="180.4,-543.84 189.74,-538.85 179.32,-536.93 180.4,-543.84"/>
<text text-anchor="middle" x="161.5" y="-545.45" font-family="Times,serif" font-size="14.00" fill="white">tests</text>
</g>
<!-- TG218 -->
<g id="node12" class="node">
<title>TG218</title>
<polygon fill="none" stroke="limegreen" points="131.5,-522 0,-522 0,-486 131.5,-486 131.5,-522"/>
<text text-anchor="middle" x="65.75" y="-497.82" font-family="Times,serif" font-size="14.00" fill="white">MASTG&#45;TEST&#45;0218</text>
</g>
<!-- TG218&#45;&gt;WE50 -->
<g id="edge11" class="edge">
<title>TG218&#45;&gt;WE50</title>
<path fill="none" stroke="#00688b" d="M131.8,-514.13C147.65,-516.6 164.53,-519.23 180.14,-521.66"/>
<polygon fill="#00688b" stroke="#00688b" points="179.32,-525.07 189.74,-523.15 180.4,-518.16 179.32,-525.07"/>
<text text-anchor="middle" x="161.5" y="-520.87" font-family="Times,serif" font-size="14.00" fill="white">tests</text>
</g>
<!-- TG238 -->
<g id="node13" class="node">
<title>TG238</title>
<polygon fill="none" stroke="limegreen" points="131.5,-468 0,-468 0,-432 131.5,-432 131.5,-468"/>
<text text-anchor="middle" x="65.75" y="-443.82" font-family="Times,serif" font-size="14.00" fill="white">MASTG&#45;TEST&#45;0238</text>
</g>
<!-- TG238&#45;&gt;WE50 -->
<g id="edge12" class="edge">
<title>TG238&#45;&gt;WE50</title>
<path fill="none" stroke="#00688b" d="M111.85,-468.35C118.47,-471.18 125.18,-474.12 131.5,-477 152.45,-486.56 175.32,-497.81 194.65,-507.55"/>
<polygon fill="#00688b" stroke="#00688b" points="192.84,-510.56 203.35,-511.96 196.01,-504.32 192.84,-510.56"/>
<text text-anchor="middle" x="161.5" y="-496.57" font-family="Times,serif" font-size="14.00" fill="white">tests</text>
</g>
<!-- TG233 -->
<g id="node14" class="node">
<title>TG233</title>
<polygon fill="none" stroke="limegreen" points="131.5,-414 0,-414 0,-378 131.5,-378 131.5,-414"/>
<text text-anchor="middle" x="65.75" y="-389.82" font-family="Times,serif" font-size="14.00" fill="white">MASTG&#45;TEST&#45;0233</text>
</g>
<!-- TG233&#45;&gt;WE50 -->
<g id="edge13" class="edge">
<title>TG233&#45;&gt;WE50</title>
<path fill="none" stroke="#00688b" d="M116.57,-414.42C121.77,-417.02 126.84,-419.89 131.5,-423 165.62,-445.79 198.07,-480.34 218.47,-504.19"/>
<polygon fill="#00688b" stroke="#00688b" points="215.59,-506.2 224.7,-511.61 220.95,-501.7 215.59,-506.2"/>
<text text-anchor="middle" x="161.5" y="-455.35" font-family="Times,serif" font-size="14.00" fill="white">tests</text>
</g>
<!-- TG283 -->
<g id="node15" class="node">
<title>TG283</title>
<polygon fill="none" stroke="limegreen" points="131.5,-360 0,-360 0,-324 131.5,-324 131.5,-360"/>
<text text-anchor="middle" x="65.75" y="-335.82" font-family="Times,serif" font-size="14.00" fill="white">MASTG&#45;TEST&#45;0283</text>
</g>
<!-- TG283&#45;&gt;WE52 -->
<g id="edge14" class="edge">
<title>TG283&#45;&gt;WE52</title>
<path fill="none" stroke="#00688b" d="M114.78,-323.54C120.51,-320.88 126.21,-318.01 131.5,-315 159.63,-298.97 188.91,-276.77 209.97,-259.66"/>
<polygon fill="#00688b" stroke="#00688b" points="212.09,-262.45 217.59,-253.39 207.64,-257.04 212.09,-262.45"/>
<text text-anchor="middle" x="161.5" y="-304.42" font-family="Times,serif" font-size="14.00" fill="white">tests</text>
</g>
<!-- TG282 -->
<g id="node16" class="node">
<title>TG282</title>
<polygon fill="none" stroke="limegreen" points="131.5,-306 0,-306 0,-270 131.5,-270 131.5,-306"/>
<text text-anchor="middle" x="65.75" y="-281.82" font-family="Times,serif" font-size="14.00" fill="white">MASTG&#45;TEST&#45;0282</text>
</g>
<!-- TG282&#45;&gt;WE52 -->
<g id="edge15" class="edge">
<title>TG282&#45;&gt;WE52</title>
<path fill="none" stroke="#00688b" d="M125.93,-269.57C143.48,-264.1 162.7,-258.11 180.29,-252.64"/>
<polygon fill="#00688b" stroke="#00688b" points="181.05,-256.07 189.56,-249.75 178.97,-249.38 181.05,-256.07"/>
<text text-anchor="middle" x="161.5" y="-261.95" font-family="Times,serif" font-size="14.00" fill="white">tests</text>
</g>
<!-- TG295 -->
<g id="node17" class="node">
<title>TG295</title>
<polygon fill="none" stroke="gold" points="131.5,-252 0,-252 0,-216 131.5,-216 131.5,-252"/>
<text text-anchor="middle" x="65.75" y="-227.82" font-family="Times,serif" font-size="14.00" fill="white">MASTG&#45;TEST&#45;0295</text>
</g>
<!-- TG295&#45;&gt;WE52 -->
<g id="edge16" class="edge">
<title>TG295&#45;&gt;WE52</title>
<path fill="none" stroke="#00688b" d="M131.8,-234C147.65,-234 164.53,-234 180.14,-234"/>
<polygon fill="#00688b" stroke="#00688b" points="179.72,-237.5 189.72,-234 179.72,-230.5 179.72,-237.5"/>
<text text-anchor="middle" x="161.5" y="-234.95" font-family="Times,serif" font-size="14.00" fill="white">tests</text>
</g>
<!-- TG285 -->
<g id="node18" class="node">
<title>TG285</title>
<polygon fill="none" stroke="limegreen" points="131.5,-198 0,-198 0,-162 131.5,-162 131.5,-198"/>
<text text-anchor="middle" x="65.75" y="-173.82" font-family="Times,serif" font-size="14.00" fill="white">MASTG&#45;TEST&#45;0285</text>
</g>
<!-- TG285&#45;&gt;WE52 -->
<g id="edge17" class="edge">
<title>TG285&#45;&gt;WE52</title>
<path fill="none" stroke="#00688b" d="M125.93,-198.43C143.48,-203.9 162.7,-209.89 180.29,-215.36"/>
<polygon fill="#00688b" stroke="#00688b" points="178.97,-218.62 189.56,-218.25 181.05,-211.93 178.97,-218.62"/>
<text text-anchor="middle" x="161.5" y="-212.79" font-family="Times,serif" font-size="14.00" fill="white">tests</text>
</g>
<!-- TG284 -->
<g id="node19" class="node">
<title>TG284</title>
<polygon fill="none" stroke="limegreen" points="131.5,-144 0,-144 0,-108 131.5,-108 131.5,-144"/>
<text text-anchor="middle" x="65.75" y="-119.83" font-family="Times,serif" font-size="14.00" fill="white">MASTG&#45;TEST&#45;0284</text>
</g>
<!-- TG284&#45;&gt;WE52 -->
<g id="edge18" class="edge">
<title>TG284&#45;&gt;WE52</title>
<path fill="none" stroke="#00688b" d="M115.65,-144.46C121.13,-147.08 126.52,-149.94 131.5,-153 152.4,-165.82 155.54,-172.06 173.5,-188.75 181.85,-196.51 182.43,-200.11 191.5,-207 192.48,-207.74 193.48,-208.48 194.51,-209.21"/>
<polygon fill="#00688b" stroke="#00688b" points="192.53,-212.1 202.8,-214.68 196.38,-206.26 192.53,-212.1"/>
<text text-anchor="middle" x="161.5" y="-189.7" font-family="Times,serif" font-size="14.00" fill="white">tests</text>
</g>
<!-- TG234 -->
<g id="node20" class="node">
<title>TG234</title>
<polygon fill="none" stroke="limegreen" points="131.5,-90 0,-90 0,-54 131.5,-54 131.5,-90"/>
<text text-anchor="middle" x="65.75" y="-65.83" font-family="Times,serif" font-size="14.00" fill="white">MASTG&#45;TEST&#45;0234</text>
</g>
<!-- TG234&#45;&gt;WE52 -->
<g id="edge19" class="edge">
<title>TG234&#45;&gt;WE52</title>
<path fill="none" stroke="#00688b" d="M117.49,-90.41C122.4,-92.99 127.16,-95.85 131.5,-99 154.65,-115.79 159.71,-122.69 173.5,-147.75 186.77,-171.86 174.21,-185.59 191.5,-207 191.74,-207.3 191.98,-207.59 192.23,-207.88"/>
<polygon fill="#00688b" stroke="#00688b" points="189.57,-210.18 199.24,-214.52 194.38,-205.1 189.57,-210.18"/>
<text text-anchor="middle" x="161.5" y="-148.7" font-family="Times,serif" font-size="14.00" fill="white">tests</text>
</g>
<!-- TG286 -->
<g id="node21" class="node">
<title>TG286</title>
<polygon fill="none" stroke="limegreen" points="131.5,-36 0,-36 0,0 131.5,0 131.5,-36"/>
<text text-anchor="middle" x="65.75" y="-11.82" font-family="Times,serif" font-size="14.00" fill="white">MASTG&#45;TEST&#45;0286</text>
</g>
<!-- TG286&#45;&gt;WE52 -->
<g id="edge20" class="edge">
<title>TG286&#45;&gt;WE52</title>
<path fill="none" stroke="#00688b" d="M117.89,-36.5C122.67,-39.05 127.29,-41.88 131.5,-45 155.03,-62.42 161.4,-69.09 173.5,-95.75 194.19,-141.36 162.72,-166.01 191.5,-207 191.57,-207.1 191.64,-207.2 191.71,-207.3"/>
<polygon fill="#00688b" stroke="#00688b" points="189,-209.52 198.39,-214.42 194.1,-204.73 189,-209.52"/>
<text text-anchor="middle" x="161.5" y="-96.7" font-family="Times,serif" font-size="14.00" fill="white">tests</text>
</g>
</g>
</svg>
