<?xml version="1.0" encoding="UTF-8" standalone="no"?>
<!DOCTYPE svg PUBLIC "-//W3C//DTD SVG 1.1//EN"
 "http://www.w3.org/Graphics/SVG/1.1/DTD/svg11.dtd">
<!-- Generated by graphviz version 12.1.2 (20240928.0832)
 -->
<!-- Title: G Pages: 1 -->
<svg width="497pt" height="98pt"
 viewBox="0.00 0.00 497.00 98.00" xmlns="http://www.w3.org/2000/svg" xmlns:xlink="http://www.w3.org/1999/xlink">
<g id="graph0" class="graph" transform="scale(1 1) rotate(0) translate(4 94)">
<title>G</title>
<polygon fill="none" stroke="none" points="-4,4 -4,-94 493,-94 493,4 -4,4"/>
<!-- VS1 -->
<g id="node1" class="node">
<title>VS1</title>
<polygon fill="none" stroke="mediumorchid" points="489,-54 381.5,-54 381.5,-18 489,-18 489,-54"/>
<text text-anchor="middle" x="435.25" y="-29.82" font-family="Times,serif" font-size="14.00" fill="white">MASVS&#45;Code&#45;1</text>
</g>
<!-- WE77 -->
<g id="node2" class="node">
<title>WE77</title>
<polygon fill="none" stroke="gold" points="290.75,-90 191.5,-90 191.5,-54 290.75,-54 290.75,-90"/>
<text text-anchor="middle" x="241.12" y="-65.83" font-family="Times,serif" font-size="14.00" fill="white">MASWE&#45;0077</text>
</g>
<!-- WE77&#45;&gt;VS1 -->
<g id="edge1" class="edge">
<title>WE77&#45;&gt;VS1</title>
<path fill="none" stroke="#00688b" d="M291.1,-62.82C315.12,-58.32 344.35,-52.84 370.13,-48.02"/>
<polygon fill="#00688b" stroke="#00688b" points="370.64,-51.48 379.83,-46.2 369.35,-44.6 370.64,-51.48"/>
<text text-anchor="middle" x="336.12" y="-60.28" font-family="Times,serif" font-size="14.00" fill="white">endangers</text>
</g>
<!-- WE78 -->
<g id="node3" class="node">
<title>WE78</title>
<polygon fill="none" stroke="gold" points="290.75,-36 191.5,-36 191.5,0 290.75,0 290.75,-36"/>
<text text-anchor="middle" x="241.12" y="-11.82" font-family="Times,serif" font-size="14.00" fill="white">MASWE&#45;0078</text>
</g>
<!-- WE78&#45;&gt;VS1 -->
<g id="edge2" class="edge">
<title>WE78&#45;&gt;VS1</title>
<path fill="none" stroke="#00688b" d="M291.2,-20.89C313.32,-22.36 339.75,-24.34 363.5,-26.75 365.67,-26.97 367.88,-27.2 370.11,-27.45"/>
<polygon fill="#00688b" stroke="#00688b" points="369.52,-30.9 379.86,-28.57 370.32,-23.95 369.52,-30.9"/>
<text text-anchor="middle" x="336.12" y="-27.7" font-family="Times,serif" font-size="14.00" fill="white">endangers</text>
</g>
<!-- TG245 -->
<g id="node4" class="node">
<title>TG245</title>
<polygon fill="none" stroke="gold" points="131.5,-90 0,-90 0,-54 131.5,-54 131.5,-90"/>
<text text-anchor="middle" x="65.75" y="-65.83" font-family="Times,serif" font-size="14.00" fill="white">MASTG&#45;TEST&#45;0245</text>
</g>
<!-- TG245&#45;&gt;WE77 -->
<g id="edge3" class="edge">
<title>TG245&#45;&gt;WE77</title>
<path fill="none" stroke="#00688b" d="M131.8,-72C147.65,-72 164.53,-72 180.14,-72"/>
<polygon fill="#00688b" stroke="#00688b" points="179.72,-75.5 189.72,-72 179.72,-68.5 179.72,-75.5"/>
<text text-anchor="middle" x="161.5" y="-72.95" font-family="Times,serif" font-size="14.00" fill="white">tests</text>
</g>
</g>
</svg>
