<?xml version="1.0" encoding="UTF-8" standalone="no"?>
<!DOCTYPE svg PUBLIC "-//W3C//DTD SVG 1.1//EN"
 "http://www.w3.org/Graphics/SVG/1.1/DTD/svg11.dtd">
<!-- Generated by graphviz version 12.1.2 (20240928.0832)
 -->
<!-- Title: G Pages: 1 -->
<svg width="304pt" height="206pt"
 viewBox="0.00 0.00 304.00 206.00" xmlns="http://www.w3.org/2000/svg" xmlns:xlink="http://www.w3.org/1999/xlink">
<g id="graph0" class="graph" transform="scale(1 1) rotate(0) translate(4 202)">
<title>G</title>
<polygon fill="none" stroke="none" points="-4,4 -4,-202 300,-202 300,4 -4,4"/>
<!-- VS1 -->
<g id="node1" class="node">
<title>VS1</title>
<polygon fill="none" stroke="mediumorchid" points="296,-117 190,-117 190,-81 296,-81 296,-117"/>
<text text-anchor="middle" x="243" y="-92.83" font-family="Times,serif" font-size="14.00" fill="white">MASVS&#45;Auth&#45;3</text>
</g>
<!-- WE28 -->
<g id="node2" class="node">
<title>WE28</title>
<polygon fill="none" stroke="gold" points="99.25,-198 0,-198 0,-162 99.25,-162 99.25,-198"/>
<text text-anchor="middle" x="49.62" y="-173.82" font-family="Times,serif" font-size="14.00" fill="white">MASWE&#45;0028</text>
</g>
<!-- WE28&#45;&gt;VS1 -->
<g id="edge1" class="edge">
<title>WE28&#45;&gt;VS1</title>
<path fill="none" stroke="#00688b" d="M99.59,-163.36C121.92,-155.38 148.55,-145.33 172,-135 180.54,-131.24 189.49,-126.93 198.05,-122.62"/>
<polygon fill="#00688b" stroke="#00688b" points="199.56,-125.77 206.87,-118.1 196.37,-119.54 199.56,-125.77"/>
<text text-anchor="middle" x="144.62" y="-157.12" font-family="Times,serif" font-size="14.00" fill="white">endangers</text>
</g>
<!-- WE29 -->
<g id="node3" class="node">
<title>WE29</title>
<polygon fill="none" stroke="gold" points="99.25,-144 0,-144 0,-108 99.25,-108 99.25,-144"/>
<text text-anchor="middle" x="49.62" y="-119.83" font-family="Times,serif" font-size="14.00" fill="white">MASWE&#45;0029</text>
</g>
<!-- WE29&#45;&gt;VS1 -->
<g id="edge2" class="edge">
<title>WE29&#45;&gt;VS1</title>
<path fill="none" stroke="#00688b" d="M99.41,-119.12C123.43,-115.73 152.69,-111.6 178.44,-107.97"/>
<polygon fill="#00688b" stroke="#00688b" points="178.7,-111.47 188.11,-106.6 177.72,-104.53 178.7,-111.47"/>
<text text-anchor="middle" x="144.62" y="-117.45" font-family="Times,serif" font-size="14.00" fill="white">endangers</text>
</g>
<!-- WE30 -->
<g id="node4" class="node">
<title>WE30</title>
<polygon fill="none" stroke="gold" points="99.25,-90 0,-90 0,-54 99.25,-54 99.25,-90"/>
<text text-anchor="middle" x="49.62" y="-65.83" font-family="Times,serif" font-size="14.00" fill="white">MASWE&#45;0030</text>
</g>
<!-- WE30&#45;&gt;VS1 -->
<g id="edge3" class="edge">
<title>WE30&#45;&gt;VS1</title>
<path fill="none" stroke="#00688b" d="M99.41,-78.88C123.43,-82.27 152.69,-86.4 178.44,-90.03"/>
<polygon fill="#00688b" stroke="#00688b" points="177.72,-93.47 188.11,-91.4 178.7,-86.53 177.72,-93.47"/>
<text text-anchor="middle" x="144.62" y="-89.66" font-family="Times,serif" font-size="14.00" fill="white">endangers</text>
</g>
<!-- WE31 -->
<g id="node5" class="node">
<title>WE31</title>
<polygon fill="none" stroke="gold" points="99.25,-36 0,-36 0,0 99.25,0 99.25,-36"/>
<text text-anchor="middle" x="49.62" y="-11.82" font-family="Times,serif" font-size="14.00" fill="white">MASWE&#45;0031</text>
</g>
<!-- WE31&#45;&gt;VS1 -->
<g id="edge4" class="edge">
<title>WE31&#45;&gt;VS1</title>
<path fill="none" stroke="#00688b" d="M99.53,-35.09C121.85,-43.23 148.49,-53.44 172,-63.75 180.15,-67.33 188.7,-71.37 196.92,-75.42"/>
<polygon fill="#00688b" stroke="#00688b" points="195.23,-78.49 205.74,-79.83 198.36,-72.23 195.23,-78.49"/>
<text text-anchor="middle" x="144.62" y="-64.7" font-family="Times,serif" font-size="14.00" fill="white">endangers</text>
</g>
</g>
</svg>
