<?xml version="1.0" encoding="UTF-8" standalone="no"?>
<!DOCTYPE svg PUBLIC "-//W3C//DTD SVG 1.1//EN"
 "http://www.w3.org/Graphics/SVG/1.1/DTD/svg11.dtd">
<!-- Generated by graphviz version 12.1.2 (20240928.0832)
 -->
<!-- Title: G Pages: 1 -->
<svg width="306pt" height="530pt"
 viewBox="0.00 0.00 305.50 530.00" xmlns="http://www.w3.org/2000/svg" xmlns:xlink="http://www.w3.org/1999/xlink">
<g id="graph0" class="graph" transform="scale(1 1) rotate(0) translate(4 526)">
<title>G</title>
<polygon fill="none" stroke="none" points="-4,4 -4,-526 301.5,-526 301.5,4 -4,4"/>
<!-- VS1 -->
<g id="node1" class="node">
<title>VS1</title>
<polygon fill="none" stroke="mediumorchid" points="297.5,-279 190,-279 190,-243 297.5,-243 297.5,-279"/>
<text text-anchor="middle" x="243.75" y="-254.82" font-family="Times,serif" font-size="14.00" fill="white">MASVS&#45;Code&#45;4</text>
</g>
<!-- WE79 -->
<g id="node2" class="node">
<title>WE79</title>
<polygon fill="none" stroke="limegreen" points="99.25,-522 0,-522 0,-486 99.25,-486 99.25,-522"/>
<text text-anchor="middle" x="49.62" y="-497.82" font-family="Times,serif" font-size="14.00" fill="white">MASWE&#45;0079</text>
</g>
<!-- WE79&#45;&gt;VS1 -->
<g id="edge1" class="edge">
<title>WE79&#45;&gt;VS1</title>
<path fill="none" stroke="#00688b" d="M99.63,-487.54C124.12,-477.19 152.6,-461.64 172,-440 210.93,-396.58 229.67,-329.17 237.64,-290.66"/>
<polygon fill="#00688b" stroke="#00688b" points="241.06,-291.43 239.54,-280.95 234.19,-290.09 241.06,-291.43"/>
<text text-anchor="middle" x="144.62" y="-479.95" font-family="Times,serif" font-size="14.00" fill="white">endangers</text>
</g>
<!-- WE80 -->
<g id="node3" class="node">
<title>WE80</title>
<polygon fill="none" stroke="limegreen" points="99.25,-468 0,-468 0,-432 99.25,-432 99.25,-468"/>
<text text-anchor="middle" x="49.62" y="-443.82" font-family="Times,serif" font-size="14.00" fill="white">MASWE&#45;0080</text>
</g>
<!-- WE80&#45;&gt;VS1 -->
<g id="edge2" class="edge">
<title>WE80&#45;&gt;VS1</title>
<path fill="none" stroke="#00688b" d="M99.63,-431.86C123.54,-421.22 151.49,-405.91 172,-386 200.31,-358.52 220.65,-317.27 232.06,-289.76"/>
<polygon fill="#00688b" stroke="#00688b" points="235.24,-291.23 235.7,-280.65 228.74,-288.63 235.24,-291.23"/>
<text text-anchor="middle" x="144.62" y="-422.99" font-family="Times,serif" font-size="14.00" fill="white">endangers</text>
</g>
<!-- WE81 -->
<g id="node4" class="node">
<title>WE81</title>
<polygon fill="none" stroke="limegreen" points="99.25,-414 0,-414 0,-378 99.25,-378 99.25,-414"/>
<text text-anchor="middle" x="49.62" y="-389.82" font-family="Times,serif" font-size="14.00" fill="white">MASWE&#45;0081</text>
</g>
<!-- WE81&#45;&gt;VS1 -->
<g id="edge3" class="edge">
<title>WE81&#45;&gt;VS1</title>
<path fill="none" stroke="#00688b" d="M97.5,-377.52C121,-367.12 149.23,-352.84 172,-336 190.53,-322.3 208.31,-303.41 221.42,-288.02"/>
<polygon fill="#00688b" stroke="#00688b" points="223.89,-290.52 227.59,-280.59 218.51,-286.04 223.89,-290.52"/>
<text text-anchor="middle" x="144.62" y="-368.94" font-family="Times,serif" font-size="14.00" fill="white">endangers</text>
</g>
<!-- WE82 -->
<g id="node5" class="node">
<title>WE82</title>
<polygon fill="none" stroke="limegreen" points="99.25,-360 0,-360 0,-324 99.25,-324 99.25,-360"/>
<text text-anchor="middle" x="49.62" y="-335.82" font-family="Times,serif" font-size="14.00" fill="white">MASWE&#45;0082</text>
</g>
<!-- WE82&#45;&gt;VS1 -->
<g id="edge4" class="edge">
<title>WE82&#45;&gt;VS1</title>
<path fill="none" stroke="#00688b" d="M99.57,-325.31C121.9,-317.33 148.53,-307.28 172,-297 180.71,-293.18 189.87,-288.81 198.59,-284.46"/>
<polygon fill="#00688b" stroke="#00688b" points="199.9,-287.72 207.24,-280.07 196.74,-281.47 199.9,-287.72"/>
<text text-anchor="middle" x="144.62" y="-319.07" font-family="Times,serif" font-size="14.00" fill="white">endangers</text>
</g>
<!-- WE83 -->
<g id="node6" class="node">
<title>WE83</title>
<polygon fill="none" stroke="limegreen" points="99.25,-306 0,-306 0,-270 99.25,-270 99.25,-306"/>
<text text-anchor="middle" x="49.62" y="-281.82" font-family="Times,serif" font-size="14.00" fill="white">MASWE&#45;0083</text>
</g>
<!-- WE83&#45;&gt;VS1 -->
<g id="edge5" class="edge">
<title>WE83&#45;&gt;VS1</title>
<path fill="none" stroke="#00688b" d="M99.6,-281.12C123.62,-277.74 152.85,-273.63 178.63,-270.01"/>
<polygon fill="#00688b" stroke="#00688b" points="178.9,-273.51 188.32,-268.65 177.93,-266.58 178.9,-273.51"/>
<text text-anchor="middle" x="144.62" y="-279.45" font-family="Times,serif" font-size="14.00" fill="white">endangers</text>
</g>
<!-- WE84 -->
<g id="node7" class="node">
<title>WE84</title>
<polygon fill="none" stroke="limegreen" points="99.25,-252 0,-252 0,-216 99.25,-216 99.25,-252"/>
<text text-anchor="middle" x="49.62" y="-227.82" font-family="Times,serif" font-size="14.00" fill="white">MASWE&#45;0084</text>
</g>
<!-- WE84&#45;&gt;VS1 -->
<g id="edge6" class="edge">
<title>WE84&#45;&gt;VS1</title>
<path fill="none" stroke="#00688b" d="M99.6,-240.88C123.62,-244.26 152.85,-248.37 178.63,-251.99"/>
<polygon fill="#00688b" stroke="#00688b" points="177.93,-255.42 188.32,-253.35 178.9,-248.49 177.93,-255.42"/>
<text text-anchor="middle" x="144.62" y="-251.66" font-family="Times,serif" font-size="14.00" fill="white">endangers</text>
</g>
<!-- WE85 -->
<g id="node8" class="node">
<title>WE85</title>
<polygon fill="none" stroke="gold" points="99.25,-198 0,-198 0,-162 99.25,-162 99.25,-198"/>
<text text-anchor="middle" x="49.62" y="-173.82" font-family="Times,serif" font-size="14.00" fill="white">MASWE&#45;0085</text>
</g>
<!-- WE85&#45;&gt;VS1 -->
<g id="edge7" class="edge">
<title>WE85&#45;&gt;VS1</title>
<path fill="none" stroke="#00688b" d="M99.51,-197.14C121.83,-205.29 148.47,-215.49 172,-225.75 180.23,-229.34 188.86,-233.39 197.17,-237.44"/>
<polygon fill="#00688b" stroke="#00688b" points="195.58,-240.56 206.1,-241.86 198.69,-234.29 195.58,-240.56"/>
<text text-anchor="middle" x="144.62" y="-226.7" font-family="Times,serif" font-size="14.00" fill="white">endangers</text>
</g>
<!-- WE86 -->
<g id="node9" class="node">
<title>WE86</title>
<polygon fill="none" stroke="limegreen" points="99.25,-144 0,-144 0,-108 99.25,-108 99.25,-144"/>
<text text-anchor="middle" x="49.62" y="-119.83" font-family="Times,serif" font-size="14.00" fill="white">MASWE&#45;0086</text>
</g>
<!-- WE86&#45;&gt;VS1 -->
<g id="edge8" class="edge">
<title>WE86&#45;&gt;VS1</title>
<path fill="none" stroke="#00688b" d="M97.81,-144.48C121.25,-154.81 149.34,-168.99 172,-185.75 190.56,-199.48 208.34,-218.43 221.44,-233.88"/>
<polygon fill="#00688b" stroke="#00688b" points="218.54,-235.86 227.61,-241.34 223.93,-231.4 218.54,-235.86"/>
<text text-anchor="middle" x="144.62" y="-186.7" font-family="Times,serif" font-size="14.00" fill="white">endangers</text>
</g>
<!-- WE87 -->
<g id="node10" class="node">
<title>WE87</title>
<polygon fill="none" stroke="gold" points="99.25,-90 0,-90 0,-54 99.25,-54 99.25,-90"/>
<text text-anchor="middle" x="49.62" y="-65.83" font-family="Times,serif" font-size="14.00" fill="white">MASWE&#45;0087</text>
</g>
<!-- WE87&#45;&gt;VS1 -->
<g id="edge9" class="edge">
<title>WE87&#45;&gt;VS1</title>
<path fill="none" stroke="#00688b" d="M99.64,-90.02C123.55,-100.61 151.5,-115.86 172,-135.75 200.36,-163.26 220.69,-204.6 232.08,-232.17"/>
<polygon fill="#00688b" stroke="#00688b" points="228.77,-233.31 235.72,-241.31 235.27,-230.72 228.77,-233.31"/>
<text text-anchor="middle" x="144.62" y="-136.7" font-family="Times,serif" font-size="14.00" fill="white">endangers</text>
</g>
<!-- WE88 -->
<g id="node11" class="node">
<title>WE88</title>
<polygon fill="none" stroke="gold" points="99.25,-36 0,-36 0,0 99.25,0 99.25,-36"/>
<text text-anchor="middle" x="49.62" y="-11.82" font-family="Times,serif" font-size="14.00" fill="white">MASWE&#45;0088</text>
</g>
<!-- WE88&#45;&gt;VS1 -->
<g id="edge10" class="edge">
<title>WE88&#45;&gt;VS1</title>
<path fill="none" stroke="#00688b" d="M99.63,-34.35C124.13,-44.65 152.6,-60.14 172,-81.75 211.01,-125.2 229.71,-192.72 237.67,-231.29"/>
<polygon fill="#00688b" stroke="#00688b" points="234.21,-231.87 239.55,-241.02 241.08,-230.54 234.21,-231.87"/>
<text text-anchor="middle" x="144.62" y="-82.7" font-family="Times,serif" font-size="14.00" fill="white">endangers</text>
</g>
</g>
</svg>
