<?xml version="1.0" encoding="UTF-8" standalone="no"?>
<!DOCTYPE svg PUBLIC "-//W3C//DTD SVG 1.1//EN"
 "http://www.w3.org/Graphics/SVG/1.1/DTD/svg11.dtd">
<!-- Generated by graphviz version 12.1.2 (20240928.0832)
 -->
<!-- Title: G Pages: 1 -->
<svg width="525pt" height="422pt"
 viewBox="0.00 0.00 524.75 422.00" xmlns="http://www.w3.org/2000/svg" xmlns:xlink="http://www.w3.org/1999/xlink">
<g id="graph0" class="graph" transform="scale(1 1) rotate(0) translate(4 418)">
<title>G</title>
<polygon fill="none" stroke="none" points="-4,4 -4,-418 520.75,-418 520.75,4 -4,4"/>
<!-- VS1 -->
<g id="node1" class="node">
<title>VS1</title>
<polygon fill="none" stroke="mediumorchid" points="516.75,-233 381.5,-233 381.5,-197 516.75,-197 516.75,-233"/>
<text text-anchor="middle" x="449.12" y="-208.82" font-family="Times,serif" font-size="14.00" fill="white">MASVS&#45;Resilience&#45;3</text>
</g>
<!-- WE89 -->
<g id="node2" class="node">
<title>WE89</title>
<polygon fill="none" stroke="crimson" points="290.75,-414 191.5,-414 191.5,-378 290.75,-378 290.75,-414"/>
<text text-anchor="middle" x="241.12" y="-389.82" font-family="Times,serif" font-size="14.00" fill="white">MASWE&#45;0089</text>
</g>
<!-- WE89&#45;&gt;VS1 -->
<g id="edge1" class="edge">
<title>WE89&#45;&gt;VS1</title>
<path fill="none" stroke="#00688b" d="M286.61,-377.59C310.96,-366.16 340.72,-349.86 363.5,-330 392.4,-304.8 417.27,-268.06 432.43,-242.94"/>
<polygon fill="#00688b" stroke="#00688b" points="435.3,-244.97 437.36,-234.57 429.27,-241.41 435.3,-244.97"/>
<text text-anchor="middle" x="336.12" y="-366.58" font-family="Times,serif" font-size="14.00" fill="white">endangers</text>
</g>
<!-- WE90 -->
<g id="node3" class="node">
<title>WE90</title>
<polygon fill="none" stroke="crimson" points="290.75,-360 191.5,-360 191.5,-324 290.75,-324 290.75,-360"/>
<text text-anchor="middle" x="241.12" y="-335.82" font-family="Times,serif" font-size="14.00" fill="white">MASWE&#45;0090</text>
</g>
<!-- WE90&#45;&gt;VS1 -->
<g id="edge2" class="edge">
<title>WE90&#45;&gt;VS1</title>
<path fill="none" stroke="#00688b" d="M286.08,-323.52C309.71,-312.88 338.96,-298.55 363.5,-283 383.25,-270.49 403.72,-254.14 419.59,-240.61"/>
<polygon fill="#00688b" stroke="#00688b" points="421.48,-243.6 426.75,-234.41 416.9,-238.31 421.48,-243.6"/>
<text text-anchor="middle" x="336.12" y="-312.46" font-family="Times,serif" font-size="14.00" fill="white">endangers</text>
</g>
<!-- WE91 -->
<g id="node4" class="node">
<title>WE91</title>
<polygon fill="none" stroke="crimson" points="290.75,-306 191.5,-306 191.5,-270 290.75,-270 290.75,-306"/>
<text text-anchor="middle" x="241.12" y="-281.82" font-family="Times,serif" font-size="14.00" fill="white">MASWE&#45;0091</text>
</g>
<!-- WE91&#45;&gt;VS1 -->
<g id="edge3" class="edge">
<title>WE91&#45;&gt;VS1</title>
<path fill="none" stroke="#00688b" d="M291.21,-271.24C313.33,-263.63 339.76,-254.45 363.5,-246 371.39,-243.19 379.68,-240.2 387.86,-237.23"/>
<polygon fill="#00688b" stroke="#00688b" points="388.89,-240.58 397.09,-233.86 386.49,-234 388.89,-240.58"/>
<text text-anchor="middle" x="336.12" y="-265.6" font-family="Times,serif" font-size="14.00" fill="white">endangers</text>
</g>
<!-- WE92 -->
<g id="node5" class="node">
<title>WE92</title>
<polygon fill="none" stroke="crimson" points="290.75,-252 191.5,-252 191.5,-216 290.75,-216 290.75,-252"/>
<text text-anchor="middle" x="241.12" y="-227.82" font-family="Times,serif" font-size="14.00" fill="white">MASWE&#45;0092</text>
</g>
<!-- WE92&#45;&gt;VS1 -->
<g id="edge4" class="edge">
<title>WE92&#45;&gt;VS1</title>
<path fill="none" stroke="#00688b" d="M291.21,-229.47C314.74,-227.3 343.5,-224.65 369.94,-222.21"/>
<polygon fill="#00688b" stroke="#00688b" points="369.97,-225.72 379.61,-221.32 369.33,-218.75 369.97,-225.72"/>
<text text-anchor="middle" x="336.12" y="-228.8" font-family="Times,serif" font-size="14.00" fill="white">endangers</text>
</g>
<!-- WE93 -->
<g id="node6" class="node">
<title>WE93</title>
<polygon fill="none" stroke="crimson" points="290.75,-198 191.5,-198 191.5,-162 290.75,-162 290.75,-198"/>
<text text-anchor="middle" x="241.12" y="-173.82" font-family="Times,serif" font-size="14.00" fill="white">MASWE&#45;0093</text>
</g>
<!-- WE93&#45;&gt;VS1 -->
<g id="edge5" class="edge">
<title>WE93&#45;&gt;VS1</title>
<path fill="none" stroke="#00688b" d="M291.21,-188.34C314.74,-192.34 343.5,-197.22 369.94,-201.72"/>
<polygon fill="#00688b" stroke="#00688b" points="369.18,-205.14 379.62,-203.36 370.35,-198.24 369.18,-205.14"/>
<text text-anchor="middle" x="336.12" y="-200.55" font-family="Times,serif" font-size="14.00" fill="white">endangers</text>
</g>
<!-- WE94 -->
<g id="node7" class="node">
<title>WE94</title>
<polygon fill="none" stroke="crimson" points="290.75,-144 191.5,-144 191.5,-108 290.75,-108 290.75,-144"/>
<text text-anchor="middle" x="241.12" y="-119.83" font-family="Times,serif" font-size="14.00" fill="white">MASWE&#45;0094</text>
</g>
<!-- WE94&#45;&gt;VS1 -->
<g id="edge6" class="edge">
<title>WE94&#45;&gt;VS1</title>
<path fill="none" stroke="#00688b" d="M290.99,-143.61C313.3,-151.96 339.95,-162.36 363.5,-172.75 376.41,-178.44 390.19,-185.08 402.8,-191.38"/>
<polygon fill="#00688b" stroke="#00688b" points="401.22,-194.5 411.72,-195.88 404.37,-188.25 401.22,-194.5"/>
<text text-anchor="middle" x="336.12" y="-173.7" font-family="Times,serif" font-size="14.00" fill="white">endangers</text>
</g>
<!-- WE95 -->
<g id="node8" class="node">
<title>WE95</title>
<polygon fill="none" stroke="crimson" points="290.75,-90 191.5,-90 191.5,-54 290.75,-54 290.75,-90"/>
<text text-anchor="middle" x="241.12" y="-65.83" font-family="Times,serif" font-size="14.00" fill="white">MASWE&#45;0095</text>
</g>
<!-- WE95&#45;&gt;VS1 -->
<g id="edge7" class="edge">
<title>WE95&#45;&gt;VS1</title>
<path fill="none" stroke="#00688b" d="M286.94,-90.43C310.69,-101.17 339.77,-115.9 363.5,-132.75 386.32,-148.96 408.89,-171.3 424.97,-188.61"/>
<polygon fill="#00688b" stroke="#00688b" points="421.97,-190.51 431.3,-195.53 427.14,-185.79 421.97,-190.51"/>
<text text-anchor="middle" x="336.12" y="-133.7" font-family="Times,serif" font-size="14.00" fill="white">endangers</text>
</g>
<!-- WE96 -->
<g id="node9" class="node">
<title>WE96</title>
<polygon fill="none" stroke="crimson" points="290.75,-36 191.5,-36 191.5,0 290.75,0 290.75,-36"/>
<text text-anchor="middle" x="241.12" y="-11.82" font-family="Times,serif" font-size="14.00" fill="white">MASWE&#45;0096</text>
</g>
<!-- WE96&#45;&gt;VS1 -->
<g id="edge8" class="edge">
<title>WE96&#45;&gt;VS1</title>
<path fill="none" stroke="#00688b" d="M289.48,-36.4C313.53,-47.35 342.1,-62.98 363.5,-82.75 395.81,-112.6 421.02,-157.37 435.23,-186.39"/>
<polygon fill="#00688b" stroke="#00688b" points="432.02,-187.79 439.48,-195.31 438.34,-184.78 432.02,-187.79"/>
<text text-anchor="middle" x="336.12" y="-83.7" font-family="Times,serif" font-size="14.00" fill="white">endangers</text>
</g>
<!-- TG219 -->
<g id="node10" class="node">
<title>TG219</title>
<polygon fill="none" stroke="crimson" points="131.5,-252 0,-252 0,-216 131.5,-216 131.5,-252"/>
<text text-anchor="middle" x="65.75" y="-227.82" font-family="Times,serif" font-size="14.00" fill="white">MASTG&#45;TEST&#45;0219</text>
</g>
<!-- TG219&#45;&gt;WE93 -->
<g id="edge9" class="edge">
<title>TG219&#45;&gt;WE93</title>
<path fill="none" stroke="#00688b" d="M125.93,-215.57C143.48,-210.1 162.7,-204.11 180.29,-198.64"/>
<polygon fill="#00688b" stroke="#00688b" points="181.05,-202.07 189.56,-195.75 178.97,-195.38 181.05,-202.07"/>
<text text-anchor="middle" x="161.5" y="-207.95" font-family="Times,serif" font-size="14.00" fill="white">tests</text>
</g>
<!-- TG288 -->
<g id="node11" class="node">
<title>TG288</title>
<polygon fill="none" stroke="crimson" points="131.5,-198 0,-198 0,-162 131.5,-162 131.5,-198"/>
<text text-anchor="middle" x="65.75" y="-173.82" font-family="Times,serif" font-size="14.00" fill="white">MASTG&#45;TEST&#45;0288</text>
</g>
<!-- TG288&#45;&gt;WE93 -->
<g id="edge10" class="edge">
<title>TG288&#45;&gt;WE93</title>
<path fill="none" stroke="#00688b" d="M131.8,-180C147.65,-180 164.53,-180 180.14,-180"/>
<polygon fill="#00688b" stroke="#00688b" points="179.72,-183.5 189.72,-180 179.72,-176.5 179.72,-183.5"/>
<text text-anchor="middle" x="161.5" y="-180.95" font-family="Times,serif" font-size="14.00" fill="white">tests</text>
</g>
<!-- TG263 -->
<g id="node12" class="node">
<title>TG263</title>
<polygon fill="none" stroke="crimson" points="131.5,-144 0,-144 0,-108 131.5,-108 131.5,-144"/>
<text text-anchor="middle" x="65.75" y="-119.83" font-family="Times,serif" font-size="14.00" fill="white">MASTG&#45;TEST&#45;0263</text>
</g>
<!-- TG263&#45;&gt;WE94 -->
<g id="edge11" class="edge">
<title>TG263&#45;&gt;WE94</title>
<path fill="none" stroke="#00688b" d="M131.8,-126C147.65,-126 164.53,-126 180.14,-126"/>
<polygon fill="#00688b" stroke="#00688b" points="179.72,-129.5 189.72,-126 179.72,-122.5 179.72,-129.5"/>
<text text-anchor="middle" x="161.5" y="-126.95" font-family="Times,serif" font-size="14.00" fill="white">tests</text>
</g>
<!-- TG264 -->
<g id="node13" class="node">
<title>TG264</title>
<polygon fill="none" stroke="crimson" points="131.5,-90 0,-90 0,-54 131.5,-54 131.5,-90"/>
<text text-anchor="middle" x="65.75" y="-65.83" font-family="Times,serif" font-size="14.00" fill="white">MASTG&#45;TEST&#45;0264</text>
</g>
<!-- TG264&#45;&gt;WE94 -->
<g id="edge12" class="edge">
<title>TG264&#45;&gt;WE94</title>
<path fill="none" stroke="#00688b" d="M125.93,-90.43C143.48,-95.9 162.7,-101.89 180.29,-107.36"/>
<polygon fill="#00688b" stroke="#00688b" points="178.97,-110.62 189.56,-110.25 181.05,-103.93 178.97,-110.62"/>
<text text-anchor="middle" x="161.5" y="-104.79" font-family="Times,serif" font-size="14.00" fill="white">tests</text>
</g>
<!-- TG265 -->
<g id="node14" class="node">
<title>TG265</title>
<polygon fill="none" stroke="crimson" points="131.5,-36 0,-36 0,0 131.5,0 131.5,-36"/>
<text text-anchor="middle" x="65.75" y="-11.82" font-family="Times,serif" font-size="14.00" fill="white">MASTG&#45;TEST&#45;0265</text>
</g>
<!-- TG265&#45;&gt;WE94 -->
<g id="edge13" class="edge">
<title>TG265&#45;&gt;WE94</title>
<path fill="none" stroke="#00688b" d="M115.65,-36.46C121.13,-39.08 126.52,-41.94 131.5,-45 152.4,-57.82 155.54,-64.06 173.5,-80.75 181.85,-88.51 182.43,-92.11 191.5,-99 192.48,-99.74 193.48,-100.48 194.51,-101.21"/>
<polygon fill="#00688b" stroke="#00688b" points="192.53,-104.1 202.8,-106.68 196.38,-98.26 192.53,-104.1"/>
<text text-anchor="middle" x="161.5" y="-81.7" font-family="Times,serif" font-size="14.00" fill="white">tests</text>
</g>
</g>
</svg>
